%TF.GenerationSoftware,KiCad,Pcbnew,(6.0.5)*%
%TF.CreationDate,2023-09-14T14:32:31-07:00*%
%TF.ProjectId,Monkeys,4d6f6e6b-6579-4732-9e6b-696361645f70,3.7*%
%TF.SameCoordinates,Original*%
%TF.FileFunction,Paste,Bot*%
%TF.FilePolarity,Positive*%
%FSLAX46Y46*%
G04 Gerber Fmt 4.6, Leading zero omitted, Abs format (unit mm)*
G04 Created by KiCad (PCBNEW (6.0.5)) date 2023-09-14 14:32:31*
%MOMM*%
%LPD*%
G01*
G04 APERTURE LIST*
G04 Aperture macros list*
%AMRoundRect*
0 Rectangle with rounded corners*
0 $1 Rounding radius*
0 $2 $3 $4 $5 $6 $7 $8 $9 X,Y pos of 4 corners*
0 Add a 4 corners polygon primitive as box body*
4,1,4,$2,$3,$4,$5,$6,$7,$8,$9,$2,$3,0*
0 Add four circle primitives for the rounded corners*
1,1,$1+$1,$2,$3*
1,1,$1+$1,$4,$5*
1,1,$1+$1,$6,$7*
1,1,$1+$1,$8,$9*
0 Add four rect primitives between the rounded corners*
20,1,$1+$1,$2,$3,$4,$5,0*
20,1,$1+$1,$4,$5,$6,$7,0*
20,1,$1+$1,$6,$7,$8,$9,0*
20,1,$1+$1,$8,$9,$2,$3,0*%
%AMRotRect*
0 Rectangle, with rotation*
0 The origin of the aperture is its center*
0 $1 length*
0 $2 width*
0 $3 Rotation angle, in degrees counterclockwise*
0 Add horizontal line*
21,1,$1,$2,0,0,$3*%
G04 Aperture macros list end*
%ADD10C,0.000100*%
%ADD11RoundRect,0.250000X-0.925000X0.787500X-0.925000X-0.787500X0.925000X-0.787500X0.925000X0.787500X0*%
%ADD12R,0.900000X2.000000*%
%ADD13R,2.000000X0.900000*%
%ADD14R,5.000000X5.000000*%
%ADD15RoundRect,0.150000X-0.150000X0.512500X-0.150000X-0.512500X0.150000X-0.512500X0.150000X0.512500X0*%
%ADD16RotRect,0.400000X1.350000X142.000000*%
%ADD17RoundRect,0.400000X0.147741X-0.623035X0.640270X0.007374X-0.147741X0.623035X-0.640270X-0.007374X0*%
%ADD18RotRect,1.500000X1.550000X142.000000*%
%ADD19RoundRect,0.250000X1.025000X-0.787500X1.025000X0.787500X-1.025000X0.787500X-1.025000X-0.787500X0*%
%ADD20RoundRect,0.150000X-0.825000X-0.150000X0.825000X-0.150000X0.825000X0.150000X-0.825000X0.150000X0*%
%ADD21RoundRect,0.225000X0.225000X0.250000X-0.225000X0.250000X-0.225000X-0.250000X0.225000X-0.250000X0*%
%ADD22R,0.600000X1.000000*%
%ADD23R,1.000000X0.700000*%
%ADD24R,3.600000X1.500000*%
%ADD25RoundRect,0.225000X-0.225000X-0.250000X0.225000X-0.250000X0.225000X0.250000X-0.225000X0.250000X0*%
%ADD26RoundRect,0.250000X-0.787500X-1.025000X0.787500X-1.025000X0.787500X1.025000X-0.787500X1.025000X0*%
%ADD27R,1.200000X2.500000*%
G04 APERTURE END LIST*
D10*
%TO.C,J5*%
X94599838Y-92834830D02*
X94495176Y-92968792D01*
X88135644Y-89738736D02*
X88240306Y-89604774D01*
G36*
X94622789Y-92847685D02*
G01*
X94642046Y-92865268D01*
X94660687Y-92883639D01*
X94678097Y-92903587D01*
X94694103Y-92923706D01*
X94710282Y-92945230D01*
X94723653Y-92967098D01*
X94736409Y-92989754D01*
X94748549Y-93013198D01*
X94758670Y-93037602D01*
X94767387Y-93062179D01*
X94776104Y-93086755D01*
X94782801Y-93112292D01*
X94788095Y-93138002D01*
X94791986Y-93163884D01*
X94794472Y-93189938D01*
X94795555Y-93216164D01*
X94795234Y-93242563D01*
X94792722Y-93268518D01*
X94790210Y-93294474D01*
X94786293Y-93320602D01*
X94780186Y-93346286D01*
X94773290Y-93371355D01*
X94765606Y-93395808D01*
X94755115Y-93420606D01*
X94744452Y-93444001D01*
X94732384Y-93467567D01*
X94718741Y-93489902D01*
X94704310Y-93511622D01*
X94689091Y-93532726D01*
X94350477Y-93966132D01*
X94333682Y-93986004D01*
X94316099Y-94005261D01*
X94297727Y-94023903D01*
X94277780Y-94041313D01*
X94257661Y-94057319D01*
X94236137Y-94073498D01*
X94214269Y-94086869D01*
X94191613Y-94099625D01*
X94168169Y-94111765D01*
X94143765Y-94121885D01*
X94119188Y-94130602D01*
X94094612Y-94139319D01*
X94069075Y-94146017D01*
X94043365Y-94151311D01*
X94017483Y-94155201D01*
X93991429Y-94157688D01*
X93965203Y-94158771D01*
X93938804Y-94158450D01*
X93912848Y-94155938D01*
X93886893Y-94153425D01*
X93860765Y-94149509D01*
X93835081Y-94143401D01*
X93810012Y-94136506D01*
X93785559Y-94128822D01*
X93760761Y-94118331D01*
X93737366Y-94107667D01*
X93713800Y-94095600D01*
X93691465Y-94081957D01*
X93669745Y-94067526D01*
X93648641Y-94052306D01*
X93771773Y-93894704D01*
X93782017Y-93902708D01*
X93792877Y-93909924D01*
X93804353Y-93916351D01*
X93815828Y-93922779D01*
X93828535Y-93927630D01*
X93839838Y-93932654D01*
X93853161Y-93936718D01*
X93865695Y-93940166D01*
X93877441Y-93942998D01*
X93890591Y-93945658D01*
X93903569Y-93946914D01*
X93917163Y-93947382D01*
X93929968Y-93947235D01*
X93942773Y-93947087D01*
X93956194Y-93946152D01*
X93969443Y-93943812D01*
X93981904Y-93940858D01*
X93994365Y-93937903D01*
X94007441Y-93934160D01*
X94019729Y-93929802D01*
X94031845Y-93924039D01*
X94042558Y-93918450D01*
X94053886Y-93912072D01*
X94065829Y-93904906D01*
X94075581Y-93897297D01*
X94086737Y-93889515D01*
X94096317Y-93880502D01*
X94105896Y-93871490D01*
X94114688Y-93861861D01*
X94122691Y-93851617D01*
X94522871Y-93339410D01*
X94530875Y-93329166D01*
X94538090Y-93318306D01*
X94544518Y-93306831D01*
X94550946Y-93295355D01*
X94555797Y-93282648D01*
X94560821Y-93271345D01*
X94564885Y-93258023D01*
X94568333Y-93245488D01*
X94571165Y-93233742D01*
X94573825Y-93220592D01*
X94575081Y-93207614D01*
X94575549Y-93194021D01*
X94575402Y-93181215D01*
X94575254Y-93168410D01*
X94574319Y-93154989D01*
X94571979Y-93141740D01*
X94569025Y-93129279D01*
X94566070Y-93116819D01*
X94562327Y-93103742D01*
X94557969Y-93091454D01*
X94552206Y-93079338D01*
X94546617Y-93068626D01*
X94540239Y-93057298D01*
X94533073Y-93045354D01*
X94525464Y-93035602D01*
X94517682Y-93024446D01*
X94508669Y-93014867D01*
X94499657Y-93005287D01*
X94490028Y-92996496D01*
X94479784Y-92988492D01*
X94602916Y-92830890D01*
X94622789Y-92847685D01*
G37*
X94622789Y-92847685D02*
X94642046Y-92865268D01*
X94660687Y-92883639D01*
X94678097Y-92903587D01*
X94694103Y-92923706D01*
X94710282Y-92945230D01*
X94723653Y-92967098D01*
X94736409Y-92989754D01*
X94748549Y-93013198D01*
X94758670Y-93037602D01*
X94767387Y-93062179D01*
X94776104Y-93086755D01*
X94782801Y-93112292D01*
X94788095Y-93138002D01*
X94791986Y-93163884D01*
X94794472Y-93189938D01*
X94795555Y-93216164D01*
X94795234Y-93242563D01*
X94792722Y-93268518D01*
X94790210Y-93294474D01*
X94786293Y-93320602D01*
X94780186Y-93346286D01*
X94773290Y-93371355D01*
X94765606Y-93395808D01*
X94755115Y-93420606D01*
X94744452Y-93444001D01*
X94732384Y-93467567D01*
X94718741Y-93489902D01*
X94704310Y-93511622D01*
X94689091Y-93532726D01*
X94350477Y-93966132D01*
X94333682Y-93986004D01*
X94316099Y-94005261D01*
X94297727Y-94023903D01*
X94277780Y-94041313D01*
X94257661Y-94057319D01*
X94236137Y-94073498D01*
X94214269Y-94086869D01*
X94191613Y-94099625D01*
X94168169Y-94111765D01*
X94143765Y-94121885D01*
X94119188Y-94130602D01*
X94094612Y-94139319D01*
X94069075Y-94146017D01*
X94043365Y-94151311D01*
X94017483Y-94155201D01*
X93991429Y-94157688D01*
X93965203Y-94158771D01*
X93938804Y-94158450D01*
X93912848Y-94155938D01*
X93886893Y-94153425D01*
X93860765Y-94149509D01*
X93835081Y-94143401D01*
X93810012Y-94136506D01*
X93785559Y-94128822D01*
X93760761Y-94118331D01*
X93737366Y-94107667D01*
X93713800Y-94095600D01*
X93691465Y-94081957D01*
X93669745Y-94067526D01*
X93648641Y-94052306D01*
X93771773Y-93894704D01*
X93782017Y-93902708D01*
X93792877Y-93909924D01*
X93804353Y-93916351D01*
X93815828Y-93922779D01*
X93828535Y-93927630D01*
X93839838Y-93932654D01*
X93853161Y-93936718D01*
X93865695Y-93940166D01*
X93877441Y-93942998D01*
X93890591Y-93945658D01*
X93903569Y-93946914D01*
X93917163Y-93947382D01*
X93929968Y-93947235D01*
X93942773Y-93947087D01*
X93956194Y-93946152D01*
X93969443Y-93943812D01*
X93981904Y-93940858D01*
X93994365Y-93937903D01*
X94007441Y-93934160D01*
X94019729Y-93929802D01*
X94031845Y-93924039D01*
X94042558Y-93918450D01*
X94053886Y-93912072D01*
X94065829Y-93904906D01*
X94075581Y-93897297D01*
X94086737Y-93889515D01*
X94096317Y-93880502D01*
X94105896Y-93871490D01*
X94114688Y-93861861D01*
X94122691Y-93851617D01*
X94522871Y-93339410D01*
X94530875Y-93329166D01*
X94538090Y-93318306D01*
X94544518Y-93306831D01*
X94550946Y-93295355D01*
X94555797Y-93282648D01*
X94560821Y-93271345D01*
X94564885Y-93258023D01*
X94568333Y-93245488D01*
X94571165Y-93233742D01*
X94573825Y-93220592D01*
X94575081Y-93207614D01*
X94575549Y-93194021D01*
X94575402Y-93181215D01*
X94575254Y-93168410D01*
X94574319Y-93154989D01*
X94571979Y-93141740D01*
X94569025Y-93129279D01*
X94566070Y-93116819D01*
X94562327Y-93103742D01*
X94557969Y-93091454D01*
X94552206Y-93079338D01*
X94546617Y-93068626D01*
X94540239Y-93057298D01*
X94533073Y-93045354D01*
X94525464Y-93035602D01*
X94517682Y-93024446D01*
X94508669Y-93014867D01*
X94499657Y-93005287D01*
X94490028Y-92996496D01*
X94479784Y-92988492D01*
X94602916Y-92830890D01*
X94622789Y-92847685D01*
G36*
X88796678Y-88415116D02*
G01*
X88822634Y-88417628D01*
X88848589Y-88420141D01*
X88874717Y-88424057D01*
X88900401Y-88430165D01*
X88925470Y-88437060D01*
X88949923Y-88444744D01*
X88974721Y-88455235D01*
X88998116Y-88465899D01*
X89021682Y-88477966D01*
X89044017Y-88491609D01*
X89065737Y-88506040D01*
X89086841Y-88521260D01*
X88963709Y-88678862D01*
X88953465Y-88670858D01*
X88942605Y-88663642D01*
X88931129Y-88657215D01*
X88919654Y-88650787D01*
X88906947Y-88645936D01*
X88895644Y-88640912D01*
X88882321Y-88636848D01*
X88869787Y-88633400D01*
X88858041Y-88630568D01*
X88844891Y-88627908D01*
X88831913Y-88626652D01*
X88818319Y-88626184D01*
X88805514Y-88626331D01*
X88792709Y-88626479D01*
X88779288Y-88627414D01*
X88766039Y-88629754D01*
X88753578Y-88632708D01*
X88741117Y-88635663D01*
X88728041Y-88639406D01*
X88715753Y-88643764D01*
X88703637Y-88649527D01*
X88692924Y-88655116D01*
X88681596Y-88661494D01*
X88669653Y-88668660D01*
X88659901Y-88676269D01*
X88648745Y-88684051D01*
X88639165Y-88693064D01*
X88629586Y-88702076D01*
X88620794Y-88711705D01*
X88612791Y-88721949D01*
X88212611Y-89234156D01*
X88204607Y-89244400D01*
X88197392Y-89255260D01*
X88190964Y-89266735D01*
X88184536Y-89278211D01*
X88179685Y-89290918D01*
X88174661Y-89302221D01*
X88170597Y-89315543D01*
X88167149Y-89328078D01*
X88164317Y-89339824D01*
X88161657Y-89352974D01*
X88160401Y-89365952D01*
X88159933Y-89379545D01*
X88160080Y-89392351D01*
X88160228Y-89405156D01*
X88161163Y-89418577D01*
X88163503Y-89431826D01*
X88166457Y-89444287D01*
X88169412Y-89456747D01*
X88173155Y-89469824D01*
X88177513Y-89482112D01*
X88183276Y-89494228D01*
X88188865Y-89504940D01*
X88195243Y-89516268D01*
X88202409Y-89528212D01*
X88210018Y-89537964D01*
X88217800Y-89549120D01*
X88226813Y-89558699D01*
X88235825Y-89568279D01*
X88245454Y-89577070D01*
X88255698Y-89585074D01*
X88132566Y-89742676D01*
X88112693Y-89725881D01*
X88093436Y-89708298D01*
X88074795Y-89689927D01*
X88057385Y-89669979D01*
X88041379Y-89649860D01*
X88025200Y-89628336D01*
X88011829Y-89606468D01*
X87999073Y-89583812D01*
X87986933Y-89560368D01*
X87976812Y-89535964D01*
X87968095Y-89511387D01*
X87959378Y-89486811D01*
X87952681Y-89461274D01*
X87947387Y-89435564D01*
X87943496Y-89409682D01*
X87941010Y-89383628D01*
X87939927Y-89357402D01*
X87940248Y-89331003D01*
X87942760Y-89305048D01*
X87945272Y-89279092D01*
X87949189Y-89252964D01*
X87955296Y-89227280D01*
X87962192Y-89202211D01*
X87969876Y-89177758D01*
X87980367Y-89152960D01*
X87991030Y-89129565D01*
X88003098Y-89105999D01*
X88016741Y-89083664D01*
X88031172Y-89061944D01*
X88046391Y-89040840D01*
X88385005Y-88607434D01*
X88401800Y-88587562D01*
X88419383Y-88568305D01*
X88437755Y-88549663D01*
X88457702Y-88532253D01*
X88477821Y-88516247D01*
X88499345Y-88500068D01*
X88521213Y-88486697D01*
X88543869Y-88473941D01*
X88567313Y-88461801D01*
X88591717Y-88451681D01*
X88616294Y-88442964D01*
X88640870Y-88434247D01*
X88666407Y-88427549D01*
X88692117Y-88422255D01*
X88717999Y-88418365D01*
X88744053Y-88415878D01*
X88770279Y-88414795D01*
X88796678Y-88415116D01*
G37*
X88796678Y-88415116D02*
X88822634Y-88417628D01*
X88848589Y-88420141D01*
X88874717Y-88424057D01*
X88900401Y-88430165D01*
X88925470Y-88437060D01*
X88949923Y-88444744D01*
X88974721Y-88455235D01*
X88998116Y-88465899D01*
X89021682Y-88477966D01*
X89044017Y-88491609D01*
X89065737Y-88506040D01*
X89086841Y-88521260D01*
X88963709Y-88678862D01*
X88953465Y-88670858D01*
X88942605Y-88663642D01*
X88931129Y-88657215D01*
X88919654Y-88650787D01*
X88906947Y-88645936D01*
X88895644Y-88640912D01*
X88882321Y-88636848D01*
X88869787Y-88633400D01*
X88858041Y-88630568D01*
X88844891Y-88627908D01*
X88831913Y-88626652D01*
X88818319Y-88626184D01*
X88805514Y-88626331D01*
X88792709Y-88626479D01*
X88779288Y-88627414D01*
X88766039Y-88629754D01*
X88753578Y-88632708D01*
X88741117Y-88635663D01*
X88728041Y-88639406D01*
X88715753Y-88643764D01*
X88703637Y-88649527D01*
X88692924Y-88655116D01*
X88681596Y-88661494D01*
X88669653Y-88668660D01*
X88659901Y-88676269D01*
X88648745Y-88684051D01*
X88639165Y-88693064D01*
X88629586Y-88702076D01*
X88620794Y-88711705D01*
X88612791Y-88721949D01*
X88212611Y-89234156D01*
X88204607Y-89244400D01*
X88197392Y-89255260D01*
X88190964Y-89266735D01*
X88184536Y-89278211D01*
X88179685Y-89290918D01*
X88174661Y-89302221D01*
X88170597Y-89315543D01*
X88167149Y-89328078D01*
X88164317Y-89339824D01*
X88161657Y-89352974D01*
X88160401Y-89365952D01*
X88159933Y-89379545D01*
X88160080Y-89392351D01*
X88160228Y-89405156D01*
X88161163Y-89418577D01*
X88163503Y-89431826D01*
X88166457Y-89444287D01*
X88169412Y-89456747D01*
X88173155Y-89469824D01*
X88177513Y-89482112D01*
X88183276Y-89494228D01*
X88188865Y-89504940D01*
X88195243Y-89516268D01*
X88202409Y-89528212D01*
X88210018Y-89537964D01*
X88217800Y-89549120D01*
X88226813Y-89558699D01*
X88235825Y-89568279D01*
X88245454Y-89577070D01*
X88255698Y-89585074D01*
X88132566Y-89742676D01*
X88112693Y-89725881D01*
X88093436Y-89708298D01*
X88074795Y-89689927D01*
X88057385Y-89669979D01*
X88041379Y-89649860D01*
X88025200Y-89628336D01*
X88011829Y-89606468D01*
X87999073Y-89583812D01*
X87986933Y-89560368D01*
X87976812Y-89535964D01*
X87968095Y-89511387D01*
X87959378Y-89486811D01*
X87952681Y-89461274D01*
X87947387Y-89435564D01*
X87943496Y-89409682D01*
X87941010Y-89383628D01*
X87939927Y-89357402D01*
X87940248Y-89331003D01*
X87942760Y-89305048D01*
X87945272Y-89279092D01*
X87949189Y-89252964D01*
X87955296Y-89227280D01*
X87962192Y-89202211D01*
X87969876Y-89177758D01*
X87980367Y-89152960D01*
X87991030Y-89129565D01*
X88003098Y-89105999D01*
X88016741Y-89083664D01*
X88031172Y-89061944D01*
X88046391Y-89040840D01*
X88385005Y-88607434D01*
X88401800Y-88587562D01*
X88419383Y-88568305D01*
X88437755Y-88549663D01*
X88457702Y-88532253D01*
X88477821Y-88516247D01*
X88499345Y-88500068D01*
X88521213Y-88486697D01*
X88543869Y-88473941D01*
X88567313Y-88461801D01*
X88591717Y-88451681D01*
X88616294Y-88442964D01*
X88640870Y-88434247D01*
X88666407Y-88427549D01*
X88692117Y-88422255D01*
X88717999Y-88418365D01*
X88744053Y-88415878D01*
X88770279Y-88414795D01*
X88796678Y-88415116D01*
%TD*%
D11*
%TO.C,C11*%
X181530000Y-76610000D03*
X181530000Y-81535000D03*
%TD*%
D12*
%TO.C,U6*%
X160575000Y-98400000D03*
X159305000Y-98400000D03*
X158035000Y-98400000D03*
X156765000Y-98400000D03*
X155495000Y-98400000D03*
X154225000Y-98400000D03*
X152955000Y-98400000D03*
X151685000Y-98400000D03*
X150415000Y-98400000D03*
X149145000Y-98400000D03*
X147875000Y-98400000D03*
X146605000Y-98400000D03*
X145335000Y-98400000D03*
X144065000Y-98400000D03*
D13*
X143065000Y-95615000D03*
X143065000Y-94345000D03*
X143065000Y-93075000D03*
X143065000Y-91805000D03*
X143065000Y-90535000D03*
X143065000Y-89265000D03*
X143065000Y-87995000D03*
X143065000Y-86725000D03*
X143065000Y-85455000D03*
X143065000Y-84185000D03*
D12*
X144065000Y-81400000D03*
X145335000Y-81400000D03*
X146605000Y-81400000D03*
X147875000Y-81400000D03*
X149145000Y-81400000D03*
X150415000Y-81400000D03*
X151685000Y-81400000D03*
X152955000Y-81400000D03*
X154225000Y-81400000D03*
X155495000Y-81400000D03*
X156765000Y-81400000D03*
X158035000Y-81400000D03*
X159305000Y-81400000D03*
X160575000Y-81400000D03*
D14*
X153075000Y-90900000D03*
%TD*%
D15*
%TO.C,U7*%
X184210000Y-78740000D03*
X185160000Y-78740000D03*
X186110000Y-78740000D03*
X186110000Y-81015000D03*
X184210000Y-81015000D03*
%TD*%
D16*
%TO.C,J5*%
X94054441Y-89959514D03*
X93542234Y-89559334D03*
X93030027Y-89159154D03*
X92517820Y-88758974D03*
X92005613Y-88358794D03*
D17*
X93820424Y-93203029D03*
D18*
X92155752Y-91902444D03*
X90579730Y-90671122D03*
D17*
X88915058Y-89370537D03*
%TD*%
D19*
%TO.C,C13*%
X206680000Y-76805000D03*
X206680000Y-70580000D03*
%TD*%
D20*
%TO.C,U3*%
X126460000Y-96510000D03*
X126460000Y-95240000D03*
X126460000Y-93970000D03*
X126460000Y-92700000D03*
X126460000Y-91430000D03*
X126460000Y-90160000D03*
X126460000Y-88890000D03*
X126460000Y-87620000D03*
X131410000Y-87620000D03*
X131410000Y-88890000D03*
X131410000Y-90160000D03*
X131410000Y-91430000D03*
X131410000Y-92700000D03*
X131410000Y-93970000D03*
X131410000Y-95240000D03*
X131410000Y-96510000D03*
%TD*%
D21*
%TO.C,FB4*%
X211670000Y-68530000D03*
X210120000Y-68530000D03*
%TD*%
D22*
%TO.C,SW7*%
X193920000Y-81070000D03*
X196920000Y-81070000D03*
X198370000Y-81070000D03*
D23*
X199820000Y-80220000D03*
X192420000Y-80220000D03*
X192420000Y-77920000D03*
X199820000Y-77920000D03*
%TD*%
D24*
%TO.C,L4*%
X189260000Y-78750000D03*
X189260000Y-81800000D03*
%TD*%
D25*
%TO.C,FB3*%
X217835000Y-80100000D03*
X219385000Y-80100000D03*
%TD*%
%TO.C,C10*%
X184290000Y-82800000D03*
X185840000Y-82800000D03*
%TD*%
D26*
%TO.C,C16*%
X209525000Y-81750000D03*
X215750000Y-81750000D03*
%TD*%
D27*
%TO.C,J4*%
X215355000Y-71050000D03*
X218355000Y-71050000D03*
X210255000Y-77550000D03*
X211355000Y-71050000D03*
%TD*%
M02*
