%TF.GenerationSoftware,KiCad,Pcbnew,(6.0.5)*%
%TF.CreationDate,2023-09-14T14:32:31-07:00*%
%TF.ProjectId,Monkeys,4d6f6e6b-6579-4732-9e6b-696361645f70,3.7*%
%TF.SameCoordinates,Original*%
%TF.FileFunction,Paste,Top*%
%TF.FilePolarity,Positive*%
%FSLAX46Y46*%
G04 Gerber Fmt 4.6, Leading zero omitted, Abs format (unit mm)*
G04 Created by KiCad (PCBNEW (6.0.5)) date 2023-09-14 14:32:31*
%MOMM*%
%LPD*%
G01*
G04 APERTURE LIST*
G04 Aperture macros list*
%AMRoundRect*
0 Rectangle with rounded corners*
0 $1 Rounding radius*
0 $2 $3 $4 $5 $6 $7 $8 $9 X,Y pos of 4 corners*
0 Add a 4 corners polygon primitive as box body*
4,1,4,$2,$3,$4,$5,$6,$7,$8,$9,$2,$3,0*
0 Add four circle primitives for the rounded corners*
1,1,$1+$1,$2,$3*
1,1,$1+$1,$4,$5*
1,1,$1+$1,$6,$7*
1,1,$1+$1,$8,$9*
0 Add four rect primitives between the rounded corners*
20,1,$1+$1,$2,$3,$4,$5,0*
20,1,$1+$1,$4,$5,$6,$7,0*
20,1,$1+$1,$6,$7,$8,$9,0*
20,1,$1+$1,$8,$9,$2,$3,0*%
G04 Aperture macros list end*
%ADD10RoundRect,0.218750X0.330141X0.067252X-0.014614X0.336604X-0.330141X-0.067252X0.014614X-0.336604X0*%
%ADD11RoundRect,0.140000X-0.140000X-0.170000X0.140000X-0.170000X0.140000X0.170000X-0.140000X0.170000X0*%
%ADD12R,0.500000X0.500000*%
%ADD13R,0.700000X1.000000*%
%ADD14RoundRect,0.140000X-0.170000X0.140000X-0.170000X-0.140000X0.170000X-0.140000X0.170000X0.140000X0*%
%ADD15RoundRect,0.140000X0.140000X0.170000X-0.140000X0.170000X-0.140000X-0.170000X0.140000X-0.170000X0*%
%ADD16RoundRect,0.150000X0.150000X-0.587500X0.150000X0.587500X-0.150000X0.587500X-0.150000X-0.587500X0*%
%ADD17RoundRect,0.135000X-0.185000X0.135000X-0.185000X-0.135000X0.185000X-0.135000X0.185000X0.135000X0*%
%ADD18RoundRect,0.135000X-0.135000X-0.185000X0.135000X-0.185000X0.135000X0.185000X-0.135000X0.185000X0*%
%ADD19R,1.800000X1.000000*%
%ADD20RoundRect,0.250000X0.787500X0.925000X-0.787500X0.925000X-0.787500X-0.925000X0.787500X-0.925000X0*%
%ADD21RoundRect,0.250000X0.262500X0.450000X-0.262500X0.450000X-0.262500X-0.450000X0.262500X-0.450000X0*%
%ADD22RoundRect,0.225000X-0.225000X-0.250000X0.225000X-0.250000X0.225000X0.250000X-0.225000X0.250000X0*%
%ADD23R,0.340000X0.340000*%
%ADD24R,0.610000X0.280000*%
%ADD25R,0.280000X0.610000*%
%ADD26R,1.700000X1.700000*%
%ADD27RoundRect,0.140000X0.170000X-0.140000X0.170000X0.140000X-0.170000X0.140000X-0.170000X-0.140000X0*%
%ADD28RoundRect,0.140000X-0.219203X-0.021213X-0.021213X-0.219203X0.219203X0.021213X0.021213X0.219203X0*%
%ADD29RoundRect,0.275000X-0.475000X-0.275000X0.475000X-0.275000X0.475000X0.275000X-0.475000X0.275000X0*%
%ADD30R,0.600000X1.000000*%
%ADD31R,1.000000X0.700000*%
%ADD32RoundRect,0.135000X0.185000X-0.135000X0.185000X0.135000X-0.185000X0.135000X-0.185000X-0.135000X0*%
%ADD33RoundRect,0.160000X-0.160000X-0.160000X0.160000X-0.160000X0.160000X0.160000X-0.160000X0.160000X0*%
%ADD34RoundRect,0.062500X-0.375000X-0.062500X0.375000X-0.062500X0.375000X0.062500X-0.375000X0.062500X0*%
%ADD35RoundRect,0.062500X-0.062500X-0.375000X0.062500X-0.375000X0.062500X0.375000X-0.062500X0.375000X0*%
%ADD36RoundRect,0.250000X-0.250000X-0.475000X0.250000X-0.475000X0.250000X0.475000X-0.250000X0.475000X0*%
%ADD37RoundRect,0.135000X0.135000X0.185000X-0.135000X0.185000X-0.135000X-0.185000X0.135000X-0.185000X0*%
%ADD38RoundRect,0.225000X-0.017678X0.335876X-0.335876X0.017678X0.017678X-0.335876X0.335876X-0.017678X0*%
%ADD39RoundRect,0.200000X-0.275000X0.200000X-0.275000X-0.200000X0.275000X-0.200000X0.275000X0.200000X0*%
%ADD40RoundRect,0.140000X0.216559X-0.040029X0.080812X0.204864X-0.216559X0.040029X-0.080812X-0.204864X0*%
%ADD41RoundRect,0.150000X-0.512500X-0.150000X0.512500X-0.150000X0.512500X0.150000X-0.512500X0.150000X0*%
%ADD42RoundRect,0.147500X0.147500X0.172500X-0.147500X0.172500X-0.147500X-0.172500X0.147500X-0.172500X0*%
%ADD43R,0.450000X0.700000*%
%ADD44R,1.000000X1.700000*%
%ADD45RoundRect,0.237500X0.287500X0.237500X-0.287500X0.237500X-0.287500X-0.237500X0.287500X-0.237500X0*%
%ADD46RoundRect,0.200000X0.275000X-0.200000X0.275000X0.200000X-0.275000X0.200000X-0.275000X-0.200000X0*%
%ADD47R,1.550000X1.300000*%
%ADD48RoundRect,0.150000X-0.150000X0.587500X-0.150000X-0.587500X0.150000X-0.587500X0.150000X0.587500X0*%
%ADD49R,1.300000X1.550000*%
%ADD50R,0.700000X0.970000*%
%ADD51R,0.700000X0.250000*%
%ADD52R,1.000000X1.800000*%
%ADD53RoundRect,0.243750X0.243750X0.456250X-0.243750X0.456250X-0.243750X-0.456250X0.243750X-0.456250X0*%
%ADD54RoundRect,0.200000X-0.200000X-0.275000X0.200000X-0.275000X0.200000X0.275000X-0.200000X0.275000X0*%
%ADD55RoundRect,0.250000X-0.483900X-0.192994X-0.070195X-0.516216X0.483900X0.192994X0.070195X0.516216X0*%
%ADD56RoundRect,0.250000X-0.192994X0.483900X-0.516216X0.070195X0.192994X-0.483900X0.516216X-0.070195X0*%
%ADD57RoundRect,0.250000X-0.375000X-0.625000X0.375000X-0.625000X0.375000X0.625000X-0.375000X0.625000X0*%
%ADD58RoundRect,0.243750X0.472973X0.209462X0.088818X0.509597X-0.472973X-0.209462X-0.088818X-0.509597X0*%
%ADD59RoundRect,0.150000X-0.825000X-0.150000X0.825000X-0.150000X0.825000X0.150000X-0.825000X0.150000X0*%
G04 APERTURE END LIST*
D10*
%TO.C,D10*%
X93440558Y-87884833D03*
X92199442Y-86915167D03*
%TD*%
D11*
%TO.C,C43*%
X199282019Y-58640000D03*
X200242019Y-58640000D03*
%TD*%
D12*
%TO.C,D3*%
X111897011Y-70790000D03*
D13*
X110817011Y-71040000D03*
X113827011Y-71040000D03*
D12*
X112747011Y-70790000D03*
%TD*%
D14*
%TO.C,C22*%
X196600000Y-66940000D03*
X196600000Y-67900000D03*
%TD*%
D15*
%TO.C,C25*%
X130459000Y-98260000D03*
X129499000Y-98260000D03*
%TD*%
D16*
%TO.C,Q6*%
X148200000Y-69387500D03*
X150100000Y-69387500D03*
X149150000Y-67512500D03*
%TD*%
D17*
%TO.C,R21*%
X142380000Y-95270000D03*
X142380000Y-96290000D03*
%TD*%
D18*
%TO.C,R10*%
X152710000Y-83300000D03*
X153730000Y-83300000D03*
%TD*%
D19*
%TO.C,Y1*%
X193940000Y-67280000D03*
X193940000Y-69780000D03*
%TD*%
D15*
%TO.C,C44*%
X199892970Y-60492502D03*
X198932970Y-60492502D03*
%TD*%
D20*
%TO.C,C2*%
X158745000Y-98200000D03*
X153820000Y-98200000D03*
%TD*%
D21*
%TO.C,R5*%
X105820002Y-88660001D03*
X103995002Y-88660001D03*
%TD*%
D22*
%TO.C,C40*%
X143980000Y-64070000D03*
X145530000Y-64070000D03*
%TD*%
D23*
%TO.C,IC1*%
X201154000Y-69728000D03*
D24*
X201244000Y-69213000D03*
X201244000Y-68713000D03*
X201244000Y-68213000D03*
X201244000Y-67713000D03*
D23*
X201154000Y-67198000D03*
D25*
X200639000Y-67108000D03*
X200139000Y-67108000D03*
X199639000Y-67108000D03*
X199139000Y-67108000D03*
D23*
X198624000Y-67198000D03*
D24*
X198534000Y-67713000D03*
X198534000Y-68213000D03*
X198534000Y-68713000D03*
X198534000Y-69213000D03*
D23*
X198624000Y-69728000D03*
D25*
X199139000Y-69818000D03*
X199639000Y-69818000D03*
X200139000Y-69818000D03*
X200639000Y-69818000D03*
D26*
X199889000Y-68463000D03*
%TD*%
D11*
%TO.C,C15*%
X204570000Y-68140000D03*
X205530000Y-68140000D03*
%TD*%
D27*
%TO.C,C42*%
X194272972Y-55542503D03*
X194272972Y-54582503D03*
%TD*%
D21*
%TO.C,R2*%
X107745000Y-82500000D03*
X105920000Y-82500000D03*
%TD*%
D18*
%TO.C,R1*%
X121615000Y-81830000D03*
X122635000Y-81830000D03*
%TD*%
D11*
%TO.C,C18*%
X191155000Y-76350000D03*
X192115000Y-76350000D03*
%TD*%
D17*
%TO.C,R22*%
X134470000Y-90850000D03*
X134470000Y-91870000D03*
%TD*%
D28*
%TO.C,C19*%
X192000589Y-88260589D03*
X192679411Y-88939411D03*
%TD*%
D29*
%TO.C,U5*%
X136190000Y-64170000D03*
X136190000Y-66710000D03*
X142490000Y-66710000D03*
X142490000Y-64170000D03*
%TD*%
D30*
%TO.C,SW5*%
X107245000Y-68255000D03*
X104245000Y-68255000D03*
X102795000Y-68255000D03*
D31*
X108745000Y-65105000D03*
X101345000Y-67405000D03*
X101345000Y-65105000D03*
X108745000Y-67405000D03*
%TD*%
D32*
%TO.C,R30*%
X162870000Y-65100000D03*
X162870000Y-64080000D03*
%TD*%
D33*
%TO.C,U1*%
X102520000Y-84000000D03*
X103320000Y-83200000D03*
X103320000Y-84000000D03*
X102520000Y-83200000D03*
D34*
X101482500Y-82850000D03*
X101482500Y-83350000D03*
X101482500Y-83850000D03*
X101482500Y-84350000D03*
D35*
X102170000Y-85037500D03*
X102670000Y-85037500D03*
X103170000Y-85037500D03*
X103670000Y-85037500D03*
D34*
X104357500Y-84350000D03*
X104357500Y-83850000D03*
X104357500Y-83350000D03*
X104357500Y-82850000D03*
D35*
X103670000Y-82162500D03*
X103170000Y-82162500D03*
X102670000Y-82162500D03*
X102170000Y-82162500D03*
%TD*%
D36*
%TO.C,C29*%
X112720000Y-82020000D03*
X114620000Y-82020000D03*
%TD*%
D11*
%TO.C,C37*%
X151490000Y-95110000D03*
X152450000Y-95110000D03*
%TD*%
D37*
%TO.C,R40*%
X199942970Y-55842502D03*
X198922970Y-55842502D03*
%TD*%
D27*
%TO.C,C32*%
X144168000Y-98970000D03*
X144168000Y-98010000D03*
%TD*%
D38*
%TO.C,C34*%
X99728008Y-83061992D03*
X98631992Y-84158008D03*
%TD*%
D12*
%TO.C,D6*%
X191660000Y-78760000D03*
D13*
X190580000Y-79010000D03*
X193590000Y-79010000D03*
D12*
X192510000Y-78760000D03*
%TD*%
D39*
%TO.C,R28*%
X159620000Y-84285000D03*
X159620000Y-85935000D03*
%TD*%
D15*
%TO.C,C4*%
X94777011Y-68900000D03*
X93817011Y-68900000D03*
%TD*%
D12*
%TO.C,D5*%
X175480000Y-86050000D03*
D31*
X175230000Y-84970000D03*
X175230000Y-87980000D03*
D12*
X175480000Y-86900000D03*
%TD*%
D16*
%TO.C,Q3*%
X140320000Y-93777500D03*
X142220000Y-93777500D03*
X141270000Y-91902500D03*
%TD*%
D40*
%TO.C,C38*%
X123170982Y-92571987D03*
X122705564Y-91732353D03*
%TD*%
D11*
%TO.C,C1*%
X153260000Y-101600000D03*
X154220000Y-101600000D03*
%TD*%
D12*
%TO.C,D7*%
X196920000Y-88190000D03*
D13*
X198000000Y-87940000D03*
X194990000Y-87940000D03*
D12*
X196070000Y-88190000D03*
%TD*%
D27*
%TO.C,C12*%
X119909999Y-86224996D03*
X119909999Y-85264996D03*
%TD*%
D15*
%TO.C,C36*%
X154320000Y-95110000D03*
X153360000Y-95110000D03*
%TD*%
D14*
%TO.C,C41*%
X124900001Y-64879996D03*
X124900001Y-65839996D03*
%TD*%
D41*
%TO.C,U2*%
X111720000Y-85900000D03*
X111720000Y-86850000D03*
X111720000Y-87800000D03*
X113995000Y-87800000D03*
X113995000Y-85900000D03*
%TD*%
D27*
%TO.C,C24*%
X195620000Y-70090000D03*
X195620000Y-69130000D03*
%TD*%
D15*
%TO.C,C21*%
X197840000Y-65300000D03*
X196880000Y-65300000D03*
%TD*%
D11*
%TO.C,C20*%
X198690000Y-77040000D03*
X199650000Y-77040000D03*
%TD*%
D42*
%TO.C,D1*%
X155880000Y-83310000D03*
X154910000Y-83310000D03*
%TD*%
D15*
%TO.C,C46*%
X192502020Y-59000002D03*
X191542020Y-59000002D03*
%TD*%
%TO.C,C45*%
X192532019Y-57690000D03*
X191572019Y-57690000D03*
%TD*%
D11*
%TO.C,C26*%
X190910000Y-70860000D03*
X191870000Y-70860000D03*
%TD*%
D43*
%TO.C,Q1*%
X98675611Y-68199500D03*
X99975611Y-68199500D03*
X99325611Y-66199500D03*
%TD*%
D44*
%TO.C,SW6*%
X186810000Y-66320000D03*
X186810000Y-72620000D03*
X183010000Y-66320000D03*
X183010000Y-72620000D03*
%TD*%
D45*
%TO.C,L1*%
X205160000Y-69390001D03*
X203410000Y-69390001D03*
%TD*%
D46*
%TO.C,R9*%
X145299998Y-83590001D03*
X145299998Y-81940001D03*
%TD*%
D11*
%TO.C,C6*%
X112015000Y-69320000D03*
X112975000Y-69320000D03*
%TD*%
D14*
%TO.C,C39*%
X196580000Y-68900000D03*
X196580000Y-69860000D03*
%TD*%
D36*
%TO.C,C33*%
X105220000Y-80500000D03*
X107120000Y-80500000D03*
%TD*%
D47*
%TO.C,SW4*%
X123570000Y-75310000D03*
X131530000Y-75310000D03*
X131530000Y-79810000D03*
X123570000Y-79810000D03*
%TD*%
D48*
%TO.C,Q5*%
X137640000Y-91375000D03*
X135740000Y-91375000D03*
X136690000Y-93250000D03*
%TD*%
D12*
%TO.C,D2*%
X93307011Y-70630000D03*
D13*
X92227011Y-70880000D03*
X95237011Y-70880000D03*
D12*
X94157011Y-70630000D03*
%TD*%
D49*
%TO.C,SW3*%
X207270000Y-85050000D03*
X207270000Y-93010000D03*
X202770000Y-85050000D03*
X202770000Y-93010000D03*
%TD*%
D48*
%TO.C,Q4*%
X141100000Y-95842500D03*
X139200000Y-95842500D03*
X140150000Y-97717500D03*
%TD*%
D50*
%TO.C,U8*%
X195367969Y-57572500D03*
X196262969Y-58747500D03*
X195367969Y-58747500D03*
X196262969Y-57572500D03*
D51*
X194337969Y-56960000D03*
X194337969Y-57360000D03*
X194337969Y-57760000D03*
X194337969Y-58160000D03*
X194337969Y-58560000D03*
X194337969Y-58960000D03*
X194337969Y-59360000D03*
X197287969Y-59360000D03*
X197287969Y-58960000D03*
X197287969Y-58560000D03*
X197287969Y-58160000D03*
X197287969Y-57760000D03*
X197287969Y-57360000D03*
X197287969Y-56960000D03*
%TD*%
D17*
%TO.C,R39*%
X197422970Y-54492501D03*
X197422970Y-55512501D03*
%TD*%
D11*
%TO.C,C7*%
X214370000Y-70370000D03*
X215330000Y-70370000D03*
%TD*%
D37*
%TO.C,R14*%
X217690000Y-74420000D03*
X216670000Y-74420000D03*
%TD*%
D14*
%TO.C,C23*%
X195610000Y-66970000D03*
X195610000Y-67930000D03*
%TD*%
D52*
%TO.C,Y2*%
X151660000Y-93450000D03*
X154160000Y-93450000D03*
%TD*%
D14*
%TO.C,C3*%
X110210000Y-86370000D03*
X110210000Y-87330000D03*
%TD*%
D17*
%TO.C,R16*%
X207010000Y-71710000D03*
X207010000Y-72730000D03*
%TD*%
D47*
%TO.C,SW2*%
X89060000Y-77960000D03*
X97020000Y-77960000D03*
X89060000Y-82460000D03*
X97020000Y-82460000D03*
%TD*%
D22*
%TO.C,C27*%
X158440000Y-94880000D03*
X159990000Y-94880000D03*
%TD*%
D37*
%TO.C,R17*%
X217700000Y-73400000D03*
X216680000Y-73400000D03*
%TD*%
D11*
%TO.C,C5*%
X113920000Y-79100000D03*
X114880000Y-79100000D03*
%TD*%
D27*
%TO.C,C8*%
X218680000Y-74390000D03*
X218680000Y-73430000D03*
%TD*%
D53*
%TO.C,D12*%
X110707500Y-89640000D03*
X108832500Y-89640000D03*
%TD*%
D18*
%TO.C,R7*%
X121855000Y-83340000D03*
X122875000Y-83340000D03*
%TD*%
D48*
%TO.C,Q2*%
X137640000Y-95240000D03*
X135740000Y-95240000D03*
X136690000Y-97115000D03*
%TD*%
D11*
%TO.C,C31*%
X113315000Y-80300000D03*
X114275000Y-80300000D03*
%TD*%
D54*
%TO.C,R29*%
X150400000Y-85970000D03*
X152050000Y-85970000D03*
%TD*%
D17*
%TO.C,R19*%
X158470000Y-101890000D03*
X158470000Y-102910000D03*
%TD*%
%TO.C,R13*%
X97450000Y-66610000D03*
X97450000Y-67630000D03*
%TD*%
D45*
%TO.C,L3*%
X191960000Y-69620000D03*
X190210000Y-69620000D03*
%TD*%
D32*
%TO.C,R31*%
X143950000Y-66710000D03*
X143950000Y-65690000D03*
%TD*%
D54*
%TO.C,R26*%
X154290000Y-81280000D03*
X155940000Y-81280000D03*
%TD*%
D17*
%TO.C,R18*%
X208184000Y-71510000D03*
X208184000Y-72530000D03*
%TD*%
D27*
%TO.C,C17*%
X177450000Y-87470000D03*
X177450000Y-86510000D03*
%TD*%
D49*
%TO.C,SW1*%
X81660000Y-78310000D03*
X81660000Y-70350000D03*
X86160000Y-70350000D03*
X86160000Y-78310000D03*
%TD*%
D17*
%TO.C,R20*%
X138950000Y-92840000D03*
X138950000Y-93860000D03*
%TD*%
D36*
%TO.C,C30*%
X113270000Y-84000000D03*
X115170000Y-84000000D03*
%TD*%
D55*
%TO.C,R4*%
X89980940Y-89278209D03*
X91419060Y-90401791D03*
%TD*%
D56*
%TO.C,R6*%
X93481819Y-91083105D03*
X92358237Y-92521225D03*
%TD*%
D57*
%TO.C,D11*%
X164250000Y-64540000D03*
X167050000Y-64540000D03*
%TD*%
D58*
%TO.C,D9*%
X96158760Y-89977183D03*
X94681240Y-88822817D03*
%TD*%
D37*
%TO.C,R11*%
X217710000Y-72370000D03*
X216690000Y-72370000D03*
%TD*%
D12*
%TO.C,D8*%
X200360000Y-78790000D03*
D13*
X199280000Y-79040000D03*
X202290000Y-79040000D03*
D12*
X201210000Y-78790000D03*
%TD*%
D15*
%TO.C,C14*%
X217630000Y-75540000D03*
X216670000Y-75540000D03*
%TD*%
D59*
%TO.C,U4*%
X209960000Y-71745000D03*
X209960000Y-73015000D03*
X209960000Y-74285000D03*
X209960000Y-75555000D03*
X214910000Y-75555000D03*
X214910000Y-74285000D03*
X214910000Y-73015000D03*
X214910000Y-71745000D03*
%TD*%
D37*
%TO.C,R38*%
X200250000Y-57282502D03*
X199230000Y-57282502D03*
%TD*%
D12*
%TO.C,D4*%
X122010000Y-86610000D03*
D31*
X122260000Y-87690000D03*
X122260000Y-84680000D03*
D12*
X122010000Y-85760000D03*
%TD*%
D45*
%TO.C,L2*%
X191990000Y-68120000D03*
X190240000Y-68120000D03*
%TD*%
D37*
%TO.C,R23*%
X217660000Y-76530000D03*
X216640000Y-76530000D03*
%TD*%
D14*
%TO.C,C9*%
X205910000Y-71740000D03*
X205910000Y-72700000D03*
%TD*%
D37*
%TO.C,R15*%
X210070000Y-70370000D03*
X209050000Y-70370000D03*
%TD*%
%TO.C,R37*%
X114250000Y-65050000D03*
X113230000Y-65050000D03*
%TD*%
D22*
%TO.C,C35*%
X106045000Y-84200000D03*
X107595000Y-84200000D03*
%TD*%
D32*
%TO.C,R34*%
X125920004Y-65869999D03*
X125920004Y-64849999D03*
%TD*%
D37*
%TO.C,R33*%
X125920001Y-63879999D03*
X124900001Y-63879999D03*
%TD*%
D46*
%TO.C,R3*%
X102620000Y-80250000D03*
X102620000Y-78600000D03*
%TD*%
D17*
%TO.C,R36*%
X202110002Y-64280001D03*
X202110002Y-65300001D03*
%TD*%
D39*
%TO.C,R27*%
X158080000Y-84290000D03*
X158080000Y-85940000D03*
%TD*%
D11*
%TO.C,C28*%
X151040000Y-100300000D03*
X152000000Y-100300000D03*
%TD*%
D46*
%TO.C,R8*%
X143760002Y-82729999D03*
X143760002Y-81079999D03*
%TD*%
D37*
%TO.C,R24*%
X215730000Y-76890000D03*
X214710000Y-76890000D03*
%TD*%
%TO.C,R12*%
X99863011Y-69640200D03*
X98843011Y-69640200D03*
%TD*%
M02*
