%TF.GenerationSoftware,KiCad,Pcbnew,(6.0.5)*%
%TF.CreationDate,2023-09-14T14:32:31-07:00*%
%TF.ProjectId,Monkeys,4d6f6e6b-6579-4732-9e6b-696361645f70,3.7*%
%TF.SameCoordinates,Original*%
%TF.FileFunction,Profile,NP*%
%FSLAX46Y46*%
G04 Gerber Fmt 4.6, Leading zero omitted, Abs format (unit mm)*
G04 Created by KiCad (PCBNEW (6.0.5)) date 2023-09-14 14:32:31*
%MOMM*%
%LPD*%
G01*
G04 APERTURE LIST*
%TA.AperFunction,Profile*%
%ADD10C,0.100000*%
%TD*%
G04 APERTURE END LIST*
D10*
X177690000Y-89660000D02*
X177170000Y-90590000D01*
X153680000Y-53460000D02*
X154830000Y-53680000D01*
X93290000Y-56920000D02*
X95110000Y-56070000D01*
X184750000Y-94590000D02*
X183200000Y-93660000D01*
X113260000Y-94210000D02*
X111330000Y-95170000D01*
X222660000Y-77660000D02*
X222630000Y-78020000D01*
X122890000Y-96160000D02*
X122270000Y-95320000D01*
X170410000Y-99310000D02*
X168630000Y-99880000D01*
X100350000Y-96550000D02*
X97800000Y-96370000D01*
X100100000Y-49300000D02*
X102000000Y-49140000D01*
X122270000Y-95320000D02*
X122170000Y-95180000D01*
X121580000Y-94020000D02*
X119590000Y-90030000D01*
X211120000Y-91830000D02*
X209070000Y-93570000D01*
X149910000Y-108870000D02*
X146760000Y-108770000D01*
X145460000Y-52950000D02*
X148440000Y-52770000D01*
X158320000Y-106800000D02*
X155770000Y-107970000D01*
X110400000Y-54240000D02*
X110990000Y-55300000D01*
X154830000Y-53680000D02*
X158900000Y-55010000D01*
X108660000Y-50360000D02*
X109330000Y-51170000D01*
X97060000Y-51440000D02*
X97700000Y-50390000D01*
X96130000Y-55550000D02*
X96290000Y-55030000D01*
X133670000Y-103070000D02*
X132840000Y-102130000D01*
X219060000Y-82300000D02*
X220360000Y-81680000D01*
X201200000Y-51960000D02*
X203480000Y-53570000D01*
X222800000Y-74770000D02*
X222770000Y-76350000D01*
X172230000Y-98120000D02*
X170410000Y-99310000D01*
X96690000Y-52880000D02*
X97060000Y-51440000D01*
X109720000Y-51890000D02*
X109940000Y-53070000D01*
X85460000Y-88040000D02*
X84530000Y-86300000D01*
X176660000Y-91750000D02*
X175380000Y-94300000D01*
X187320000Y-95680000D02*
X184750000Y-94590000D01*
X199310000Y-97480000D02*
X195830000Y-97490000D01*
X98580000Y-49730000D02*
X100100000Y-49300000D01*
X146210000Y-108750000D02*
X145590000Y-108710000D01*
X104060000Y-49190000D02*
X105700000Y-49270000D01*
X154540000Y-108390000D02*
X153430000Y-108660000D01*
X83800000Y-65530000D02*
X85480000Y-63400000D01*
X148440000Y-52770000D02*
X149970000Y-52770000D01*
X205970000Y-95490000D02*
X202040000Y-97070000D01*
X125540000Y-98680000D02*
X123430000Y-96710000D01*
X222490000Y-78640000D02*
X222370000Y-78960000D01*
X220360000Y-81680000D02*
X220980000Y-81040000D01*
X81160000Y-68320000D02*
X83800000Y-65530000D01*
X217950000Y-65970000D02*
X219980000Y-67770000D01*
X137880000Y-54530000D02*
X140190000Y-53740000D01*
X144720000Y-108660000D02*
X143780000Y-108560000D01*
X219980000Y-67770000D02*
X221320000Y-69130000D01*
X131560000Y-101170000D02*
X127920000Y-100120000D01*
X173880000Y-96470000D02*
X172230000Y-98120000D01*
X95110000Y-56070000D02*
X95900000Y-55850000D01*
X143090000Y-108430000D02*
X142260000Y-108220000D01*
X111656000Y-55617000D02*
X134770000Y-55617000D01*
X207440000Y-94760000D02*
X205970000Y-95490000D01*
X95790000Y-96010000D02*
X92210000Y-94260000D01*
X103090000Y-96480000D02*
X100350000Y-96550000D01*
X79300000Y-78840000D02*
X78580000Y-77400000D01*
X135810000Y-55460000D02*
X137880000Y-54530000D01*
X168630000Y-99880000D02*
X167920000Y-99920000D01*
X165860000Y-101000000D02*
X163250000Y-103430000D01*
X217890000Y-83320000D02*
X217330000Y-83890000D01*
X109940000Y-53070000D02*
X110400000Y-54240000D01*
X175380000Y-94300000D02*
X173880000Y-96470000D01*
X135630000Y-104580000D02*
X133670000Y-103070000D01*
X216870000Y-84510000D02*
X215590000Y-86700000D01*
X146760000Y-108770000D02*
X146210000Y-108750000D01*
X221820000Y-80010000D02*
X220980000Y-81040000D01*
X107500000Y-49540000D02*
X108060000Y-49860000D01*
X151050000Y-52880000D02*
X152470000Y-53130000D01*
X83430000Y-83640000D02*
X82940000Y-82770000D01*
X141100000Y-107760000D02*
X139690000Y-107080000D01*
X209660000Y-56860000D02*
X211710000Y-58800000D01*
X219060000Y-82300000D02*
X217890000Y-83320000D01*
X97700000Y-50390000D02*
X98580000Y-49730000D01*
X79460000Y-70230000D02*
X81160000Y-68320000D01*
X197400000Y-49150000D02*
X198180000Y-49270000D01*
X185062000Y-55617000D02*
X187820000Y-54280000D01*
X181690000Y-92520000D02*
X179580000Y-90590000D01*
X151940000Y-108820000D02*
X149910000Y-108870000D01*
X177170000Y-90590000D02*
X176660000Y-91750000D01*
X187820000Y-54280000D02*
X189220000Y-53230000D01*
X119590000Y-90030000D02*
X119410000Y-90030000D01*
X122170000Y-95180000D02*
X121580000Y-94020000D01*
X78330000Y-71990000D02*
X79460000Y-70230000D01*
X222370000Y-78960000D02*
X221820000Y-80010000D01*
X108060000Y-49860000D02*
X108660000Y-50360000D01*
X83740000Y-84520000D02*
X83430000Y-83640000D01*
X178000000Y-89400000D02*
X177690000Y-89660000D01*
X140190000Y-53740000D02*
X142610000Y-53280000D01*
X166790000Y-100270000D02*
X165860000Y-101000000D01*
X105830000Y-96300000D02*
X103090000Y-96480000D01*
X214640000Y-62220000D02*
X215630000Y-63570000D01*
X216140000Y-64410000D02*
X216810000Y-65180000D01*
X216810000Y-65180000D02*
X217950000Y-65970000D01*
X215590000Y-86700000D02*
X214300000Y-88380000D01*
X82940000Y-82770000D02*
X80750000Y-80880000D01*
X88620000Y-59740000D02*
X90360000Y-58640000D01*
X198790000Y-49610000D02*
X201200000Y-51960000D01*
X97800000Y-96370000D02*
X95790000Y-96010000D01*
X92210000Y-94260000D02*
X90110000Y-92960000D01*
X142260000Y-108220000D02*
X141100000Y-107760000D01*
X183200000Y-93660000D02*
X181690000Y-92520000D01*
X212980000Y-89920000D02*
X211120000Y-91830000D01*
X86020000Y-89020000D02*
X85460000Y-88040000D01*
X108230000Y-95940000D02*
X105830000Y-96300000D01*
X78330000Y-71990000D02*
X77930000Y-73530000D01*
X109330000Y-51170000D02*
X109720000Y-51890000D01*
X202040000Y-97070000D02*
X200890000Y-97370000D01*
X115440000Y-92900000D02*
X113260000Y-94210000D01*
X167920000Y-99920000D02*
X166790000Y-100270000D01*
X200890000Y-97370000D02*
X199310000Y-97480000D01*
X77930000Y-73530000D02*
X78000000Y-75400000D01*
X217330000Y-83890000D02*
X216870000Y-84510000D01*
X96290000Y-55030000D02*
X96550000Y-53660000D01*
X96550000Y-53660000D02*
X96690000Y-52880000D01*
X142610000Y-53280000D02*
X145460000Y-52950000D01*
X110990000Y-55300000D02*
X111656000Y-55617000D01*
X193680000Y-49090000D02*
X197400000Y-49150000D01*
X90360000Y-58640000D02*
X90910000Y-58240000D01*
X90110000Y-92960000D02*
X87490000Y-90760000D01*
X153430000Y-108660000D02*
X151940000Y-108820000D01*
X189220000Y-53230000D02*
X190670000Y-52000000D01*
X111330000Y-95170000D02*
X108230000Y-95940000D01*
X221320000Y-69130000D02*
X222340000Y-70510000D01*
X95900000Y-55850000D02*
X96130000Y-55550000D01*
X209070000Y-93570000D02*
X207440000Y-94760000D01*
X178450000Y-89640000D02*
X178000000Y-89400000D01*
X152470000Y-53130000D02*
X153680000Y-53460000D01*
X192110000Y-97120000D02*
X187320000Y-95680000D01*
X138330000Y-106320000D02*
X135630000Y-104580000D01*
X92210000Y-57510000D02*
X93290000Y-56920000D01*
X134770000Y-55617000D02*
X135810000Y-55460000D01*
X160790000Y-105320000D02*
X158320000Y-106800000D01*
X222650000Y-71160000D02*
X222740000Y-71780000D01*
X195830000Y-97490000D02*
X194330000Y-97380000D01*
X145590000Y-108710000D02*
X144720000Y-108660000D01*
X222340000Y-70510000D02*
X222650000Y-71160000D01*
X222830000Y-73200000D02*
X222800000Y-74770000D01*
X198180000Y-49270000D02*
X198790000Y-49610000D01*
X127920000Y-100120000D02*
X125540000Y-98680000D01*
X160805000Y-55617000D02*
X185062000Y-55617000D01*
X163250000Y-103430000D02*
X160790000Y-105320000D01*
X207180000Y-55400000D02*
X209660000Y-56860000D01*
X132840000Y-102130000D02*
X131560000Y-101170000D01*
X215630000Y-63570000D02*
X216140000Y-64410000D01*
X155770000Y-107970000D02*
X154540000Y-108390000D01*
X203480000Y-53570000D02*
X207180000Y-55400000D01*
X214300000Y-88380000D02*
X212980000Y-89920000D01*
X84530000Y-86300000D02*
X83740000Y-84520000D01*
X86500000Y-89590000D02*
X86020000Y-89020000D01*
X106780000Y-49380000D02*
X107500000Y-49540000D01*
X87550000Y-60800000D02*
X88620000Y-59740000D01*
X119410000Y-90030000D02*
X117720000Y-91150000D01*
X213380000Y-60700000D02*
X214640000Y-62220000D01*
X102000000Y-49140000D02*
X104060000Y-49190000D01*
X179580000Y-90590000D02*
X178450000Y-89640000D01*
X139690000Y-107080000D02*
X138330000Y-106320000D01*
X143780000Y-108560000D02*
X143090000Y-108430000D01*
X105700000Y-49270000D02*
X106780000Y-49380000D01*
X158900000Y-55010000D02*
X160805000Y-55617000D01*
X211710000Y-58800000D02*
X213380000Y-60700000D01*
X222770000Y-76350000D02*
X222660000Y-77660000D01*
X194330000Y-97380000D02*
X192110000Y-97120000D01*
X78580000Y-77400000D02*
X78000000Y-75400000D01*
X87490000Y-90760000D02*
X86500000Y-89590000D01*
X80750000Y-80880000D02*
X79300000Y-78840000D01*
X85480000Y-63400000D02*
X87550000Y-60800000D01*
X149970000Y-52770000D02*
X151050000Y-52880000D01*
X90910000Y-58240000D02*
X92210000Y-57510000D01*
X222740000Y-71780000D02*
X222830000Y-73200000D01*
X222490000Y-78640000D02*
X222630000Y-78020000D01*
X123430000Y-96710000D02*
X122890000Y-96160000D01*
X117720000Y-91150000D02*
X115440000Y-92900000D01*
X190670000Y-52000000D02*
X193680000Y-49090000D01*
M02*
