%TF.GenerationSoftware,KiCad,Pcbnew,(6.0.5)*%
%TF.CreationDate,2022-11-12T14:57:53-08:00*%
%TF.ProjectId,Monkeys,4d6f6e6b-6579-4732-9e6b-696361645f70,2.2*%
%TF.SameCoordinates,Original*%
%TF.FileFunction,AssemblyDrawing,Bot*%
%FSLAX46Y46*%
G04 Gerber Fmt 4.6, Leading zero omitted, Abs format (unit mm)*
G04 Created by KiCad (PCBNEW (6.0.5)) date 2022-11-12 14:57:53*
%MOMM*%
%LPD*%
G01*
G04 APERTURE LIST*
%ADD10C,0.100000*%
%ADD11C,0.150000*%
%ADD12C,0.300000*%
%ADD13C,0.400000*%
%ADD14C,0.098425*%
%ADD15C,0.125000*%
%ADD16C,0.127000*%
%ADD17C,0.200000*%
%ADD18C,0.120000*%
G04 APERTURE END LIST*
D10*
D11*
X177002200Y-166007200D02*
X177002200Y-198007200D01*
X285002200Y-198007200D01*
X285002200Y-166007200D01*
X177002200Y-166007200D01*
D10*
D11*
X10000000Y-10000000D02*
X10000000Y-200007200D01*
X287002200Y-200007200D01*
X287002200Y-10000000D01*
X10000000Y-10000000D01*
D10*
D11*
X12000000Y-12000000D02*
X12000000Y-198007200D01*
X285002200Y-198007200D01*
X285002200Y-12000000D01*
X12000000Y-12000000D01*
D10*
D11*
X60000000Y-12000000D02*
X60000000Y-10000000D01*
D10*
D11*
X110000000Y-12000000D02*
X110000000Y-10000000D01*
D10*
D11*
X160000000Y-12000000D02*
X160000000Y-10000000D01*
D10*
D11*
X210000000Y-12000000D02*
X210000000Y-10000000D01*
D10*
D11*
X260000000Y-12000000D02*
X260000000Y-10000000D01*
D10*
D11*
X36065476Y-11588095D02*
X35322619Y-11588095D01*
X35694047Y-11588095D02*
X35694047Y-10288095D01*
X35570238Y-10473809D01*
X35446428Y-10597619D01*
X35322619Y-10659523D01*
D10*
D11*
X85322619Y-10411904D02*
X85384523Y-10350000D01*
X85508333Y-10288095D01*
X85817857Y-10288095D01*
X85941666Y-10350000D01*
X86003571Y-10411904D01*
X86065476Y-10535714D01*
X86065476Y-10659523D01*
X86003571Y-10845238D01*
X85260714Y-11588095D01*
X86065476Y-11588095D01*
D10*
D11*
X135260714Y-10288095D02*
X136065476Y-10288095D01*
X135632142Y-10783333D01*
X135817857Y-10783333D01*
X135941666Y-10845238D01*
X136003571Y-10907142D01*
X136065476Y-11030952D01*
X136065476Y-11340476D01*
X136003571Y-11464285D01*
X135941666Y-11526190D01*
X135817857Y-11588095D01*
X135446428Y-11588095D01*
X135322619Y-11526190D01*
X135260714Y-11464285D01*
D10*
D11*
X185941666Y-10721428D02*
X185941666Y-11588095D01*
X185632142Y-10226190D02*
X185322619Y-11154761D01*
X186127380Y-11154761D01*
D10*
D11*
X236003571Y-10288095D02*
X235384523Y-10288095D01*
X235322619Y-10907142D01*
X235384523Y-10845238D01*
X235508333Y-10783333D01*
X235817857Y-10783333D01*
X235941666Y-10845238D01*
X236003571Y-10907142D01*
X236065476Y-11030952D01*
X236065476Y-11340476D01*
X236003571Y-11464285D01*
X235941666Y-11526190D01*
X235817857Y-11588095D01*
X235508333Y-11588095D01*
X235384523Y-11526190D01*
X235322619Y-11464285D01*
D10*
D11*
X285941666Y-10288095D02*
X285694047Y-10288095D01*
X285570238Y-10350000D01*
X285508333Y-10411904D01*
X285384523Y-10597619D01*
X285322619Y-10845238D01*
X285322619Y-11340476D01*
X285384523Y-11464285D01*
X285446428Y-11526190D01*
X285570238Y-11588095D01*
X285817857Y-11588095D01*
X285941666Y-11526190D01*
X286003571Y-11464285D01*
X286065476Y-11340476D01*
X286065476Y-11030952D01*
X286003571Y-10907142D01*
X285941666Y-10845238D01*
X285817857Y-10783333D01*
X285570238Y-10783333D01*
X285446428Y-10845238D01*
X285384523Y-10907142D01*
X285322619Y-11030952D01*
D10*
D11*
X60000000Y-198007200D02*
X60000000Y-200007200D01*
D10*
D11*
X110000000Y-198007200D02*
X110000000Y-200007200D01*
D10*
D11*
X160000000Y-198007200D02*
X160000000Y-200007200D01*
D10*
D11*
X210000000Y-198007200D02*
X210000000Y-200007200D01*
D10*
D11*
X260000000Y-198007200D02*
X260000000Y-200007200D01*
D10*
D11*
X36065476Y-199595295D02*
X35322619Y-199595295D01*
X35694047Y-199595295D02*
X35694047Y-198295295D01*
X35570238Y-198481009D01*
X35446428Y-198604819D01*
X35322619Y-198666723D01*
D10*
D11*
X85322619Y-198419104D02*
X85384523Y-198357200D01*
X85508333Y-198295295D01*
X85817857Y-198295295D01*
X85941666Y-198357200D01*
X86003571Y-198419104D01*
X86065476Y-198542914D01*
X86065476Y-198666723D01*
X86003571Y-198852438D01*
X85260714Y-199595295D01*
X86065476Y-199595295D01*
D10*
D11*
X135260714Y-198295295D02*
X136065476Y-198295295D01*
X135632142Y-198790533D01*
X135817857Y-198790533D01*
X135941666Y-198852438D01*
X136003571Y-198914342D01*
X136065476Y-199038152D01*
X136065476Y-199347676D01*
X136003571Y-199471485D01*
X135941666Y-199533390D01*
X135817857Y-199595295D01*
X135446428Y-199595295D01*
X135322619Y-199533390D01*
X135260714Y-199471485D01*
D10*
D11*
X185941666Y-198728628D02*
X185941666Y-199595295D01*
X185632142Y-198233390D02*
X185322619Y-199161961D01*
X186127380Y-199161961D01*
D10*
D11*
X236003571Y-198295295D02*
X235384523Y-198295295D01*
X235322619Y-198914342D01*
X235384523Y-198852438D01*
X235508333Y-198790533D01*
X235817857Y-198790533D01*
X235941666Y-198852438D01*
X236003571Y-198914342D01*
X236065476Y-199038152D01*
X236065476Y-199347676D01*
X236003571Y-199471485D01*
X235941666Y-199533390D01*
X235817857Y-199595295D01*
X235508333Y-199595295D01*
X235384523Y-199533390D01*
X235322619Y-199471485D01*
D10*
D11*
X285941666Y-198295295D02*
X285694047Y-198295295D01*
X285570238Y-198357200D01*
X285508333Y-198419104D01*
X285384523Y-198604819D01*
X285322619Y-198852438D01*
X285322619Y-199347676D01*
X285384523Y-199471485D01*
X285446428Y-199533390D01*
X285570238Y-199595295D01*
X285817857Y-199595295D01*
X285941666Y-199533390D01*
X286003571Y-199471485D01*
X286065476Y-199347676D01*
X286065476Y-199038152D01*
X286003571Y-198914342D01*
X285941666Y-198852438D01*
X285817857Y-198790533D01*
X285570238Y-198790533D01*
X285446428Y-198852438D01*
X285384523Y-198914342D01*
X285322619Y-199038152D01*
D10*
D11*
X10000000Y-60000000D02*
X12000000Y-60000000D01*
D10*
D11*
X10000000Y-110000000D02*
X12000000Y-110000000D01*
D10*
D11*
X10000000Y-160000000D02*
X12000000Y-160000000D01*
D10*
D11*
X10690476Y-35216666D02*
X11309523Y-35216666D01*
X10566666Y-35588095D02*
X11000000Y-34288095D01*
X11433333Y-35588095D01*
D10*
D11*
X11092857Y-84907142D02*
X11278571Y-84969047D01*
X11340476Y-85030952D01*
X11402380Y-85154761D01*
X11402380Y-85340476D01*
X11340476Y-85464285D01*
X11278571Y-85526190D01*
X11154761Y-85588095D01*
X10659523Y-85588095D01*
X10659523Y-84288095D01*
X11092857Y-84288095D01*
X11216666Y-84350000D01*
X11278571Y-84411904D01*
X11340476Y-84535714D01*
X11340476Y-84659523D01*
X11278571Y-84783333D01*
X11216666Y-84845238D01*
X11092857Y-84907142D01*
X10659523Y-84907142D01*
D10*
D11*
X11402380Y-135464285D02*
X11340476Y-135526190D01*
X11154761Y-135588095D01*
X11030952Y-135588095D01*
X10845238Y-135526190D01*
X10721428Y-135402380D01*
X10659523Y-135278571D01*
X10597619Y-135030952D01*
X10597619Y-134845238D01*
X10659523Y-134597619D01*
X10721428Y-134473809D01*
X10845238Y-134350000D01*
X11030952Y-134288095D01*
X11154761Y-134288095D01*
X11340476Y-134350000D01*
X11402380Y-134411904D01*
D10*
D11*
X10659523Y-185588095D02*
X10659523Y-184288095D01*
X10969047Y-184288095D01*
X11154761Y-184350000D01*
X11278571Y-184473809D01*
X11340476Y-184597619D01*
X11402380Y-184845238D01*
X11402380Y-185030952D01*
X11340476Y-185278571D01*
X11278571Y-185402380D01*
X11154761Y-185526190D01*
X10969047Y-185588095D01*
X10659523Y-185588095D01*
D10*
D11*
X287002200Y-60000000D02*
X285002200Y-60000000D01*
D10*
D11*
X287002200Y-110000000D02*
X285002200Y-110000000D01*
D10*
D11*
X287002200Y-160000000D02*
X285002200Y-160000000D01*
D10*
D11*
X285692676Y-35216666D02*
X286311723Y-35216666D01*
X285568866Y-35588095D02*
X286002200Y-34288095D01*
X286435533Y-35588095D01*
D10*
D11*
X286095057Y-84907142D02*
X286280771Y-84969047D01*
X286342676Y-85030952D01*
X286404580Y-85154761D01*
X286404580Y-85340476D01*
X286342676Y-85464285D01*
X286280771Y-85526190D01*
X286156961Y-85588095D01*
X285661723Y-85588095D01*
X285661723Y-84288095D01*
X286095057Y-84288095D01*
X286218866Y-84350000D01*
X286280771Y-84411904D01*
X286342676Y-84535714D01*
X286342676Y-84659523D01*
X286280771Y-84783333D01*
X286218866Y-84845238D01*
X286095057Y-84907142D01*
X285661723Y-84907142D01*
D10*
D11*
X286404580Y-135464285D02*
X286342676Y-135526190D01*
X286156961Y-135588095D01*
X286033152Y-135588095D01*
X285847438Y-135526190D01*
X285723628Y-135402380D01*
X285661723Y-135278571D01*
X285599819Y-135030952D01*
X285599819Y-134845238D01*
X285661723Y-134597619D01*
X285723628Y-134473809D01*
X285847438Y-134350000D01*
X286033152Y-134288095D01*
X286156961Y-134288095D01*
X286342676Y-134350000D01*
X286404580Y-134411904D01*
D10*
D11*
X285661723Y-185588095D02*
X285661723Y-184288095D01*
X285971247Y-184288095D01*
X286156961Y-184350000D01*
X286280771Y-184473809D01*
X286342676Y-184597619D01*
X286404580Y-184845238D01*
X286404580Y-185030952D01*
X286342676Y-185278571D01*
X286280771Y-185402380D01*
X286156961Y-185526190D01*
X285971247Y-185588095D01*
X285661723Y-185588095D01*
D10*
D11*
X200434342Y-193785771D02*
X200434342Y-192285771D01*
X200791485Y-192285771D01*
X201005771Y-192357200D01*
X201148628Y-192500057D01*
X201220057Y-192642914D01*
X201291485Y-192928628D01*
X201291485Y-193142914D01*
X201220057Y-193428628D01*
X201148628Y-193571485D01*
X201005771Y-193714342D01*
X200791485Y-193785771D01*
X200434342Y-193785771D01*
X202577200Y-193785771D02*
X202577200Y-193000057D01*
X202505771Y-192857200D01*
X202362914Y-192785771D01*
X202077200Y-192785771D01*
X201934342Y-192857200D01*
X202577200Y-193714342D02*
X202434342Y-193785771D01*
X202077200Y-193785771D01*
X201934342Y-193714342D01*
X201862914Y-193571485D01*
X201862914Y-193428628D01*
X201934342Y-193285771D01*
X202077200Y-193214342D01*
X202434342Y-193214342D01*
X202577200Y-193142914D01*
X203077200Y-192785771D02*
X203648628Y-192785771D01*
X203291485Y-192285771D02*
X203291485Y-193571485D01*
X203362914Y-193714342D01*
X203505771Y-193785771D01*
X203648628Y-193785771D01*
X204720057Y-193714342D02*
X204577200Y-193785771D01*
X204291485Y-193785771D01*
X204148628Y-193714342D01*
X204077200Y-193571485D01*
X204077200Y-193000057D01*
X204148628Y-192857200D01*
X204291485Y-192785771D01*
X204577200Y-192785771D01*
X204720057Y-192857200D01*
X204791485Y-193000057D01*
X204791485Y-193142914D01*
X204077200Y-193285771D01*
X205434342Y-193642914D02*
X205505771Y-193714342D01*
X205434342Y-193785771D01*
X205362914Y-193714342D01*
X205434342Y-193642914D01*
X205434342Y-193785771D01*
X205434342Y-192857200D02*
X205505771Y-192928628D01*
X205434342Y-193000057D01*
X205362914Y-192928628D01*
X205434342Y-192857200D01*
X205434342Y-193000057D01*
X207220057Y-192428628D02*
X207291485Y-192357200D01*
X207434342Y-192285771D01*
X207791485Y-192285771D01*
X207934342Y-192357200D01*
X208005771Y-192428628D01*
X208077200Y-192571485D01*
X208077200Y-192714342D01*
X208005771Y-192928628D01*
X207148628Y-193785771D01*
X208077200Y-193785771D01*
X209005771Y-192285771D02*
X209148628Y-192285771D01*
X209291485Y-192357200D01*
X209362914Y-192428628D01*
X209434342Y-192571485D01*
X209505771Y-192857200D01*
X209505771Y-193214342D01*
X209434342Y-193500057D01*
X209362914Y-193642914D01*
X209291485Y-193714342D01*
X209148628Y-193785771D01*
X209005771Y-193785771D01*
X208862914Y-193714342D01*
X208791485Y-193642914D01*
X208720057Y-193500057D01*
X208648628Y-193214342D01*
X208648628Y-192857200D01*
X208720057Y-192571485D01*
X208791485Y-192428628D01*
X208862914Y-192357200D01*
X209005771Y-192285771D01*
X210077200Y-192428628D02*
X210148628Y-192357200D01*
X210291485Y-192285771D01*
X210648628Y-192285771D01*
X210791485Y-192357200D01*
X210862914Y-192428628D01*
X210934342Y-192571485D01*
X210934342Y-192714342D01*
X210862914Y-192928628D01*
X210005771Y-193785771D01*
X210934342Y-193785771D01*
X211505771Y-192428628D02*
X211577200Y-192357200D01*
X211720057Y-192285771D01*
X212077200Y-192285771D01*
X212220057Y-192357200D01*
X212291485Y-192428628D01*
X212362914Y-192571485D01*
X212362914Y-192714342D01*
X212291485Y-192928628D01*
X211434342Y-193785771D01*
X212362914Y-193785771D01*
X213005771Y-193214342D02*
X214148628Y-193214342D01*
X215648628Y-193785771D02*
X214791485Y-193785771D01*
X215220057Y-193785771D02*
X215220057Y-192285771D01*
X215077200Y-192500057D01*
X214934342Y-192642914D01*
X214791485Y-192714342D01*
X217077200Y-193785771D02*
X216220057Y-193785771D01*
X216648628Y-193785771D02*
X216648628Y-192285771D01*
X216505771Y-192500057D01*
X216362914Y-192642914D01*
X216220057Y-192714342D01*
X217720057Y-193214342D02*
X218862914Y-193214342D01*
X220362914Y-193785771D02*
X219505771Y-193785771D01*
X219934342Y-193785771D02*
X219934342Y-192285771D01*
X219791485Y-192500057D01*
X219648628Y-192642914D01*
X219505771Y-192714342D01*
X220934342Y-192428628D02*
X221005771Y-192357200D01*
X221148628Y-192285771D01*
X221505771Y-192285771D01*
X221648628Y-192357200D01*
X221720057Y-192428628D01*
X221791485Y-192571485D01*
X221791485Y-192714342D01*
X221720057Y-192928628D01*
X220862914Y-193785771D01*
X221791485Y-193785771D01*
D10*
D11*
X177002200Y-194507200D02*
X285002200Y-194507200D01*
D10*
D11*
X178434342Y-196585771D02*
X178434342Y-195085771D01*
X179291485Y-196585771D02*
X178648628Y-195728628D01*
X179291485Y-195085771D02*
X178434342Y-195942914D01*
X179934342Y-196585771D02*
X179934342Y-195585771D01*
X179934342Y-195085771D02*
X179862914Y-195157200D01*
X179934342Y-195228628D01*
X180005771Y-195157200D01*
X179934342Y-195085771D01*
X179934342Y-195228628D01*
X181505771Y-196442914D02*
X181434342Y-196514342D01*
X181220057Y-196585771D01*
X181077200Y-196585771D01*
X180862914Y-196514342D01*
X180720057Y-196371485D01*
X180648628Y-196228628D01*
X180577200Y-195942914D01*
X180577200Y-195728628D01*
X180648628Y-195442914D01*
X180720057Y-195300057D01*
X180862914Y-195157200D01*
X181077200Y-195085771D01*
X181220057Y-195085771D01*
X181434342Y-195157200D01*
X181505771Y-195228628D01*
X182791485Y-196585771D02*
X182791485Y-195800057D01*
X182720057Y-195657200D01*
X182577200Y-195585771D01*
X182291485Y-195585771D01*
X182148628Y-195657200D01*
X182791485Y-196514342D02*
X182648628Y-196585771D01*
X182291485Y-196585771D01*
X182148628Y-196514342D01*
X182077200Y-196371485D01*
X182077200Y-196228628D01*
X182148628Y-196085771D01*
X182291485Y-196014342D01*
X182648628Y-196014342D01*
X182791485Y-195942914D01*
X184148628Y-196585771D02*
X184148628Y-195085771D01*
X184148628Y-196514342D02*
X184005771Y-196585771D01*
X183720057Y-196585771D01*
X183577200Y-196514342D01*
X183505771Y-196442914D01*
X183434342Y-196300057D01*
X183434342Y-195871485D01*
X183505771Y-195728628D01*
X183577200Y-195657200D01*
X183720057Y-195585771D01*
X184005771Y-195585771D01*
X184148628Y-195657200D01*
X186005771Y-195800057D02*
X186505771Y-195800057D01*
X186720057Y-196585771D02*
X186005771Y-196585771D01*
X186005771Y-195085771D01*
X186720057Y-195085771D01*
X187362914Y-196442914D02*
X187434342Y-196514342D01*
X187362914Y-196585771D01*
X187291485Y-196514342D01*
X187362914Y-196442914D01*
X187362914Y-196585771D01*
X188077200Y-196585771D02*
X188077200Y-195085771D01*
X188434342Y-195085771D01*
X188648628Y-195157200D01*
X188791485Y-195300057D01*
X188862914Y-195442914D01*
X188934342Y-195728628D01*
X188934342Y-195942914D01*
X188862914Y-196228628D01*
X188791485Y-196371485D01*
X188648628Y-196514342D01*
X188434342Y-196585771D01*
X188077200Y-196585771D01*
X189577200Y-196442914D02*
X189648628Y-196514342D01*
X189577200Y-196585771D01*
X189505771Y-196514342D01*
X189577200Y-196442914D01*
X189577200Y-196585771D01*
X190220057Y-196157200D02*
X190934342Y-196157200D01*
X190077200Y-196585771D02*
X190577200Y-195085771D01*
X191077200Y-196585771D01*
X191577200Y-196442914D02*
X191648628Y-196514342D01*
X191577200Y-196585771D01*
X191505771Y-196514342D01*
X191577200Y-196442914D01*
X191577200Y-196585771D01*
X194577200Y-196585771D02*
X194577200Y-195085771D01*
X194720057Y-196014342D02*
X195148628Y-196585771D01*
X195148628Y-195585771D02*
X194577200Y-196157200D01*
X195791485Y-196585771D02*
X195791485Y-195585771D01*
X195791485Y-195085771D02*
X195720057Y-195157200D01*
X195791485Y-195228628D01*
X195862914Y-195157200D01*
X195791485Y-195085771D01*
X195791485Y-195228628D01*
X197148628Y-196514342D02*
X197005771Y-196585771D01*
X196720057Y-196585771D01*
X196577200Y-196514342D01*
X196505771Y-196442914D01*
X196434342Y-196300057D01*
X196434342Y-195871485D01*
X196505771Y-195728628D01*
X196577200Y-195657200D01*
X196720057Y-195585771D01*
X197005771Y-195585771D01*
X197148628Y-195657200D01*
X198434342Y-196585771D02*
X198434342Y-195800057D01*
X198362914Y-195657200D01*
X198220057Y-195585771D01*
X197934342Y-195585771D01*
X197791485Y-195657200D01*
X198434342Y-196514342D02*
X198291485Y-196585771D01*
X197934342Y-196585771D01*
X197791485Y-196514342D01*
X197720057Y-196371485D01*
X197720057Y-196228628D01*
X197791485Y-196085771D01*
X197934342Y-196014342D01*
X198291485Y-196014342D01*
X198434342Y-195942914D01*
X199791485Y-196585771D02*
X199791485Y-195085771D01*
X199791485Y-196514342D02*
X199648628Y-196585771D01*
X199362914Y-196585771D01*
X199220057Y-196514342D01*
X199148628Y-196442914D01*
X199077200Y-196300057D01*
X199077200Y-195871485D01*
X199148628Y-195728628D01*
X199220057Y-195657200D01*
X199362914Y-195585771D01*
X199648628Y-195585771D01*
X199791485Y-195657200D01*
X202077200Y-197157200D02*
X202005771Y-197085771D01*
X201862914Y-196871485D01*
X201791485Y-196728628D01*
X201720057Y-196514342D01*
X201648628Y-196157200D01*
X201648628Y-195871485D01*
X201720057Y-195514342D01*
X201791485Y-195300057D01*
X201862914Y-195157200D01*
X202005771Y-194942914D01*
X202077200Y-194871485D01*
X203291485Y-195085771D02*
X203005771Y-195085771D01*
X202862914Y-195157200D01*
X202791485Y-195228628D01*
X202648628Y-195442914D01*
X202577200Y-195728628D01*
X202577200Y-196300057D01*
X202648628Y-196442914D01*
X202720057Y-196514342D01*
X202862914Y-196585771D01*
X203148628Y-196585771D01*
X203291485Y-196514342D01*
X203362914Y-196442914D01*
X203434342Y-196300057D01*
X203434342Y-195942914D01*
X203362914Y-195800057D01*
X203291485Y-195728628D01*
X203148628Y-195657200D01*
X202862914Y-195657200D01*
X202720057Y-195728628D01*
X202648628Y-195800057D01*
X202577200Y-195942914D01*
X204077200Y-196442914D02*
X204148628Y-196514342D01*
X204077200Y-196585771D01*
X204005771Y-196514342D01*
X204077200Y-196442914D01*
X204077200Y-196585771D01*
X205077200Y-195085771D02*
X205220057Y-195085771D01*
X205362914Y-195157200D01*
X205434342Y-195228628D01*
X205505771Y-195371485D01*
X205577200Y-195657200D01*
X205577200Y-196014342D01*
X205505771Y-196300057D01*
X205434342Y-196442914D01*
X205362914Y-196514342D01*
X205220057Y-196585771D01*
X205077200Y-196585771D01*
X204934342Y-196514342D01*
X204862914Y-196442914D01*
X204791485Y-196300057D01*
X204720057Y-196014342D01*
X204720057Y-195657200D01*
X204791485Y-195371485D01*
X204862914Y-195228628D01*
X204934342Y-195157200D01*
X205077200Y-195085771D01*
X206220057Y-196442914D02*
X206291485Y-196514342D01*
X206220057Y-196585771D01*
X206148628Y-196514342D01*
X206220057Y-196442914D01*
X206220057Y-196585771D01*
X207648628Y-195085771D02*
X206934342Y-195085771D01*
X206862914Y-195800057D01*
X206934342Y-195728628D01*
X207077200Y-195657200D01*
X207434342Y-195657200D01*
X207577200Y-195728628D01*
X207648628Y-195800057D01*
X207720057Y-195942914D01*
X207720057Y-196300057D01*
X207648628Y-196442914D01*
X207577200Y-196514342D01*
X207434342Y-196585771D01*
X207077200Y-196585771D01*
X206934342Y-196514342D01*
X206862914Y-196442914D01*
X208220057Y-197157200D02*
X208291485Y-197085771D01*
X208434342Y-196871485D01*
X208505771Y-196728628D01*
X208577200Y-196514342D01*
X208648628Y-196157200D01*
X208648628Y-195871485D01*
X208577200Y-195514342D01*
X208505771Y-195300057D01*
X208434342Y-195157200D01*
X208291485Y-194942914D01*
X208220057Y-194871485D01*
D10*
D11*
X177002200Y-191507200D02*
X285002200Y-191507200D01*
D10*
D12*
X264411485Y-193785771D02*
X263911485Y-193071485D01*
X263554342Y-193785771D02*
X263554342Y-192285771D01*
X264125771Y-192285771D01*
X264268628Y-192357200D01*
X264340057Y-192428628D01*
X264411485Y-192571485D01*
X264411485Y-192785771D01*
X264340057Y-192928628D01*
X264268628Y-193000057D01*
X264125771Y-193071485D01*
X263554342Y-193071485D01*
X265625771Y-193714342D02*
X265482914Y-193785771D01*
X265197200Y-193785771D01*
X265054342Y-193714342D01*
X264982914Y-193571485D01*
X264982914Y-193000057D01*
X265054342Y-192857200D01*
X265197200Y-192785771D01*
X265482914Y-192785771D01*
X265625771Y-192857200D01*
X265697200Y-193000057D01*
X265697200Y-193142914D01*
X264982914Y-193285771D01*
X266197200Y-192785771D02*
X266554342Y-193785771D01*
X266911485Y-192785771D01*
X267482914Y-193642914D02*
X267554342Y-193714342D01*
X267482914Y-193785771D01*
X267411485Y-193714342D01*
X267482914Y-193642914D01*
X267482914Y-193785771D01*
X267482914Y-192857200D02*
X267554342Y-192928628D01*
X267482914Y-193000057D01*
X267411485Y-192928628D01*
X267482914Y-192857200D01*
X267482914Y-193000057D01*
X269268628Y-192428628D02*
X269340057Y-192357200D01*
X269482914Y-192285771D01*
X269840057Y-192285771D01*
X269982914Y-192357200D01*
X270054342Y-192428628D01*
X270125771Y-192571485D01*
X270125771Y-192714342D01*
X270054342Y-192928628D01*
X269197200Y-193785771D01*
X270125771Y-193785771D01*
X270768628Y-193642914D02*
X270840057Y-193714342D01*
X270768628Y-193785771D01*
X270697200Y-193714342D01*
X270768628Y-193642914D01*
X270768628Y-193785771D01*
X271411485Y-192428628D02*
X271482914Y-192357200D01*
X271625771Y-192285771D01*
X271982914Y-192285771D01*
X272125771Y-192357200D01*
X272197200Y-192428628D01*
X272268628Y-192571485D01*
X272268628Y-192714342D01*
X272197200Y-192928628D01*
X271340057Y-193785771D01*
X272268628Y-193785771D01*
D10*
D11*
X178362914Y-193714342D02*
X178577200Y-193785771D01*
X178934342Y-193785771D01*
X179077200Y-193714342D01*
X179148628Y-193642914D01*
X179220057Y-193500057D01*
X179220057Y-193357200D01*
X179148628Y-193214342D01*
X179077200Y-193142914D01*
X178934342Y-193071485D01*
X178648628Y-193000057D01*
X178505771Y-192928628D01*
X178434342Y-192857200D01*
X178362914Y-192714342D01*
X178362914Y-192571485D01*
X178434342Y-192428628D01*
X178505771Y-192357200D01*
X178648628Y-192285771D01*
X179005771Y-192285771D01*
X179220057Y-192357200D01*
X179862914Y-193785771D02*
X179862914Y-192785771D01*
X179862914Y-192285771D02*
X179791485Y-192357200D01*
X179862914Y-192428628D01*
X179934342Y-192357200D01*
X179862914Y-192285771D01*
X179862914Y-192428628D01*
X180434342Y-192785771D02*
X181220057Y-192785771D01*
X180434342Y-193785771D01*
X181220057Y-193785771D01*
X182362914Y-193714342D02*
X182220057Y-193785771D01*
X181934342Y-193785771D01*
X181791485Y-193714342D01*
X181720057Y-193571485D01*
X181720057Y-193000057D01*
X181791485Y-192857200D01*
X181934342Y-192785771D01*
X182220057Y-192785771D01*
X182362914Y-192857200D01*
X182434342Y-193000057D01*
X182434342Y-193142914D01*
X181720057Y-193285771D01*
X183077200Y-193642914D02*
X183148628Y-193714342D01*
X183077200Y-193785771D01*
X183005771Y-193714342D01*
X183077200Y-193642914D01*
X183077200Y-193785771D01*
X183077200Y-192857200D02*
X183148628Y-192928628D01*
X183077200Y-193000057D01*
X183005771Y-192928628D01*
X183077200Y-192857200D01*
X183077200Y-193000057D01*
X184862914Y-193357200D02*
X185577200Y-193357200D01*
X184720057Y-193785771D02*
X185220057Y-192285771D01*
X185720057Y-193785771D01*
X186862914Y-192785771D02*
X186862914Y-193785771D01*
X186505771Y-192214342D02*
X186148628Y-193285771D01*
X187077200Y-193285771D01*
D10*
D11*
X263434342Y-196585771D02*
X263434342Y-195085771D01*
X264791485Y-196585771D02*
X264791485Y-195085771D01*
X264791485Y-196514342D02*
X264648628Y-196585771D01*
X264362914Y-196585771D01*
X264220057Y-196514342D01*
X264148628Y-196442914D01*
X264077200Y-196300057D01*
X264077200Y-195871485D01*
X264148628Y-195728628D01*
X264220057Y-195657200D01*
X264362914Y-195585771D01*
X264648628Y-195585771D01*
X264791485Y-195657200D01*
X265505771Y-196442914D02*
X265577200Y-196514342D01*
X265505771Y-196585771D01*
X265434342Y-196514342D01*
X265505771Y-196442914D01*
X265505771Y-196585771D01*
X265505771Y-195657200D02*
X265577200Y-195728628D01*
X265505771Y-195800057D01*
X265434342Y-195728628D01*
X265505771Y-195657200D01*
X265505771Y-195800057D01*
X268148628Y-196585771D02*
X267291485Y-196585771D01*
X267720057Y-196585771D02*
X267720057Y-195085771D01*
X267577200Y-195300057D01*
X267434342Y-195442914D01*
X267291485Y-195514342D01*
X269862914Y-195014342D02*
X268577200Y-196942914D01*
X271148628Y-196585771D02*
X270291485Y-196585771D01*
X270720057Y-196585771D02*
X270720057Y-195085771D01*
X270577200Y-195300057D01*
X270434342Y-195442914D01*
X270291485Y-195514342D01*
D10*
D11*
X177002200Y-187507200D02*
X285002200Y-187507200D01*
D10*
D13*
X178714580Y-188211961D02*
X179857438Y-188211961D01*
X179036009Y-190211961D02*
X179286009Y-188211961D01*
X180274104Y-190211961D02*
X180440771Y-188878628D01*
X180524104Y-188211961D02*
X180416961Y-188307200D01*
X180500295Y-188402438D01*
X180607438Y-188307200D01*
X180524104Y-188211961D01*
X180500295Y-188402438D01*
X181107438Y-188878628D02*
X181869342Y-188878628D01*
X181476485Y-188211961D02*
X181262200Y-189926247D01*
X181333628Y-190116723D01*
X181512200Y-190211961D01*
X181702676Y-190211961D01*
X182655057Y-190211961D02*
X182476485Y-190116723D01*
X182405057Y-189926247D01*
X182619342Y-188211961D01*
X184190771Y-190116723D02*
X183988390Y-190211961D01*
X183607438Y-190211961D01*
X183428866Y-190116723D01*
X183357438Y-189926247D01*
X183452676Y-189164342D01*
X183571723Y-188973866D01*
X183774104Y-188878628D01*
X184155057Y-188878628D01*
X184333628Y-188973866D01*
X184405057Y-189164342D01*
X184381247Y-189354819D01*
X183405057Y-189545295D01*
X185155057Y-190021485D02*
X185238390Y-190116723D01*
X185131247Y-190211961D01*
X185047914Y-190116723D01*
X185155057Y-190021485D01*
X185131247Y-190211961D01*
X185286009Y-188973866D02*
X185369342Y-189069104D01*
X185262200Y-189164342D01*
X185178866Y-189069104D01*
X185286009Y-188973866D01*
X185262200Y-189164342D01*
X187607438Y-190211961D02*
X187857438Y-188211961D01*
X188345533Y-189640533D01*
X189190771Y-188211961D01*
X188940771Y-190211961D01*
X190178866Y-190211961D02*
X190000295Y-190116723D01*
X189916961Y-190021485D01*
X189845533Y-189831009D01*
X189916961Y-189259580D01*
X190036009Y-189069104D01*
X190143152Y-188973866D01*
X190345533Y-188878628D01*
X190631247Y-188878628D01*
X190809819Y-188973866D01*
X190893152Y-189069104D01*
X190964580Y-189259580D01*
X190893152Y-189831009D01*
X190774104Y-190021485D01*
X190666961Y-190116723D01*
X190464580Y-190211961D01*
X190178866Y-190211961D01*
X191869342Y-188878628D02*
X191702676Y-190211961D01*
X191845533Y-189069104D02*
X191952676Y-188973866D01*
X192155057Y-188878628D01*
X192440771Y-188878628D01*
X192619342Y-188973866D01*
X192690771Y-189164342D01*
X192559819Y-190211961D01*
X193512200Y-190211961D02*
X193762200Y-188211961D01*
X193797914Y-189450057D02*
X194274104Y-190211961D01*
X194440771Y-188878628D02*
X193583628Y-189640533D01*
X195905057Y-190116723D02*
X195702676Y-190211961D01*
X195321723Y-190211961D01*
X195143152Y-190116723D01*
X195071723Y-189926247D01*
X195166961Y-189164342D01*
X195286009Y-188973866D01*
X195488390Y-188878628D01*
X195869342Y-188878628D01*
X196047914Y-188973866D01*
X196119342Y-189164342D01*
X196095533Y-189354819D01*
X195119342Y-189545295D01*
X196821723Y-188878628D02*
X197131247Y-190211961D01*
X197774104Y-188878628D02*
X197131247Y-190211961D01*
X196881247Y-190688152D01*
X196774104Y-190783390D01*
X196571723Y-190878628D01*
X199166961Y-189164342D02*
X199440771Y-189259580D01*
X199524104Y-189354819D01*
X199595533Y-189545295D01*
X199559819Y-189831009D01*
X199440771Y-190021485D01*
X199333628Y-190116723D01*
X199131247Y-190211961D01*
X198369342Y-190211961D01*
X198619342Y-188211961D01*
X199286009Y-188211961D01*
X199464580Y-188307200D01*
X199547914Y-188402438D01*
X199619342Y-188592914D01*
X199595533Y-188783390D01*
X199476485Y-188973866D01*
X199369342Y-189069104D01*
X199166961Y-189164342D01*
X198500295Y-189164342D01*
X201226485Y-190211961D02*
X201357438Y-189164342D01*
X201286009Y-188973866D01*
X201107438Y-188878628D01*
X200726485Y-188878628D01*
X200524104Y-188973866D01*
X201238390Y-190116723D02*
X201036009Y-190211961D01*
X200559819Y-190211961D01*
X200381247Y-190116723D01*
X200309819Y-189926247D01*
X200333628Y-189735771D01*
X200452676Y-189545295D01*
X200655057Y-189450057D01*
X201131247Y-189450057D01*
X201333628Y-189354819D01*
X203036009Y-190211961D02*
X203286009Y-188211961D01*
X203047914Y-190116723D02*
X202845533Y-190211961D01*
X202464580Y-190211961D01*
X202286009Y-190116723D01*
X202202676Y-190021485D01*
X202131247Y-189831009D01*
X202202676Y-189259580D01*
X202321723Y-189069104D01*
X202428866Y-188973866D01*
X202631247Y-188878628D01*
X203012200Y-188878628D01*
X203190771Y-188973866D01*
X205012200Y-188878628D02*
X204809819Y-190497676D01*
X204690771Y-190688152D01*
X204583628Y-190783390D01*
X204381247Y-190878628D01*
X204095533Y-190878628D01*
X203916961Y-190783390D01*
X204857438Y-190116723D02*
X204655057Y-190211961D01*
X204274104Y-190211961D01*
X204095533Y-190116723D01*
X204012200Y-190021485D01*
X203940771Y-189831009D01*
X204012200Y-189259580D01*
X204131247Y-189069104D01*
X204238390Y-188973866D01*
X204440771Y-188878628D01*
X204821723Y-188878628D01*
X205000295Y-188973866D01*
X206571723Y-190116723D02*
X206369342Y-190211961D01*
X205988390Y-190211961D01*
X205809819Y-190116723D01*
X205738390Y-189926247D01*
X205833628Y-189164342D01*
X205952676Y-188973866D01*
X206155057Y-188878628D01*
X206536009Y-188878628D01*
X206714580Y-188973866D01*
X206786009Y-189164342D01*
X206762200Y-189354819D01*
X205786009Y-189545295D01*
D10*
D11*
X178934342Y-185600057D02*
X178434342Y-185600057D01*
X178434342Y-186385771D02*
X178434342Y-184885771D01*
X179148628Y-184885771D01*
X179720057Y-186385771D02*
X179720057Y-185385771D01*
X179720057Y-184885771D02*
X179648628Y-184957200D01*
X179720057Y-185028628D01*
X179791485Y-184957200D01*
X179720057Y-184885771D01*
X179720057Y-185028628D01*
X180648628Y-186385771D02*
X180505771Y-186314342D01*
X180434342Y-186171485D01*
X180434342Y-184885771D01*
X181791485Y-186314342D02*
X181648628Y-186385771D01*
X181362914Y-186385771D01*
X181220057Y-186314342D01*
X181148628Y-186171485D01*
X181148628Y-185600057D01*
X181220057Y-185457200D01*
X181362914Y-185385771D01*
X181648628Y-185385771D01*
X181791485Y-185457200D01*
X181862914Y-185600057D01*
X181862914Y-185742914D01*
X181148628Y-185885771D01*
X182505771Y-186242914D02*
X182577200Y-186314342D01*
X182505771Y-186385771D01*
X182434342Y-186314342D01*
X182505771Y-186242914D01*
X182505771Y-186385771D01*
X182505771Y-185457200D02*
X182577200Y-185528628D01*
X182505771Y-185600057D01*
X182434342Y-185528628D01*
X182505771Y-185457200D01*
X182505771Y-185600057D01*
X184362914Y-186385771D02*
X184362914Y-184885771D01*
X184862914Y-185957200D01*
X185362914Y-184885771D01*
X185362914Y-186385771D01*
X186291485Y-186385771D02*
X186148628Y-186314342D01*
X186077200Y-186242914D01*
X186005771Y-186100057D01*
X186005771Y-185671485D01*
X186077200Y-185528628D01*
X186148628Y-185457200D01*
X186291485Y-185385771D01*
X186505771Y-185385771D01*
X186648628Y-185457200D01*
X186720057Y-185528628D01*
X186791485Y-185671485D01*
X186791485Y-186100057D01*
X186720057Y-186242914D01*
X186648628Y-186314342D01*
X186505771Y-186385771D01*
X186291485Y-186385771D01*
X187434342Y-185385771D02*
X187434342Y-186385771D01*
X187434342Y-185528628D02*
X187505771Y-185457200D01*
X187648628Y-185385771D01*
X187862914Y-185385771D01*
X188005771Y-185457200D01*
X188077200Y-185600057D01*
X188077200Y-186385771D01*
X188791485Y-186385771D02*
X188791485Y-184885771D01*
X188934342Y-185814342D02*
X189362914Y-186385771D01*
X189362914Y-185385771D02*
X188791485Y-185957200D01*
X190577200Y-186314342D02*
X190434342Y-186385771D01*
X190148628Y-186385771D01*
X190005771Y-186314342D01*
X189934342Y-186171485D01*
X189934342Y-185600057D01*
X190005771Y-185457200D01*
X190148628Y-185385771D01*
X190434342Y-185385771D01*
X190577200Y-185457200D01*
X190648628Y-185600057D01*
X190648628Y-185742914D01*
X189934342Y-185885771D01*
X191148628Y-185385771D02*
X191505771Y-186385771D01*
X191862914Y-185385771D02*
X191505771Y-186385771D01*
X191362914Y-186742914D01*
X191291485Y-186814342D01*
X191148628Y-186885771D01*
X192362914Y-186314342D02*
X192505771Y-186385771D01*
X192791485Y-186385771D01*
X192934342Y-186314342D01*
X193005771Y-186171485D01*
X193005771Y-186100057D01*
X192934342Y-185957200D01*
X192791485Y-185885771D01*
X192577200Y-185885771D01*
X192434342Y-185814342D01*
X192362914Y-185671485D01*
X192362914Y-185600057D01*
X192434342Y-185457200D01*
X192577200Y-185385771D01*
X192791485Y-185385771D01*
X192934342Y-185457200D01*
X193648628Y-186242914D02*
X193720057Y-186314342D01*
X193648628Y-186385771D01*
X193577200Y-186314342D01*
X193648628Y-186242914D01*
X193648628Y-186385771D01*
X194362914Y-186385771D02*
X194362914Y-184885771D01*
X194505771Y-185814342D02*
X194934342Y-186385771D01*
X194934342Y-185385771D02*
X194362914Y-185957200D01*
X195577200Y-186385771D02*
X195577200Y-185385771D01*
X195577200Y-184885771D02*
X195505771Y-184957200D01*
X195577200Y-185028628D01*
X195648628Y-184957200D01*
X195577200Y-184885771D01*
X195577200Y-185028628D01*
X196934342Y-186314342D02*
X196791485Y-186385771D01*
X196505771Y-186385771D01*
X196362914Y-186314342D01*
X196291485Y-186242914D01*
X196220057Y-186100057D01*
X196220057Y-185671485D01*
X196291485Y-185528628D01*
X196362914Y-185457200D01*
X196505771Y-185385771D01*
X196791485Y-185385771D01*
X196934342Y-185457200D01*
X198220057Y-186385771D02*
X198220057Y-185600057D01*
X198148628Y-185457200D01*
X198005771Y-185385771D01*
X197720057Y-185385771D01*
X197577200Y-185457200D01*
X198220057Y-186314342D02*
X198077200Y-186385771D01*
X197720057Y-186385771D01*
X197577200Y-186314342D01*
X197505771Y-186171485D01*
X197505771Y-186028628D01*
X197577200Y-185885771D01*
X197720057Y-185814342D01*
X198077200Y-185814342D01*
X198220057Y-185742914D01*
X199577200Y-186385771D02*
X199577200Y-184885771D01*
X199577200Y-186314342D02*
X199434342Y-186385771D01*
X199148628Y-186385771D01*
X199005771Y-186314342D01*
X198934342Y-186242914D01*
X198862914Y-186100057D01*
X198862914Y-185671485D01*
X198934342Y-185528628D01*
X199005771Y-185457200D01*
X199148628Y-185385771D01*
X199434342Y-185385771D01*
X199577200Y-185457200D01*
X199934342Y-186528628D02*
X201077200Y-186528628D01*
X201434342Y-185385771D02*
X201434342Y-186885771D01*
X201434342Y-185457200D02*
X201577200Y-185385771D01*
X201862914Y-185385771D01*
X202005771Y-185457200D01*
X202077200Y-185528628D01*
X202148628Y-185671485D01*
X202148628Y-186100057D01*
X202077200Y-186242914D01*
X202005771Y-186314342D01*
X201862914Y-186385771D01*
X201577200Y-186385771D01*
X201434342Y-186314342D01*
X203434342Y-186314342D02*
X203291485Y-186385771D01*
X203005771Y-186385771D01*
X202862914Y-186314342D01*
X202791485Y-186242914D01*
X202720057Y-186100057D01*
X202720057Y-185671485D01*
X202791485Y-185528628D01*
X202862914Y-185457200D01*
X203005771Y-185385771D01*
X203291485Y-185385771D01*
X203434342Y-185457200D01*
X204077200Y-186385771D02*
X204077200Y-184885771D01*
X204077200Y-185457200D02*
X204220057Y-185385771D01*
X204505771Y-185385771D01*
X204648628Y-185457200D01*
X204720057Y-185528628D01*
X204791485Y-185671485D01*
X204791485Y-186100057D01*
X204720057Y-186242914D01*
X204648628Y-186314342D01*
X204505771Y-186385771D01*
X204220057Y-186385771D01*
X204077200Y-186314342D01*
D10*
D11*
X177002200Y-181507200D02*
X285002200Y-181507200D01*
D10*
D11*
X178362914Y-183614342D02*
X178577200Y-183685771D01*
X178934342Y-183685771D01*
X179077200Y-183614342D01*
X179148628Y-183542914D01*
X179220057Y-183400057D01*
X179220057Y-183257200D01*
X179148628Y-183114342D01*
X179077200Y-183042914D01*
X178934342Y-182971485D01*
X178648628Y-182900057D01*
X178505771Y-182828628D01*
X178434342Y-182757200D01*
X178362914Y-182614342D01*
X178362914Y-182471485D01*
X178434342Y-182328628D01*
X178505771Y-182257200D01*
X178648628Y-182185771D01*
X179005771Y-182185771D01*
X179220057Y-182257200D01*
X179862914Y-183685771D02*
X179862914Y-182185771D01*
X180505771Y-183685771D02*
X180505771Y-182900057D01*
X180434342Y-182757200D01*
X180291485Y-182685771D01*
X180077200Y-182685771D01*
X179934342Y-182757200D01*
X179862914Y-182828628D01*
X181791485Y-183614342D02*
X181648628Y-183685771D01*
X181362914Y-183685771D01*
X181220057Y-183614342D01*
X181148628Y-183471485D01*
X181148628Y-182900057D01*
X181220057Y-182757200D01*
X181362914Y-182685771D01*
X181648628Y-182685771D01*
X181791485Y-182757200D01*
X181862914Y-182900057D01*
X181862914Y-183042914D01*
X181148628Y-183185771D01*
X183077200Y-183614342D02*
X182934342Y-183685771D01*
X182648628Y-183685771D01*
X182505771Y-183614342D01*
X182434342Y-183471485D01*
X182434342Y-182900057D01*
X182505771Y-182757200D01*
X182648628Y-182685771D01*
X182934342Y-182685771D01*
X183077200Y-182757200D01*
X183148628Y-182900057D01*
X183148628Y-183042914D01*
X182434342Y-183185771D01*
X183577200Y-182685771D02*
X184148628Y-182685771D01*
X183791485Y-182185771D02*
X183791485Y-183471485D01*
X183862914Y-183614342D01*
X184005771Y-183685771D01*
X184148628Y-183685771D01*
X184648628Y-183542914D02*
X184720057Y-183614342D01*
X184648628Y-183685771D01*
X184577200Y-183614342D01*
X184648628Y-183542914D01*
X184648628Y-183685771D01*
X184648628Y-182757200D02*
X184720057Y-182828628D01*
X184648628Y-182900057D01*
X184577200Y-182828628D01*
X184648628Y-182757200D01*
X184648628Y-182900057D01*
D10*
D12*
X178554342Y-180685771D02*
X178554342Y-179185771D01*
X179125771Y-179185771D01*
X179268628Y-179257200D01*
X179340057Y-179328628D01*
X179411485Y-179471485D01*
X179411485Y-179685771D01*
X179340057Y-179828628D01*
X179268628Y-179900057D01*
X179125771Y-179971485D01*
X178554342Y-179971485D01*
X180697200Y-180685771D02*
X180697200Y-179900057D01*
X180625771Y-179757200D01*
X180482914Y-179685771D01*
X180197200Y-179685771D01*
X180054342Y-179757200D01*
X180697200Y-180614342D02*
X180554342Y-180685771D01*
X180197200Y-180685771D01*
X180054342Y-180614342D01*
X179982914Y-180471485D01*
X179982914Y-180328628D01*
X180054342Y-180185771D01*
X180197200Y-180114342D01*
X180554342Y-180114342D01*
X180697200Y-180042914D01*
X182054342Y-180614342D02*
X181911485Y-180685771D01*
X181625771Y-180685771D01*
X181482914Y-180614342D01*
X181411485Y-180542914D01*
X181340057Y-180400057D01*
X181340057Y-179971485D01*
X181411485Y-179828628D01*
X181482914Y-179757200D01*
X181625771Y-179685771D01*
X181911485Y-179685771D01*
X182054342Y-179757200D01*
X182697200Y-180685771D02*
X182697200Y-179185771D01*
X182840057Y-180114342D02*
X183268628Y-180685771D01*
X183268628Y-179685771D02*
X182697200Y-180257200D01*
X184482914Y-180614342D02*
X184340057Y-180685771D01*
X184054342Y-180685771D01*
X183911485Y-180614342D01*
X183840057Y-180471485D01*
X183840057Y-179900057D01*
X183911485Y-179757200D01*
X184054342Y-179685771D01*
X184340057Y-179685771D01*
X184482914Y-179757200D01*
X184554342Y-179900057D01*
X184554342Y-180042914D01*
X183840057Y-180185771D01*
X184982914Y-179685771D02*
X185554342Y-179685771D01*
X185197200Y-179185771D02*
X185197200Y-180471485D01*
X185268628Y-180614342D01*
X185411485Y-180685771D01*
X185554342Y-180685771D01*
X186911485Y-180542914D02*
X186840057Y-180614342D01*
X186625771Y-180685771D01*
X186482914Y-180685771D01*
X186268628Y-180614342D01*
X186125771Y-180471485D01*
X186054342Y-180328628D01*
X185982914Y-180042914D01*
X185982914Y-179828628D01*
X186054342Y-179542914D01*
X186125771Y-179400057D01*
X186268628Y-179257200D01*
X186482914Y-179185771D01*
X186625771Y-179185771D01*
X186840057Y-179257200D01*
X186911485Y-179328628D01*
X187554342Y-180685771D02*
X187554342Y-179185771D01*
X188197200Y-180685771D02*
X188197200Y-179900057D01*
X188125771Y-179757200D01*
X187982914Y-179685771D01*
X187768628Y-179685771D01*
X187625771Y-179757200D01*
X187554342Y-179828628D01*
X189554342Y-180685771D02*
X189554342Y-179900057D01*
X189482914Y-179757200D01*
X189340057Y-179685771D01*
X189054342Y-179685771D01*
X188911485Y-179757200D01*
X189554342Y-180614342D02*
X189411485Y-180685771D01*
X189054342Y-180685771D01*
X188911485Y-180614342D01*
X188840057Y-180471485D01*
X188840057Y-180328628D01*
X188911485Y-180185771D01*
X189054342Y-180114342D01*
X189411485Y-180114342D01*
X189554342Y-180042914D01*
X190054342Y-179685771D02*
X190625771Y-179685771D01*
X190268628Y-179185771D02*
X190268628Y-180471485D01*
X190340057Y-180614342D01*
X190482914Y-180685771D01*
X190625771Y-180685771D01*
D10*
D11*
X179291485Y-177542914D02*
X179220057Y-177614342D01*
X179005771Y-177685771D01*
X178862914Y-177685771D01*
X178648628Y-177614342D01*
X178505771Y-177471485D01*
X178434342Y-177328628D01*
X178362914Y-177042914D01*
X178362914Y-176828628D01*
X178434342Y-176542914D01*
X178505771Y-176400057D01*
X178648628Y-176257200D01*
X178862914Y-176185771D01*
X179005771Y-176185771D01*
X179220057Y-176257200D01*
X179291485Y-176328628D01*
X180148628Y-177685771D02*
X180005771Y-177614342D01*
X179934342Y-177542914D01*
X179862914Y-177400057D01*
X179862914Y-176971485D01*
X179934342Y-176828628D01*
X180005771Y-176757200D01*
X180148628Y-176685771D01*
X180362914Y-176685771D01*
X180505771Y-176757200D01*
X180577200Y-176828628D01*
X180648628Y-176971485D01*
X180648628Y-177400057D01*
X180577200Y-177542914D01*
X180505771Y-177614342D01*
X180362914Y-177685771D01*
X180148628Y-177685771D01*
X181291485Y-176685771D02*
X181291485Y-178185771D01*
X181291485Y-176757200D02*
X181434342Y-176685771D01*
X181720057Y-176685771D01*
X181862914Y-176757200D01*
X181934342Y-176828628D01*
X182005771Y-176971485D01*
X182005771Y-177400057D01*
X181934342Y-177542914D01*
X181862914Y-177614342D01*
X181720057Y-177685771D01*
X181434342Y-177685771D01*
X181291485Y-177614342D01*
X182505771Y-176685771D02*
X182862914Y-177685771D01*
X183220057Y-176685771D02*
X182862914Y-177685771D01*
X182720057Y-178042914D01*
X182648628Y-178114342D01*
X182505771Y-178185771D01*
X183791485Y-177685771D02*
X183791485Y-176685771D01*
X183791485Y-176971485D02*
X183862914Y-176828628D01*
X183934342Y-176757200D01*
X184077200Y-176685771D01*
X184220057Y-176685771D01*
X184720057Y-177685771D02*
X184720057Y-176685771D01*
X184720057Y-176185771D02*
X184648628Y-176257200D01*
X184720057Y-176328628D01*
X184791485Y-176257200D01*
X184720057Y-176185771D01*
X184720057Y-176328628D01*
X186077200Y-176685771D02*
X186077200Y-177900057D01*
X186005771Y-178042914D01*
X185934342Y-178114342D01*
X185791485Y-178185771D01*
X185577200Y-178185771D01*
X185434342Y-178114342D01*
X186077200Y-177614342D02*
X185934342Y-177685771D01*
X185648628Y-177685771D01*
X185505771Y-177614342D01*
X185434342Y-177542914D01*
X185362914Y-177400057D01*
X185362914Y-176971485D01*
X185434342Y-176828628D01*
X185505771Y-176757200D01*
X185648628Y-176685771D01*
X185934342Y-176685771D01*
X186077200Y-176757200D01*
X186791485Y-177685771D02*
X186791485Y-176185771D01*
X187434342Y-177685771D02*
X187434342Y-176900057D01*
X187362914Y-176757200D01*
X187220057Y-176685771D01*
X187005771Y-176685771D01*
X186862914Y-176757200D01*
X186791485Y-176828628D01*
X187934342Y-176685771D02*
X188505771Y-176685771D01*
X188148628Y-176185771D02*
X188148628Y-177471485D01*
X188220057Y-177614342D01*
X188362914Y-177685771D01*
X188505771Y-177685771D01*
X190077200Y-176328628D02*
X190148628Y-176257200D01*
X190291485Y-176185771D01*
X190648628Y-176185771D01*
X190791485Y-176257200D01*
X190862914Y-176328628D01*
X190934342Y-176471485D01*
X190934342Y-176614342D01*
X190862914Y-176828628D01*
X190005771Y-177685771D01*
X190934342Y-177685771D01*
X191862914Y-176185771D02*
X192005771Y-176185771D01*
X192148628Y-176257200D01*
X192220057Y-176328628D01*
X192291485Y-176471485D01*
X192362914Y-176757200D01*
X192362914Y-177114342D01*
X192291485Y-177400057D01*
X192220057Y-177542914D01*
X192148628Y-177614342D01*
X192005771Y-177685771D01*
X191862914Y-177685771D01*
X191720057Y-177614342D01*
X191648628Y-177542914D01*
X191577200Y-177400057D01*
X191505771Y-177114342D01*
X191505771Y-176757200D01*
X191577200Y-176471485D01*
X191648628Y-176328628D01*
X191720057Y-176257200D01*
X191862914Y-176185771D01*
X192934342Y-176328628D02*
X193005771Y-176257200D01*
X193148628Y-176185771D01*
X193505771Y-176185771D01*
X193648628Y-176257200D01*
X193720057Y-176328628D01*
X193791485Y-176471485D01*
X193791485Y-176614342D01*
X193720057Y-176828628D01*
X192862914Y-177685771D01*
X193791485Y-177685771D01*
X194362914Y-176328628D02*
X194434342Y-176257200D01*
X194577200Y-176185771D01*
X194934342Y-176185771D01*
X195077200Y-176257200D01*
X195148628Y-176328628D01*
X195220057Y-176471485D01*
X195220057Y-176614342D01*
X195148628Y-176828628D01*
X194291485Y-177685771D01*
X195220057Y-177685771D01*
X197005771Y-177685771D02*
X197005771Y-176185771D01*
X197577200Y-176185771D01*
X197720057Y-176257200D01*
X197791485Y-176328628D01*
X197862914Y-176471485D01*
X197862914Y-176685771D01*
X197791485Y-176828628D01*
X197720057Y-176900057D01*
X197577200Y-176971485D01*
X197005771Y-176971485D01*
X199148628Y-177685771D02*
X199148628Y-176900057D01*
X199077200Y-176757200D01*
X198934342Y-176685771D01*
X198648628Y-176685771D01*
X198505771Y-176757200D01*
X199148628Y-177614342D02*
X199005771Y-177685771D01*
X198648628Y-177685771D01*
X198505771Y-177614342D01*
X198434342Y-177471485D01*
X198434342Y-177328628D01*
X198505771Y-177185771D01*
X198648628Y-177114342D01*
X199005771Y-177114342D01*
X199148628Y-177042914D01*
X200505771Y-177614342D02*
X200362914Y-177685771D01*
X200077200Y-177685771D01*
X199934342Y-177614342D01*
X199862914Y-177542914D01*
X199791485Y-177400057D01*
X199791485Y-176971485D01*
X199862914Y-176828628D01*
X199934342Y-176757200D01*
X200077200Y-176685771D01*
X200362914Y-176685771D01*
X200505771Y-176757200D01*
X201148628Y-177685771D02*
X201148628Y-176185771D01*
X201291485Y-177114342D02*
X201720057Y-177685771D01*
X201720057Y-176685771D02*
X201148628Y-177257200D01*
X202934342Y-177614342D02*
X202791485Y-177685771D01*
X202505771Y-177685771D01*
X202362914Y-177614342D01*
X202291485Y-177471485D01*
X202291485Y-176900057D01*
X202362914Y-176757200D01*
X202505771Y-176685771D01*
X202791485Y-176685771D01*
X202934342Y-176757200D01*
X203005771Y-176900057D01*
X203005771Y-177042914D01*
X202291485Y-177185771D01*
X203434342Y-176685771D02*
X204005771Y-176685771D01*
X203648628Y-176185771D02*
X203648628Y-177471485D01*
X203720057Y-177614342D01*
X203862914Y-177685771D01*
X204005771Y-177685771D01*
X205362914Y-177542914D02*
X205291485Y-177614342D01*
X205077200Y-177685771D01*
X204934342Y-177685771D01*
X204720057Y-177614342D01*
X204577200Y-177471485D01*
X204505771Y-177328628D01*
X204434342Y-177042914D01*
X204434342Y-176828628D01*
X204505771Y-176542914D01*
X204577200Y-176400057D01*
X204720057Y-176257200D01*
X204934342Y-176185771D01*
X205077200Y-176185771D01*
X205291485Y-176257200D01*
X205362914Y-176328628D01*
X206005771Y-177685771D02*
X206005771Y-176185771D01*
X206648628Y-177685771D02*
X206648628Y-176900057D01*
X206577200Y-176757200D01*
X206434342Y-176685771D01*
X206220057Y-176685771D01*
X206077200Y-176757200D01*
X206005771Y-176828628D01*
X208005771Y-177685771D02*
X208005771Y-176900057D01*
X207934342Y-176757200D01*
X207791485Y-176685771D01*
X207505771Y-176685771D01*
X207362914Y-176757200D01*
X208005771Y-177614342D02*
X207862914Y-177685771D01*
X207505771Y-177685771D01*
X207362914Y-177614342D01*
X207291485Y-177471485D01*
X207291485Y-177328628D01*
X207362914Y-177185771D01*
X207505771Y-177114342D01*
X207862914Y-177114342D01*
X208005771Y-177042914D01*
X208505771Y-176685771D02*
X209077200Y-176685771D01*
X208720057Y-176185771D02*
X208720057Y-177471485D01*
X208791485Y-177614342D01*
X208934342Y-177685771D01*
X209077200Y-177685771D01*
D10*
D11*
D10*
D11*
D10*
D11*
D10*
D11*
X197002200Y-191507200D02*
X197002200Y-194507200D01*
D10*
D11*
X261002200Y-191507200D02*
X261002200Y-198007200D01*
%TO.C,U6*%
X144651904Y-99962380D02*
X144651904Y-100771904D01*
X144604285Y-100867142D01*
X144556666Y-100914761D01*
X144461428Y-100962380D01*
X144270952Y-100962380D01*
X144175714Y-100914761D01*
X144128095Y-100867142D01*
X144080476Y-100771904D01*
X144080476Y-99962380D01*
X143175714Y-99962380D02*
X143366190Y-99962380D01*
X143461428Y-100010000D01*
X143509047Y-100057619D01*
X143604285Y-100200476D01*
X143651904Y-100390952D01*
X143651904Y-100771904D01*
X143604285Y-100867142D01*
X143556666Y-100914761D01*
X143461428Y-100962380D01*
X143270952Y-100962380D01*
X143175714Y-100914761D01*
X143128095Y-100867142D01*
X143080476Y-100771904D01*
X143080476Y-100533809D01*
X143128095Y-100438571D01*
X143175714Y-100390952D01*
X143270952Y-100343333D01*
X143461428Y-100343333D01*
X143556666Y-100390952D01*
X143604285Y-100438571D01*
X143651904Y-100533809D01*
X169178571Y-80209523D02*
X169178571Y-80542857D01*
X169702380Y-80685714D02*
X169702380Y-80209523D01*
X168702380Y-80209523D01*
X168702380Y-80685714D01*
X169654761Y-81066666D02*
X169702380Y-81209523D01*
X169702380Y-81447619D01*
X169654761Y-81542857D01*
X169607142Y-81590476D01*
X169511904Y-81638095D01*
X169416666Y-81638095D01*
X169321428Y-81590476D01*
X169273809Y-81542857D01*
X169226190Y-81447619D01*
X169178571Y-81257142D01*
X169130952Y-81161904D01*
X169083333Y-81114285D01*
X168988095Y-81066666D01*
X168892857Y-81066666D01*
X168797619Y-81114285D01*
X168750000Y-81161904D01*
X168702380Y-81257142D01*
X168702380Y-81495238D01*
X168750000Y-81638095D01*
X169702380Y-82066666D02*
X168702380Y-82066666D01*
X168702380Y-82447619D01*
X168750000Y-82542857D01*
X168797619Y-82590476D01*
X168892857Y-82638095D01*
X169035714Y-82638095D01*
X169130952Y-82590476D01*
X169178571Y-82542857D01*
X169226190Y-82447619D01*
X169226190Y-82066666D01*
X168702380Y-82971428D02*
X168702380Y-83590476D01*
X169083333Y-83257142D01*
X169083333Y-83400000D01*
X169130952Y-83495238D01*
X169178571Y-83542857D01*
X169273809Y-83590476D01*
X169511904Y-83590476D01*
X169607142Y-83542857D01*
X169654761Y-83495238D01*
X169702380Y-83400000D01*
X169702380Y-83114285D01*
X169654761Y-83019047D01*
X169607142Y-82971428D01*
X168797619Y-83971428D02*
X168750000Y-84019047D01*
X168702380Y-84114285D01*
X168702380Y-84352380D01*
X168750000Y-84447619D01*
X168797619Y-84495238D01*
X168892857Y-84542857D01*
X168988095Y-84542857D01*
X169130952Y-84495238D01*
X169702380Y-83923809D01*
X169702380Y-84542857D01*
X169321428Y-84971428D02*
X169321428Y-85733333D01*
X168702380Y-86114285D02*
X169702380Y-86352380D01*
X168988095Y-86542857D01*
X169702380Y-86733333D01*
X168702380Y-86971428D01*
X169702380Y-87923809D02*
X169226190Y-87590476D01*
X169702380Y-87352380D02*
X168702380Y-87352380D01*
X168702380Y-87733333D01*
X168750000Y-87828571D01*
X168797619Y-87876190D01*
X168892857Y-87923809D01*
X169035714Y-87923809D01*
X169130952Y-87876190D01*
X169178571Y-87828571D01*
X169226190Y-87733333D01*
X169226190Y-87352380D01*
X168702380Y-88542857D02*
X168702380Y-88733333D01*
X168750000Y-88828571D01*
X168845238Y-88923809D01*
X169035714Y-88971428D01*
X169369047Y-88971428D01*
X169559523Y-88923809D01*
X169654761Y-88828571D01*
X169702380Y-88733333D01*
X169702380Y-88542857D01*
X169654761Y-88447619D01*
X169559523Y-88352380D01*
X169369047Y-88304761D01*
X169035714Y-88304761D01*
X168845238Y-88352380D01*
X168750000Y-88447619D01*
X168702380Y-88542857D01*
X168702380Y-89590476D02*
X168702380Y-89780952D01*
X168750000Y-89876190D01*
X168845238Y-89971428D01*
X169035714Y-90019047D01*
X169369047Y-90019047D01*
X169559523Y-89971428D01*
X169654761Y-89876190D01*
X169702380Y-89780952D01*
X169702380Y-89590476D01*
X169654761Y-89495238D01*
X169559523Y-89400000D01*
X169369047Y-89352380D01*
X169035714Y-89352380D01*
X168845238Y-89400000D01*
X168750000Y-89495238D01*
X168702380Y-89590476D01*
X169702380Y-90447619D02*
X168702380Y-90447619D01*
X169416666Y-90780952D01*
X168702380Y-91114285D01*
X169702380Y-91114285D01*
X169321428Y-91590476D02*
X169321428Y-92352380D01*
X168702380Y-92733333D02*
X168702380Y-93352380D01*
X169083333Y-93019047D01*
X169083333Y-93161904D01*
X169130952Y-93257142D01*
X169178571Y-93304761D01*
X169273809Y-93352380D01*
X169511904Y-93352380D01*
X169607142Y-93304761D01*
X169654761Y-93257142D01*
X169702380Y-93161904D01*
X169702380Y-92876190D01*
X169654761Y-92780952D01*
X169607142Y-92733333D01*
X168797619Y-93733333D02*
X168750000Y-93780952D01*
X168702380Y-93876190D01*
X168702380Y-94114285D01*
X168750000Y-94209523D01*
X168797619Y-94257142D01*
X168892857Y-94304761D01*
X168988095Y-94304761D01*
X169130952Y-94257142D01*
X169702380Y-93685714D01*
X169702380Y-94304761D01*
X169178571Y-94733333D02*
X169178571Y-95066666D01*
X169702380Y-95209523D02*
X169702380Y-94733333D01*
X168702380Y-94733333D01*
X168702380Y-95209523D01*
X170083333Y-95923809D02*
X170035714Y-95876190D01*
X169892857Y-95780952D01*
X169797619Y-95733333D01*
X169654761Y-95685714D01*
X169416666Y-95638095D01*
X169226190Y-95638095D01*
X168988095Y-95685714D01*
X168845238Y-95733333D01*
X168750000Y-95780952D01*
X168607142Y-95876190D01*
X168559523Y-95923809D01*
X169130952Y-96447619D02*
X169083333Y-96352380D01*
X169035714Y-96304761D01*
X168940476Y-96257142D01*
X168892857Y-96257142D01*
X168797619Y-96304761D01*
X168750000Y-96352380D01*
X168702380Y-96447619D01*
X168702380Y-96638095D01*
X168750000Y-96733333D01*
X168797619Y-96780952D01*
X168892857Y-96828571D01*
X168940476Y-96828571D01*
X169035714Y-96780952D01*
X169083333Y-96733333D01*
X169130952Y-96638095D01*
X169130952Y-96447619D01*
X169178571Y-96352380D01*
X169226190Y-96304761D01*
X169321428Y-96257142D01*
X169511904Y-96257142D01*
X169607142Y-96304761D01*
X169654761Y-96352380D01*
X169702380Y-96447619D01*
X169702380Y-96638095D01*
X169654761Y-96733333D01*
X169607142Y-96780952D01*
X169511904Y-96828571D01*
X169321428Y-96828571D01*
X169226190Y-96780952D01*
X169178571Y-96733333D01*
X169130952Y-96638095D01*
X169702380Y-97257142D02*
X168702380Y-97257142D01*
X169416666Y-97590476D01*
X168702380Y-97923809D01*
X169702380Y-97923809D01*
X169178571Y-98733333D02*
X169226190Y-98876190D01*
X169273809Y-98923809D01*
X169369047Y-98971428D01*
X169511904Y-98971428D01*
X169607142Y-98923809D01*
X169654761Y-98876190D01*
X169702380Y-98780952D01*
X169702380Y-98400000D01*
X168702380Y-98400000D01*
X168702380Y-98733333D01*
X168750000Y-98828571D01*
X168797619Y-98876190D01*
X168892857Y-98923809D01*
X168988095Y-98923809D01*
X169083333Y-98876190D01*
X169130952Y-98828571D01*
X169178571Y-98733333D01*
X169178571Y-98400000D01*
X170083333Y-99304761D02*
X170035714Y-99352380D01*
X169892857Y-99447619D01*
X169797619Y-99495238D01*
X169654761Y-99542857D01*
X169416666Y-99590476D01*
X169226190Y-99590476D01*
X168988095Y-99542857D01*
X168845238Y-99495238D01*
X168750000Y-99447619D01*
X168607142Y-99352380D01*
X168559523Y-99304761D01*
X151772380Y-89138095D02*
X152581904Y-89138095D01*
X152677142Y-89185714D01*
X152724761Y-89233333D01*
X152772380Y-89328571D01*
X152772380Y-89519047D01*
X152724761Y-89614285D01*
X152677142Y-89661904D01*
X152581904Y-89709523D01*
X151772380Y-89709523D01*
X151772380Y-90614285D02*
X151772380Y-90423809D01*
X151820000Y-90328571D01*
X151867619Y-90280952D01*
X152010476Y-90185714D01*
X152200952Y-90138095D01*
X152581904Y-90138095D01*
X152677142Y-90185714D01*
X152724761Y-90233333D01*
X152772380Y-90328571D01*
X152772380Y-90519047D01*
X152724761Y-90614285D01*
X152677142Y-90661904D01*
X152581904Y-90709523D01*
X152343809Y-90709523D01*
X152248571Y-90661904D01*
X152200952Y-90614285D01*
X152153333Y-90519047D01*
X152153333Y-90328571D01*
X152200952Y-90233333D01*
X152248571Y-90185714D01*
X152343809Y-90138095D01*
%TO.C,JP13*%
X142303983Y-103882571D02*
X142169296Y-104017258D01*
X142135625Y-104118274D01*
X142135625Y-104252961D01*
X142236640Y-104421319D01*
X142472342Y-104657022D01*
X142640701Y-104758037D01*
X142775388Y-104758037D01*
X142876403Y-104724365D01*
X143011090Y-104589678D01*
X143044762Y-104488663D01*
X143044762Y-104353976D01*
X142943747Y-104185617D01*
X142708044Y-103949915D01*
X142539686Y-103848900D01*
X142404999Y-103848900D01*
X142303983Y-103882571D01*
X142068281Y-105532487D02*
X142404999Y-105195770D01*
X141697892Y-104488663D01*
X141462190Y-105397800D02*
X141226487Y-105633503D01*
X141495861Y-106104907D02*
X141832579Y-105768190D01*
X141125472Y-105061083D01*
X140788754Y-105397800D01*
X141192815Y-106407953D02*
X140485709Y-105700846D01*
X140317350Y-105869205D01*
X140250006Y-106003892D01*
X140250006Y-106138579D01*
X140283678Y-106239594D01*
X140384693Y-106407953D01*
X140485709Y-106508968D01*
X140654067Y-106609983D01*
X140755083Y-106643655D01*
X140889770Y-106643655D01*
X141024457Y-106576312D01*
X141192815Y-106407953D01*
X139879617Y-106441625D02*
X139812274Y-106441625D01*
X139711258Y-106475296D01*
X139542900Y-106643655D01*
X139509228Y-106744670D01*
X139509228Y-106812014D01*
X139542900Y-106913029D01*
X139610243Y-106980373D01*
X139744930Y-107047716D01*
X140553052Y-107047716D01*
X140115319Y-107485449D01*
%TO.C,R35*%
X119447619Y-72662380D02*
X119352380Y-72662380D01*
X119257142Y-72710000D01*
X119209523Y-72757619D01*
X119161904Y-72852857D01*
X119114285Y-73043333D01*
X119114285Y-73281428D01*
X119161904Y-73471904D01*
X119209523Y-73567142D01*
X119257142Y-73614761D01*
X119352380Y-73662380D01*
X119447619Y-73662380D01*
X119542857Y-73614761D01*
X119590476Y-73567142D01*
X119638095Y-73471904D01*
X119685714Y-73281428D01*
X119685714Y-73043333D01*
X119638095Y-72852857D01*
X119590476Y-72757619D01*
X119542857Y-72710000D01*
X119447619Y-72662380D01*
X118114285Y-73662380D02*
X118447619Y-73186190D01*
X118685714Y-73662380D02*
X118685714Y-72662380D01*
X118304761Y-72662380D01*
X118209523Y-72710000D01*
X118161904Y-72757619D01*
X118114285Y-72852857D01*
X118114285Y-72995714D01*
X118161904Y-73090952D01*
X118209523Y-73138571D01*
X118304761Y-73186190D01*
X118685714Y-73186190D01*
%TO.C,J5*%
X75589776Y-83568995D02*
X75139321Y-83217061D01*
X75364548Y-83393028D02*
X74748664Y-84181324D01*
X74761571Y-84010054D01*
X74745151Y-83876323D01*
X74699403Y-83780129D01*
X75461884Y-84738553D02*
X75536960Y-84797208D01*
X75641363Y-84818326D01*
X75708229Y-84810116D01*
X75804423Y-84764368D01*
X75959272Y-84643544D01*
X76105911Y-84455855D01*
X76185684Y-84276375D01*
X76206802Y-84171971D01*
X76198592Y-84105106D01*
X76152844Y-84008912D01*
X76077768Y-83950257D01*
X75973365Y-83929139D01*
X75906499Y-83937349D01*
X75810305Y-83983097D01*
X75655456Y-84103921D01*
X75508817Y-84291610D01*
X75429044Y-84471090D01*
X75407926Y-84575493D01*
X75416136Y-84642359D01*
X75461884Y-84738553D01*
X77091292Y-84742108D02*
X76640837Y-84390174D01*
X76866064Y-84566141D02*
X76250180Y-85354437D01*
X76263088Y-85183168D01*
X76246668Y-85049436D01*
X76200920Y-84953243D01*
X77842050Y-85328664D02*
X77391595Y-84976730D01*
X77616822Y-85152697D02*
X77000938Y-85940993D01*
X77013846Y-85769724D01*
X76997426Y-85635993D01*
X76951678Y-85539799D01*
X77940571Y-86131053D02*
X77836167Y-86109935D01*
X77769301Y-86118145D01*
X77673108Y-86163893D01*
X77643780Y-86201431D01*
X77622662Y-86305835D01*
X77630872Y-86372701D01*
X77676620Y-86468894D01*
X77826772Y-86586206D01*
X77931176Y-86607323D01*
X77998041Y-86599113D01*
X78094235Y-86553365D01*
X78123563Y-86515827D01*
X78144681Y-86411424D01*
X78136470Y-86344558D01*
X78090722Y-86248364D01*
X77940571Y-86131053D01*
X77894823Y-86034860D01*
X77886613Y-85967994D01*
X77907731Y-85863590D01*
X78025042Y-85713439D01*
X78121235Y-85667691D01*
X78188101Y-85659481D01*
X78292505Y-85680598D01*
X78442656Y-85797910D01*
X78488404Y-85894103D01*
X78496614Y-85960969D01*
X78475497Y-86065373D01*
X78358185Y-86215524D01*
X78261992Y-86261272D01*
X78195126Y-86269482D01*
X78090722Y-86248364D01*
X79343566Y-86501777D02*
X78893111Y-86149843D01*
X79118339Y-86325810D02*
X78502454Y-87114106D01*
X78515362Y-86942837D01*
X78498942Y-86809106D01*
X78453194Y-86712912D01*
X79718945Y-86795056D02*
X79869097Y-86912367D01*
X79914845Y-87008561D01*
X79923055Y-87075426D01*
X79910147Y-87246696D01*
X79830374Y-87426175D01*
X79595751Y-87726478D01*
X79499558Y-87772226D01*
X79432692Y-87780436D01*
X79328288Y-87759319D01*
X79178137Y-87642007D01*
X79132389Y-87545814D01*
X79124179Y-87478948D01*
X79145296Y-87374544D01*
X79291935Y-87186855D01*
X79388129Y-87141107D01*
X79454995Y-87132897D01*
X79559398Y-87154015D01*
X79709550Y-87271326D01*
X79755298Y-87367519D01*
X79763508Y-87434385D01*
X79742390Y-87538789D01*
X80359417Y-88141765D02*
X80770007Y-87616235D01*
X79937105Y-88295430D02*
X80189333Y-87585722D01*
X80677325Y-87966984D01*
X80948301Y-88239144D02*
X81548907Y-88708389D01*
X81693176Y-89606972D02*
X81768252Y-89665627D01*
X81872656Y-89686745D01*
X81939521Y-89678535D01*
X82035715Y-89632787D01*
X82190564Y-89511963D01*
X82337203Y-89324274D01*
X82416977Y-89144794D01*
X82438095Y-89040391D01*
X82429884Y-88973525D01*
X82384136Y-88877331D01*
X82309061Y-88818676D01*
X82204657Y-88797558D01*
X82137791Y-88805768D01*
X82041598Y-88851516D01*
X81886749Y-88972340D01*
X81740109Y-89160029D01*
X81660336Y-89339509D01*
X81639218Y-89443912D01*
X81647428Y-89510778D01*
X81693176Y-89606972D01*
X82443934Y-90193528D02*
X82519010Y-90252184D01*
X82623414Y-90273302D01*
X82690280Y-90265092D01*
X82786473Y-90219344D01*
X82941322Y-90098520D01*
X83087961Y-89910830D01*
X83167735Y-89731351D01*
X83188853Y-89626947D01*
X83180643Y-89560081D01*
X83134895Y-89463888D01*
X83059819Y-89405232D01*
X82955415Y-89384114D01*
X82888549Y-89392325D01*
X82792356Y-89438072D01*
X82637507Y-89558896D01*
X82490867Y-89746586D01*
X82411094Y-89926065D01*
X82389976Y-90030469D01*
X82398186Y-90097335D01*
X82443934Y-90193528D01*
X83194693Y-90780085D02*
X83269768Y-90838740D01*
X83374172Y-90859858D01*
X83441038Y-90851648D01*
X83537231Y-90805900D01*
X83692080Y-90685076D01*
X83838720Y-90497387D01*
X83918493Y-90317907D01*
X83939611Y-90213504D01*
X83931401Y-90146638D01*
X83885653Y-90050444D01*
X83810577Y-89991789D01*
X83706173Y-89970671D01*
X83639307Y-89978881D01*
X83543114Y-90024629D01*
X83388265Y-90145453D01*
X83241626Y-90333142D01*
X83161852Y-90512622D01*
X83140734Y-90617025D01*
X83148945Y-90683891D01*
X83194693Y-90780085D01*
X84824100Y-90783640D02*
X84373645Y-90431706D01*
X84598873Y-90607673D02*
X83982989Y-91395969D01*
X83995896Y-91224700D01*
X83979476Y-91090968D01*
X83933728Y-90994775D01*
X85537321Y-91340869D02*
X85161941Y-91047590D01*
X84546057Y-91835886D01*
X85740245Y-92164375D02*
X85477480Y-91959080D01*
X85800086Y-91546163D02*
X85184201Y-92334459D01*
X85559581Y-92627738D01*
D14*
X90753468Y-93245782D02*
X90511082Y-93556023D01*
X90629269Y-93648361D01*
X90670358Y-93656672D01*
X90696673Y-93653441D01*
X90734531Y-93635436D01*
X90769158Y-93591116D01*
X90777469Y-93550027D01*
X90774238Y-93523712D01*
X90756233Y-93485854D01*
X90638046Y-93393516D01*
X91217905Y-93656222D02*
X91214674Y-93629907D01*
X91181896Y-93580507D01*
X91152349Y-93557422D01*
X91096487Y-93537569D01*
X91043856Y-93544031D01*
X91005998Y-93562036D01*
X90945056Y-93609587D01*
X90910429Y-93653907D01*
X90879033Y-93724543D01*
X90870722Y-93765632D01*
X90877185Y-93818263D01*
X90909963Y-93867663D01*
X90939509Y-93890747D01*
X90995372Y-93910601D01*
X91021687Y-93907369D01*
X91350399Y-93973858D02*
X91406261Y-93993711D01*
X91432577Y-93990480D01*
X91470434Y-93972476D01*
X91505061Y-93928156D01*
X91513372Y-93887067D01*
X91510141Y-93860751D01*
X91492136Y-93822893D01*
X91373950Y-93730555D01*
X91131563Y-94040796D01*
X91234977Y-94121592D01*
X91276065Y-94129903D01*
X91302381Y-94126672D01*
X91340239Y-94108667D01*
X91363323Y-94079120D01*
X91371634Y-94038031D01*
X91368403Y-94011716D01*
X91350399Y-93973858D01*
X91246985Y-93893062D01*
X91793600Y-94320124D02*
X91897013Y-94400920D01*
X92068298Y-94273040D02*
X91920564Y-94157617D01*
X91678177Y-94467858D01*
X91825911Y-94583280D01*
X92201258Y-94376920D02*
X91958871Y-94687160D01*
X92378538Y-94515426D01*
X92136152Y-94825667D01*
X92526272Y-94630848D02*
X92283885Y-94941089D01*
X92357752Y-94998800D01*
X92413614Y-95018653D01*
X92466246Y-95012191D01*
X92504103Y-94994187D01*
X92565046Y-94946635D01*
X92599672Y-94902315D01*
X92631068Y-94831680D01*
X92639379Y-94790591D01*
X92632917Y-94737959D01*
X92600139Y-94688559D01*
X92526272Y-94630848D01*
D11*
%TO.C,JP12*%
X137797738Y-99344804D02*
X137663051Y-99479491D01*
X137629380Y-99580507D01*
X137629380Y-99715194D01*
X137730395Y-99883552D01*
X137966097Y-100119255D01*
X138134456Y-100220270D01*
X138269143Y-100220270D01*
X138370158Y-100186598D01*
X138504845Y-100051911D01*
X138538517Y-99950896D01*
X138538517Y-99816209D01*
X138437502Y-99647850D01*
X138201799Y-99412148D01*
X138033441Y-99311133D01*
X137898754Y-99311133D01*
X137797738Y-99344804D01*
X137562036Y-100994720D02*
X137898754Y-100658003D01*
X137191647Y-99950896D01*
X136955945Y-100860033D02*
X136720242Y-101095736D01*
X136989616Y-101567140D02*
X137326334Y-101230423D01*
X136619227Y-100523316D01*
X136282509Y-100860033D01*
X136686570Y-101870186D02*
X135979464Y-101163079D01*
X135811105Y-101331438D01*
X135743761Y-101466125D01*
X135743761Y-101600812D01*
X135777433Y-101701827D01*
X135878448Y-101870186D01*
X135979464Y-101971201D01*
X136147822Y-102072216D01*
X136248838Y-102105888D01*
X136383525Y-102105888D01*
X136518212Y-102038545D01*
X136686570Y-101870186D01*
X135609074Y-102947682D02*
X136013135Y-102543621D01*
X135811105Y-102745651D02*
X135103998Y-102038545D01*
X135272357Y-102072216D01*
X135407044Y-102072216D01*
X135508059Y-102038545D01*
D15*
%TO.C,U3*%
X130271428Y-86618571D02*
X130295238Y-86642380D01*
X130366666Y-86666190D01*
X130414285Y-86666190D01*
X130485714Y-86642380D01*
X130533333Y-86594761D01*
X130557142Y-86547142D01*
X130580952Y-86451904D01*
X130580952Y-86380476D01*
X130557142Y-86285238D01*
X130533333Y-86237619D01*
X130485714Y-86190000D01*
X130414285Y-86166190D01*
X130366666Y-86166190D01*
X130295238Y-86190000D01*
X130271428Y-86213809D01*
X130057142Y-86666190D02*
X130057142Y-86166190D01*
X130057142Y-86404285D02*
X129771428Y-86404285D01*
X129771428Y-86666190D02*
X129771428Y-86166190D01*
X129580952Y-86166190D02*
X129271428Y-86166190D01*
X129438095Y-86356666D01*
X129366666Y-86356666D01*
X129319047Y-86380476D01*
X129295238Y-86404285D01*
X129271428Y-86451904D01*
X129271428Y-86570952D01*
X129295238Y-86618571D01*
X129319047Y-86642380D01*
X129366666Y-86666190D01*
X129509523Y-86666190D01*
X129557142Y-86642380D01*
X129580952Y-86618571D01*
X128842857Y-86332857D02*
X128842857Y-86666190D01*
X128961904Y-86142380D02*
X129080952Y-86499523D01*
X128771428Y-86499523D01*
X128485714Y-86166190D02*
X128438095Y-86166190D01*
X128390476Y-86190000D01*
X128366666Y-86213809D01*
X128342857Y-86261428D01*
X128319047Y-86356666D01*
X128319047Y-86475714D01*
X128342857Y-86570952D01*
X128366666Y-86618571D01*
X128390476Y-86642380D01*
X128438095Y-86666190D01*
X128485714Y-86666190D01*
X128533333Y-86642380D01*
X128557142Y-86618571D01*
X128580952Y-86570952D01*
X128604761Y-86475714D01*
X128604761Y-86356666D01*
X128580952Y-86261428D01*
X128557142Y-86213809D01*
X128533333Y-86190000D01*
X128485714Y-86166190D01*
X127819047Y-86618571D02*
X127842857Y-86642380D01*
X127914285Y-86666190D01*
X127961904Y-86666190D01*
X128033333Y-86642380D01*
X128080952Y-86594761D01*
X128104761Y-86547142D01*
X128128571Y-86451904D01*
X128128571Y-86380476D01*
X128104761Y-86285238D01*
X128080952Y-86237619D01*
X128033333Y-86190000D01*
X127961904Y-86166190D01*
X127914285Y-86166190D01*
X127842857Y-86190000D01*
X127819047Y-86213809D01*
D11*
X129681666Y-91528333D02*
X129681666Y-92321666D01*
X129635000Y-92415000D01*
X129588333Y-92461666D01*
X129495000Y-92508333D01*
X129308333Y-92508333D01*
X129215000Y-92461666D01*
X129168333Y-92415000D01*
X129121666Y-92321666D01*
X129121666Y-91528333D01*
X128748333Y-91528333D02*
X128141666Y-91528333D01*
X128468333Y-91901666D01*
X128328333Y-91901666D01*
X128235000Y-91948333D01*
X128188333Y-91995000D01*
X128141666Y-92088333D01*
X128141666Y-92321666D01*
X128188333Y-92415000D01*
X128235000Y-92461666D01*
X128328333Y-92508333D01*
X128608333Y-92508333D01*
X128701666Y-92461666D01*
X128748333Y-92415000D01*
D15*
%TO.C,BT1*%
X123967071Y-73924285D02*
X123895642Y-73948095D01*
X123871833Y-73971904D01*
X123848023Y-74019523D01*
X123848023Y-74090952D01*
X123871833Y-74138571D01*
X123895642Y-74162380D01*
X123943261Y-74186190D01*
X124133737Y-74186190D01*
X124133737Y-73686190D01*
X123967071Y-73686190D01*
X123919452Y-73710000D01*
X123895642Y-73733809D01*
X123871833Y-73781428D01*
X123871833Y-73829047D01*
X123895642Y-73876666D01*
X123919452Y-73900476D01*
X123967071Y-73924285D01*
X124133737Y-73924285D01*
X123705166Y-73686190D02*
X123419452Y-73686190D01*
X123562309Y-74186190D02*
X123562309Y-73686190D01*
X122990880Y-74186190D02*
X123276594Y-74186190D01*
X123133737Y-74186190D02*
X123133737Y-73686190D01*
X123181356Y-73757619D01*
X123228975Y-73805238D01*
X123276594Y-73829047D01*
X125589185Y-62904285D02*
X125517756Y-62928095D01*
X125493947Y-62951904D01*
X125470137Y-62999523D01*
X125470137Y-63070952D01*
X125493947Y-63118571D01*
X125517756Y-63142380D01*
X125565375Y-63166190D01*
X125755852Y-63166190D01*
X125755852Y-62666190D01*
X125589185Y-62666190D01*
X125541566Y-62690000D01*
X125517756Y-62713809D01*
X125493947Y-62761428D01*
X125493947Y-62809047D01*
X125517756Y-62856666D01*
X125541566Y-62880476D01*
X125589185Y-62904285D01*
X125755852Y-62904285D01*
X125041566Y-63166190D02*
X125041566Y-62904285D01*
X125065375Y-62856666D01*
X125112994Y-62832857D01*
X125208233Y-62832857D01*
X125255852Y-62856666D01*
X125041566Y-63142380D02*
X125089185Y-63166190D01*
X125208233Y-63166190D01*
X125255852Y-63142380D01*
X125279661Y-63094761D01*
X125279661Y-63047142D01*
X125255852Y-62999523D01*
X125208233Y-62975714D01*
X125089185Y-62975714D01*
X125041566Y-62951904D01*
X124874899Y-62832857D02*
X124684423Y-62832857D01*
X124803471Y-62666190D02*
X124803471Y-63094761D01*
X124779661Y-63142380D01*
X124732042Y-63166190D01*
X124684423Y-63166190D01*
X124589185Y-62832857D02*
X124398709Y-62832857D01*
X124517756Y-62666190D02*
X124517756Y-63094761D01*
X124493947Y-63142380D01*
X124446328Y-63166190D01*
X124398709Y-63166190D01*
X124041566Y-63142380D02*
X124089185Y-63166190D01*
X124184423Y-63166190D01*
X124232042Y-63142380D01*
X124255852Y-63094761D01*
X124255852Y-62904285D01*
X124232042Y-62856666D01*
X124184423Y-62832857D01*
X124089185Y-62832857D01*
X124041566Y-62856666D01*
X124017756Y-62904285D01*
X124017756Y-62951904D01*
X124255852Y-62999523D01*
X123803471Y-63166190D02*
X123803471Y-62832857D01*
X123803471Y-62928095D02*
X123779661Y-62880476D01*
X123755852Y-62856666D01*
X123708233Y-62832857D01*
X123660614Y-62832857D01*
X123541566Y-62832857D02*
X123422518Y-63166190D01*
X123303471Y-62832857D02*
X123422518Y-63166190D01*
X123470137Y-63285238D01*
X123493947Y-63309047D01*
X123541566Y-63332857D01*
X123112994Y-63166190D02*
X123112994Y-62666190D01*
X122922518Y-62666190D01*
X122874899Y-62690000D01*
X122851090Y-62713809D01*
X122827280Y-62761428D01*
X122827280Y-62832857D01*
X122851090Y-62880476D01*
X122874899Y-62904285D01*
X122922518Y-62928095D01*
X123112994Y-62928095D01*
X122398709Y-63166190D02*
X122398709Y-62904285D01*
X122422518Y-62856666D01*
X122470137Y-62832857D01*
X122565375Y-62832857D01*
X122612994Y-62856666D01*
X122398709Y-63142380D02*
X122446328Y-63166190D01*
X122565375Y-63166190D01*
X122612994Y-63142380D01*
X122636804Y-63094761D01*
X122636804Y-63047142D01*
X122612994Y-62999523D01*
X122565375Y-62975714D01*
X122446328Y-62975714D01*
X122398709Y-62951904D01*
X121946328Y-63142380D02*
X121993947Y-63166190D01*
X122089185Y-63166190D01*
X122136804Y-63142380D01*
X122160614Y-63118571D01*
X122184423Y-63070952D01*
X122184423Y-62928095D01*
X122160614Y-62880476D01*
X122136804Y-62856666D01*
X122089185Y-62832857D01*
X121993947Y-62832857D01*
X121946328Y-62856666D01*
X121732042Y-63166190D02*
X121732042Y-62666190D01*
X121684423Y-62975714D02*
X121541566Y-63166190D01*
X121541566Y-62832857D02*
X121732042Y-63023333D01*
X123997071Y-64564285D02*
X123925642Y-64588095D01*
X123901833Y-64611904D01*
X123878023Y-64659523D01*
X123878023Y-64730952D01*
X123901833Y-64778571D01*
X123925642Y-64802380D01*
X123973261Y-64826190D01*
X124163737Y-64826190D01*
X124163737Y-64326190D01*
X123997071Y-64326190D01*
X123949452Y-64350000D01*
X123925642Y-64373809D01*
X123901833Y-64421428D01*
X123901833Y-64469047D01*
X123925642Y-64516666D01*
X123949452Y-64540476D01*
X123997071Y-64564285D01*
X124163737Y-64564285D01*
X123735166Y-64326190D02*
X123449452Y-64326190D01*
X123592309Y-64826190D02*
X123592309Y-64326190D01*
X123020880Y-64826190D02*
X123306594Y-64826190D01*
X123163737Y-64826190D02*
X123163737Y-64326190D01*
X123211356Y-64397619D01*
X123258975Y-64445238D01*
X123306594Y-64469047D01*
D11*
X177530952Y-64671428D02*
X176769047Y-64671428D01*
X120575166Y-64671428D02*
X119813261Y-64671428D01*
X120194214Y-65052380D02*
X120194214Y-64290476D01*
%TO.C,JP15*%
X154372571Y-105122380D02*
X154182095Y-105122380D01*
X154086857Y-105170000D01*
X153991619Y-105265238D01*
X153944000Y-105455714D01*
X153944000Y-105789047D01*
X153991619Y-105979523D01*
X154086857Y-106074761D01*
X154182095Y-106122380D01*
X154372571Y-106122380D01*
X154467809Y-106074761D01*
X154563047Y-105979523D01*
X154610666Y-105789047D01*
X154610666Y-105455714D01*
X154563047Y-105265238D01*
X154467809Y-105170000D01*
X154372571Y-105122380D01*
X153039238Y-106122380D02*
X153515428Y-106122380D01*
X153515428Y-105122380D01*
X152705904Y-105598571D02*
X152372571Y-105598571D01*
X152229714Y-106122380D02*
X152705904Y-106122380D01*
X152705904Y-105122380D01*
X152229714Y-105122380D01*
X151801142Y-106122380D02*
X151801142Y-105122380D01*
X151563047Y-105122380D01*
X151420190Y-105170000D01*
X151324952Y-105265238D01*
X151277333Y-105360476D01*
X151229714Y-105550952D01*
X151229714Y-105693809D01*
X151277333Y-105884285D01*
X151324952Y-105979523D01*
X151420190Y-106074761D01*
X151563047Y-106122380D01*
X151801142Y-106122380D01*
X150372571Y-105455714D02*
X150372571Y-106122380D01*
X150610666Y-105074761D02*
X150848761Y-105789047D01*
X150229714Y-105789047D01*
%TO.C,R32*%
X119417619Y-65582380D02*
X119322380Y-65582380D01*
X119227142Y-65630000D01*
X119179523Y-65677619D01*
X119131904Y-65772857D01*
X119084285Y-65963333D01*
X119084285Y-66201428D01*
X119131904Y-66391904D01*
X119179523Y-66487142D01*
X119227142Y-66534761D01*
X119322380Y-66582380D01*
X119417619Y-66582380D01*
X119512857Y-66534761D01*
X119560476Y-66487142D01*
X119608095Y-66391904D01*
X119655714Y-66201428D01*
X119655714Y-65963333D01*
X119608095Y-65772857D01*
X119560476Y-65677619D01*
X119512857Y-65630000D01*
X119417619Y-65582380D01*
X118084285Y-66582380D02*
X118417619Y-66106190D01*
X118655714Y-66582380D02*
X118655714Y-65582380D01*
X118274761Y-65582380D01*
X118179523Y-65630000D01*
X118131904Y-65677619D01*
X118084285Y-65772857D01*
X118084285Y-65915714D01*
X118131904Y-66010952D01*
X118179523Y-66058571D01*
X118274761Y-66106190D01*
X118655714Y-66106190D01*
%TO.C,J3*%
X101482380Y-62007142D02*
X101482380Y-62578571D01*
X102482380Y-62292857D02*
X101482380Y-62292857D01*
X102482380Y-62911904D02*
X101482380Y-62911904D01*
X102482380Y-63340476D02*
X101958571Y-63340476D01*
X101863333Y-63292857D01*
X101815714Y-63197619D01*
X101815714Y-63054761D01*
X101863333Y-62959523D01*
X101910952Y-62911904D01*
X102434761Y-64197619D02*
X102482380Y-64102380D01*
X102482380Y-63911904D01*
X102434761Y-63816666D01*
X102339523Y-63769047D01*
X101958571Y-63769047D01*
X101863333Y-63816666D01*
X101815714Y-63911904D01*
X101815714Y-64102380D01*
X101863333Y-64197619D01*
X101958571Y-64245238D01*
X102053809Y-64245238D01*
X102149047Y-63769047D01*
X102482380Y-64673809D02*
X101815714Y-64673809D01*
X102006190Y-64673809D02*
X101910952Y-64721428D01*
X101863333Y-64769047D01*
X101815714Y-64864285D01*
X101815714Y-64959523D01*
X102482380Y-65292857D02*
X101815714Y-65292857D01*
X101910952Y-65292857D02*
X101863333Y-65340476D01*
X101815714Y-65435714D01*
X101815714Y-65578571D01*
X101863333Y-65673809D01*
X101958571Y-65721428D01*
X102482380Y-65721428D01*
X101958571Y-65721428D02*
X101863333Y-65769047D01*
X101815714Y-65864285D01*
X101815714Y-66007142D01*
X101863333Y-66102380D01*
X101958571Y-66150000D01*
X102482380Y-66150000D01*
X98763333Y-63602380D02*
X98763333Y-64316666D01*
X98810952Y-64459523D01*
X98906190Y-64554761D01*
X99049047Y-64602380D01*
X99144285Y-64602380D01*
X98382380Y-63602380D02*
X97763333Y-63602380D01*
X98096666Y-63983333D01*
X97953809Y-63983333D01*
X97858571Y-64030952D01*
X97810952Y-64078571D01*
X97763333Y-64173809D01*
X97763333Y-64411904D01*
X97810952Y-64507142D01*
X97858571Y-64554761D01*
X97953809Y-64602380D01*
X98239523Y-64602380D01*
X98334761Y-64554761D01*
X98382380Y-64507142D01*
%TO.C,JP4*%
X212799885Y-79513780D02*
X213133219Y-79037590D01*
X213371314Y-79513780D02*
X213371314Y-78513780D01*
X212990361Y-78513780D01*
X212895123Y-78561400D01*
X212847504Y-78609019D01*
X212799885Y-78704257D01*
X212799885Y-78847114D01*
X212847504Y-78942352D01*
X212895123Y-78989971D01*
X212990361Y-79037590D01*
X213371314Y-79037590D01*
X212037980Y-78989971D02*
X211895123Y-79037590D01*
X211847504Y-79085209D01*
X211799885Y-79180447D01*
X211799885Y-79323304D01*
X211847504Y-79418542D01*
X211895123Y-79466161D01*
X211990361Y-79513780D01*
X212371314Y-79513780D01*
X212371314Y-78513780D01*
X212037980Y-78513780D01*
X211942742Y-78561400D01*
X211895123Y-78609019D01*
X211847504Y-78704257D01*
X211847504Y-78799495D01*
X211895123Y-78894733D01*
X211942742Y-78942352D01*
X212037980Y-78989971D01*
X212371314Y-78989971D01*
X211466552Y-78847114D02*
X211228457Y-79513780D01*
X210990361Y-78847114D02*
X211228457Y-79513780D01*
X211323695Y-79751876D01*
X211371314Y-79799495D01*
X211466552Y-79847114D01*
X210609409Y-78847114D02*
X210609409Y-79847114D01*
X210609409Y-78894733D02*
X210514171Y-78847114D01*
X210323695Y-78847114D01*
X210228457Y-78894733D01*
X210180838Y-78942352D01*
X210133219Y-79037590D01*
X210133219Y-79323304D01*
X210180838Y-79418542D01*
X210228457Y-79466161D01*
X210323695Y-79513780D01*
X210514171Y-79513780D01*
X210609409Y-79466161D01*
X209276076Y-79513780D02*
X209276076Y-78989971D01*
X209323695Y-78894733D01*
X209418933Y-78847114D01*
X209609409Y-78847114D01*
X209704647Y-78894733D01*
X209276076Y-79466161D02*
X209371314Y-79513780D01*
X209609409Y-79513780D01*
X209704647Y-79466161D01*
X209752266Y-79370923D01*
X209752266Y-79275685D01*
X209704647Y-79180447D01*
X209609409Y-79132828D01*
X209371314Y-79132828D01*
X209276076Y-79085209D01*
X208847504Y-79466161D02*
X208752266Y-79513780D01*
X208561790Y-79513780D01*
X208466552Y-79466161D01*
X208418933Y-79370923D01*
X208418933Y-79323304D01*
X208466552Y-79228066D01*
X208561790Y-79180447D01*
X208704647Y-79180447D01*
X208799885Y-79132828D01*
X208847504Y-79037590D01*
X208847504Y-78989971D01*
X208799885Y-78894733D01*
X208704647Y-78847114D01*
X208561790Y-78847114D01*
X208466552Y-78894733D01*
X208037980Y-79466161D02*
X207942742Y-79513780D01*
X207752266Y-79513780D01*
X207657028Y-79466161D01*
X207609409Y-79370923D01*
X207609409Y-79323304D01*
X207657028Y-79228066D01*
X207752266Y-79180447D01*
X207895123Y-79180447D01*
X207990361Y-79132828D01*
X208037980Y-79037590D01*
X208037980Y-78989971D01*
X207990361Y-78894733D01*
X207895123Y-78847114D01*
X207752266Y-78847114D01*
X207657028Y-78894733D01*
X207228457Y-79228066D02*
X206752266Y-79228066D01*
X207323695Y-79513780D02*
X206990361Y-78513780D01*
X206657028Y-79513780D01*
%TO.C,J4*%
X219919285Y-81102380D02*
X219919285Y-80102380D01*
X219538333Y-80102380D01*
X219443095Y-80150000D01*
X219395476Y-80197619D01*
X219347857Y-80292857D01*
X219347857Y-80435714D01*
X219395476Y-80530952D01*
X219443095Y-80578571D01*
X219538333Y-80626190D01*
X219919285Y-80626190D01*
X218633571Y-80102380D02*
X218633571Y-80816666D01*
X218681190Y-80959523D01*
X218776428Y-81054761D01*
X218919285Y-81102380D01*
X219014523Y-81102380D01*
X218157380Y-80721428D02*
X217395476Y-80721428D01*
X217014523Y-80102380D02*
X216395476Y-80102380D01*
X216728809Y-80483333D01*
X216585952Y-80483333D01*
X216490714Y-80530952D01*
X216443095Y-80578571D01*
X216395476Y-80673809D01*
X216395476Y-80911904D01*
X216443095Y-81007142D01*
X216490714Y-81054761D01*
X216585952Y-81102380D01*
X216871666Y-81102380D01*
X216966904Y-81054761D01*
X217014523Y-81007142D01*
X216014523Y-80197619D02*
X215966904Y-80150000D01*
X215871666Y-80102380D01*
X215633571Y-80102380D01*
X215538333Y-80150000D01*
X215490714Y-80197619D01*
X215443095Y-80292857D01*
X215443095Y-80388095D01*
X215490714Y-80530952D01*
X216062142Y-81102380D01*
X215443095Y-81102380D01*
X214824047Y-80102380D02*
X214728809Y-80102380D01*
X214633571Y-80150000D01*
X214585952Y-80197619D01*
X214538333Y-80292857D01*
X214490714Y-80483333D01*
X214490714Y-80721428D01*
X214538333Y-80911904D01*
X214585952Y-81007142D01*
X214633571Y-81054761D01*
X214728809Y-81102380D01*
X214824047Y-81102380D01*
X214919285Y-81054761D01*
X214966904Y-81007142D01*
X215014523Y-80911904D01*
X215062142Y-80721428D01*
X215062142Y-80483333D01*
X215014523Y-80292857D01*
X214966904Y-80197619D01*
X214919285Y-80150000D01*
X214824047Y-80102380D01*
X214062142Y-81102380D02*
X214062142Y-80102380D01*
X213824047Y-80102380D01*
X213681190Y-80150000D01*
X213585952Y-80245238D01*
X213538333Y-80340476D01*
X213490714Y-80530952D01*
X213490714Y-80673809D01*
X213538333Y-80864285D01*
X213585952Y-80959523D01*
X213681190Y-81054761D01*
X213824047Y-81102380D01*
X214062142Y-81102380D01*
X213062142Y-80721428D02*
X212300238Y-80721428D01*
X211395476Y-80435714D02*
X211395476Y-81102380D01*
X211633571Y-80054761D02*
X211871666Y-80769047D01*
X211252619Y-80769047D01*
X210919285Y-80816666D02*
X210443095Y-80816666D01*
X211014523Y-81102380D02*
X210681190Y-80102380D01*
X210347857Y-81102380D01*
X216708333Y-73752380D02*
X216708333Y-74466666D01*
X216755952Y-74609523D01*
X216851190Y-74704761D01*
X216994047Y-74752380D01*
X217089285Y-74752380D01*
X215803571Y-74085714D02*
X215803571Y-74752380D01*
X216041666Y-73704761D02*
X216279761Y-74419047D01*
X215660714Y-74419047D01*
%TO.C,JP14*%
X149722571Y-101312380D02*
X149532095Y-101312380D01*
X149436857Y-101360000D01*
X149341619Y-101455238D01*
X149294000Y-101645714D01*
X149294000Y-101979047D01*
X149341619Y-102169523D01*
X149436857Y-102264761D01*
X149532095Y-102312380D01*
X149722571Y-102312380D01*
X149817809Y-102264761D01*
X149913047Y-102169523D01*
X149960666Y-101979047D01*
X149960666Y-101645714D01*
X149913047Y-101455238D01*
X149817809Y-101360000D01*
X149722571Y-101312380D01*
X148389238Y-102312380D02*
X148865428Y-102312380D01*
X148865428Y-101312380D01*
X148055904Y-101788571D02*
X147722571Y-101788571D01*
X147579714Y-102312380D02*
X148055904Y-102312380D01*
X148055904Y-101312380D01*
X147579714Y-101312380D01*
X147151142Y-102312380D02*
X147151142Y-101312380D01*
X146913047Y-101312380D01*
X146770190Y-101360000D01*
X146674952Y-101455238D01*
X146627333Y-101550476D01*
X146579714Y-101740952D01*
X146579714Y-101883809D01*
X146627333Y-102074285D01*
X146674952Y-102169523D01*
X146770190Y-102264761D01*
X146913047Y-102312380D01*
X147151142Y-102312380D01*
X146246380Y-101312380D02*
X145627333Y-101312380D01*
X145960666Y-101693333D01*
X145817809Y-101693333D01*
X145722571Y-101740952D01*
X145674952Y-101788571D01*
X145627333Y-101883809D01*
X145627333Y-102121904D01*
X145674952Y-102217142D01*
X145722571Y-102264761D01*
X145817809Y-102312380D01*
X146103523Y-102312380D01*
X146198761Y-102264761D01*
X146246380Y-102217142D01*
D10*
%TO.C,U6*%
X161840000Y-98400000D02*
X162340000Y-98900000D01*
X142560000Y-98900000D02*
X142560000Y-80900000D01*
X142560000Y-80900000D02*
X168065000Y-80900000D01*
X161340000Y-98900000D02*
X161840000Y-98400000D01*
X161340000Y-98900000D02*
X142560000Y-98900000D01*
X168065000Y-98900000D02*
X162340000Y-98900000D01*
X168065000Y-98900000D02*
X168065000Y-80900000D01*
D16*
%TO.C,J5*%
X96038016Y-91318900D02*
X90206736Y-86763005D01*
X87559392Y-90151451D02*
X90206736Y-86763005D01*
X92959709Y-95258954D02*
X92889512Y-95876689D01*
X93390672Y-94707346D02*
X92959709Y-95258954D01*
X92889512Y-95876689D02*
X86546025Y-90920614D01*
X96038016Y-91318900D02*
X93390672Y-94707346D01*
X86546025Y-90920614D02*
X87128429Y-90703059D01*
X93390672Y-94707346D02*
X87559392Y-90151451D01*
X87128429Y-90703059D02*
X87559392Y-90151451D01*
D17*
X95055769Y-88887082D02*
G75*
G03*
X95055769Y-88887082I-100001J0D01*
G01*
D10*
%TO.C,U3*%
X126985000Y-96040000D02*
X127960000Y-97015000D01*
X127960000Y-97015000D02*
X130885000Y-97015000D01*
X130885000Y-87115000D02*
X126985000Y-87115000D01*
X130885000Y-97015000D02*
X130885000Y-87115000D01*
X126985000Y-87115000D02*
X126985000Y-96040000D01*
%TO.C,BT1*%
X121094214Y-56095000D02*
X178094214Y-56095000D01*
X121094214Y-72985000D02*
X121094214Y-56095000D01*
X178094214Y-56095000D02*
X178094214Y-72985000D01*
X178094214Y-72985000D02*
X121094214Y-72985000D01*
%TO.C,J3*%
X95890000Y-65420000D02*
X100970000Y-65420000D01*
X96525000Y-62880000D02*
X95890000Y-63515000D01*
X100970000Y-62880000D02*
X96525000Y-62880000D01*
X95890000Y-63515000D02*
X95890000Y-65420000D01*
X100970000Y-65420000D02*
X100970000Y-62880000D01*
%TO.C,J4*%
X209605000Y-71400000D02*
X209605000Y-77200000D01*
X223405000Y-76600000D02*
X223405000Y-72000000D01*
X209605000Y-77200000D02*
X221405000Y-77200000D01*
X221405000Y-76600000D02*
X223405000Y-76600000D01*
X221405000Y-77200000D02*
X221405000Y-76600000D01*
X223405000Y-72000000D02*
X221405000Y-72000000D01*
X221405000Y-71400000D02*
X209605000Y-71400000D01*
X221405000Y-72000000D02*
X221405000Y-71400000D01*
D18*
X211534951Y-71950000D02*
G75*
G03*
X211534951Y-71950000I-254951J0D01*
G01*
%TD*%
M02*
