%TF.GenerationSoftware,KiCad,Pcbnew,(6.0.5)*%
%TF.CreationDate,2022-10-04T23:24:20-07:00*%
%TF.ProjectId,Monkeys,4d6f6e6b-6579-4732-9e6b-696361645f70,2.0*%
%TF.SameCoordinates,Original*%
%TF.FileFunction,Paste,Bot*%
%TF.FilePolarity,Positive*%
%FSLAX46Y46*%
G04 Gerber Fmt 4.6, Leading zero omitted, Abs format (unit mm)*
G04 Created by KiCad (PCBNEW (6.0.5)) date 2022-10-04 23:24:20*
%MOMM*%
%LPD*%
G01*
G04 APERTURE LIST*
G04 Aperture macros list*
%AMRoundRect*
0 Rectangle with rounded corners*
0 $1 Rounding radius*
0 $2 $3 $4 $5 $6 $7 $8 $9 X,Y pos of 4 corners*
0 Add a 4 corners polygon primitive as box body*
4,1,4,$2,$3,$4,$5,$6,$7,$8,$9,$2,$3,0*
0 Add four circle primitives for the rounded corners*
1,1,$1+$1,$2,$3*
1,1,$1+$1,$4,$5*
1,1,$1+$1,$6,$7*
1,1,$1+$1,$8,$9*
0 Add four rect primitives between the rounded corners*
20,1,$1+$1,$2,$3,$4,$5,0*
20,1,$1+$1,$4,$5,$6,$7,0*
20,1,$1+$1,$6,$7,$8,$9,0*
20,1,$1+$1,$8,$9,$2,$3,0*%
%AMRotRect*
0 Rectangle, with rotation*
0 The origin of the aperture is its center*
0 $1 length*
0 $2 width*
0 $3 Rotation angle, in degrees counterclockwise*
0 Add horizontal line*
21,1,$1,$2,0,0,$3*%
G04 Aperture macros list end*
%ADD10C,0.100000*%
%ADD11C,0.150000*%
%ADD12C,0.300000*%
%ADD13C,0.400000*%
%ADD14C,0.000100*%
%ADD15R,0.900000X2.000000*%
%ADD16R,2.000000X0.900000*%
%ADD17R,5.000000X5.000000*%
%ADD18RotRect,0.400000X1.350000X142.000000*%
%ADD19RoundRect,0.400000X0.147741X-0.623035X0.640270X0.007374X-0.147741X0.623035X-0.640270X-0.007374X0*%
%ADD20RotRect,1.500000X1.550000X142.000000*%
%ADD21RoundRect,0.150000X-0.825000X-0.150000X0.825000X-0.150000X0.825000X0.150000X-0.825000X0.150000X0*%
%ADD22R,1.200000X2.500000*%
G04 APERTURE END LIST*
D10*
D11*
X177002200Y-166007200D02*
X177002200Y-198007200D01*
X285002200Y-198007200D01*
X285002200Y-166007200D01*
X177002200Y-166007200D01*
D10*
D11*
X10000000Y-10000000D02*
X10000000Y-200007200D01*
X287002200Y-200007200D01*
X287002200Y-10000000D01*
X10000000Y-10000000D01*
D10*
D11*
X12000000Y-12000000D02*
X12000000Y-198007200D01*
X285002200Y-198007200D01*
X285002200Y-12000000D01*
X12000000Y-12000000D01*
D10*
D11*
X60000000Y-12000000D02*
X60000000Y-10000000D01*
D10*
D11*
X110000000Y-12000000D02*
X110000000Y-10000000D01*
D10*
D11*
X160000000Y-12000000D02*
X160000000Y-10000000D01*
D10*
D11*
X210000000Y-12000000D02*
X210000000Y-10000000D01*
D10*
D11*
X260000000Y-12000000D02*
X260000000Y-10000000D01*
D10*
D11*
X36065476Y-11588095D02*
X35322619Y-11588095D01*
X35694047Y-11588095D02*
X35694047Y-10288095D01*
X35570238Y-10473809D01*
X35446428Y-10597619D01*
X35322619Y-10659523D01*
D10*
D11*
X85322619Y-10411904D02*
X85384523Y-10350000D01*
X85508333Y-10288095D01*
X85817857Y-10288095D01*
X85941666Y-10350000D01*
X86003571Y-10411904D01*
X86065476Y-10535714D01*
X86065476Y-10659523D01*
X86003571Y-10845238D01*
X85260714Y-11588095D01*
X86065476Y-11588095D01*
D10*
D11*
X135260714Y-10288095D02*
X136065476Y-10288095D01*
X135632142Y-10783333D01*
X135817857Y-10783333D01*
X135941666Y-10845238D01*
X136003571Y-10907142D01*
X136065476Y-11030952D01*
X136065476Y-11340476D01*
X136003571Y-11464285D01*
X135941666Y-11526190D01*
X135817857Y-11588095D01*
X135446428Y-11588095D01*
X135322619Y-11526190D01*
X135260714Y-11464285D01*
D10*
D11*
X185941666Y-10721428D02*
X185941666Y-11588095D01*
X185632142Y-10226190D02*
X185322619Y-11154761D01*
X186127380Y-11154761D01*
D10*
D11*
X236003571Y-10288095D02*
X235384523Y-10288095D01*
X235322619Y-10907142D01*
X235384523Y-10845238D01*
X235508333Y-10783333D01*
X235817857Y-10783333D01*
X235941666Y-10845238D01*
X236003571Y-10907142D01*
X236065476Y-11030952D01*
X236065476Y-11340476D01*
X236003571Y-11464285D01*
X235941666Y-11526190D01*
X235817857Y-11588095D01*
X235508333Y-11588095D01*
X235384523Y-11526190D01*
X235322619Y-11464285D01*
D10*
D11*
X285941666Y-10288095D02*
X285694047Y-10288095D01*
X285570238Y-10350000D01*
X285508333Y-10411904D01*
X285384523Y-10597619D01*
X285322619Y-10845238D01*
X285322619Y-11340476D01*
X285384523Y-11464285D01*
X285446428Y-11526190D01*
X285570238Y-11588095D01*
X285817857Y-11588095D01*
X285941666Y-11526190D01*
X286003571Y-11464285D01*
X286065476Y-11340476D01*
X286065476Y-11030952D01*
X286003571Y-10907142D01*
X285941666Y-10845238D01*
X285817857Y-10783333D01*
X285570238Y-10783333D01*
X285446428Y-10845238D01*
X285384523Y-10907142D01*
X285322619Y-11030952D01*
D10*
D11*
X60000000Y-198007200D02*
X60000000Y-200007200D01*
D10*
D11*
X110000000Y-198007200D02*
X110000000Y-200007200D01*
D10*
D11*
X160000000Y-198007200D02*
X160000000Y-200007200D01*
D10*
D11*
X210000000Y-198007200D02*
X210000000Y-200007200D01*
D10*
D11*
X260000000Y-198007200D02*
X260000000Y-200007200D01*
D10*
D11*
X36065476Y-199595295D02*
X35322619Y-199595295D01*
X35694047Y-199595295D02*
X35694047Y-198295295D01*
X35570238Y-198481009D01*
X35446428Y-198604819D01*
X35322619Y-198666723D01*
D10*
D11*
X85322619Y-198419104D02*
X85384523Y-198357200D01*
X85508333Y-198295295D01*
X85817857Y-198295295D01*
X85941666Y-198357200D01*
X86003571Y-198419104D01*
X86065476Y-198542914D01*
X86065476Y-198666723D01*
X86003571Y-198852438D01*
X85260714Y-199595295D01*
X86065476Y-199595295D01*
D10*
D11*
X135260714Y-198295295D02*
X136065476Y-198295295D01*
X135632142Y-198790533D01*
X135817857Y-198790533D01*
X135941666Y-198852438D01*
X136003571Y-198914342D01*
X136065476Y-199038152D01*
X136065476Y-199347676D01*
X136003571Y-199471485D01*
X135941666Y-199533390D01*
X135817857Y-199595295D01*
X135446428Y-199595295D01*
X135322619Y-199533390D01*
X135260714Y-199471485D01*
D10*
D11*
X185941666Y-198728628D02*
X185941666Y-199595295D01*
X185632142Y-198233390D02*
X185322619Y-199161961D01*
X186127380Y-199161961D01*
D10*
D11*
X236003571Y-198295295D02*
X235384523Y-198295295D01*
X235322619Y-198914342D01*
X235384523Y-198852438D01*
X235508333Y-198790533D01*
X235817857Y-198790533D01*
X235941666Y-198852438D01*
X236003571Y-198914342D01*
X236065476Y-199038152D01*
X236065476Y-199347676D01*
X236003571Y-199471485D01*
X235941666Y-199533390D01*
X235817857Y-199595295D01*
X235508333Y-199595295D01*
X235384523Y-199533390D01*
X235322619Y-199471485D01*
D10*
D11*
X285941666Y-198295295D02*
X285694047Y-198295295D01*
X285570238Y-198357200D01*
X285508333Y-198419104D01*
X285384523Y-198604819D01*
X285322619Y-198852438D01*
X285322619Y-199347676D01*
X285384523Y-199471485D01*
X285446428Y-199533390D01*
X285570238Y-199595295D01*
X285817857Y-199595295D01*
X285941666Y-199533390D01*
X286003571Y-199471485D01*
X286065476Y-199347676D01*
X286065476Y-199038152D01*
X286003571Y-198914342D01*
X285941666Y-198852438D01*
X285817857Y-198790533D01*
X285570238Y-198790533D01*
X285446428Y-198852438D01*
X285384523Y-198914342D01*
X285322619Y-199038152D01*
D10*
D11*
X10000000Y-60000000D02*
X12000000Y-60000000D01*
D10*
D11*
X10000000Y-110000000D02*
X12000000Y-110000000D01*
D10*
D11*
X10000000Y-160000000D02*
X12000000Y-160000000D01*
D10*
D11*
X10690476Y-35216666D02*
X11309523Y-35216666D01*
X10566666Y-35588095D02*
X11000000Y-34288095D01*
X11433333Y-35588095D01*
D10*
D11*
X11092857Y-84907142D02*
X11278571Y-84969047D01*
X11340476Y-85030952D01*
X11402380Y-85154761D01*
X11402380Y-85340476D01*
X11340476Y-85464285D01*
X11278571Y-85526190D01*
X11154761Y-85588095D01*
X10659523Y-85588095D01*
X10659523Y-84288095D01*
X11092857Y-84288095D01*
X11216666Y-84350000D01*
X11278571Y-84411904D01*
X11340476Y-84535714D01*
X11340476Y-84659523D01*
X11278571Y-84783333D01*
X11216666Y-84845238D01*
X11092857Y-84907142D01*
X10659523Y-84907142D01*
D10*
D11*
X11402380Y-135464285D02*
X11340476Y-135526190D01*
X11154761Y-135588095D01*
X11030952Y-135588095D01*
X10845238Y-135526190D01*
X10721428Y-135402380D01*
X10659523Y-135278571D01*
X10597619Y-135030952D01*
X10597619Y-134845238D01*
X10659523Y-134597619D01*
X10721428Y-134473809D01*
X10845238Y-134350000D01*
X11030952Y-134288095D01*
X11154761Y-134288095D01*
X11340476Y-134350000D01*
X11402380Y-134411904D01*
D10*
D11*
X10659523Y-185588095D02*
X10659523Y-184288095D01*
X10969047Y-184288095D01*
X11154761Y-184350000D01*
X11278571Y-184473809D01*
X11340476Y-184597619D01*
X11402380Y-184845238D01*
X11402380Y-185030952D01*
X11340476Y-185278571D01*
X11278571Y-185402380D01*
X11154761Y-185526190D01*
X10969047Y-185588095D01*
X10659523Y-185588095D01*
D10*
D11*
X287002200Y-60000000D02*
X285002200Y-60000000D01*
D10*
D11*
X287002200Y-110000000D02*
X285002200Y-110000000D01*
D10*
D11*
X287002200Y-160000000D02*
X285002200Y-160000000D01*
D10*
D11*
X285692676Y-35216666D02*
X286311723Y-35216666D01*
X285568866Y-35588095D02*
X286002200Y-34288095D01*
X286435533Y-35588095D01*
D10*
D11*
X286095057Y-84907142D02*
X286280771Y-84969047D01*
X286342676Y-85030952D01*
X286404580Y-85154761D01*
X286404580Y-85340476D01*
X286342676Y-85464285D01*
X286280771Y-85526190D01*
X286156961Y-85588095D01*
X285661723Y-85588095D01*
X285661723Y-84288095D01*
X286095057Y-84288095D01*
X286218866Y-84350000D01*
X286280771Y-84411904D01*
X286342676Y-84535714D01*
X286342676Y-84659523D01*
X286280771Y-84783333D01*
X286218866Y-84845238D01*
X286095057Y-84907142D01*
X285661723Y-84907142D01*
D10*
D11*
X286404580Y-135464285D02*
X286342676Y-135526190D01*
X286156961Y-135588095D01*
X286033152Y-135588095D01*
X285847438Y-135526190D01*
X285723628Y-135402380D01*
X285661723Y-135278571D01*
X285599819Y-135030952D01*
X285599819Y-134845238D01*
X285661723Y-134597619D01*
X285723628Y-134473809D01*
X285847438Y-134350000D01*
X286033152Y-134288095D01*
X286156961Y-134288095D01*
X286342676Y-134350000D01*
X286404580Y-134411904D01*
D10*
D11*
X285661723Y-185588095D02*
X285661723Y-184288095D01*
X285971247Y-184288095D01*
X286156961Y-184350000D01*
X286280771Y-184473809D01*
X286342676Y-184597619D01*
X286404580Y-184845238D01*
X286404580Y-185030952D01*
X286342676Y-185278571D01*
X286280771Y-185402380D01*
X286156961Y-185526190D01*
X285971247Y-185588095D01*
X285661723Y-185588095D01*
D10*
D11*
X200434342Y-193785771D02*
X200434342Y-192285771D01*
X200791485Y-192285771D01*
X201005771Y-192357200D01*
X201148628Y-192500057D01*
X201220057Y-192642914D01*
X201291485Y-192928628D01*
X201291485Y-193142914D01*
X201220057Y-193428628D01*
X201148628Y-193571485D01*
X201005771Y-193714342D01*
X200791485Y-193785771D01*
X200434342Y-193785771D01*
X202577200Y-193785771D02*
X202577200Y-193000057D01*
X202505771Y-192857200D01*
X202362914Y-192785771D01*
X202077200Y-192785771D01*
X201934342Y-192857200D01*
X202577200Y-193714342D02*
X202434342Y-193785771D01*
X202077200Y-193785771D01*
X201934342Y-193714342D01*
X201862914Y-193571485D01*
X201862914Y-193428628D01*
X201934342Y-193285771D01*
X202077200Y-193214342D01*
X202434342Y-193214342D01*
X202577200Y-193142914D01*
X203077200Y-192785771D02*
X203648628Y-192785771D01*
X203291485Y-192285771D02*
X203291485Y-193571485D01*
X203362914Y-193714342D01*
X203505771Y-193785771D01*
X203648628Y-193785771D01*
X204720057Y-193714342D02*
X204577200Y-193785771D01*
X204291485Y-193785771D01*
X204148628Y-193714342D01*
X204077200Y-193571485D01*
X204077200Y-193000057D01*
X204148628Y-192857200D01*
X204291485Y-192785771D01*
X204577200Y-192785771D01*
X204720057Y-192857200D01*
X204791485Y-193000057D01*
X204791485Y-193142914D01*
X204077200Y-193285771D01*
X205434342Y-193642914D02*
X205505771Y-193714342D01*
X205434342Y-193785771D01*
X205362914Y-193714342D01*
X205434342Y-193642914D01*
X205434342Y-193785771D01*
X205434342Y-192857200D02*
X205505771Y-192928628D01*
X205434342Y-193000057D01*
X205362914Y-192928628D01*
X205434342Y-192857200D01*
X205434342Y-193000057D01*
X207220057Y-192428628D02*
X207291485Y-192357200D01*
X207434342Y-192285771D01*
X207791485Y-192285771D01*
X207934342Y-192357200D01*
X208005771Y-192428628D01*
X208077200Y-192571485D01*
X208077200Y-192714342D01*
X208005771Y-192928628D01*
X207148628Y-193785771D01*
X208077200Y-193785771D01*
X209005771Y-192285771D02*
X209148628Y-192285771D01*
X209291485Y-192357200D01*
X209362914Y-192428628D01*
X209434342Y-192571485D01*
X209505771Y-192857200D01*
X209505771Y-193214342D01*
X209434342Y-193500057D01*
X209362914Y-193642914D01*
X209291485Y-193714342D01*
X209148628Y-193785771D01*
X209005771Y-193785771D01*
X208862914Y-193714342D01*
X208791485Y-193642914D01*
X208720057Y-193500057D01*
X208648628Y-193214342D01*
X208648628Y-192857200D01*
X208720057Y-192571485D01*
X208791485Y-192428628D01*
X208862914Y-192357200D01*
X209005771Y-192285771D01*
X210077200Y-192428628D02*
X210148628Y-192357200D01*
X210291485Y-192285771D01*
X210648628Y-192285771D01*
X210791485Y-192357200D01*
X210862914Y-192428628D01*
X210934342Y-192571485D01*
X210934342Y-192714342D01*
X210862914Y-192928628D01*
X210005771Y-193785771D01*
X210934342Y-193785771D01*
X211505771Y-192428628D02*
X211577200Y-192357200D01*
X211720057Y-192285771D01*
X212077200Y-192285771D01*
X212220057Y-192357200D01*
X212291485Y-192428628D01*
X212362914Y-192571485D01*
X212362914Y-192714342D01*
X212291485Y-192928628D01*
X211434342Y-193785771D01*
X212362914Y-193785771D01*
X213005771Y-193214342D02*
X214148628Y-193214342D01*
X215648628Y-193785771D02*
X214791485Y-193785771D01*
X215220057Y-193785771D02*
X215220057Y-192285771D01*
X215077200Y-192500057D01*
X214934342Y-192642914D01*
X214791485Y-192714342D01*
X216577200Y-192285771D02*
X216720057Y-192285771D01*
X216862914Y-192357200D01*
X216934342Y-192428628D01*
X217005771Y-192571485D01*
X217077200Y-192857200D01*
X217077200Y-193214342D01*
X217005771Y-193500057D01*
X216934342Y-193642914D01*
X216862914Y-193714342D01*
X216720057Y-193785771D01*
X216577200Y-193785771D01*
X216434342Y-193714342D01*
X216362914Y-193642914D01*
X216291485Y-193500057D01*
X216220057Y-193214342D01*
X216220057Y-192857200D01*
X216291485Y-192571485D01*
X216362914Y-192428628D01*
X216434342Y-192357200D01*
X216577200Y-192285771D01*
X217720057Y-193214342D02*
X218862914Y-193214342D01*
X219862914Y-192285771D02*
X220005771Y-192285771D01*
X220148628Y-192357200D01*
X220220057Y-192428628D01*
X220291485Y-192571485D01*
X220362914Y-192857200D01*
X220362914Y-193214342D01*
X220291485Y-193500057D01*
X220220057Y-193642914D01*
X220148628Y-193714342D01*
X220005771Y-193785771D01*
X219862914Y-193785771D01*
X219720057Y-193714342D01*
X219648628Y-193642914D01*
X219577200Y-193500057D01*
X219505771Y-193214342D01*
X219505771Y-192857200D01*
X219577200Y-192571485D01*
X219648628Y-192428628D01*
X219720057Y-192357200D01*
X219862914Y-192285771D01*
X221648628Y-192785771D02*
X221648628Y-193785771D01*
X221291485Y-192214342D02*
X220934342Y-193285771D01*
X221862914Y-193285771D01*
D10*
D11*
X177002200Y-194507200D02*
X285002200Y-194507200D01*
D10*
D11*
X178434342Y-196585771D02*
X178434342Y-195085771D01*
X179291485Y-196585771D02*
X178648628Y-195728628D01*
X179291485Y-195085771D02*
X178434342Y-195942914D01*
X179934342Y-196585771D02*
X179934342Y-195585771D01*
X179934342Y-195085771D02*
X179862914Y-195157200D01*
X179934342Y-195228628D01*
X180005771Y-195157200D01*
X179934342Y-195085771D01*
X179934342Y-195228628D01*
X181505771Y-196442914D02*
X181434342Y-196514342D01*
X181220057Y-196585771D01*
X181077200Y-196585771D01*
X180862914Y-196514342D01*
X180720057Y-196371485D01*
X180648628Y-196228628D01*
X180577200Y-195942914D01*
X180577200Y-195728628D01*
X180648628Y-195442914D01*
X180720057Y-195300057D01*
X180862914Y-195157200D01*
X181077200Y-195085771D01*
X181220057Y-195085771D01*
X181434342Y-195157200D01*
X181505771Y-195228628D01*
X182791485Y-196585771D02*
X182791485Y-195800057D01*
X182720057Y-195657200D01*
X182577200Y-195585771D01*
X182291485Y-195585771D01*
X182148628Y-195657200D01*
X182791485Y-196514342D02*
X182648628Y-196585771D01*
X182291485Y-196585771D01*
X182148628Y-196514342D01*
X182077200Y-196371485D01*
X182077200Y-196228628D01*
X182148628Y-196085771D01*
X182291485Y-196014342D01*
X182648628Y-196014342D01*
X182791485Y-195942914D01*
X184148628Y-196585771D02*
X184148628Y-195085771D01*
X184148628Y-196514342D02*
X184005771Y-196585771D01*
X183720057Y-196585771D01*
X183577200Y-196514342D01*
X183505771Y-196442914D01*
X183434342Y-196300057D01*
X183434342Y-195871485D01*
X183505771Y-195728628D01*
X183577200Y-195657200D01*
X183720057Y-195585771D01*
X184005771Y-195585771D01*
X184148628Y-195657200D01*
X186005771Y-195800057D02*
X186505771Y-195800057D01*
X186720057Y-196585771D02*
X186005771Y-196585771D01*
X186005771Y-195085771D01*
X186720057Y-195085771D01*
X187362914Y-196442914D02*
X187434342Y-196514342D01*
X187362914Y-196585771D01*
X187291485Y-196514342D01*
X187362914Y-196442914D01*
X187362914Y-196585771D01*
X188077200Y-196585771D02*
X188077200Y-195085771D01*
X188434342Y-195085771D01*
X188648628Y-195157200D01*
X188791485Y-195300057D01*
X188862914Y-195442914D01*
X188934342Y-195728628D01*
X188934342Y-195942914D01*
X188862914Y-196228628D01*
X188791485Y-196371485D01*
X188648628Y-196514342D01*
X188434342Y-196585771D01*
X188077200Y-196585771D01*
X189577200Y-196442914D02*
X189648628Y-196514342D01*
X189577200Y-196585771D01*
X189505771Y-196514342D01*
X189577200Y-196442914D01*
X189577200Y-196585771D01*
X190220057Y-196157200D02*
X190934342Y-196157200D01*
X190077200Y-196585771D02*
X190577200Y-195085771D01*
X191077200Y-196585771D01*
X191577200Y-196442914D02*
X191648628Y-196514342D01*
X191577200Y-196585771D01*
X191505771Y-196514342D01*
X191577200Y-196442914D01*
X191577200Y-196585771D01*
X194577200Y-196585771D02*
X194577200Y-195085771D01*
X194720057Y-196014342D02*
X195148628Y-196585771D01*
X195148628Y-195585771D02*
X194577200Y-196157200D01*
X195791485Y-196585771D02*
X195791485Y-195585771D01*
X195791485Y-195085771D02*
X195720057Y-195157200D01*
X195791485Y-195228628D01*
X195862914Y-195157200D01*
X195791485Y-195085771D01*
X195791485Y-195228628D01*
X197148628Y-196514342D02*
X197005771Y-196585771D01*
X196720057Y-196585771D01*
X196577200Y-196514342D01*
X196505771Y-196442914D01*
X196434342Y-196300057D01*
X196434342Y-195871485D01*
X196505771Y-195728628D01*
X196577200Y-195657200D01*
X196720057Y-195585771D01*
X197005771Y-195585771D01*
X197148628Y-195657200D01*
X198434342Y-196585771D02*
X198434342Y-195800057D01*
X198362914Y-195657200D01*
X198220057Y-195585771D01*
X197934342Y-195585771D01*
X197791485Y-195657200D01*
X198434342Y-196514342D02*
X198291485Y-196585771D01*
X197934342Y-196585771D01*
X197791485Y-196514342D01*
X197720057Y-196371485D01*
X197720057Y-196228628D01*
X197791485Y-196085771D01*
X197934342Y-196014342D01*
X198291485Y-196014342D01*
X198434342Y-195942914D01*
X199791485Y-196585771D02*
X199791485Y-195085771D01*
X199791485Y-196514342D02*
X199648628Y-196585771D01*
X199362914Y-196585771D01*
X199220057Y-196514342D01*
X199148628Y-196442914D01*
X199077200Y-196300057D01*
X199077200Y-195871485D01*
X199148628Y-195728628D01*
X199220057Y-195657200D01*
X199362914Y-195585771D01*
X199648628Y-195585771D01*
X199791485Y-195657200D01*
X202077200Y-197157200D02*
X202005771Y-197085771D01*
X201862914Y-196871485D01*
X201791485Y-196728628D01*
X201720057Y-196514342D01*
X201648628Y-196157200D01*
X201648628Y-195871485D01*
X201720057Y-195514342D01*
X201791485Y-195300057D01*
X201862914Y-195157200D01*
X202005771Y-194942914D01*
X202077200Y-194871485D01*
X203291485Y-195085771D02*
X203005771Y-195085771D01*
X202862914Y-195157200D01*
X202791485Y-195228628D01*
X202648628Y-195442914D01*
X202577200Y-195728628D01*
X202577200Y-196300057D01*
X202648628Y-196442914D01*
X202720057Y-196514342D01*
X202862914Y-196585771D01*
X203148628Y-196585771D01*
X203291485Y-196514342D01*
X203362914Y-196442914D01*
X203434342Y-196300057D01*
X203434342Y-195942914D01*
X203362914Y-195800057D01*
X203291485Y-195728628D01*
X203148628Y-195657200D01*
X202862914Y-195657200D01*
X202720057Y-195728628D01*
X202648628Y-195800057D01*
X202577200Y-195942914D01*
X204077200Y-196442914D02*
X204148628Y-196514342D01*
X204077200Y-196585771D01*
X204005771Y-196514342D01*
X204077200Y-196442914D01*
X204077200Y-196585771D01*
X205077200Y-195085771D02*
X205220057Y-195085771D01*
X205362914Y-195157200D01*
X205434342Y-195228628D01*
X205505771Y-195371485D01*
X205577200Y-195657200D01*
X205577200Y-196014342D01*
X205505771Y-196300057D01*
X205434342Y-196442914D01*
X205362914Y-196514342D01*
X205220057Y-196585771D01*
X205077200Y-196585771D01*
X204934342Y-196514342D01*
X204862914Y-196442914D01*
X204791485Y-196300057D01*
X204720057Y-196014342D01*
X204720057Y-195657200D01*
X204791485Y-195371485D01*
X204862914Y-195228628D01*
X204934342Y-195157200D01*
X205077200Y-195085771D01*
X206220057Y-196442914D02*
X206291485Y-196514342D01*
X206220057Y-196585771D01*
X206148628Y-196514342D01*
X206220057Y-196442914D01*
X206220057Y-196585771D01*
X207648628Y-195085771D02*
X206934342Y-195085771D01*
X206862914Y-195800057D01*
X206934342Y-195728628D01*
X207077200Y-195657200D01*
X207434342Y-195657200D01*
X207577200Y-195728628D01*
X207648628Y-195800057D01*
X207720057Y-195942914D01*
X207720057Y-196300057D01*
X207648628Y-196442914D01*
X207577200Y-196514342D01*
X207434342Y-196585771D01*
X207077200Y-196585771D01*
X206934342Y-196514342D01*
X206862914Y-196442914D01*
X208220057Y-197157200D02*
X208291485Y-197085771D01*
X208434342Y-196871485D01*
X208505771Y-196728628D01*
X208577200Y-196514342D01*
X208648628Y-196157200D01*
X208648628Y-195871485D01*
X208577200Y-195514342D01*
X208505771Y-195300057D01*
X208434342Y-195157200D01*
X208291485Y-194942914D01*
X208220057Y-194871485D01*
D10*
D11*
X177002200Y-191507200D02*
X285002200Y-191507200D01*
D10*
D12*
X264411485Y-193785771D02*
X263911485Y-193071485D01*
X263554342Y-193785771D02*
X263554342Y-192285771D01*
X264125771Y-192285771D01*
X264268628Y-192357200D01*
X264340057Y-192428628D01*
X264411485Y-192571485D01*
X264411485Y-192785771D01*
X264340057Y-192928628D01*
X264268628Y-193000057D01*
X264125771Y-193071485D01*
X263554342Y-193071485D01*
X265625771Y-193714342D02*
X265482914Y-193785771D01*
X265197200Y-193785771D01*
X265054342Y-193714342D01*
X264982914Y-193571485D01*
X264982914Y-193000057D01*
X265054342Y-192857200D01*
X265197200Y-192785771D01*
X265482914Y-192785771D01*
X265625771Y-192857200D01*
X265697200Y-193000057D01*
X265697200Y-193142914D01*
X264982914Y-193285771D01*
X266197200Y-192785771D02*
X266554342Y-193785771D01*
X266911485Y-192785771D01*
X267482914Y-193642914D02*
X267554342Y-193714342D01*
X267482914Y-193785771D01*
X267411485Y-193714342D01*
X267482914Y-193642914D01*
X267482914Y-193785771D01*
X267482914Y-192857200D02*
X267554342Y-192928628D01*
X267482914Y-193000057D01*
X267411485Y-192928628D01*
X267482914Y-192857200D01*
X267482914Y-193000057D01*
X269268628Y-192428628D02*
X269340057Y-192357200D01*
X269482914Y-192285771D01*
X269840057Y-192285771D01*
X269982914Y-192357200D01*
X270054342Y-192428628D01*
X270125771Y-192571485D01*
X270125771Y-192714342D01*
X270054342Y-192928628D01*
X269197200Y-193785771D01*
X270125771Y-193785771D01*
X270768628Y-193642914D02*
X270840057Y-193714342D01*
X270768628Y-193785771D01*
X270697200Y-193714342D01*
X270768628Y-193642914D01*
X270768628Y-193785771D01*
X271768628Y-192285771D02*
X271911485Y-192285771D01*
X272054342Y-192357200D01*
X272125771Y-192428628D01*
X272197200Y-192571485D01*
X272268628Y-192857200D01*
X272268628Y-193214342D01*
X272197200Y-193500057D01*
X272125771Y-193642914D01*
X272054342Y-193714342D01*
X271911485Y-193785771D01*
X271768628Y-193785771D01*
X271625771Y-193714342D01*
X271554342Y-193642914D01*
X271482914Y-193500057D01*
X271411485Y-193214342D01*
X271411485Y-192857200D01*
X271482914Y-192571485D01*
X271554342Y-192428628D01*
X271625771Y-192357200D01*
X271768628Y-192285771D01*
D10*
D11*
X178362914Y-193714342D02*
X178577200Y-193785771D01*
X178934342Y-193785771D01*
X179077200Y-193714342D01*
X179148628Y-193642914D01*
X179220057Y-193500057D01*
X179220057Y-193357200D01*
X179148628Y-193214342D01*
X179077200Y-193142914D01*
X178934342Y-193071485D01*
X178648628Y-193000057D01*
X178505771Y-192928628D01*
X178434342Y-192857200D01*
X178362914Y-192714342D01*
X178362914Y-192571485D01*
X178434342Y-192428628D01*
X178505771Y-192357200D01*
X178648628Y-192285771D01*
X179005771Y-192285771D01*
X179220057Y-192357200D01*
X179862914Y-193785771D02*
X179862914Y-192785771D01*
X179862914Y-192285771D02*
X179791485Y-192357200D01*
X179862914Y-192428628D01*
X179934342Y-192357200D01*
X179862914Y-192285771D01*
X179862914Y-192428628D01*
X180434342Y-192785771D02*
X181220057Y-192785771D01*
X180434342Y-193785771D01*
X181220057Y-193785771D01*
X182362914Y-193714342D02*
X182220057Y-193785771D01*
X181934342Y-193785771D01*
X181791485Y-193714342D01*
X181720057Y-193571485D01*
X181720057Y-193000057D01*
X181791485Y-192857200D01*
X181934342Y-192785771D01*
X182220057Y-192785771D01*
X182362914Y-192857200D01*
X182434342Y-193000057D01*
X182434342Y-193142914D01*
X181720057Y-193285771D01*
X183077200Y-193642914D02*
X183148628Y-193714342D01*
X183077200Y-193785771D01*
X183005771Y-193714342D01*
X183077200Y-193642914D01*
X183077200Y-193785771D01*
X183077200Y-192857200D02*
X183148628Y-192928628D01*
X183077200Y-193000057D01*
X183005771Y-192928628D01*
X183077200Y-192857200D01*
X183077200Y-193000057D01*
X184862914Y-193357200D02*
X185577200Y-193357200D01*
X184720057Y-193785771D02*
X185220057Y-192285771D01*
X185720057Y-193785771D01*
X186862914Y-192785771D02*
X186862914Y-193785771D01*
X186505771Y-192214342D02*
X186148628Y-193285771D01*
X187077200Y-193285771D01*
D10*
D11*
X263434342Y-196585771D02*
X263434342Y-195085771D01*
X264791485Y-196585771D02*
X264791485Y-195085771D01*
X264791485Y-196514342D02*
X264648628Y-196585771D01*
X264362914Y-196585771D01*
X264220057Y-196514342D01*
X264148628Y-196442914D01*
X264077200Y-196300057D01*
X264077200Y-195871485D01*
X264148628Y-195728628D01*
X264220057Y-195657200D01*
X264362914Y-195585771D01*
X264648628Y-195585771D01*
X264791485Y-195657200D01*
X265505771Y-196442914D02*
X265577200Y-196514342D01*
X265505771Y-196585771D01*
X265434342Y-196514342D01*
X265505771Y-196442914D01*
X265505771Y-196585771D01*
X265505771Y-195657200D02*
X265577200Y-195728628D01*
X265505771Y-195800057D01*
X265434342Y-195728628D01*
X265505771Y-195657200D01*
X265505771Y-195800057D01*
X268148628Y-196585771D02*
X267291485Y-196585771D01*
X267720057Y-196585771D02*
X267720057Y-195085771D01*
X267577200Y-195300057D01*
X267434342Y-195442914D01*
X267291485Y-195514342D01*
X269862914Y-195014342D02*
X268577200Y-196942914D01*
X271148628Y-196585771D02*
X270291485Y-196585771D01*
X270720057Y-196585771D02*
X270720057Y-195085771D01*
X270577200Y-195300057D01*
X270434342Y-195442914D01*
X270291485Y-195514342D01*
D10*
D11*
X177002200Y-187507200D02*
X285002200Y-187507200D01*
D10*
D13*
X178714580Y-188211961D02*
X179857438Y-188211961D01*
X179036009Y-190211961D02*
X179286009Y-188211961D01*
X180274104Y-190211961D02*
X180440771Y-188878628D01*
X180524104Y-188211961D02*
X180416961Y-188307200D01*
X180500295Y-188402438D01*
X180607438Y-188307200D01*
X180524104Y-188211961D01*
X180500295Y-188402438D01*
X181107438Y-188878628D02*
X181869342Y-188878628D01*
X181476485Y-188211961D02*
X181262200Y-189926247D01*
X181333628Y-190116723D01*
X181512200Y-190211961D01*
X181702676Y-190211961D01*
X182655057Y-190211961D02*
X182476485Y-190116723D01*
X182405057Y-189926247D01*
X182619342Y-188211961D01*
X184190771Y-190116723D02*
X183988390Y-190211961D01*
X183607438Y-190211961D01*
X183428866Y-190116723D01*
X183357438Y-189926247D01*
X183452676Y-189164342D01*
X183571723Y-188973866D01*
X183774104Y-188878628D01*
X184155057Y-188878628D01*
X184333628Y-188973866D01*
X184405057Y-189164342D01*
X184381247Y-189354819D01*
X183405057Y-189545295D01*
X185155057Y-190021485D02*
X185238390Y-190116723D01*
X185131247Y-190211961D01*
X185047914Y-190116723D01*
X185155057Y-190021485D01*
X185131247Y-190211961D01*
X185286009Y-188973866D02*
X185369342Y-189069104D01*
X185262200Y-189164342D01*
X185178866Y-189069104D01*
X185286009Y-188973866D01*
X185262200Y-189164342D01*
X187607438Y-190211961D02*
X187857438Y-188211961D01*
X188345533Y-189640533D01*
X189190771Y-188211961D01*
X188940771Y-190211961D01*
X190178866Y-190211961D02*
X190000295Y-190116723D01*
X189916961Y-190021485D01*
X189845533Y-189831009D01*
X189916961Y-189259580D01*
X190036009Y-189069104D01*
X190143152Y-188973866D01*
X190345533Y-188878628D01*
X190631247Y-188878628D01*
X190809819Y-188973866D01*
X190893152Y-189069104D01*
X190964580Y-189259580D01*
X190893152Y-189831009D01*
X190774104Y-190021485D01*
X190666961Y-190116723D01*
X190464580Y-190211961D01*
X190178866Y-190211961D01*
X191869342Y-188878628D02*
X191702676Y-190211961D01*
X191845533Y-189069104D02*
X191952676Y-188973866D01*
X192155057Y-188878628D01*
X192440771Y-188878628D01*
X192619342Y-188973866D01*
X192690771Y-189164342D01*
X192559819Y-190211961D01*
X193512200Y-190211961D02*
X193762200Y-188211961D01*
X193797914Y-189450057D02*
X194274104Y-190211961D01*
X194440771Y-188878628D02*
X193583628Y-189640533D01*
X195905057Y-190116723D02*
X195702676Y-190211961D01*
X195321723Y-190211961D01*
X195143152Y-190116723D01*
X195071723Y-189926247D01*
X195166961Y-189164342D01*
X195286009Y-188973866D01*
X195488390Y-188878628D01*
X195869342Y-188878628D01*
X196047914Y-188973866D01*
X196119342Y-189164342D01*
X196095533Y-189354819D01*
X195119342Y-189545295D01*
X196821723Y-188878628D02*
X197131247Y-190211961D01*
X197774104Y-188878628D02*
X197131247Y-190211961D01*
X196881247Y-190688152D01*
X196774104Y-190783390D01*
X196571723Y-190878628D01*
X199166961Y-189164342D02*
X199440771Y-189259580D01*
X199524104Y-189354819D01*
X199595533Y-189545295D01*
X199559819Y-189831009D01*
X199440771Y-190021485D01*
X199333628Y-190116723D01*
X199131247Y-190211961D01*
X198369342Y-190211961D01*
X198619342Y-188211961D01*
X199286009Y-188211961D01*
X199464580Y-188307200D01*
X199547914Y-188402438D01*
X199619342Y-188592914D01*
X199595533Y-188783390D01*
X199476485Y-188973866D01*
X199369342Y-189069104D01*
X199166961Y-189164342D01*
X198500295Y-189164342D01*
X201226485Y-190211961D02*
X201357438Y-189164342D01*
X201286009Y-188973866D01*
X201107438Y-188878628D01*
X200726485Y-188878628D01*
X200524104Y-188973866D01*
X201238390Y-190116723D02*
X201036009Y-190211961D01*
X200559819Y-190211961D01*
X200381247Y-190116723D01*
X200309819Y-189926247D01*
X200333628Y-189735771D01*
X200452676Y-189545295D01*
X200655057Y-189450057D01*
X201131247Y-189450057D01*
X201333628Y-189354819D01*
X203036009Y-190211961D02*
X203286009Y-188211961D01*
X203047914Y-190116723D02*
X202845533Y-190211961D01*
X202464580Y-190211961D01*
X202286009Y-190116723D01*
X202202676Y-190021485D01*
X202131247Y-189831009D01*
X202202676Y-189259580D01*
X202321723Y-189069104D01*
X202428866Y-188973866D01*
X202631247Y-188878628D01*
X203012200Y-188878628D01*
X203190771Y-188973866D01*
X205012200Y-188878628D02*
X204809819Y-190497676D01*
X204690771Y-190688152D01*
X204583628Y-190783390D01*
X204381247Y-190878628D01*
X204095533Y-190878628D01*
X203916961Y-190783390D01*
X204857438Y-190116723D02*
X204655057Y-190211961D01*
X204274104Y-190211961D01*
X204095533Y-190116723D01*
X204012200Y-190021485D01*
X203940771Y-189831009D01*
X204012200Y-189259580D01*
X204131247Y-189069104D01*
X204238390Y-188973866D01*
X204440771Y-188878628D01*
X204821723Y-188878628D01*
X205000295Y-188973866D01*
X206571723Y-190116723D02*
X206369342Y-190211961D01*
X205988390Y-190211961D01*
X205809819Y-190116723D01*
X205738390Y-189926247D01*
X205833628Y-189164342D01*
X205952676Y-188973866D01*
X206155057Y-188878628D01*
X206536009Y-188878628D01*
X206714580Y-188973866D01*
X206786009Y-189164342D01*
X206762200Y-189354819D01*
X205786009Y-189545295D01*
D10*
D11*
X178934342Y-185600057D02*
X178434342Y-185600057D01*
X178434342Y-186385771D02*
X178434342Y-184885771D01*
X179148628Y-184885771D01*
X179720057Y-186385771D02*
X179720057Y-185385771D01*
X179720057Y-184885771D02*
X179648628Y-184957200D01*
X179720057Y-185028628D01*
X179791485Y-184957200D01*
X179720057Y-184885771D01*
X179720057Y-185028628D01*
X180648628Y-186385771D02*
X180505771Y-186314342D01*
X180434342Y-186171485D01*
X180434342Y-184885771D01*
X181791485Y-186314342D02*
X181648628Y-186385771D01*
X181362914Y-186385771D01*
X181220057Y-186314342D01*
X181148628Y-186171485D01*
X181148628Y-185600057D01*
X181220057Y-185457200D01*
X181362914Y-185385771D01*
X181648628Y-185385771D01*
X181791485Y-185457200D01*
X181862914Y-185600057D01*
X181862914Y-185742914D01*
X181148628Y-185885771D01*
X182505771Y-186242914D02*
X182577200Y-186314342D01*
X182505771Y-186385771D01*
X182434342Y-186314342D01*
X182505771Y-186242914D01*
X182505771Y-186385771D01*
X182505771Y-185457200D02*
X182577200Y-185528628D01*
X182505771Y-185600057D01*
X182434342Y-185528628D01*
X182505771Y-185457200D01*
X182505771Y-185600057D01*
X184362914Y-186385771D02*
X184362914Y-184885771D01*
X184862914Y-185957200D01*
X185362914Y-184885771D01*
X185362914Y-186385771D01*
X186291485Y-186385771D02*
X186148628Y-186314342D01*
X186077200Y-186242914D01*
X186005771Y-186100057D01*
X186005771Y-185671485D01*
X186077200Y-185528628D01*
X186148628Y-185457200D01*
X186291485Y-185385771D01*
X186505771Y-185385771D01*
X186648628Y-185457200D01*
X186720057Y-185528628D01*
X186791485Y-185671485D01*
X186791485Y-186100057D01*
X186720057Y-186242914D01*
X186648628Y-186314342D01*
X186505771Y-186385771D01*
X186291485Y-186385771D01*
X187434342Y-185385771D02*
X187434342Y-186385771D01*
X187434342Y-185528628D02*
X187505771Y-185457200D01*
X187648628Y-185385771D01*
X187862914Y-185385771D01*
X188005771Y-185457200D01*
X188077200Y-185600057D01*
X188077200Y-186385771D01*
X188791485Y-186385771D02*
X188791485Y-184885771D01*
X188934342Y-185814342D02*
X189362914Y-186385771D01*
X189362914Y-185385771D02*
X188791485Y-185957200D01*
X190577200Y-186314342D02*
X190434342Y-186385771D01*
X190148628Y-186385771D01*
X190005771Y-186314342D01*
X189934342Y-186171485D01*
X189934342Y-185600057D01*
X190005771Y-185457200D01*
X190148628Y-185385771D01*
X190434342Y-185385771D01*
X190577200Y-185457200D01*
X190648628Y-185600057D01*
X190648628Y-185742914D01*
X189934342Y-185885771D01*
X191148628Y-185385771D02*
X191505771Y-186385771D01*
X191862914Y-185385771D02*
X191505771Y-186385771D01*
X191362914Y-186742914D01*
X191291485Y-186814342D01*
X191148628Y-186885771D01*
X192362914Y-186314342D02*
X192505771Y-186385771D01*
X192791485Y-186385771D01*
X192934342Y-186314342D01*
X193005771Y-186171485D01*
X193005771Y-186100057D01*
X192934342Y-185957200D01*
X192791485Y-185885771D01*
X192577200Y-185885771D01*
X192434342Y-185814342D01*
X192362914Y-185671485D01*
X192362914Y-185600057D01*
X192434342Y-185457200D01*
X192577200Y-185385771D01*
X192791485Y-185385771D01*
X192934342Y-185457200D01*
X193648628Y-186242914D02*
X193720057Y-186314342D01*
X193648628Y-186385771D01*
X193577200Y-186314342D01*
X193648628Y-186242914D01*
X193648628Y-186385771D01*
X194362914Y-186385771D02*
X194362914Y-184885771D01*
X194505771Y-185814342D02*
X194934342Y-186385771D01*
X194934342Y-185385771D02*
X194362914Y-185957200D01*
X195577200Y-186385771D02*
X195577200Y-185385771D01*
X195577200Y-184885771D02*
X195505771Y-184957200D01*
X195577200Y-185028628D01*
X195648628Y-184957200D01*
X195577200Y-184885771D01*
X195577200Y-185028628D01*
X196934342Y-186314342D02*
X196791485Y-186385771D01*
X196505771Y-186385771D01*
X196362914Y-186314342D01*
X196291485Y-186242914D01*
X196220057Y-186100057D01*
X196220057Y-185671485D01*
X196291485Y-185528628D01*
X196362914Y-185457200D01*
X196505771Y-185385771D01*
X196791485Y-185385771D01*
X196934342Y-185457200D01*
X198220057Y-186385771D02*
X198220057Y-185600057D01*
X198148628Y-185457200D01*
X198005771Y-185385771D01*
X197720057Y-185385771D01*
X197577200Y-185457200D01*
X198220057Y-186314342D02*
X198077200Y-186385771D01*
X197720057Y-186385771D01*
X197577200Y-186314342D01*
X197505771Y-186171485D01*
X197505771Y-186028628D01*
X197577200Y-185885771D01*
X197720057Y-185814342D01*
X198077200Y-185814342D01*
X198220057Y-185742914D01*
X199577200Y-186385771D02*
X199577200Y-184885771D01*
X199577200Y-186314342D02*
X199434342Y-186385771D01*
X199148628Y-186385771D01*
X199005771Y-186314342D01*
X198934342Y-186242914D01*
X198862914Y-186100057D01*
X198862914Y-185671485D01*
X198934342Y-185528628D01*
X199005771Y-185457200D01*
X199148628Y-185385771D01*
X199434342Y-185385771D01*
X199577200Y-185457200D01*
X199934342Y-186528628D02*
X201077200Y-186528628D01*
X201434342Y-185385771D02*
X201434342Y-186885771D01*
X201434342Y-185457200D02*
X201577200Y-185385771D01*
X201862914Y-185385771D01*
X202005771Y-185457200D01*
X202077200Y-185528628D01*
X202148628Y-185671485D01*
X202148628Y-186100057D01*
X202077200Y-186242914D01*
X202005771Y-186314342D01*
X201862914Y-186385771D01*
X201577200Y-186385771D01*
X201434342Y-186314342D01*
X203434342Y-186314342D02*
X203291485Y-186385771D01*
X203005771Y-186385771D01*
X202862914Y-186314342D01*
X202791485Y-186242914D01*
X202720057Y-186100057D01*
X202720057Y-185671485D01*
X202791485Y-185528628D01*
X202862914Y-185457200D01*
X203005771Y-185385771D01*
X203291485Y-185385771D01*
X203434342Y-185457200D01*
X204077200Y-186385771D02*
X204077200Y-184885771D01*
X204077200Y-185457200D02*
X204220057Y-185385771D01*
X204505771Y-185385771D01*
X204648628Y-185457200D01*
X204720057Y-185528628D01*
X204791485Y-185671485D01*
X204791485Y-186100057D01*
X204720057Y-186242914D01*
X204648628Y-186314342D01*
X204505771Y-186385771D01*
X204220057Y-186385771D01*
X204077200Y-186314342D01*
D10*
D11*
X177002200Y-181507200D02*
X285002200Y-181507200D01*
D10*
D11*
X178362914Y-183614342D02*
X178577200Y-183685771D01*
X178934342Y-183685771D01*
X179077200Y-183614342D01*
X179148628Y-183542914D01*
X179220057Y-183400057D01*
X179220057Y-183257200D01*
X179148628Y-183114342D01*
X179077200Y-183042914D01*
X178934342Y-182971485D01*
X178648628Y-182900057D01*
X178505771Y-182828628D01*
X178434342Y-182757200D01*
X178362914Y-182614342D01*
X178362914Y-182471485D01*
X178434342Y-182328628D01*
X178505771Y-182257200D01*
X178648628Y-182185771D01*
X179005771Y-182185771D01*
X179220057Y-182257200D01*
X179862914Y-183685771D02*
X179862914Y-182185771D01*
X180505771Y-183685771D02*
X180505771Y-182900057D01*
X180434342Y-182757200D01*
X180291485Y-182685771D01*
X180077200Y-182685771D01*
X179934342Y-182757200D01*
X179862914Y-182828628D01*
X181791485Y-183614342D02*
X181648628Y-183685771D01*
X181362914Y-183685771D01*
X181220057Y-183614342D01*
X181148628Y-183471485D01*
X181148628Y-182900057D01*
X181220057Y-182757200D01*
X181362914Y-182685771D01*
X181648628Y-182685771D01*
X181791485Y-182757200D01*
X181862914Y-182900057D01*
X181862914Y-183042914D01*
X181148628Y-183185771D01*
X183077200Y-183614342D02*
X182934342Y-183685771D01*
X182648628Y-183685771D01*
X182505771Y-183614342D01*
X182434342Y-183471485D01*
X182434342Y-182900057D01*
X182505771Y-182757200D01*
X182648628Y-182685771D01*
X182934342Y-182685771D01*
X183077200Y-182757200D01*
X183148628Y-182900057D01*
X183148628Y-183042914D01*
X182434342Y-183185771D01*
X183577200Y-182685771D02*
X184148628Y-182685771D01*
X183791485Y-182185771D02*
X183791485Y-183471485D01*
X183862914Y-183614342D01*
X184005771Y-183685771D01*
X184148628Y-183685771D01*
X184648628Y-183542914D02*
X184720057Y-183614342D01*
X184648628Y-183685771D01*
X184577200Y-183614342D01*
X184648628Y-183542914D01*
X184648628Y-183685771D01*
X184648628Y-182757200D02*
X184720057Y-182828628D01*
X184648628Y-182900057D01*
X184577200Y-182828628D01*
X184648628Y-182757200D01*
X184648628Y-182900057D01*
D10*
D12*
X178554342Y-180685771D02*
X178554342Y-179185771D01*
X179125771Y-179185771D01*
X179268628Y-179257200D01*
X179340057Y-179328628D01*
X179411485Y-179471485D01*
X179411485Y-179685771D01*
X179340057Y-179828628D01*
X179268628Y-179900057D01*
X179125771Y-179971485D01*
X178554342Y-179971485D01*
X180697200Y-180685771D02*
X180697200Y-179900057D01*
X180625771Y-179757200D01*
X180482914Y-179685771D01*
X180197200Y-179685771D01*
X180054342Y-179757200D01*
X180697200Y-180614342D02*
X180554342Y-180685771D01*
X180197200Y-180685771D01*
X180054342Y-180614342D01*
X179982914Y-180471485D01*
X179982914Y-180328628D01*
X180054342Y-180185771D01*
X180197200Y-180114342D01*
X180554342Y-180114342D01*
X180697200Y-180042914D01*
X182054342Y-180614342D02*
X181911485Y-180685771D01*
X181625771Y-180685771D01*
X181482914Y-180614342D01*
X181411485Y-180542914D01*
X181340057Y-180400057D01*
X181340057Y-179971485D01*
X181411485Y-179828628D01*
X181482914Y-179757200D01*
X181625771Y-179685771D01*
X181911485Y-179685771D01*
X182054342Y-179757200D01*
X182697200Y-180685771D02*
X182697200Y-179185771D01*
X182840057Y-180114342D02*
X183268628Y-180685771D01*
X183268628Y-179685771D02*
X182697200Y-180257200D01*
X184482914Y-180614342D02*
X184340057Y-180685771D01*
X184054342Y-180685771D01*
X183911485Y-180614342D01*
X183840057Y-180471485D01*
X183840057Y-179900057D01*
X183911485Y-179757200D01*
X184054342Y-179685771D01*
X184340057Y-179685771D01*
X184482914Y-179757200D01*
X184554342Y-179900057D01*
X184554342Y-180042914D01*
X183840057Y-180185771D01*
X184982914Y-179685771D02*
X185554342Y-179685771D01*
X185197200Y-179185771D02*
X185197200Y-180471485D01*
X185268628Y-180614342D01*
X185411485Y-180685771D01*
X185554342Y-180685771D01*
X186911485Y-180542914D02*
X186840057Y-180614342D01*
X186625771Y-180685771D01*
X186482914Y-180685771D01*
X186268628Y-180614342D01*
X186125771Y-180471485D01*
X186054342Y-180328628D01*
X185982914Y-180042914D01*
X185982914Y-179828628D01*
X186054342Y-179542914D01*
X186125771Y-179400057D01*
X186268628Y-179257200D01*
X186482914Y-179185771D01*
X186625771Y-179185771D01*
X186840057Y-179257200D01*
X186911485Y-179328628D01*
X187554342Y-180685771D02*
X187554342Y-179185771D01*
X188197200Y-180685771D02*
X188197200Y-179900057D01*
X188125771Y-179757200D01*
X187982914Y-179685771D01*
X187768628Y-179685771D01*
X187625771Y-179757200D01*
X187554342Y-179828628D01*
X189554342Y-180685771D02*
X189554342Y-179900057D01*
X189482914Y-179757200D01*
X189340057Y-179685771D01*
X189054342Y-179685771D01*
X188911485Y-179757200D01*
X189554342Y-180614342D02*
X189411485Y-180685771D01*
X189054342Y-180685771D01*
X188911485Y-180614342D01*
X188840057Y-180471485D01*
X188840057Y-180328628D01*
X188911485Y-180185771D01*
X189054342Y-180114342D01*
X189411485Y-180114342D01*
X189554342Y-180042914D01*
X190054342Y-179685771D02*
X190625771Y-179685771D01*
X190268628Y-179185771D02*
X190268628Y-180471485D01*
X190340057Y-180614342D01*
X190482914Y-180685771D01*
X190625771Y-180685771D01*
D10*
D11*
X179291485Y-177542914D02*
X179220057Y-177614342D01*
X179005771Y-177685771D01*
X178862914Y-177685771D01*
X178648628Y-177614342D01*
X178505771Y-177471485D01*
X178434342Y-177328628D01*
X178362914Y-177042914D01*
X178362914Y-176828628D01*
X178434342Y-176542914D01*
X178505771Y-176400057D01*
X178648628Y-176257200D01*
X178862914Y-176185771D01*
X179005771Y-176185771D01*
X179220057Y-176257200D01*
X179291485Y-176328628D01*
X180148628Y-177685771D02*
X180005771Y-177614342D01*
X179934342Y-177542914D01*
X179862914Y-177400057D01*
X179862914Y-176971485D01*
X179934342Y-176828628D01*
X180005771Y-176757200D01*
X180148628Y-176685771D01*
X180362914Y-176685771D01*
X180505771Y-176757200D01*
X180577200Y-176828628D01*
X180648628Y-176971485D01*
X180648628Y-177400057D01*
X180577200Y-177542914D01*
X180505771Y-177614342D01*
X180362914Y-177685771D01*
X180148628Y-177685771D01*
X181291485Y-176685771D02*
X181291485Y-178185771D01*
X181291485Y-176757200D02*
X181434342Y-176685771D01*
X181720057Y-176685771D01*
X181862914Y-176757200D01*
X181934342Y-176828628D01*
X182005771Y-176971485D01*
X182005771Y-177400057D01*
X181934342Y-177542914D01*
X181862914Y-177614342D01*
X181720057Y-177685771D01*
X181434342Y-177685771D01*
X181291485Y-177614342D01*
X182505771Y-176685771D02*
X182862914Y-177685771D01*
X183220057Y-176685771D02*
X182862914Y-177685771D01*
X182720057Y-178042914D01*
X182648628Y-178114342D01*
X182505771Y-178185771D01*
X183791485Y-177685771D02*
X183791485Y-176685771D01*
X183791485Y-176971485D02*
X183862914Y-176828628D01*
X183934342Y-176757200D01*
X184077200Y-176685771D01*
X184220057Y-176685771D01*
X184720057Y-177685771D02*
X184720057Y-176685771D01*
X184720057Y-176185771D02*
X184648628Y-176257200D01*
X184720057Y-176328628D01*
X184791485Y-176257200D01*
X184720057Y-176185771D01*
X184720057Y-176328628D01*
X186077200Y-176685771D02*
X186077200Y-177900057D01*
X186005771Y-178042914D01*
X185934342Y-178114342D01*
X185791485Y-178185771D01*
X185577200Y-178185771D01*
X185434342Y-178114342D01*
X186077200Y-177614342D02*
X185934342Y-177685771D01*
X185648628Y-177685771D01*
X185505771Y-177614342D01*
X185434342Y-177542914D01*
X185362914Y-177400057D01*
X185362914Y-176971485D01*
X185434342Y-176828628D01*
X185505771Y-176757200D01*
X185648628Y-176685771D01*
X185934342Y-176685771D01*
X186077200Y-176757200D01*
X186791485Y-177685771D02*
X186791485Y-176185771D01*
X187434342Y-177685771D02*
X187434342Y-176900057D01*
X187362914Y-176757200D01*
X187220057Y-176685771D01*
X187005771Y-176685771D01*
X186862914Y-176757200D01*
X186791485Y-176828628D01*
X187934342Y-176685771D02*
X188505771Y-176685771D01*
X188148628Y-176185771D02*
X188148628Y-177471485D01*
X188220057Y-177614342D01*
X188362914Y-177685771D01*
X188505771Y-177685771D01*
X190077200Y-176328628D02*
X190148628Y-176257200D01*
X190291485Y-176185771D01*
X190648628Y-176185771D01*
X190791485Y-176257200D01*
X190862914Y-176328628D01*
X190934342Y-176471485D01*
X190934342Y-176614342D01*
X190862914Y-176828628D01*
X190005771Y-177685771D01*
X190934342Y-177685771D01*
X191862914Y-176185771D02*
X192005771Y-176185771D01*
X192148628Y-176257200D01*
X192220057Y-176328628D01*
X192291485Y-176471485D01*
X192362914Y-176757200D01*
X192362914Y-177114342D01*
X192291485Y-177400057D01*
X192220057Y-177542914D01*
X192148628Y-177614342D01*
X192005771Y-177685771D01*
X191862914Y-177685771D01*
X191720057Y-177614342D01*
X191648628Y-177542914D01*
X191577200Y-177400057D01*
X191505771Y-177114342D01*
X191505771Y-176757200D01*
X191577200Y-176471485D01*
X191648628Y-176328628D01*
X191720057Y-176257200D01*
X191862914Y-176185771D01*
X192934342Y-176328628D02*
X193005771Y-176257200D01*
X193148628Y-176185771D01*
X193505771Y-176185771D01*
X193648628Y-176257200D01*
X193720057Y-176328628D01*
X193791485Y-176471485D01*
X193791485Y-176614342D01*
X193720057Y-176828628D01*
X192862914Y-177685771D01*
X193791485Y-177685771D01*
X194362914Y-176328628D02*
X194434342Y-176257200D01*
X194577200Y-176185771D01*
X194934342Y-176185771D01*
X195077200Y-176257200D01*
X195148628Y-176328628D01*
X195220057Y-176471485D01*
X195220057Y-176614342D01*
X195148628Y-176828628D01*
X194291485Y-177685771D01*
X195220057Y-177685771D01*
X197005771Y-177685771D02*
X197005771Y-176185771D01*
X197577200Y-176185771D01*
X197720057Y-176257200D01*
X197791485Y-176328628D01*
X197862914Y-176471485D01*
X197862914Y-176685771D01*
X197791485Y-176828628D01*
X197720057Y-176900057D01*
X197577200Y-176971485D01*
X197005771Y-176971485D01*
X199148628Y-177685771D02*
X199148628Y-176900057D01*
X199077200Y-176757200D01*
X198934342Y-176685771D01*
X198648628Y-176685771D01*
X198505771Y-176757200D01*
X199148628Y-177614342D02*
X199005771Y-177685771D01*
X198648628Y-177685771D01*
X198505771Y-177614342D01*
X198434342Y-177471485D01*
X198434342Y-177328628D01*
X198505771Y-177185771D01*
X198648628Y-177114342D01*
X199005771Y-177114342D01*
X199148628Y-177042914D01*
X200505771Y-177614342D02*
X200362914Y-177685771D01*
X200077200Y-177685771D01*
X199934342Y-177614342D01*
X199862914Y-177542914D01*
X199791485Y-177400057D01*
X199791485Y-176971485D01*
X199862914Y-176828628D01*
X199934342Y-176757200D01*
X200077200Y-176685771D01*
X200362914Y-176685771D01*
X200505771Y-176757200D01*
X201148628Y-177685771D02*
X201148628Y-176185771D01*
X201291485Y-177114342D02*
X201720057Y-177685771D01*
X201720057Y-176685771D02*
X201148628Y-177257200D01*
X202934342Y-177614342D02*
X202791485Y-177685771D01*
X202505771Y-177685771D01*
X202362914Y-177614342D01*
X202291485Y-177471485D01*
X202291485Y-176900057D01*
X202362914Y-176757200D01*
X202505771Y-176685771D01*
X202791485Y-176685771D01*
X202934342Y-176757200D01*
X203005771Y-176900057D01*
X203005771Y-177042914D01*
X202291485Y-177185771D01*
X203434342Y-176685771D02*
X204005771Y-176685771D01*
X203648628Y-176185771D02*
X203648628Y-177471485D01*
X203720057Y-177614342D01*
X203862914Y-177685771D01*
X204005771Y-177685771D01*
X205362914Y-177542914D02*
X205291485Y-177614342D01*
X205077200Y-177685771D01*
X204934342Y-177685771D01*
X204720057Y-177614342D01*
X204577200Y-177471485D01*
X204505771Y-177328628D01*
X204434342Y-177042914D01*
X204434342Y-176828628D01*
X204505771Y-176542914D01*
X204577200Y-176400057D01*
X204720057Y-176257200D01*
X204934342Y-176185771D01*
X205077200Y-176185771D01*
X205291485Y-176257200D01*
X205362914Y-176328628D01*
X206005771Y-177685771D02*
X206005771Y-176185771D01*
X206648628Y-177685771D02*
X206648628Y-176900057D01*
X206577200Y-176757200D01*
X206434342Y-176685771D01*
X206220057Y-176685771D01*
X206077200Y-176757200D01*
X206005771Y-176828628D01*
X208005771Y-177685771D02*
X208005771Y-176900057D01*
X207934342Y-176757200D01*
X207791485Y-176685771D01*
X207505771Y-176685771D01*
X207362914Y-176757200D01*
X208005771Y-177614342D02*
X207862914Y-177685771D01*
X207505771Y-177685771D01*
X207362914Y-177614342D01*
X207291485Y-177471485D01*
X207291485Y-177328628D01*
X207362914Y-177185771D01*
X207505771Y-177114342D01*
X207862914Y-177114342D01*
X208005771Y-177042914D01*
X208505771Y-176685771D02*
X209077200Y-176685771D01*
X208720057Y-176185771D02*
X208720057Y-177471485D01*
X208791485Y-177614342D01*
X208934342Y-177685771D01*
X209077200Y-177685771D01*
D10*
D11*
D10*
D11*
D10*
D11*
D10*
D11*
X197002200Y-191507200D02*
X197002200Y-194507200D01*
D10*
D11*
X261002200Y-191507200D02*
X261002200Y-198007200D01*
D14*
%TO.C,J5*%
X94599838Y-92834830D02*
X94495176Y-92968792D01*
X88135644Y-89738736D02*
X88240306Y-89604774D01*
G36*
X94622789Y-92847685D02*
G01*
X94642046Y-92865268D01*
X94660687Y-92883639D01*
X94678097Y-92903587D01*
X94694103Y-92923706D01*
X94710282Y-92945230D01*
X94723653Y-92967098D01*
X94736409Y-92989754D01*
X94748549Y-93013198D01*
X94758670Y-93037602D01*
X94767387Y-93062179D01*
X94776104Y-93086755D01*
X94782801Y-93112292D01*
X94788095Y-93138002D01*
X94791986Y-93163884D01*
X94794472Y-93189938D01*
X94795555Y-93216164D01*
X94795234Y-93242563D01*
X94792722Y-93268518D01*
X94790210Y-93294474D01*
X94786293Y-93320602D01*
X94780186Y-93346286D01*
X94773290Y-93371355D01*
X94765606Y-93395808D01*
X94755115Y-93420606D01*
X94744452Y-93444001D01*
X94732384Y-93467567D01*
X94718741Y-93489902D01*
X94704310Y-93511622D01*
X94689091Y-93532726D01*
X94350477Y-93966132D01*
X94333682Y-93986004D01*
X94316099Y-94005261D01*
X94297727Y-94023903D01*
X94277780Y-94041313D01*
X94257661Y-94057319D01*
X94236137Y-94073498D01*
X94214269Y-94086869D01*
X94191613Y-94099625D01*
X94168169Y-94111765D01*
X94143765Y-94121885D01*
X94119188Y-94130602D01*
X94094612Y-94139319D01*
X94069075Y-94146017D01*
X94043365Y-94151311D01*
X94017483Y-94155201D01*
X93991429Y-94157688D01*
X93965203Y-94158771D01*
X93938804Y-94158450D01*
X93912848Y-94155938D01*
X93886893Y-94153425D01*
X93860765Y-94149509D01*
X93835081Y-94143401D01*
X93810012Y-94136506D01*
X93785559Y-94128822D01*
X93760761Y-94118331D01*
X93737366Y-94107667D01*
X93713800Y-94095600D01*
X93691465Y-94081957D01*
X93669745Y-94067526D01*
X93648641Y-94052306D01*
X93771773Y-93894704D01*
X93782017Y-93902708D01*
X93792877Y-93909924D01*
X93804353Y-93916351D01*
X93815828Y-93922779D01*
X93828535Y-93927630D01*
X93839838Y-93932654D01*
X93853161Y-93936718D01*
X93865695Y-93940166D01*
X93877441Y-93942998D01*
X93890591Y-93945658D01*
X93903569Y-93946914D01*
X93917163Y-93947382D01*
X93929968Y-93947235D01*
X93942773Y-93947087D01*
X93956194Y-93946152D01*
X93969443Y-93943812D01*
X93981904Y-93940858D01*
X93994365Y-93937903D01*
X94007441Y-93934160D01*
X94019729Y-93929802D01*
X94031845Y-93924039D01*
X94042558Y-93918450D01*
X94053886Y-93912072D01*
X94065829Y-93904906D01*
X94075581Y-93897297D01*
X94086737Y-93889515D01*
X94096317Y-93880502D01*
X94105896Y-93871490D01*
X94114688Y-93861861D01*
X94122691Y-93851617D01*
X94522871Y-93339410D01*
X94530875Y-93329166D01*
X94538090Y-93318306D01*
X94544518Y-93306831D01*
X94550946Y-93295355D01*
X94555797Y-93282648D01*
X94560821Y-93271345D01*
X94564885Y-93258023D01*
X94568333Y-93245488D01*
X94571165Y-93233742D01*
X94573825Y-93220592D01*
X94575081Y-93207614D01*
X94575549Y-93194021D01*
X94575402Y-93181215D01*
X94575254Y-93168410D01*
X94574319Y-93154989D01*
X94571979Y-93141740D01*
X94569025Y-93129279D01*
X94566070Y-93116819D01*
X94562327Y-93103742D01*
X94557969Y-93091454D01*
X94552206Y-93079338D01*
X94546617Y-93068626D01*
X94540239Y-93057298D01*
X94533073Y-93045354D01*
X94525464Y-93035602D01*
X94517682Y-93024446D01*
X94508669Y-93014867D01*
X94499657Y-93005287D01*
X94490028Y-92996496D01*
X94479784Y-92988492D01*
X94602916Y-92830890D01*
X94622789Y-92847685D01*
G37*
X94622789Y-92847685D02*
X94642046Y-92865268D01*
X94660687Y-92883639D01*
X94678097Y-92903587D01*
X94694103Y-92923706D01*
X94710282Y-92945230D01*
X94723653Y-92967098D01*
X94736409Y-92989754D01*
X94748549Y-93013198D01*
X94758670Y-93037602D01*
X94767387Y-93062179D01*
X94776104Y-93086755D01*
X94782801Y-93112292D01*
X94788095Y-93138002D01*
X94791986Y-93163884D01*
X94794472Y-93189938D01*
X94795555Y-93216164D01*
X94795234Y-93242563D01*
X94792722Y-93268518D01*
X94790210Y-93294474D01*
X94786293Y-93320602D01*
X94780186Y-93346286D01*
X94773290Y-93371355D01*
X94765606Y-93395808D01*
X94755115Y-93420606D01*
X94744452Y-93444001D01*
X94732384Y-93467567D01*
X94718741Y-93489902D01*
X94704310Y-93511622D01*
X94689091Y-93532726D01*
X94350477Y-93966132D01*
X94333682Y-93986004D01*
X94316099Y-94005261D01*
X94297727Y-94023903D01*
X94277780Y-94041313D01*
X94257661Y-94057319D01*
X94236137Y-94073498D01*
X94214269Y-94086869D01*
X94191613Y-94099625D01*
X94168169Y-94111765D01*
X94143765Y-94121885D01*
X94119188Y-94130602D01*
X94094612Y-94139319D01*
X94069075Y-94146017D01*
X94043365Y-94151311D01*
X94017483Y-94155201D01*
X93991429Y-94157688D01*
X93965203Y-94158771D01*
X93938804Y-94158450D01*
X93912848Y-94155938D01*
X93886893Y-94153425D01*
X93860765Y-94149509D01*
X93835081Y-94143401D01*
X93810012Y-94136506D01*
X93785559Y-94128822D01*
X93760761Y-94118331D01*
X93737366Y-94107667D01*
X93713800Y-94095600D01*
X93691465Y-94081957D01*
X93669745Y-94067526D01*
X93648641Y-94052306D01*
X93771773Y-93894704D01*
X93782017Y-93902708D01*
X93792877Y-93909924D01*
X93804353Y-93916351D01*
X93815828Y-93922779D01*
X93828535Y-93927630D01*
X93839838Y-93932654D01*
X93853161Y-93936718D01*
X93865695Y-93940166D01*
X93877441Y-93942998D01*
X93890591Y-93945658D01*
X93903569Y-93946914D01*
X93917163Y-93947382D01*
X93929968Y-93947235D01*
X93942773Y-93947087D01*
X93956194Y-93946152D01*
X93969443Y-93943812D01*
X93981904Y-93940858D01*
X93994365Y-93937903D01*
X94007441Y-93934160D01*
X94019729Y-93929802D01*
X94031845Y-93924039D01*
X94042558Y-93918450D01*
X94053886Y-93912072D01*
X94065829Y-93904906D01*
X94075581Y-93897297D01*
X94086737Y-93889515D01*
X94096317Y-93880502D01*
X94105896Y-93871490D01*
X94114688Y-93861861D01*
X94122691Y-93851617D01*
X94522871Y-93339410D01*
X94530875Y-93329166D01*
X94538090Y-93318306D01*
X94544518Y-93306831D01*
X94550946Y-93295355D01*
X94555797Y-93282648D01*
X94560821Y-93271345D01*
X94564885Y-93258023D01*
X94568333Y-93245488D01*
X94571165Y-93233742D01*
X94573825Y-93220592D01*
X94575081Y-93207614D01*
X94575549Y-93194021D01*
X94575402Y-93181215D01*
X94575254Y-93168410D01*
X94574319Y-93154989D01*
X94571979Y-93141740D01*
X94569025Y-93129279D01*
X94566070Y-93116819D01*
X94562327Y-93103742D01*
X94557969Y-93091454D01*
X94552206Y-93079338D01*
X94546617Y-93068626D01*
X94540239Y-93057298D01*
X94533073Y-93045354D01*
X94525464Y-93035602D01*
X94517682Y-93024446D01*
X94508669Y-93014867D01*
X94499657Y-93005287D01*
X94490028Y-92996496D01*
X94479784Y-92988492D01*
X94602916Y-92830890D01*
X94622789Y-92847685D01*
G36*
X88796678Y-88415116D02*
G01*
X88822634Y-88417628D01*
X88848589Y-88420141D01*
X88874717Y-88424057D01*
X88900401Y-88430165D01*
X88925470Y-88437060D01*
X88949923Y-88444744D01*
X88974721Y-88455235D01*
X88998116Y-88465899D01*
X89021682Y-88477966D01*
X89044017Y-88491609D01*
X89065737Y-88506040D01*
X89086841Y-88521260D01*
X88963709Y-88678862D01*
X88953465Y-88670858D01*
X88942605Y-88663642D01*
X88931129Y-88657215D01*
X88919654Y-88650787D01*
X88906947Y-88645936D01*
X88895644Y-88640912D01*
X88882321Y-88636848D01*
X88869787Y-88633400D01*
X88858041Y-88630568D01*
X88844891Y-88627908D01*
X88831913Y-88626652D01*
X88818319Y-88626184D01*
X88805514Y-88626331D01*
X88792709Y-88626479D01*
X88779288Y-88627414D01*
X88766039Y-88629754D01*
X88753578Y-88632708D01*
X88741117Y-88635663D01*
X88728041Y-88639406D01*
X88715753Y-88643764D01*
X88703637Y-88649527D01*
X88692924Y-88655116D01*
X88681596Y-88661494D01*
X88669653Y-88668660D01*
X88659901Y-88676269D01*
X88648745Y-88684051D01*
X88639165Y-88693064D01*
X88629586Y-88702076D01*
X88620794Y-88711705D01*
X88612791Y-88721949D01*
X88212611Y-89234156D01*
X88204607Y-89244400D01*
X88197392Y-89255260D01*
X88190964Y-89266735D01*
X88184536Y-89278211D01*
X88179685Y-89290918D01*
X88174661Y-89302221D01*
X88170597Y-89315543D01*
X88167149Y-89328078D01*
X88164317Y-89339824D01*
X88161657Y-89352974D01*
X88160401Y-89365952D01*
X88159933Y-89379545D01*
X88160080Y-89392351D01*
X88160228Y-89405156D01*
X88161163Y-89418577D01*
X88163503Y-89431826D01*
X88166457Y-89444287D01*
X88169412Y-89456747D01*
X88173155Y-89469824D01*
X88177513Y-89482112D01*
X88183276Y-89494228D01*
X88188865Y-89504940D01*
X88195243Y-89516268D01*
X88202409Y-89528212D01*
X88210018Y-89537964D01*
X88217800Y-89549120D01*
X88226813Y-89558699D01*
X88235825Y-89568279D01*
X88245454Y-89577070D01*
X88255698Y-89585074D01*
X88132566Y-89742676D01*
X88112693Y-89725881D01*
X88093436Y-89708298D01*
X88074795Y-89689927D01*
X88057385Y-89669979D01*
X88041379Y-89649860D01*
X88025200Y-89628336D01*
X88011829Y-89606468D01*
X87999073Y-89583812D01*
X87986933Y-89560368D01*
X87976812Y-89535964D01*
X87968095Y-89511387D01*
X87959378Y-89486811D01*
X87952681Y-89461274D01*
X87947387Y-89435564D01*
X87943496Y-89409682D01*
X87941010Y-89383628D01*
X87939927Y-89357402D01*
X87940248Y-89331003D01*
X87942760Y-89305048D01*
X87945272Y-89279092D01*
X87949189Y-89252964D01*
X87955296Y-89227280D01*
X87962192Y-89202211D01*
X87969876Y-89177758D01*
X87980367Y-89152960D01*
X87991030Y-89129565D01*
X88003098Y-89105999D01*
X88016741Y-89083664D01*
X88031172Y-89061944D01*
X88046391Y-89040840D01*
X88385005Y-88607434D01*
X88401800Y-88587562D01*
X88419383Y-88568305D01*
X88437755Y-88549663D01*
X88457702Y-88532253D01*
X88477821Y-88516247D01*
X88499345Y-88500068D01*
X88521213Y-88486697D01*
X88543869Y-88473941D01*
X88567313Y-88461801D01*
X88591717Y-88451681D01*
X88616294Y-88442964D01*
X88640870Y-88434247D01*
X88666407Y-88427549D01*
X88692117Y-88422255D01*
X88717999Y-88418365D01*
X88744053Y-88415878D01*
X88770279Y-88414795D01*
X88796678Y-88415116D01*
G37*
X88796678Y-88415116D02*
X88822634Y-88417628D01*
X88848589Y-88420141D01*
X88874717Y-88424057D01*
X88900401Y-88430165D01*
X88925470Y-88437060D01*
X88949923Y-88444744D01*
X88974721Y-88455235D01*
X88998116Y-88465899D01*
X89021682Y-88477966D01*
X89044017Y-88491609D01*
X89065737Y-88506040D01*
X89086841Y-88521260D01*
X88963709Y-88678862D01*
X88953465Y-88670858D01*
X88942605Y-88663642D01*
X88931129Y-88657215D01*
X88919654Y-88650787D01*
X88906947Y-88645936D01*
X88895644Y-88640912D01*
X88882321Y-88636848D01*
X88869787Y-88633400D01*
X88858041Y-88630568D01*
X88844891Y-88627908D01*
X88831913Y-88626652D01*
X88818319Y-88626184D01*
X88805514Y-88626331D01*
X88792709Y-88626479D01*
X88779288Y-88627414D01*
X88766039Y-88629754D01*
X88753578Y-88632708D01*
X88741117Y-88635663D01*
X88728041Y-88639406D01*
X88715753Y-88643764D01*
X88703637Y-88649527D01*
X88692924Y-88655116D01*
X88681596Y-88661494D01*
X88669653Y-88668660D01*
X88659901Y-88676269D01*
X88648745Y-88684051D01*
X88639165Y-88693064D01*
X88629586Y-88702076D01*
X88620794Y-88711705D01*
X88612791Y-88721949D01*
X88212611Y-89234156D01*
X88204607Y-89244400D01*
X88197392Y-89255260D01*
X88190964Y-89266735D01*
X88184536Y-89278211D01*
X88179685Y-89290918D01*
X88174661Y-89302221D01*
X88170597Y-89315543D01*
X88167149Y-89328078D01*
X88164317Y-89339824D01*
X88161657Y-89352974D01*
X88160401Y-89365952D01*
X88159933Y-89379545D01*
X88160080Y-89392351D01*
X88160228Y-89405156D01*
X88161163Y-89418577D01*
X88163503Y-89431826D01*
X88166457Y-89444287D01*
X88169412Y-89456747D01*
X88173155Y-89469824D01*
X88177513Y-89482112D01*
X88183276Y-89494228D01*
X88188865Y-89504940D01*
X88195243Y-89516268D01*
X88202409Y-89528212D01*
X88210018Y-89537964D01*
X88217800Y-89549120D01*
X88226813Y-89558699D01*
X88235825Y-89568279D01*
X88245454Y-89577070D01*
X88255698Y-89585074D01*
X88132566Y-89742676D01*
X88112693Y-89725881D01*
X88093436Y-89708298D01*
X88074795Y-89689927D01*
X88057385Y-89669979D01*
X88041379Y-89649860D01*
X88025200Y-89628336D01*
X88011829Y-89606468D01*
X87999073Y-89583812D01*
X87986933Y-89560368D01*
X87976812Y-89535964D01*
X87968095Y-89511387D01*
X87959378Y-89486811D01*
X87952681Y-89461274D01*
X87947387Y-89435564D01*
X87943496Y-89409682D01*
X87941010Y-89383628D01*
X87939927Y-89357402D01*
X87940248Y-89331003D01*
X87942760Y-89305048D01*
X87945272Y-89279092D01*
X87949189Y-89252964D01*
X87955296Y-89227280D01*
X87962192Y-89202211D01*
X87969876Y-89177758D01*
X87980367Y-89152960D01*
X87991030Y-89129565D01*
X88003098Y-89105999D01*
X88016741Y-89083664D01*
X88031172Y-89061944D01*
X88046391Y-89040840D01*
X88385005Y-88607434D01*
X88401800Y-88587562D01*
X88419383Y-88568305D01*
X88437755Y-88549663D01*
X88457702Y-88532253D01*
X88477821Y-88516247D01*
X88499345Y-88500068D01*
X88521213Y-88486697D01*
X88543869Y-88473941D01*
X88567313Y-88461801D01*
X88591717Y-88451681D01*
X88616294Y-88442964D01*
X88640870Y-88434247D01*
X88666407Y-88427549D01*
X88692117Y-88422255D01*
X88717999Y-88418365D01*
X88744053Y-88415878D01*
X88770279Y-88414795D01*
X88796678Y-88415116D01*
%TD*%
D15*
%TO.C,U6*%
X160575000Y-98400000D03*
X159305000Y-98400000D03*
X158035000Y-98400000D03*
X156765000Y-98400000D03*
X155495000Y-98400000D03*
X154225000Y-98400000D03*
X152955000Y-98400000D03*
X151685000Y-98400000D03*
X150415000Y-98400000D03*
X149145000Y-98400000D03*
X147875000Y-98400000D03*
X146605000Y-98400000D03*
X145335000Y-98400000D03*
X144065000Y-98400000D03*
D16*
X143065000Y-95615000D03*
X143065000Y-94345000D03*
X143065000Y-93075000D03*
X143065000Y-91805000D03*
X143065000Y-90535000D03*
X143065000Y-89265000D03*
X143065000Y-87995000D03*
X143065000Y-86725000D03*
X143065000Y-85455000D03*
X143065000Y-84185000D03*
D15*
X144065000Y-81400000D03*
X145335000Y-81400000D03*
X146605000Y-81400000D03*
X147875000Y-81400000D03*
X149145000Y-81400000D03*
X150415000Y-81400000D03*
X151685000Y-81400000D03*
X152955000Y-81400000D03*
X154225000Y-81400000D03*
X155495000Y-81400000D03*
X156765000Y-81400000D03*
X158035000Y-81400000D03*
X159305000Y-81400000D03*
X160575000Y-81400000D03*
D17*
X153075000Y-90900000D03*
%TD*%
D18*
%TO.C,J5*%
X94054441Y-89959514D03*
X93542234Y-89559334D03*
X93030027Y-89159154D03*
X92517820Y-88758974D03*
X92005613Y-88358794D03*
D19*
X93820424Y-93203029D03*
D20*
X92155752Y-91902444D03*
X90579730Y-90671122D03*
D19*
X88915058Y-89370537D03*
%TD*%
D21*
%TO.C,U3*%
X126460000Y-96510000D03*
X126460000Y-95240000D03*
X126460000Y-93970000D03*
X126460000Y-92700000D03*
X126460000Y-91430000D03*
X126460000Y-90160000D03*
X126460000Y-88890000D03*
X126460000Y-87620000D03*
X131410000Y-87620000D03*
X131410000Y-88890000D03*
X131410000Y-90160000D03*
X131410000Y-91430000D03*
X131410000Y-92700000D03*
X131410000Y-93970000D03*
X131410000Y-95240000D03*
X131410000Y-96510000D03*
%TD*%
D22*
%TO.C,J4*%
X215355000Y-71050000D03*
X218355000Y-71050000D03*
X210255000Y-77550000D03*
X211355000Y-71050000D03*
%TD*%
M02*
