%TF.GenerationSoftware,KiCad,Pcbnew,(6.0.5)*%
%TF.CreationDate,2023-07-25T21:33:44-07:00*%
%TF.ProjectId,Monkeys,4d6f6e6b-6579-4732-9e6b-696361645f70,3.0*%
%TF.SameCoordinates,Original*%
%TF.FileFunction,Legend,Bot*%
%TF.FilePolarity,Positive*%
%FSLAX46Y46*%
G04 Gerber Fmt 4.6, Leading zero omitted, Abs format (unit mm)*
G04 Created by KiCad (PCBNEW (6.0.5)) date 2023-07-25 21:33:44*
%MOMM*%
%LPD*%
G01*
G04 APERTURE LIST*
%ADD10C,0.100000*%
%ADD11C,0.150000*%
%ADD12C,0.300000*%
%ADD13C,0.400000*%
%ADD14C,0.700000*%
%ADD15C,0.250000*%
%ADD16C,0.500000*%
%ADD17C,0.125000*%
%ADD18C,0.120000*%
%ADD19C,0.127000*%
%ADD20C,0.200000*%
G04 APERTURE END LIST*
D10*
D11*
X177002200Y-166007200D02*
X177002200Y-198007200D01*
X285002200Y-198007200D01*
X285002200Y-166007200D01*
X177002200Y-166007200D01*
D10*
D11*
X10000000Y-10000000D02*
X10000000Y-200007200D01*
X287002200Y-200007200D01*
X287002200Y-10000000D01*
X10000000Y-10000000D01*
D10*
D11*
X12000000Y-12000000D02*
X12000000Y-198007200D01*
X285002200Y-198007200D01*
X285002200Y-12000000D01*
X12000000Y-12000000D01*
D10*
D11*
X60000000Y-12000000D02*
X60000000Y-10000000D01*
D10*
D11*
X110000000Y-12000000D02*
X110000000Y-10000000D01*
D10*
D11*
X160000000Y-12000000D02*
X160000000Y-10000000D01*
D10*
D11*
X210000000Y-12000000D02*
X210000000Y-10000000D01*
D10*
D11*
X260000000Y-12000000D02*
X260000000Y-10000000D01*
D10*
D11*
X36065476Y-11588095D02*
X35322619Y-11588095D01*
X35694047Y-11588095D02*
X35694047Y-10288095D01*
X35570238Y-10473809D01*
X35446428Y-10597619D01*
X35322619Y-10659523D01*
D10*
D11*
X85322619Y-10411904D02*
X85384523Y-10350000D01*
X85508333Y-10288095D01*
X85817857Y-10288095D01*
X85941666Y-10350000D01*
X86003571Y-10411904D01*
X86065476Y-10535714D01*
X86065476Y-10659523D01*
X86003571Y-10845238D01*
X85260714Y-11588095D01*
X86065476Y-11588095D01*
D10*
D11*
X135260714Y-10288095D02*
X136065476Y-10288095D01*
X135632142Y-10783333D01*
X135817857Y-10783333D01*
X135941666Y-10845238D01*
X136003571Y-10907142D01*
X136065476Y-11030952D01*
X136065476Y-11340476D01*
X136003571Y-11464285D01*
X135941666Y-11526190D01*
X135817857Y-11588095D01*
X135446428Y-11588095D01*
X135322619Y-11526190D01*
X135260714Y-11464285D01*
D10*
D11*
X185941666Y-10721428D02*
X185941666Y-11588095D01*
X185632142Y-10226190D02*
X185322619Y-11154761D01*
X186127380Y-11154761D01*
D10*
D11*
X236003571Y-10288095D02*
X235384523Y-10288095D01*
X235322619Y-10907142D01*
X235384523Y-10845238D01*
X235508333Y-10783333D01*
X235817857Y-10783333D01*
X235941666Y-10845238D01*
X236003571Y-10907142D01*
X236065476Y-11030952D01*
X236065476Y-11340476D01*
X236003571Y-11464285D01*
X235941666Y-11526190D01*
X235817857Y-11588095D01*
X235508333Y-11588095D01*
X235384523Y-11526190D01*
X235322619Y-11464285D01*
D10*
D11*
X285941666Y-10288095D02*
X285694047Y-10288095D01*
X285570238Y-10350000D01*
X285508333Y-10411904D01*
X285384523Y-10597619D01*
X285322619Y-10845238D01*
X285322619Y-11340476D01*
X285384523Y-11464285D01*
X285446428Y-11526190D01*
X285570238Y-11588095D01*
X285817857Y-11588095D01*
X285941666Y-11526190D01*
X286003571Y-11464285D01*
X286065476Y-11340476D01*
X286065476Y-11030952D01*
X286003571Y-10907142D01*
X285941666Y-10845238D01*
X285817857Y-10783333D01*
X285570238Y-10783333D01*
X285446428Y-10845238D01*
X285384523Y-10907142D01*
X285322619Y-11030952D01*
D10*
D11*
X60000000Y-198007200D02*
X60000000Y-200007200D01*
D10*
D11*
X110000000Y-198007200D02*
X110000000Y-200007200D01*
D10*
D11*
X160000000Y-198007200D02*
X160000000Y-200007200D01*
D10*
D11*
X210000000Y-198007200D02*
X210000000Y-200007200D01*
D10*
D11*
X260000000Y-198007200D02*
X260000000Y-200007200D01*
D10*
D11*
X36065476Y-199595295D02*
X35322619Y-199595295D01*
X35694047Y-199595295D02*
X35694047Y-198295295D01*
X35570238Y-198481009D01*
X35446428Y-198604819D01*
X35322619Y-198666723D01*
D10*
D11*
X85322619Y-198419104D02*
X85384523Y-198357200D01*
X85508333Y-198295295D01*
X85817857Y-198295295D01*
X85941666Y-198357200D01*
X86003571Y-198419104D01*
X86065476Y-198542914D01*
X86065476Y-198666723D01*
X86003571Y-198852438D01*
X85260714Y-199595295D01*
X86065476Y-199595295D01*
D10*
D11*
X135260714Y-198295295D02*
X136065476Y-198295295D01*
X135632142Y-198790533D01*
X135817857Y-198790533D01*
X135941666Y-198852438D01*
X136003571Y-198914342D01*
X136065476Y-199038152D01*
X136065476Y-199347676D01*
X136003571Y-199471485D01*
X135941666Y-199533390D01*
X135817857Y-199595295D01*
X135446428Y-199595295D01*
X135322619Y-199533390D01*
X135260714Y-199471485D01*
D10*
D11*
X185941666Y-198728628D02*
X185941666Y-199595295D01*
X185632142Y-198233390D02*
X185322619Y-199161961D01*
X186127380Y-199161961D01*
D10*
D11*
X236003571Y-198295295D02*
X235384523Y-198295295D01*
X235322619Y-198914342D01*
X235384523Y-198852438D01*
X235508333Y-198790533D01*
X235817857Y-198790533D01*
X235941666Y-198852438D01*
X236003571Y-198914342D01*
X236065476Y-199038152D01*
X236065476Y-199347676D01*
X236003571Y-199471485D01*
X235941666Y-199533390D01*
X235817857Y-199595295D01*
X235508333Y-199595295D01*
X235384523Y-199533390D01*
X235322619Y-199471485D01*
D10*
D11*
X285941666Y-198295295D02*
X285694047Y-198295295D01*
X285570238Y-198357200D01*
X285508333Y-198419104D01*
X285384523Y-198604819D01*
X285322619Y-198852438D01*
X285322619Y-199347676D01*
X285384523Y-199471485D01*
X285446428Y-199533390D01*
X285570238Y-199595295D01*
X285817857Y-199595295D01*
X285941666Y-199533390D01*
X286003571Y-199471485D01*
X286065476Y-199347676D01*
X286065476Y-199038152D01*
X286003571Y-198914342D01*
X285941666Y-198852438D01*
X285817857Y-198790533D01*
X285570238Y-198790533D01*
X285446428Y-198852438D01*
X285384523Y-198914342D01*
X285322619Y-199038152D01*
D10*
D11*
X10000000Y-60000000D02*
X12000000Y-60000000D01*
D10*
D11*
X10000000Y-110000000D02*
X12000000Y-110000000D01*
D10*
D11*
X10000000Y-160000000D02*
X12000000Y-160000000D01*
D10*
D11*
X10690476Y-35216666D02*
X11309523Y-35216666D01*
X10566666Y-35588095D02*
X11000000Y-34288095D01*
X11433333Y-35588095D01*
D10*
D11*
X11092857Y-84907142D02*
X11278571Y-84969047D01*
X11340476Y-85030952D01*
X11402380Y-85154761D01*
X11402380Y-85340476D01*
X11340476Y-85464285D01*
X11278571Y-85526190D01*
X11154761Y-85588095D01*
X10659523Y-85588095D01*
X10659523Y-84288095D01*
X11092857Y-84288095D01*
X11216666Y-84350000D01*
X11278571Y-84411904D01*
X11340476Y-84535714D01*
X11340476Y-84659523D01*
X11278571Y-84783333D01*
X11216666Y-84845238D01*
X11092857Y-84907142D01*
X10659523Y-84907142D01*
D10*
D11*
X11402380Y-135464285D02*
X11340476Y-135526190D01*
X11154761Y-135588095D01*
X11030952Y-135588095D01*
X10845238Y-135526190D01*
X10721428Y-135402380D01*
X10659523Y-135278571D01*
X10597619Y-135030952D01*
X10597619Y-134845238D01*
X10659523Y-134597619D01*
X10721428Y-134473809D01*
X10845238Y-134350000D01*
X11030952Y-134288095D01*
X11154761Y-134288095D01*
X11340476Y-134350000D01*
X11402380Y-134411904D01*
D10*
D11*
X10659523Y-185588095D02*
X10659523Y-184288095D01*
X10969047Y-184288095D01*
X11154761Y-184350000D01*
X11278571Y-184473809D01*
X11340476Y-184597619D01*
X11402380Y-184845238D01*
X11402380Y-185030952D01*
X11340476Y-185278571D01*
X11278571Y-185402380D01*
X11154761Y-185526190D01*
X10969047Y-185588095D01*
X10659523Y-185588095D01*
D10*
D11*
X287002200Y-60000000D02*
X285002200Y-60000000D01*
D10*
D11*
X287002200Y-110000000D02*
X285002200Y-110000000D01*
D10*
D11*
X287002200Y-160000000D02*
X285002200Y-160000000D01*
D10*
D11*
X285692676Y-35216666D02*
X286311723Y-35216666D01*
X285568866Y-35588095D02*
X286002200Y-34288095D01*
X286435533Y-35588095D01*
D10*
D11*
X286095057Y-84907142D02*
X286280771Y-84969047D01*
X286342676Y-85030952D01*
X286404580Y-85154761D01*
X286404580Y-85340476D01*
X286342676Y-85464285D01*
X286280771Y-85526190D01*
X286156961Y-85588095D01*
X285661723Y-85588095D01*
X285661723Y-84288095D01*
X286095057Y-84288095D01*
X286218866Y-84350000D01*
X286280771Y-84411904D01*
X286342676Y-84535714D01*
X286342676Y-84659523D01*
X286280771Y-84783333D01*
X286218866Y-84845238D01*
X286095057Y-84907142D01*
X285661723Y-84907142D01*
D10*
D11*
X286404580Y-135464285D02*
X286342676Y-135526190D01*
X286156961Y-135588095D01*
X286033152Y-135588095D01*
X285847438Y-135526190D01*
X285723628Y-135402380D01*
X285661723Y-135278571D01*
X285599819Y-135030952D01*
X285599819Y-134845238D01*
X285661723Y-134597619D01*
X285723628Y-134473809D01*
X285847438Y-134350000D01*
X286033152Y-134288095D01*
X286156961Y-134288095D01*
X286342676Y-134350000D01*
X286404580Y-134411904D01*
D10*
D11*
X285661723Y-185588095D02*
X285661723Y-184288095D01*
X285971247Y-184288095D01*
X286156961Y-184350000D01*
X286280771Y-184473809D01*
X286342676Y-184597619D01*
X286404580Y-184845238D01*
X286404580Y-185030952D01*
X286342676Y-185278571D01*
X286280771Y-185402380D01*
X286156961Y-185526190D01*
X285971247Y-185588095D01*
X285661723Y-185588095D01*
D10*
D11*
X200434342Y-193785771D02*
X200434342Y-192285771D01*
X200791485Y-192285771D01*
X201005771Y-192357200D01*
X201148628Y-192500057D01*
X201220057Y-192642914D01*
X201291485Y-192928628D01*
X201291485Y-193142914D01*
X201220057Y-193428628D01*
X201148628Y-193571485D01*
X201005771Y-193714342D01*
X200791485Y-193785771D01*
X200434342Y-193785771D01*
X202577200Y-193785771D02*
X202577200Y-193000057D01*
X202505771Y-192857200D01*
X202362914Y-192785771D01*
X202077200Y-192785771D01*
X201934342Y-192857200D01*
X202577200Y-193714342D02*
X202434342Y-193785771D01*
X202077200Y-193785771D01*
X201934342Y-193714342D01*
X201862914Y-193571485D01*
X201862914Y-193428628D01*
X201934342Y-193285771D01*
X202077200Y-193214342D01*
X202434342Y-193214342D01*
X202577200Y-193142914D01*
X203077200Y-192785771D02*
X203648628Y-192785771D01*
X203291485Y-192285771D02*
X203291485Y-193571485D01*
X203362914Y-193714342D01*
X203505771Y-193785771D01*
X203648628Y-193785771D01*
X204720057Y-193714342D02*
X204577200Y-193785771D01*
X204291485Y-193785771D01*
X204148628Y-193714342D01*
X204077200Y-193571485D01*
X204077200Y-193000057D01*
X204148628Y-192857200D01*
X204291485Y-192785771D01*
X204577200Y-192785771D01*
X204720057Y-192857200D01*
X204791485Y-193000057D01*
X204791485Y-193142914D01*
X204077200Y-193285771D01*
X205434342Y-193642914D02*
X205505771Y-193714342D01*
X205434342Y-193785771D01*
X205362914Y-193714342D01*
X205434342Y-193642914D01*
X205434342Y-193785771D01*
X205434342Y-192857200D02*
X205505771Y-192928628D01*
X205434342Y-193000057D01*
X205362914Y-192928628D01*
X205434342Y-192857200D01*
X205434342Y-193000057D01*
X207220057Y-192428628D02*
X207291485Y-192357200D01*
X207434342Y-192285771D01*
X207791485Y-192285771D01*
X207934342Y-192357200D01*
X208005771Y-192428628D01*
X208077200Y-192571485D01*
X208077200Y-192714342D01*
X208005771Y-192928628D01*
X207148628Y-193785771D01*
X208077200Y-193785771D01*
X209005771Y-192285771D02*
X209148628Y-192285771D01*
X209291485Y-192357200D01*
X209362914Y-192428628D01*
X209434342Y-192571485D01*
X209505771Y-192857200D01*
X209505771Y-193214342D01*
X209434342Y-193500057D01*
X209362914Y-193642914D01*
X209291485Y-193714342D01*
X209148628Y-193785771D01*
X209005771Y-193785771D01*
X208862914Y-193714342D01*
X208791485Y-193642914D01*
X208720057Y-193500057D01*
X208648628Y-193214342D01*
X208648628Y-192857200D01*
X208720057Y-192571485D01*
X208791485Y-192428628D01*
X208862914Y-192357200D01*
X209005771Y-192285771D01*
X210077200Y-192428628D02*
X210148628Y-192357200D01*
X210291485Y-192285771D01*
X210648628Y-192285771D01*
X210791485Y-192357200D01*
X210862914Y-192428628D01*
X210934342Y-192571485D01*
X210934342Y-192714342D01*
X210862914Y-192928628D01*
X210005771Y-193785771D01*
X210934342Y-193785771D01*
X211434342Y-192285771D02*
X212362914Y-192285771D01*
X211862914Y-192857200D01*
X212077200Y-192857200D01*
X212220057Y-192928628D01*
X212291485Y-193000057D01*
X212362914Y-193142914D01*
X212362914Y-193500057D01*
X212291485Y-193642914D01*
X212220057Y-193714342D01*
X212077200Y-193785771D01*
X211648628Y-193785771D01*
X211505771Y-193714342D01*
X211434342Y-193642914D01*
X213005771Y-193214342D02*
X214148628Y-193214342D01*
X215148628Y-192285771D02*
X215291485Y-192285771D01*
X215434342Y-192357200D01*
X215505771Y-192428628D01*
X215577200Y-192571485D01*
X215648628Y-192857200D01*
X215648628Y-193214342D01*
X215577200Y-193500057D01*
X215505771Y-193642914D01*
X215434342Y-193714342D01*
X215291485Y-193785771D01*
X215148628Y-193785771D01*
X215005771Y-193714342D01*
X214934342Y-193642914D01*
X214862914Y-193500057D01*
X214791485Y-193214342D01*
X214791485Y-192857200D01*
X214862914Y-192571485D01*
X214934342Y-192428628D01*
X215005771Y-192357200D01*
X215148628Y-192285771D01*
X217005771Y-192285771D02*
X216291485Y-192285771D01*
X216220057Y-193000057D01*
X216291485Y-192928628D01*
X216434342Y-192857200D01*
X216791485Y-192857200D01*
X216934342Y-192928628D01*
X217005771Y-193000057D01*
X217077200Y-193142914D01*
X217077200Y-193500057D01*
X217005771Y-193642914D01*
X216934342Y-193714342D01*
X216791485Y-193785771D01*
X216434342Y-193785771D01*
X216291485Y-193714342D01*
X216220057Y-193642914D01*
X217720057Y-193214342D02*
X218862914Y-193214342D01*
X220362914Y-193785771D02*
X219505771Y-193785771D01*
X219934342Y-193785771D02*
X219934342Y-192285771D01*
X219791485Y-192500057D01*
X219648628Y-192642914D01*
X219505771Y-192714342D01*
X220862914Y-192285771D02*
X221791485Y-192285771D01*
X221291485Y-192857200D01*
X221505771Y-192857200D01*
X221648628Y-192928628D01*
X221720057Y-193000057D01*
X221791485Y-193142914D01*
X221791485Y-193500057D01*
X221720057Y-193642914D01*
X221648628Y-193714342D01*
X221505771Y-193785771D01*
X221077200Y-193785771D01*
X220934342Y-193714342D01*
X220862914Y-193642914D01*
D10*
D11*
X177002200Y-194507200D02*
X285002200Y-194507200D01*
D10*
D11*
X178434342Y-196585771D02*
X178434342Y-195085771D01*
X179291485Y-196585771D02*
X178648628Y-195728628D01*
X179291485Y-195085771D02*
X178434342Y-195942914D01*
X179934342Y-196585771D02*
X179934342Y-195585771D01*
X179934342Y-195085771D02*
X179862914Y-195157200D01*
X179934342Y-195228628D01*
X180005771Y-195157200D01*
X179934342Y-195085771D01*
X179934342Y-195228628D01*
X181505771Y-196442914D02*
X181434342Y-196514342D01*
X181220057Y-196585771D01*
X181077200Y-196585771D01*
X180862914Y-196514342D01*
X180720057Y-196371485D01*
X180648628Y-196228628D01*
X180577200Y-195942914D01*
X180577200Y-195728628D01*
X180648628Y-195442914D01*
X180720057Y-195300057D01*
X180862914Y-195157200D01*
X181077200Y-195085771D01*
X181220057Y-195085771D01*
X181434342Y-195157200D01*
X181505771Y-195228628D01*
X182791485Y-196585771D02*
X182791485Y-195800057D01*
X182720057Y-195657200D01*
X182577200Y-195585771D01*
X182291485Y-195585771D01*
X182148628Y-195657200D01*
X182791485Y-196514342D02*
X182648628Y-196585771D01*
X182291485Y-196585771D01*
X182148628Y-196514342D01*
X182077200Y-196371485D01*
X182077200Y-196228628D01*
X182148628Y-196085771D01*
X182291485Y-196014342D01*
X182648628Y-196014342D01*
X182791485Y-195942914D01*
X184148628Y-196585771D02*
X184148628Y-195085771D01*
X184148628Y-196514342D02*
X184005771Y-196585771D01*
X183720057Y-196585771D01*
X183577200Y-196514342D01*
X183505771Y-196442914D01*
X183434342Y-196300057D01*
X183434342Y-195871485D01*
X183505771Y-195728628D01*
X183577200Y-195657200D01*
X183720057Y-195585771D01*
X184005771Y-195585771D01*
X184148628Y-195657200D01*
X186005771Y-195800057D02*
X186505771Y-195800057D01*
X186720057Y-196585771D02*
X186005771Y-196585771D01*
X186005771Y-195085771D01*
X186720057Y-195085771D01*
X187362914Y-196442914D02*
X187434342Y-196514342D01*
X187362914Y-196585771D01*
X187291485Y-196514342D01*
X187362914Y-196442914D01*
X187362914Y-196585771D01*
X188077200Y-196585771D02*
X188077200Y-195085771D01*
X188434342Y-195085771D01*
X188648628Y-195157200D01*
X188791485Y-195300057D01*
X188862914Y-195442914D01*
X188934342Y-195728628D01*
X188934342Y-195942914D01*
X188862914Y-196228628D01*
X188791485Y-196371485D01*
X188648628Y-196514342D01*
X188434342Y-196585771D01*
X188077200Y-196585771D01*
X189577200Y-196442914D02*
X189648628Y-196514342D01*
X189577200Y-196585771D01*
X189505771Y-196514342D01*
X189577200Y-196442914D01*
X189577200Y-196585771D01*
X190220057Y-196157200D02*
X190934342Y-196157200D01*
X190077200Y-196585771D02*
X190577200Y-195085771D01*
X191077200Y-196585771D01*
X191577200Y-196442914D02*
X191648628Y-196514342D01*
X191577200Y-196585771D01*
X191505771Y-196514342D01*
X191577200Y-196442914D01*
X191577200Y-196585771D01*
X194577200Y-196585771D02*
X194577200Y-195085771D01*
X194720057Y-196014342D02*
X195148628Y-196585771D01*
X195148628Y-195585771D02*
X194577200Y-196157200D01*
X195791485Y-196585771D02*
X195791485Y-195585771D01*
X195791485Y-195085771D02*
X195720057Y-195157200D01*
X195791485Y-195228628D01*
X195862914Y-195157200D01*
X195791485Y-195085771D01*
X195791485Y-195228628D01*
X197148628Y-196514342D02*
X197005771Y-196585771D01*
X196720057Y-196585771D01*
X196577200Y-196514342D01*
X196505771Y-196442914D01*
X196434342Y-196300057D01*
X196434342Y-195871485D01*
X196505771Y-195728628D01*
X196577200Y-195657200D01*
X196720057Y-195585771D01*
X197005771Y-195585771D01*
X197148628Y-195657200D01*
X198434342Y-196585771D02*
X198434342Y-195800057D01*
X198362914Y-195657200D01*
X198220057Y-195585771D01*
X197934342Y-195585771D01*
X197791485Y-195657200D01*
X198434342Y-196514342D02*
X198291485Y-196585771D01*
X197934342Y-196585771D01*
X197791485Y-196514342D01*
X197720057Y-196371485D01*
X197720057Y-196228628D01*
X197791485Y-196085771D01*
X197934342Y-196014342D01*
X198291485Y-196014342D01*
X198434342Y-195942914D01*
X199791485Y-196585771D02*
X199791485Y-195085771D01*
X199791485Y-196514342D02*
X199648628Y-196585771D01*
X199362914Y-196585771D01*
X199220057Y-196514342D01*
X199148628Y-196442914D01*
X199077200Y-196300057D01*
X199077200Y-195871485D01*
X199148628Y-195728628D01*
X199220057Y-195657200D01*
X199362914Y-195585771D01*
X199648628Y-195585771D01*
X199791485Y-195657200D01*
X202077200Y-197157200D02*
X202005771Y-197085771D01*
X201862914Y-196871485D01*
X201791485Y-196728628D01*
X201720057Y-196514342D01*
X201648628Y-196157200D01*
X201648628Y-195871485D01*
X201720057Y-195514342D01*
X201791485Y-195300057D01*
X201862914Y-195157200D01*
X202005771Y-194942914D01*
X202077200Y-194871485D01*
X203291485Y-195085771D02*
X203005771Y-195085771D01*
X202862914Y-195157200D01*
X202791485Y-195228628D01*
X202648628Y-195442914D01*
X202577200Y-195728628D01*
X202577200Y-196300057D01*
X202648628Y-196442914D01*
X202720057Y-196514342D01*
X202862914Y-196585771D01*
X203148628Y-196585771D01*
X203291485Y-196514342D01*
X203362914Y-196442914D01*
X203434342Y-196300057D01*
X203434342Y-195942914D01*
X203362914Y-195800057D01*
X203291485Y-195728628D01*
X203148628Y-195657200D01*
X202862914Y-195657200D01*
X202720057Y-195728628D01*
X202648628Y-195800057D01*
X202577200Y-195942914D01*
X204077200Y-196442914D02*
X204148628Y-196514342D01*
X204077200Y-196585771D01*
X204005771Y-196514342D01*
X204077200Y-196442914D01*
X204077200Y-196585771D01*
X205077200Y-195085771D02*
X205220057Y-195085771D01*
X205362914Y-195157200D01*
X205434342Y-195228628D01*
X205505771Y-195371485D01*
X205577200Y-195657200D01*
X205577200Y-196014342D01*
X205505771Y-196300057D01*
X205434342Y-196442914D01*
X205362914Y-196514342D01*
X205220057Y-196585771D01*
X205077200Y-196585771D01*
X204934342Y-196514342D01*
X204862914Y-196442914D01*
X204791485Y-196300057D01*
X204720057Y-196014342D01*
X204720057Y-195657200D01*
X204791485Y-195371485D01*
X204862914Y-195228628D01*
X204934342Y-195157200D01*
X205077200Y-195085771D01*
X206220057Y-196442914D02*
X206291485Y-196514342D01*
X206220057Y-196585771D01*
X206148628Y-196514342D01*
X206220057Y-196442914D01*
X206220057Y-196585771D01*
X207648628Y-195085771D02*
X206934342Y-195085771D01*
X206862914Y-195800057D01*
X206934342Y-195728628D01*
X207077200Y-195657200D01*
X207434342Y-195657200D01*
X207577200Y-195728628D01*
X207648628Y-195800057D01*
X207720057Y-195942914D01*
X207720057Y-196300057D01*
X207648628Y-196442914D01*
X207577200Y-196514342D01*
X207434342Y-196585771D01*
X207077200Y-196585771D01*
X206934342Y-196514342D01*
X206862914Y-196442914D01*
X208220057Y-197157200D02*
X208291485Y-197085771D01*
X208434342Y-196871485D01*
X208505771Y-196728628D01*
X208577200Y-196514342D01*
X208648628Y-196157200D01*
X208648628Y-195871485D01*
X208577200Y-195514342D01*
X208505771Y-195300057D01*
X208434342Y-195157200D01*
X208291485Y-194942914D01*
X208220057Y-194871485D01*
D10*
D11*
X177002200Y-191507200D02*
X285002200Y-191507200D01*
D10*
D12*
X264411485Y-193785771D02*
X263911485Y-193071485D01*
X263554342Y-193785771D02*
X263554342Y-192285771D01*
X264125771Y-192285771D01*
X264268628Y-192357200D01*
X264340057Y-192428628D01*
X264411485Y-192571485D01*
X264411485Y-192785771D01*
X264340057Y-192928628D01*
X264268628Y-193000057D01*
X264125771Y-193071485D01*
X263554342Y-193071485D01*
X265625771Y-193714342D02*
X265482914Y-193785771D01*
X265197200Y-193785771D01*
X265054342Y-193714342D01*
X264982914Y-193571485D01*
X264982914Y-193000057D01*
X265054342Y-192857200D01*
X265197200Y-192785771D01*
X265482914Y-192785771D01*
X265625771Y-192857200D01*
X265697200Y-193000057D01*
X265697200Y-193142914D01*
X264982914Y-193285771D01*
X266197200Y-192785771D02*
X266554342Y-193785771D01*
X266911485Y-192785771D01*
X267482914Y-193642914D02*
X267554342Y-193714342D01*
X267482914Y-193785771D01*
X267411485Y-193714342D01*
X267482914Y-193642914D01*
X267482914Y-193785771D01*
X267482914Y-192857200D02*
X267554342Y-192928628D01*
X267482914Y-193000057D01*
X267411485Y-192928628D01*
X267482914Y-192857200D01*
X267482914Y-193000057D01*
X269197200Y-192285771D02*
X270125771Y-192285771D01*
X269625771Y-192857200D01*
X269840057Y-192857200D01*
X269982914Y-192928628D01*
X270054342Y-193000057D01*
X270125771Y-193142914D01*
X270125771Y-193500057D01*
X270054342Y-193642914D01*
X269982914Y-193714342D01*
X269840057Y-193785771D01*
X269411485Y-193785771D01*
X269268628Y-193714342D01*
X269197200Y-193642914D01*
X270768628Y-193642914D02*
X270840057Y-193714342D01*
X270768628Y-193785771D01*
X270697200Y-193714342D01*
X270768628Y-193642914D01*
X270768628Y-193785771D01*
X271768628Y-192285771D02*
X271911485Y-192285771D01*
X272054342Y-192357200D01*
X272125771Y-192428628D01*
X272197200Y-192571485D01*
X272268628Y-192857200D01*
X272268628Y-193214342D01*
X272197200Y-193500057D01*
X272125771Y-193642914D01*
X272054342Y-193714342D01*
X271911485Y-193785771D01*
X271768628Y-193785771D01*
X271625771Y-193714342D01*
X271554342Y-193642914D01*
X271482914Y-193500057D01*
X271411485Y-193214342D01*
X271411485Y-192857200D01*
X271482914Y-192571485D01*
X271554342Y-192428628D01*
X271625771Y-192357200D01*
X271768628Y-192285771D01*
D10*
D11*
X178362914Y-193714342D02*
X178577200Y-193785771D01*
X178934342Y-193785771D01*
X179077200Y-193714342D01*
X179148628Y-193642914D01*
X179220057Y-193500057D01*
X179220057Y-193357200D01*
X179148628Y-193214342D01*
X179077200Y-193142914D01*
X178934342Y-193071485D01*
X178648628Y-193000057D01*
X178505771Y-192928628D01*
X178434342Y-192857200D01*
X178362914Y-192714342D01*
X178362914Y-192571485D01*
X178434342Y-192428628D01*
X178505771Y-192357200D01*
X178648628Y-192285771D01*
X179005771Y-192285771D01*
X179220057Y-192357200D01*
X179862914Y-193785771D02*
X179862914Y-192785771D01*
X179862914Y-192285771D02*
X179791485Y-192357200D01*
X179862914Y-192428628D01*
X179934342Y-192357200D01*
X179862914Y-192285771D01*
X179862914Y-192428628D01*
X180434342Y-192785771D02*
X181220057Y-192785771D01*
X180434342Y-193785771D01*
X181220057Y-193785771D01*
X182362914Y-193714342D02*
X182220057Y-193785771D01*
X181934342Y-193785771D01*
X181791485Y-193714342D01*
X181720057Y-193571485D01*
X181720057Y-193000057D01*
X181791485Y-192857200D01*
X181934342Y-192785771D01*
X182220057Y-192785771D01*
X182362914Y-192857200D01*
X182434342Y-193000057D01*
X182434342Y-193142914D01*
X181720057Y-193285771D01*
X183077200Y-193642914D02*
X183148628Y-193714342D01*
X183077200Y-193785771D01*
X183005771Y-193714342D01*
X183077200Y-193642914D01*
X183077200Y-193785771D01*
X183077200Y-192857200D02*
X183148628Y-192928628D01*
X183077200Y-193000057D01*
X183005771Y-192928628D01*
X183077200Y-192857200D01*
X183077200Y-193000057D01*
X184862914Y-193357200D02*
X185577200Y-193357200D01*
X184720057Y-193785771D02*
X185220057Y-192285771D01*
X185720057Y-193785771D01*
X186862914Y-192785771D02*
X186862914Y-193785771D01*
X186505771Y-192214342D02*
X186148628Y-193285771D01*
X187077200Y-193285771D01*
D10*
D11*
X263434342Y-196585771D02*
X263434342Y-195085771D01*
X264791485Y-196585771D02*
X264791485Y-195085771D01*
X264791485Y-196514342D02*
X264648628Y-196585771D01*
X264362914Y-196585771D01*
X264220057Y-196514342D01*
X264148628Y-196442914D01*
X264077200Y-196300057D01*
X264077200Y-195871485D01*
X264148628Y-195728628D01*
X264220057Y-195657200D01*
X264362914Y-195585771D01*
X264648628Y-195585771D01*
X264791485Y-195657200D01*
X265505771Y-196442914D02*
X265577200Y-196514342D01*
X265505771Y-196585771D01*
X265434342Y-196514342D01*
X265505771Y-196442914D01*
X265505771Y-196585771D01*
X265505771Y-195657200D02*
X265577200Y-195728628D01*
X265505771Y-195800057D01*
X265434342Y-195728628D01*
X265505771Y-195657200D01*
X265505771Y-195800057D01*
X268148628Y-196585771D02*
X267291485Y-196585771D01*
X267720057Y-196585771D02*
X267720057Y-195085771D01*
X267577200Y-195300057D01*
X267434342Y-195442914D01*
X267291485Y-195514342D01*
X269862914Y-195014342D02*
X268577200Y-196942914D01*
X271148628Y-196585771D02*
X270291485Y-196585771D01*
X270720057Y-196585771D02*
X270720057Y-195085771D01*
X270577200Y-195300057D01*
X270434342Y-195442914D01*
X270291485Y-195514342D01*
D10*
D11*
X177002200Y-187507200D02*
X285002200Y-187507200D01*
D10*
D13*
X178714580Y-188211961D02*
X179857438Y-188211961D01*
X179036009Y-190211961D02*
X179286009Y-188211961D01*
X180274104Y-190211961D02*
X180440771Y-188878628D01*
X180524104Y-188211961D02*
X180416961Y-188307200D01*
X180500295Y-188402438D01*
X180607438Y-188307200D01*
X180524104Y-188211961D01*
X180500295Y-188402438D01*
X181107438Y-188878628D02*
X181869342Y-188878628D01*
X181476485Y-188211961D02*
X181262200Y-189926247D01*
X181333628Y-190116723D01*
X181512200Y-190211961D01*
X181702676Y-190211961D01*
X182655057Y-190211961D02*
X182476485Y-190116723D01*
X182405057Y-189926247D01*
X182619342Y-188211961D01*
X184190771Y-190116723D02*
X183988390Y-190211961D01*
X183607438Y-190211961D01*
X183428866Y-190116723D01*
X183357438Y-189926247D01*
X183452676Y-189164342D01*
X183571723Y-188973866D01*
X183774104Y-188878628D01*
X184155057Y-188878628D01*
X184333628Y-188973866D01*
X184405057Y-189164342D01*
X184381247Y-189354819D01*
X183405057Y-189545295D01*
X185155057Y-190021485D02*
X185238390Y-190116723D01*
X185131247Y-190211961D01*
X185047914Y-190116723D01*
X185155057Y-190021485D01*
X185131247Y-190211961D01*
X185286009Y-188973866D02*
X185369342Y-189069104D01*
X185262200Y-189164342D01*
X185178866Y-189069104D01*
X185286009Y-188973866D01*
X185262200Y-189164342D01*
X187607438Y-190211961D02*
X187857438Y-188211961D01*
X188345533Y-189640533D01*
X189190771Y-188211961D01*
X188940771Y-190211961D01*
X190178866Y-190211961D02*
X190000295Y-190116723D01*
X189916961Y-190021485D01*
X189845533Y-189831009D01*
X189916961Y-189259580D01*
X190036009Y-189069104D01*
X190143152Y-188973866D01*
X190345533Y-188878628D01*
X190631247Y-188878628D01*
X190809819Y-188973866D01*
X190893152Y-189069104D01*
X190964580Y-189259580D01*
X190893152Y-189831009D01*
X190774104Y-190021485D01*
X190666961Y-190116723D01*
X190464580Y-190211961D01*
X190178866Y-190211961D01*
X191869342Y-188878628D02*
X191702676Y-190211961D01*
X191845533Y-189069104D02*
X191952676Y-188973866D01*
X192155057Y-188878628D01*
X192440771Y-188878628D01*
X192619342Y-188973866D01*
X192690771Y-189164342D01*
X192559819Y-190211961D01*
X193512200Y-190211961D02*
X193762200Y-188211961D01*
X193797914Y-189450057D02*
X194274104Y-190211961D01*
X194440771Y-188878628D02*
X193583628Y-189640533D01*
X195905057Y-190116723D02*
X195702676Y-190211961D01*
X195321723Y-190211961D01*
X195143152Y-190116723D01*
X195071723Y-189926247D01*
X195166961Y-189164342D01*
X195286009Y-188973866D01*
X195488390Y-188878628D01*
X195869342Y-188878628D01*
X196047914Y-188973866D01*
X196119342Y-189164342D01*
X196095533Y-189354819D01*
X195119342Y-189545295D01*
X196821723Y-188878628D02*
X197131247Y-190211961D01*
X197774104Y-188878628D02*
X197131247Y-190211961D01*
X196881247Y-190688152D01*
X196774104Y-190783390D01*
X196571723Y-190878628D01*
X199166961Y-189164342D02*
X199440771Y-189259580D01*
X199524104Y-189354819D01*
X199595533Y-189545295D01*
X199559819Y-189831009D01*
X199440771Y-190021485D01*
X199333628Y-190116723D01*
X199131247Y-190211961D01*
X198369342Y-190211961D01*
X198619342Y-188211961D01*
X199286009Y-188211961D01*
X199464580Y-188307200D01*
X199547914Y-188402438D01*
X199619342Y-188592914D01*
X199595533Y-188783390D01*
X199476485Y-188973866D01*
X199369342Y-189069104D01*
X199166961Y-189164342D01*
X198500295Y-189164342D01*
X201226485Y-190211961D02*
X201357438Y-189164342D01*
X201286009Y-188973866D01*
X201107438Y-188878628D01*
X200726485Y-188878628D01*
X200524104Y-188973866D01*
X201238390Y-190116723D02*
X201036009Y-190211961D01*
X200559819Y-190211961D01*
X200381247Y-190116723D01*
X200309819Y-189926247D01*
X200333628Y-189735771D01*
X200452676Y-189545295D01*
X200655057Y-189450057D01*
X201131247Y-189450057D01*
X201333628Y-189354819D01*
X203036009Y-190211961D02*
X203286009Y-188211961D01*
X203047914Y-190116723D02*
X202845533Y-190211961D01*
X202464580Y-190211961D01*
X202286009Y-190116723D01*
X202202676Y-190021485D01*
X202131247Y-189831009D01*
X202202676Y-189259580D01*
X202321723Y-189069104D01*
X202428866Y-188973866D01*
X202631247Y-188878628D01*
X203012200Y-188878628D01*
X203190771Y-188973866D01*
X205012200Y-188878628D02*
X204809819Y-190497676D01*
X204690771Y-190688152D01*
X204583628Y-190783390D01*
X204381247Y-190878628D01*
X204095533Y-190878628D01*
X203916961Y-190783390D01*
X204857438Y-190116723D02*
X204655057Y-190211961D01*
X204274104Y-190211961D01*
X204095533Y-190116723D01*
X204012200Y-190021485D01*
X203940771Y-189831009D01*
X204012200Y-189259580D01*
X204131247Y-189069104D01*
X204238390Y-188973866D01*
X204440771Y-188878628D01*
X204821723Y-188878628D01*
X205000295Y-188973866D01*
X206571723Y-190116723D02*
X206369342Y-190211961D01*
X205988390Y-190211961D01*
X205809819Y-190116723D01*
X205738390Y-189926247D01*
X205833628Y-189164342D01*
X205952676Y-188973866D01*
X206155057Y-188878628D01*
X206536009Y-188878628D01*
X206714580Y-188973866D01*
X206786009Y-189164342D01*
X206762200Y-189354819D01*
X205786009Y-189545295D01*
D10*
D11*
X178934342Y-185600057D02*
X178434342Y-185600057D01*
X178434342Y-186385771D02*
X178434342Y-184885771D01*
X179148628Y-184885771D01*
X179720057Y-186385771D02*
X179720057Y-185385771D01*
X179720057Y-184885771D02*
X179648628Y-184957200D01*
X179720057Y-185028628D01*
X179791485Y-184957200D01*
X179720057Y-184885771D01*
X179720057Y-185028628D01*
X180648628Y-186385771D02*
X180505771Y-186314342D01*
X180434342Y-186171485D01*
X180434342Y-184885771D01*
X181791485Y-186314342D02*
X181648628Y-186385771D01*
X181362914Y-186385771D01*
X181220057Y-186314342D01*
X181148628Y-186171485D01*
X181148628Y-185600057D01*
X181220057Y-185457200D01*
X181362914Y-185385771D01*
X181648628Y-185385771D01*
X181791485Y-185457200D01*
X181862914Y-185600057D01*
X181862914Y-185742914D01*
X181148628Y-185885771D01*
X182505771Y-186242914D02*
X182577200Y-186314342D01*
X182505771Y-186385771D01*
X182434342Y-186314342D01*
X182505771Y-186242914D01*
X182505771Y-186385771D01*
X182505771Y-185457200D02*
X182577200Y-185528628D01*
X182505771Y-185600057D01*
X182434342Y-185528628D01*
X182505771Y-185457200D01*
X182505771Y-185600057D01*
X184362914Y-186385771D02*
X184362914Y-184885771D01*
X184862914Y-185957200D01*
X185362914Y-184885771D01*
X185362914Y-186385771D01*
X186291485Y-186385771D02*
X186148628Y-186314342D01*
X186077200Y-186242914D01*
X186005771Y-186100057D01*
X186005771Y-185671485D01*
X186077200Y-185528628D01*
X186148628Y-185457200D01*
X186291485Y-185385771D01*
X186505771Y-185385771D01*
X186648628Y-185457200D01*
X186720057Y-185528628D01*
X186791485Y-185671485D01*
X186791485Y-186100057D01*
X186720057Y-186242914D01*
X186648628Y-186314342D01*
X186505771Y-186385771D01*
X186291485Y-186385771D01*
X187434342Y-185385771D02*
X187434342Y-186385771D01*
X187434342Y-185528628D02*
X187505771Y-185457200D01*
X187648628Y-185385771D01*
X187862914Y-185385771D01*
X188005771Y-185457200D01*
X188077200Y-185600057D01*
X188077200Y-186385771D01*
X188791485Y-186385771D02*
X188791485Y-184885771D01*
X188934342Y-185814342D02*
X189362914Y-186385771D01*
X189362914Y-185385771D02*
X188791485Y-185957200D01*
X190577200Y-186314342D02*
X190434342Y-186385771D01*
X190148628Y-186385771D01*
X190005771Y-186314342D01*
X189934342Y-186171485D01*
X189934342Y-185600057D01*
X190005771Y-185457200D01*
X190148628Y-185385771D01*
X190434342Y-185385771D01*
X190577200Y-185457200D01*
X190648628Y-185600057D01*
X190648628Y-185742914D01*
X189934342Y-185885771D01*
X191148628Y-185385771D02*
X191505771Y-186385771D01*
X191862914Y-185385771D02*
X191505771Y-186385771D01*
X191362914Y-186742914D01*
X191291485Y-186814342D01*
X191148628Y-186885771D01*
X192362914Y-186314342D02*
X192505771Y-186385771D01*
X192791485Y-186385771D01*
X192934342Y-186314342D01*
X193005771Y-186171485D01*
X193005771Y-186100057D01*
X192934342Y-185957200D01*
X192791485Y-185885771D01*
X192577200Y-185885771D01*
X192434342Y-185814342D01*
X192362914Y-185671485D01*
X192362914Y-185600057D01*
X192434342Y-185457200D01*
X192577200Y-185385771D01*
X192791485Y-185385771D01*
X192934342Y-185457200D01*
X193648628Y-186242914D02*
X193720057Y-186314342D01*
X193648628Y-186385771D01*
X193577200Y-186314342D01*
X193648628Y-186242914D01*
X193648628Y-186385771D01*
X194362914Y-186385771D02*
X194362914Y-184885771D01*
X194505771Y-185814342D02*
X194934342Y-186385771D01*
X194934342Y-185385771D02*
X194362914Y-185957200D01*
X195577200Y-186385771D02*
X195577200Y-185385771D01*
X195577200Y-184885771D02*
X195505771Y-184957200D01*
X195577200Y-185028628D01*
X195648628Y-184957200D01*
X195577200Y-184885771D01*
X195577200Y-185028628D01*
X196934342Y-186314342D02*
X196791485Y-186385771D01*
X196505771Y-186385771D01*
X196362914Y-186314342D01*
X196291485Y-186242914D01*
X196220057Y-186100057D01*
X196220057Y-185671485D01*
X196291485Y-185528628D01*
X196362914Y-185457200D01*
X196505771Y-185385771D01*
X196791485Y-185385771D01*
X196934342Y-185457200D01*
X198220057Y-186385771D02*
X198220057Y-185600057D01*
X198148628Y-185457200D01*
X198005771Y-185385771D01*
X197720057Y-185385771D01*
X197577200Y-185457200D01*
X198220057Y-186314342D02*
X198077200Y-186385771D01*
X197720057Y-186385771D01*
X197577200Y-186314342D01*
X197505771Y-186171485D01*
X197505771Y-186028628D01*
X197577200Y-185885771D01*
X197720057Y-185814342D01*
X198077200Y-185814342D01*
X198220057Y-185742914D01*
X199577200Y-186385771D02*
X199577200Y-184885771D01*
X199577200Y-186314342D02*
X199434342Y-186385771D01*
X199148628Y-186385771D01*
X199005771Y-186314342D01*
X198934342Y-186242914D01*
X198862914Y-186100057D01*
X198862914Y-185671485D01*
X198934342Y-185528628D01*
X199005771Y-185457200D01*
X199148628Y-185385771D01*
X199434342Y-185385771D01*
X199577200Y-185457200D01*
X199934342Y-186528628D02*
X201077200Y-186528628D01*
X201434342Y-185385771D02*
X201434342Y-186885771D01*
X201434342Y-185457200D02*
X201577200Y-185385771D01*
X201862914Y-185385771D01*
X202005771Y-185457200D01*
X202077200Y-185528628D01*
X202148628Y-185671485D01*
X202148628Y-186100057D01*
X202077200Y-186242914D01*
X202005771Y-186314342D01*
X201862914Y-186385771D01*
X201577200Y-186385771D01*
X201434342Y-186314342D01*
X203434342Y-186314342D02*
X203291485Y-186385771D01*
X203005771Y-186385771D01*
X202862914Y-186314342D01*
X202791485Y-186242914D01*
X202720057Y-186100057D01*
X202720057Y-185671485D01*
X202791485Y-185528628D01*
X202862914Y-185457200D01*
X203005771Y-185385771D01*
X203291485Y-185385771D01*
X203434342Y-185457200D01*
X204077200Y-186385771D02*
X204077200Y-184885771D01*
X204077200Y-185457200D02*
X204220057Y-185385771D01*
X204505771Y-185385771D01*
X204648628Y-185457200D01*
X204720057Y-185528628D01*
X204791485Y-185671485D01*
X204791485Y-186100057D01*
X204720057Y-186242914D01*
X204648628Y-186314342D01*
X204505771Y-186385771D01*
X204220057Y-186385771D01*
X204077200Y-186314342D01*
D10*
D11*
X177002200Y-181507200D02*
X285002200Y-181507200D01*
D10*
D11*
X178362914Y-183614342D02*
X178577200Y-183685771D01*
X178934342Y-183685771D01*
X179077200Y-183614342D01*
X179148628Y-183542914D01*
X179220057Y-183400057D01*
X179220057Y-183257200D01*
X179148628Y-183114342D01*
X179077200Y-183042914D01*
X178934342Y-182971485D01*
X178648628Y-182900057D01*
X178505771Y-182828628D01*
X178434342Y-182757200D01*
X178362914Y-182614342D01*
X178362914Y-182471485D01*
X178434342Y-182328628D01*
X178505771Y-182257200D01*
X178648628Y-182185771D01*
X179005771Y-182185771D01*
X179220057Y-182257200D01*
X179862914Y-183685771D02*
X179862914Y-182185771D01*
X180505771Y-183685771D02*
X180505771Y-182900057D01*
X180434342Y-182757200D01*
X180291485Y-182685771D01*
X180077200Y-182685771D01*
X179934342Y-182757200D01*
X179862914Y-182828628D01*
X181791485Y-183614342D02*
X181648628Y-183685771D01*
X181362914Y-183685771D01*
X181220057Y-183614342D01*
X181148628Y-183471485D01*
X181148628Y-182900057D01*
X181220057Y-182757200D01*
X181362914Y-182685771D01*
X181648628Y-182685771D01*
X181791485Y-182757200D01*
X181862914Y-182900057D01*
X181862914Y-183042914D01*
X181148628Y-183185771D01*
X183077200Y-183614342D02*
X182934342Y-183685771D01*
X182648628Y-183685771D01*
X182505771Y-183614342D01*
X182434342Y-183471485D01*
X182434342Y-182900057D01*
X182505771Y-182757200D01*
X182648628Y-182685771D01*
X182934342Y-182685771D01*
X183077200Y-182757200D01*
X183148628Y-182900057D01*
X183148628Y-183042914D01*
X182434342Y-183185771D01*
X183577200Y-182685771D02*
X184148628Y-182685771D01*
X183791485Y-182185771D02*
X183791485Y-183471485D01*
X183862914Y-183614342D01*
X184005771Y-183685771D01*
X184148628Y-183685771D01*
X184648628Y-183542914D02*
X184720057Y-183614342D01*
X184648628Y-183685771D01*
X184577200Y-183614342D01*
X184648628Y-183542914D01*
X184648628Y-183685771D01*
X184648628Y-182757200D02*
X184720057Y-182828628D01*
X184648628Y-182900057D01*
X184577200Y-182828628D01*
X184648628Y-182757200D01*
X184648628Y-182900057D01*
D10*
D12*
X178554342Y-180685771D02*
X178554342Y-179185771D01*
X179125771Y-179185771D01*
X179268628Y-179257200D01*
X179340057Y-179328628D01*
X179411485Y-179471485D01*
X179411485Y-179685771D01*
X179340057Y-179828628D01*
X179268628Y-179900057D01*
X179125771Y-179971485D01*
X178554342Y-179971485D01*
X180697200Y-180685771D02*
X180697200Y-179900057D01*
X180625771Y-179757200D01*
X180482914Y-179685771D01*
X180197200Y-179685771D01*
X180054342Y-179757200D01*
X180697200Y-180614342D02*
X180554342Y-180685771D01*
X180197200Y-180685771D01*
X180054342Y-180614342D01*
X179982914Y-180471485D01*
X179982914Y-180328628D01*
X180054342Y-180185771D01*
X180197200Y-180114342D01*
X180554342Y-180114342D01*
X180697200Y-180042914D01*
X182054342Y-180614342D02*
X181911485Y-180685771D01*
X181625771Y-180685771D01*
X181482914Y-180614342D01*
X181411485Y-180542914D01*
X181340057Y-180400057D01*
X181340057Y-179971485D01*
X181411485Y-179828628D01*
X181482914Y-179757200D01*
X181625771Y-179685771D01*
X181911485Y-179685771D01*
X182054342Y-179757200D01*
X182697200Y-180685771D02*
X182697200Y-179185771D01*
X182840057Y-180114342D02*
X183268628Y-180685771D01*
X183268628Y-179685771D02*
X182697200Y-180257200D01*
X184482914Y-180614342D02*
X184340057Y-180685771D01*
X184054342Y-180685771D01*
X183911485Y-180614342D01*
X183840057Y-180471485D01*
X183840057Y-179900057D01*
X183911485Y-179757200D01*
X184054342Y-179685771D01*
X184340057Y-179685771D01*
X184482914Y-179757200D01*
X184554342Y-179900057D01*
X184554342Y-180042914D01*
X183840057Y-180185771D01*
X184982914Y-179685771D02*
X185554342Y-179685771D01*
X185197200Y-179185771D02*
X185197200Y-180471485D01*
X185268628Y-180614342D01*
X185411485Y-180685771D01*
X185554342Y-180685771D01*
X186911485Y-180542914D02*
X186840057Y-180614342D01*
X186625771Y-180685771D01*
X186482914Y-180685771D01*
X186268628Y-180614342D01*
X186125771Y-180471485D01*
X186054342Y-180328628D01*
X185982914Y-180042914D01*
X185982914Y-179828628D01*
X186054342Y-179542914D01*
X186125771Y-179400057D01*
X186268628Y-179257200D01*
X186482914Y-179185771D01*
X186625771Y-179185771D01*
X186840057Y-179257200D01*
X186911485Y-179328628D01*
X187554342Y-180685771D02*
X187554342Y-179185771D01*
X188197200Y-180685771D02*
X188197200Y-179900057D01*
X188125771Y-179757200D01*
X187982914Y-179685771D01*
X187768628Y-179685771D01*
X187625771Y-179757200D01*
X187554342Y-179828628D01*
X189554342Y-180685771D02*
X189554342Y-179900057D01*
X189482914Y-179757200D01*
X189340057Y-179685771D01*
X189054342Y-179685771D01*
X188911485Y-179757200D01*
X189554342Y-180614342D02*
X189411485Y-180685771D01*
X189054342Y-180685771D01*
X188911485Y-180614342D01*
X188840057Y-180471485D01*
X188840057Y-180328628D01*
X188911485Y-180185771D01*
X189054342Y-180114342D01*
X189411485Y-180114342D01*
X189554342Y-180042914D01*
X190054342Y-179685771D02*
X190625771Y-179685771D01*
X190268628Y-179185771D02*
X190268628Y-180471485D01*
X190340057Y-180614342D01*
X190482914Y-180685771D01*
X190625771Y-180685771D01*
D10*
D11*
X179291485Y-177542914D02*
X179220057Y-177614342D01*
X179005771Y-177685771D01*
X178862914Y-177685771D01*
X178648628Y-177614342D01*
X178505771Y-177471485D01*
X178434342Y-177328628D01*
X178362914Y-177042914D01*
X178362914Y-176828628D01*
X178434342Y-176542914D01*
X178505771Y-176400057D01*
X178648628Y-176257200D01*
X178862914Y-176185771D01*
X179005771Y-176185771D01*
X179220057Y-176257200D01*
X179291485Y-176328628D01*
X180148628Y-177685771D02*
X180005771Y-177614342D01*
X179934342Y-177542914D01*
X179862914Y-177400057D01*
X179862914Y-176971485D01*
X179934342Y-176828628D01*
X180005771Y-176757200D01*
X180148628Y-176685771D01*
X180362914Y-176685771D01*
X180505771Y-176757200D01*
X180577200Y-176828628D01*
X180648628Y-176971485D01*
X180648628Y-177400057D01*
X180577200Y-177542914D01*
X180505771Y-177614342D01*
X180362914Y-177685771D01*
X180148628Y-177685771D01*
X181291485Y-176685771D02*
X181291485Y-178185771D01*
X181291485Y-176757200D02*
X181434342Y-176685771D01*
X181720057Y-176685771D01*
X181862914Y-176757200D01*
X181934342Y-176828628D01*
X182005771Y-176971485D01*
X182005771Y-177400057D01*
X181934342Y-177542914D01*
X181862914Y-177614342D01*
X181720057Y-177685771D01*
X181434342Y-177685771D01*
X181291485Y-177614342D01*
X182505771Y-176685771D02*
X182862914Y-177685771D01*
X183220057Y-176685771D02*
X182862914Y-177685771D01*
X182720057Y-178042914D01*
X182648628Y-178114342D01*
X182505771Y-178185771D01*
X183791485Y-177685771D02*
X183791485Y-176685771D01*
X183791485Y-176971485D02*
X183862914Y-176828628D01*
X183934342Y-176757200D01*
X184077200Y-176685771D01*
X184220057Y-176685771D01*
X184720057Y-177685771D02*
X184720057Y-176685771D01*
X184720057Y-176185771D02*
X184648628Y-176257200D01*
X184720057Y-176328628D01*
X184791485Y-176257200D01*
X184720057Y-176185771D01*
X184720057Y-176328628D01*
X186077200Y-176685771D02*
X186077200Y-177900057D01*
X186005771Y-178042914D01*
X185934342Y-178114342D01*
X185791485Y-178185771D01*
X185577200Y-178185771D01*
X185434342Y-178114342D01*
X186077200Y-177614342D02*
X185934342Y-177685771D01*
X185648628Y-177685771D01*
X185505771Y-177614342D01*
X185434342Y-177542914D01*
X185362914Y-177400057D01*
X185362914Y-176971485D01*
X185434342Y-176828628D01*
X185505771Y-176757200D01*
X185648628Y-176685771D01*
X185934342Y-176685771D01*
X186077200Y-176757200D01*
X186791485Y-177685771D02*
X186791485Y-176185771D01*
X187434342Y-177685771D02*
X187434342Y-176900057D01*
X187362914Y-176757200D01*
X187220057Y-176685771D01*
X187005771Y-176685771D01*
X186862914Y-176757200D01*
X186791485Y-176828628D01*
X187934342Y-176685771D02*
X188505771Y-176685771D01*
X188148628Y-176185771D02*
X188148628Y-177471485D01*
X188220057Y-177614342D01*
X188362914Y-177685771D01*
X188505771Y-177685771D01*
X190077200Y-176328628D02*
X190148628Y-176257200D01*
X190291485Y-176185771D01*
X190648628Y-176185771D01*
X190791485Y-176257200D01*
X190862914Y-176328628D01*
X190934342Y-176471485D01*
X190934342Y-176614342D01*
X190862914Y-176828628D01*
X190005771Y-177685771D01*
X190934342Y-177685771D01*
X191862914Y-176185771D02*
X192005771Y-176185771D01*
X192148628Y-176257200D01*
X192220057Y-176328628D01*
X192291485Y-176471485D01*
X192362914Y-176757200D01*
X192362914Y-177114342D01*
X192291485Y-177400057D01*
X192220057Y-177542914D01*
X192148628Y-177614342D01*
X192005771Y-177685771D01*
X191862914Y-177685771D01*
X191720057Y-177614342D01*
X191648628Y-177542914D01*
X191577200Y-177400057D01*
X191505771Y-177114342D01*
X191505771Y-176757200D01*
X191577200Y-176471485D01*
X191648628Y-176328628D01*
X191720057Y-176257200D01*
X191862914Y-176185771D01*
X192934342Y-176328628D02*
X193005771Y-176257200D01*
X193148628Y-176185771D01*
X193505771Y-176185771D01*
X193648628Y-176257200D01*
X193720057Y-176328628D01*
X193791485Y-176471485D01*
X193791485Y-176614342D01*
X193720057Y-176828628D01*
X192862914Y-177685771D01*
X193791485Y-177685771D01*
X194291485Y-176185771D02*
X195220057Y-176185771D01*
X194720057Y-176757200D01*
X194934342Y-176757200D01*
X195077200Y-176828628D01*
X195148628Y-176900057D01*
X195220057Y-177042914D01*
X195220057Y-177400057D01*
X195148628Y-177542914D01*
X195077200Y-177614342D01*
X194934342Y-177685771D01*
X194505771Y-177685771D01*
X194362914Y-177614342D01*
X194291485Y-177542914D01*
X197005771Y-177685771D02*
X197005771Y-176185771D01*
X197577200Y-176185771D01*
X197720057Y-176257200D01*
X197791485Y-176328628D01*
X197862914Y-176471485D01*
X197862914Y-176685771D01*
X197791485Y-176828628D01*
X197720057Y-176900057D01*
X197577200Y-176971485D01*
X197005771Y-176971485D01*
X199148628Y-177685771D02*
X199148628Y-176900057D01*
X199077200Y-176757200D01*
X198934342Y-176685771D01*
X198648628Y-176685771D01*
X198505771Y-176757200D01*
X199148628Y-177614342D02*
X199005771Y-177685771D01*
X198648628Y-177685771D01*
X198505771Y-177614342D01*
X198434342Y-177471485D01*
X198434342Y-177328628D01*
X198505771Y-177185771D01*
X198648628Y-177114342D01*
X199005771Y-177114342D01*
X199148628Y-177042914D01*
X200505771Y-177614342D02*
X200362914Y-177685771D01*
X200077200Y-177685771D01*
X199934342Y-177614342D01*
X199862914Y-177542914D01*
X199791485Y-177400057D01*
X199791485Y-176971485D01*
X199862914Y-176828628D01*
X199934342Y-176757200D01*
X200077200Y-176685771D01*
X200362914Y-176685771D01*
X200505771Y-176757200D01*
X201148628Y-177685771D02*
X201148628Y-176185771D01*
X201291485Y-177114342D02*
X201720057Y-177685771D01*
X201720057Y-176685771D02*
X201148628Y-177257200D01*
X202934342Y-177614342D02*
X202791485Y-177685771D01*
X202505771Y-177685771D01*
X202362914Y-177614342D01*
X202291485Y-177471485D01*
X202291485Y-176900057D01*
X202362914Y-176757200D01*
X202505771Y-176685771D01*
X202791485Y-176685771D01*
X202934342Y-176757200D01*
X203005771Y-176900057D01*
X203005771Y-177042914D01*
X202291485Y-177185771D01*
X203434342Y-176685771D02*
X204005771Y-176685771D01*
X203648628Y-176185771D02*
X203648628Y-177471485D01*
X203720057Y-177614342D01*
X203862914Y-177685771D01*
X204005771Y-177685771D01*
X205362914Y-177542914D02*
X205291485Y-177614342D01*
X205077200Y-177685771D01*
X204934342Y-177685771D01*
X204720057Y-177614342D01*
X204577200Y-177471485D01*
X204505771Y-177328628D01*
X204434342Y-177042914D01*
X204434342Y-176828628D01*
X204505771Y-176542914D01*
X204577200Y-176400057D01*
X204720057Y-176257200D01*
X204934342Y-176185771D01*
X205077200Y-176185771D01*
X205291485Y-176257200D01*
X205362914Y-176328628D01*
X206005771Y-177685771D02*
X206005771Y-176185771D01*
X206648628Y-177685771D02*
X206648628Y-176900057D01*
X206577200Y-176757200D01*
X206434342Y-176685771D01*
X206220057Y-176685771D01*
X206077200Y-176757200D01*
X206005771Y-176828628D01*
X208005771Y-177685771D02*
X208005771Y-176900057D01*
X207934342Y-176757200D01*
X207791485Y-176685771D01*
X207505771Y-176685771D01*
X207362914Y-176757200D01*
X208005771Y-177614342D02*
X207862914Y-177685771D01*
X207505771Y-177685771D01*
X207362914Y-177614342D01*
X207291485Y-177471485D01*
X207291485Y-177328628D01*
X207362914Y-177185771D01*
X207505771Y-177114342D01*
X207862914Y-177114342D01*
X208005771Y-177042914D01*
X208505771Y-176685771D02*
X209077200Y-176685771D01*
X208720057Y-176185771D02*
X208720057Y-177471485D01*
X208791485Y-177614342D01*
X208934342Y-177685771D01*
X209077200Y-177685771D01*
D10*
D11*
D10*
D11*
D10*
D11*
D10*
D11*
X197002200Y-191507200D02*
X197002200Y-194507200D01*
D10*
D11*
X261002200Y-191507200D02*
X261002200Y-198007200D01*
D12*
X195335714Y-74481071D02*
X195335714Y-72981071D01*
X195335714Y-73695357D02*
X194478571Y-73695357D01*
X194478571Y-74481071D02*
X194478571Y-72981071D01*
X193192857Y-74409642D02*
X193335714Y-74481071D01*
X193621428Y-74481071D01*
X193764285Y-74409642D01*
X193835714Y-74266785D01*
X193835714Y-73695357D01*
X193764285Y-73552500D01*
X193621428Y-73481071D01*
X193335714Y-73481071D01*
X193192857Y-73552500D01*
X193121428Y-73695357D01*
X193121428Y-73838214D01*
X193835714Y-73981071D01*
X191835714Y-74481071D02*
X191835714Y-73695357D01*
X191907142Y-73552500D01*
X192050000Y-73481071D01*
X192335714Y-73481071D01*
X192478571Y-73552500D01*
X191835714Y-74409642D02*
X191978571Y-74481071D01*
X192335714Y-74481071D01*
X192478571Y-74409642D01*
X192550000Y-74266785D01*
X192550000Y-74123928D01*
X192478571Y-73981071D01*
X192335714Y-73909642D01*
X191978571Y-73909642D01*
X191835714Y-73838214D01*
X190478571Y-74481071D02*
X190478571Y-72981071D01*
X190478571Y-74409642D02*
X190621428Y-74481071D01*
X190907142Y-74481071D01*
X191050000Y-74409642D01*
X191121428Y-74338214D01*
X191192857Y-74195357D01*
X191192857Y-73766785D01*
X191121428Y-73623928D01*
X191050000Y-73552500D01*
X190907142Y-73481071D01*
X190621428Y-73481071D01*
X190478571Y-73552500D01*
X189764285Y-73481071D02*
X189764285Y-74981071D01*
X189764285Y-73552500D02*
X189621428Y-73481071D01*
X189335714Y-73481071D01*
X189192857Y-73552500D01*
X189121428Y-73623928D01*
X189050000Y-73766785D01*
X189050000Y-74195357D01*
X189121428Y-74338214D01*
X189192857Y-74409642D01*
X189335714Y-74481071D01*
X189621428Y-74481071D01*
X189764285Y-74409642D01*
X188407142Y-74481071D02*
X188407142Y-72981071D01*
X187764285Y-74481071D02*
X187764285Y-73695357D01*
X187835714Y-73552500D01*
X187978571Y-73481071D01*
X188192857Y-73481071D01*
X188335714Y-73552500D01*
X188407142Y-73623928D01*
X186835714Y-74481071D02*
X186978571Y-74409642D01*
X187050000Y-74338214D01*
X187121428Y-74195357D01*
X187121428Y-73766785D01*
X187050000Y-73623928D01*
X186978571Y-73552500D01*
X186835714Y-73481071D01*
X186621428Y-73481071D01*
X186478571Y-73552500D01*
X186407142Y-73623928D01*
X186335714Y-73766785D01*
X186335714Y-74195357D01*
X186407142Y-74338214D01*
X186478571Y-74409642D01*
X186621428Y-74481071D01*
X186835714Y-74481071D01*
X185692857Y-73481071D02*
X185692857Y-74481071D01*
X185692857Y-73623928D02*
X185621428Y-73552500D01*
X185478571Y-73481071D01*
X185264285Y-73481071D01*
X185121428Y-73552500D01*
X185050000Y-73695357D01*
X185050000Y-74481071D01*
X183764285Y-74409642D02*
X183907142Y-74481071D01*
X184192857Y-74481071D01*
X184335714Y-74409642D01*
X184407142Y-74266785D01*
X184407142Y-73695357D01*
X184335714Y-73552500D01*
X184192857Y-73481071D01*
X183907142Y-73481071D01*
X183764285Y-73552500D01*
X183692857Y-73695357D01*
X183692857Y-73838214D01*
X184407142Y-73981071D01*
X193514285Y-76467500D02*
X192800000Y-76467500D01*
X193657142Y-76896071D02*
X193157142Y-75396071D01*
X192657142Y-76896071D01*
X192157142Y-76896071D02*
X192157142Y-75896071D01*
X192157142Y-76038928D02*
X192085714Y-75967500D01*
X191942857Y-75896071D01*
X191728571Y-75896071D01*
X191585714Y-75967500D01*
X191514285Y-76110357D01*
X191514285Y-76896071D01*
X191514285Y-76110357D02*
X191442857Y-75967500D01*
X191300000Y-75896071D01*
X191085714Y-75896071D01*
X190942857Y-75967500D01*
X190871428Y-76110357D01*
X190871428Y-76896071D01*
X190157142Y-75896071D02*
X190157142Y-77396071D01*
X190157142Y-75967500D02*
X190014285Y-75896071D01*
X189728571Y-75896071D01*
X189585714Y-75967500D01*
X189514285Y-76038928D01*
X189442857Y-76181785D01*
X189442857Y-76610357D01*
X189514285Y-76753214D01*
X189585714Y-76824642D01*
X189728571Y-76896071D01*
X190014285Y-76896071D01*
X190157142Y-76824642D01*
X186942857Y-75396071D02*
X187657142Y-75396071D01*
X187728571Y-76110357D01*
X187657142Y-76038928D01*
X187514285Y-75967500D01*
X187157142Y-75967500D01*
X187014285Y-76038928D01*
X186942857Y-76110357D01*
X186871428Y-76253214D01*
X186871428Y-76610357D01*
X186942857Y-76753214D01*
X187014285Y-76824642D01*
X187157142Y-76896071D01*
X187514285Y-76896071D01*
X187657142Y-76824642D01*
X187728571Y-76753214D01*
X186442857Y-75396071D02*
X185942857Y-76896071D01*
X185442857Y-75396071D01*
D14*
X182804761Y-60177142D02*
X178995238Y-60177142D01*
D11*
X202621904Y-56617380D02*
X202621904Y-55617380D01*
X202288571Y-56331666D01*
X201955238Y-55617380D01*
X201955238Y-56617380D01*
X201336190Y-56617380D02*
X201431428Y-56569761D01*
X201479047Y-56522142D01*
X201526666Y-56426904D01*
X201526666Y-56141190D01*
X201479047Y-56045952D01*
X201431428Y-55998333D01*
X201336190Y-55950714D01*
X201193333Y-55950714D01*
X201098095Y-55998333D01*
X201050476Y-56045952D01*
X201002857Y-56141190D01*
X201002857Y-56426904D01*
X201050476Y-56522142D01*
X201098095Y-56569761D01*
X201193333Y-56617380D01*
X201336190Y-56617380D01*
X200574285Y-55950714D02*
X200574285Y-56617380D01*
X200574285Y-56045952D02*
X200526666Y-55998333D01*
X200431428Y-55950714D01*
X200288571Y-55950714D01*
X200193333Y-55998333D01*
X200145714Y-56093571D01*
X200145714Y-56617380D01*
X199669523Y-56617380D02*
X199669523Y-55617380D01*
X199574285Y-56236428D02*
X199288571Y-56617380D01*
X199288571Y-55950714D02*
X199669523Y-56331666D01*
X198479047Y-56569761D02*
X198574285Y-56617380D01*
X198764761Y-56617380D01*
X198860000Y-56569761D01*
X198907619Y-56474523D01*
X198907619Y-56093571D01*
X198860000Y-55998333D01*
X198764761Y-55950714D01*
X198574285Y-55950714D01*
X198479047Y-55998333D01*
X198431428Y-56093571D01*
X198431428Y-56188809D01*
X198907619Y-56284047D01*
X198098095Y-55950714D02*
X197860000Y-56617380D01*
X197621904Y-55950714D02*
X197860000Y-56617380D01*
X197955238Y-56855476D01*
X198002857Y-56903095D01*
X198098095Y-56950714D01*
X197240952Y-56617380D02*
X197240952Y-55617380D01*
X197240952Y-55998333D02*
X197145714Y-55950714D01*
X196955238Y-55950714D01*
X196860000Y-55998333D01*
X196812380Y-56045952D01*
X196764761Y-56141190D01*
X196764761Y-56426904D01*
X196812380Y-56522142D01*
X196860000Y-56569761D01*
X196955238Y-56617380D01*
X197145714Y-56617380D01*
X197240952Y-56569761D01*
X195907619Y-56617380D02*
X195907619Y-56093571D01*
X195955238Y-55998333D01*
X196050476Y-55950714D01*
X196240952Y-55950714D01*
X196336190Y-55998333D01*
X195907619Y-56569761D02*
X196002857Y-56617380D01*
X196240952Y-56617380D01*
X196336190Y-56569761D01*
X196383809Y-56474523D01*
X196383809Y-56379285D01*
X196336190Y-56284047D01*
X196240952Y-56236428D01*
X196002857Y-56236428D01*
X195907619Y-56188809D01*
X195002857Y-56617380D02*
X195002857Y-55617380D01*
X195002857Y-56569761D02*
X195098095Y-56617380D01*
X195288571Y-56617380D01*
X195383809Y-56569761D01*
X195431428Y-56522142D01*
X195479047Y-56426904D01*
X195479047Y-56141190D01*
X195431428Y-56045952D01*
X195383809Y-55998333D01*
X195288571Y-55950714D01*
X195098095Y-55950714D01*
X195002857Y-55998333D01*
X194098095Y-55950714D02*
X194098095Y-56760238D01*
X194145714Y-56855476D01*
X194193333Y-56903095D01*
X194288571Y-56950714D01*
X194431428Y-56950714D01*
X194526666Y-56903095D01*
X194098095Y-56569761D02*
X194193333Y-56617380D01*
X194383809Y-56617380D01*
X194479047Y-56569761D01*
X194526666Y-56522142D01*
X194574285Y-56426904D01*
X194574285Y-56141190D01*
X194526666Y-56045952D01*
X194479047Y-55998333D01*
X194383809Y-55950714D01*
X194193333Y-55950714D01*
X194098095Y-55998333D01*
X193240952Y-56569761D02*
X193336190Y-56617380D01*
X193526666Y-56617380D01*
X193621904Y-56569761D01*
X193669523Y-56474523D01*
X193669523Y-56093571D01*
X193621904Y-55998333D01*
X193526666Y-55950714D01*
X193336190Y-55950714D01*
X193240952Y-55998333D01*
X193193333Y-56093571D01*
X193193333Y-56188809D01*
X193669523Y-56284047D01*
X192098095Y-55617380D02*
X191479047Y-55617380D01*
X191812380Y-55998333D01*
X191669523Y-55998333D01*
X191574285Y-56045952D01*
X191526666Y-56093571D01*
X191479047Y-56188809D01*
X191479047Y-56426904D01*
X191526666Y-56522142D01*
X191574285Y-56569761D01*
X191669523Y-56617380D01*
X191955238Y-56617380D01*
X192050476Y-56569761D01*
X192098095Y-56522142D01*
X191050476Y-56522142D02*
X191002857Y-56569761D01*
X191050476Y-56617380D01*
X191098095Y-56569761D01*
X191050476Y-56522142D01*
X191050476Y-56617380D01*
X190145714Y-55950714D02*
X190145714Y-56617380D01*
X190383809Y-55569761D02*
X190621904Y-56284047D01*
X190002857Y-56284047D01*
X208574285Y-58227380D02*
X208574285Y-57227380D01*
X208336190Y-57227380D01*
X208193333Y-57275000D01*
X208098095Y-57370238D01*
X208050476Y-57465476D01*
X208002857Y-57655952D01*
X208002857Y-57798809D01*
X208050476Y-57989285D01*
X208098095Y-58084523D01*
X208193333Y-58179761D01*
X208336190Y-58227380D01*
X208574285Y-58227380D01*
X207193333Y-58179761D02*
X207288571Y-58227380D01*
X207479047Y-58227380D01*
X207574285Y-58179761D01*
X207621904Y-58084523D01*
X207621904Y-57703571D01*
X207574285Y-57608333D01*
X207479047Y-57560714D01*
X207288571Y-57560714D01*
X207193333Y-57608333D01*
X207145714Y-57703571D01*
X207145714Y-57798809D01*
X207621904Y-57894047D01*
X206764761Y-58179761D02*
X206669523Y-58227380D01*
X206479047Y-58227380D01*
X206383809Y-58179761D01*
X206336190Y-58084523D01*
X206336190Y-58036904D01*
X206383809Y-57941666D01*
X206479047Y-57894047D01*
X206621904Y-57894047D01*
X206717142Y-57846428D01*
X206764761Y-57751190D01*
X206764761Y-57703571D01*
X206717142Y-57608333D01*
X206621904Y-57560714D01*
X206479047Y-57560714D01*
X206383809Y-57608333D01*
X205907619Y-58227380D02*
X205907619Y-57560714D01*
X205907619Y-57227380D02*
X205955238Y-57275000D01*
X205907619Y-57322619D01*
X205860000Y-57275000D01*
X205907619Y-57227380D01*
X205907619Y-57322619D01*
X205002857Y-57560714D02*
X205002857Y-58370238D01*
X205050476Y-58465476D01*
X205098095Y-58513095D01*
X205193333Y-58560714D01*
X205336190Y-58560714D01*
X205431428Y-58513095D01*
X205002857Y-58179761D02*
X205098095Y-58227380D01*
X205288571Y-58227380D01*
X205383809Y-58179761D01*
X205431428Y-58132142D01*
X205479047Y-58036904D01*
X205479047Y-57751190D01*
X205431428Y-57655952D01*
X205383809Y-57608333D01*
X205288571Y-57560714D01*
X205098095Y-57560714D01*
X205002857Y-57608333D01*
X204526666Y-57560714D02*
X204526666Y-58227380D01*
X204526666Y-57655952D02*
X204479047Y-57608333D01*
X204383809Y-57560714D01*
X204240952Y-57560714D01*
X204145714Y-57608333D01*
X204098095Y-57703571D01*
X204098095Y-58227380D01*
X203240952Y-58179761D02*
X203336190Y-58227380D01*
X203526666Y-58227380D01*
X203621904Y-58179761D01*
X203669523Y-58084523D01*
X203669523Y-57703571D01*
X203621904Y-57608333D01*
X203526666Y-57560714D01*
X203336190Y-57560714D01*
X203240952Y-57608333D01*
X203193333Y-57703571D01*
X203193333Y-57798809D01*
X203669523Y-57894047D01*
X202336190Y-58227380D02*
X202336190Y-57227380D01*
X202336190Y-58179761D02*
X202431428Y-58227380D01*
X202621904Y-58227380D01*
X202717142Y-58179761D01*
X202764761Y-58132142D01*
X202812380Y-58036904D01*
X202812380Y-57751190D01*
X202764761Y-57655952D01*
X202717142Y-57608333D01*
X202621904Y-57560714D01*
X202431428Y-57560714D01*
X202336190Y-57608333D01*
X200812380Y-57227380D02*
X200812380Y-57941666D01*
X200860000Y-58084523D01*
X200955238Y-58179761D01*
X201098095Y-58227380D01*
X201193333Y-58227380D01*
X199907619Y-58227380D02*
X199907619Y-57703571D01*
X199955238Y-57608333D01*
X200050476Y-57560714D01*
X200240952Y-57560714D01*
X200336190Y-57608333D01*
X199907619Y-58179761D02*
X200002857Y-58227380D01*
X200240952Y-58227380D01*
X200336190Y-58179761D01*
X200383809Y-58084523D01*
X200383809Y-57989285D01*
X200336190Y-57894047D01*
X200240952Y-57846428D01*
X200002857Y-57846428D01*
X199907619Y-57798809D01*
X199431428Y-57560714D02*
X199431428Y-58227380D01*
X199431428Y-57655952D02*
X199383809Y-57608333D01*
X199288571Y-57560714D01*
X199145714Y-57560714D01*
X199050476Y-57608333D01*
X199002857Y-57703571D01*
X199002857Y-58227380D01*
X197812380Y-57322619D02*
X197764761Y-57275000D01*
X197669523Y-57227380D01*
X197431428Y-57227380D01*
X197336190Y-57275000D01*
X197288571Y-57322619D01*
X197240952Y-57417857D01*
X197240952Y-57513095D01*
X197288571Y-57655952D01*
X197860000Y-58227380D01*
X197240952Y-58227380D01*
X196621904Y-57227380D02*
X196526666Y-57227380D01*
X196431428Y-57275000D01*
X196383809Y-57322619D01*
X196336190Y-57417857D01*
X196288571Y-57608333D01*
X196288571Y-57846428D01*
X196336190Y-58036904D01*
X196383809Y-58132142D01*
X196431428Y-58179761D01*
X196526666Y-58227380D01*
X196621904Y-58227380D01*
X196717142Y-58179761D01*
X196764761Y-58132142D01*
X196812380Y-58036904D01*
X196860000Y-57846428D01*
X196860000Y-57608333D01*
X196812380Y-57417857D01*
X196764761Y-57322619D01*
X196717142Y-57275000D01*
X196621904Y-57227380D01*
X195907619Y-57322619D02*
X195860000Y-57275000D01*
X195764761Y-57227380D01*
X195526666Y-57227380D01*
X195431428Y-57275000D01*
X195383809Y-57322619D01*
X195336190Y-57417857D01*
X195336190Y-57513095D01*
X195383809Y-57655952D01*
X195955238Y-58227380D01*
X195336190Y-58227380D01*
X194955238Y-57322619D02*
X194907619Y-57275000D01*
X194812380Y-57227380D01*
X194574285Y-57227380D01*
X194479047Y-57275000D01*
X194431428Y-57322619D01*
X194383809Y-57417857D01*
X194383809Y-57513095D01*
X194431428Y-57655952D01*
X195002857Y-58227380D01*
X194383809Y-58227380D01*
X193193333Y-57846428D02*
X192431428Y-57846428D01*
X190907619Y-57227380D02*
X190907619Y-57941666D01*
X190955238Y-58084523D01*
X191050476Y-58179761D01*
X191193333Y-58227380D01*
X191288571Y-58227380D01*
X190002857Y-57560714D02*
X190002857Y-58227380D01*
X190431428Y-57560714D02*
X190431428Y-58084523D01*
X190383809Y-58179761D01*
X190288571Y-58227380D01*
X190145714Y-58227380D01*
X190050476Y-58179761D01*
X190002857Y-58132142D01*
X189383809Y-58227380D02*
X189479047Y-58179761D01*
X189526666Y-58084523D01*
X189526666Y-57227380D01*
X189098095Y-57560714D02*
X188860000Y-58227380D01*
X188621904Y-57560714D02*
X188860000Y-58227380D01*
X188955238Y-58465476D01*
X189002857Y-58513095D01*
X189098095Y-58560714D01*
X187526666Y-57322619D02*
X187479047Y-57275000D01*
X187383809Y-57227380D01*
X187145714Y-57227380D01*
X187050476Y-57275000D01*
X187002857Y-57322619D01*
X186955238Y-57417857D01*
X186955238Y-57513095D01*
X187002857Y-57655952D01*
X187574285Y-58227380D01*
X186955238Y-58227380D01*
X186336190Y-57227380D02*
X186240952Y-57227380D01*
X186145714Y-57275000D01*
X186098095Y-57322619D01*
X186050476Y-57417857D01*
X186002857Y-57608333D01*
X186002857Y-57846428D01*
X186050476Y-58036904D01*
X186098095Y-58132142D01*
X186145714Y-58179761D01*
X186240952Y-58227380D01*
X186336190Y-58227380D01*
X186431428Y-58179761D01*
X186479047Y-58132142D01*
X186526666Y-58036904D01*
X186574285Y-57846428D01*
X186574285Y-57608333D01*
X186526666Y-57417857D01*
X186479047Y-57322619D01*
X186431428Y-57275000D01*
X186336190Y-57227380D01*
X185621904Y-57322619D02*
X185574285Y-57275000D01*
X185479047Y-57227380D01*
X185240952Y-57227380D01*
X185145714Y-57275000D01*
X185098095Y-57322619D01*
X185050476Y-57417857D01*
X185050476Y-57513095D01*
X185098095Y-57655952D01*
X185669523Y-58227380D01*
X185050476Y-58227380D01*
X184717142Y-57227380D02*
X184098095Y-57227380D01*
X184431428Y-57608333D01*
X184288571Y-57608333D01*
X184193333Y-57655952D01*
X184145714Y-57703571D01*
X184098095Y-57798809D01*
X184098095Y-58036904D01*
X184145714Y-58132142D01*
X184193333Y-58179761D01*
X184288571Y-58227380D01*
X184574285Y-58227380D01*
X184669523Y-58179761D01*
X184717142Y-58132142D01*
X206336190Y-59313571D02*
X206193333Y-59361190D01*
X206145714Y-59408809D01*
X206098095Y-59504047D01*
X206098095Y-59646904D01*
X206145714Y-59742142D01*
X206193333Y-59789761D01*
X206288571Y-59837380D01*
X206669523Y-59837380D01*
X206669523Y-58837380D01*
X206336190Y-58837380D01*
X206240952Y-58885000D01*
X206193333Y-58932619D01*
X206145714Y-59027857D01*
X206145714Y-59123095D01*
X206193333Y-59218333D01*
X206240952Y-59265952D01*
X206336190Y-59313571D01*
X206669523Y-59313571D01*
X205764761Y-59170714D02*
X205526666Y-59837380D01*
X205288571Y-59170714D02*
X205526666Y-59837380D01*
X205621904Y-60075476D01*
X205669523Y-60123095D01*
X205764761Y-60170714D01*
X204145714Y-59837380D02*
X204145714Y-58837380D01*
X203764761Y-58837380D01*
X203669523Y-58885000D01*
X203621904Y-58932619D01*
X203574285Y-59027857D01*
X203574285Y-59170714D01*
X203621904Y-59265952D01*
X203669523Y-59313571D01*
X203764761Y-59361190D01*
X204145714Y-59361190D01*
X202717142Y-59837380D02*
X202717142Y-59313571D01*
X202764761Y-59218333D01*
X202860000Y-59170714D01*
X203050476Y-59170714D01*
X203145714Y-59218333D01*
X202717142Y-59789761D02*
X202812380Y-59837380D01*
X203050476Y-59837380D01*
X203145714Y-59789761D01*
X203193333Y-59694523D01*
X203193333Y-59599285D01*
X203145714Y-59504047D01*
X203050476Y-59456428D01*
X202812380Y-59456428D01*
X202717142Y-59408809D01*
X201812380Y-59789761D02*
X201907619Y-59837380D01*
X202098095Y-59837380D01*
X202193333Y-59789761D01*
X202240952Y-59742142D01*
X202288571Y-59646904D01*
X202288571Y-59361190D01*
X202240952Y-59265952D01*
X202193333Y-59218333D01*
X202098095Y-59170714D01*
X201907619Y-59170714D01*
X201812380Y-59218333D01*
X201383809Y-59837380D02*
X201383809Y-58837380D01*
X201288571Y-59456428D02*
X201002857Y-59837380D01*
X201002857Y-59170714D02*
X201383809Y-59551666D01*
X200193333Y-59789761D02*
X200288571Y-59837380D01*
X200479047Y-59837380D01*
X200574285Y-59789761D01*
X200621904Y-59694523D01*
X200621904Y-59313571D01*
X200574285Y-59218333D01*
X200479047Y-59170714D01*
X200288571Y-59170714D01*
X200193333Y-59218333D01*
X200145714Y-59313571D01*
X200145714Y-59408809D01*
X200621904Y-59504047D01*
X199860000Y-59170714D02*
X199479047Y-59170714D01*
X199717142Y-58837380D02*
X199717142Y-59694523D01*
X199669523Y-59789761D01*
X199574285Y-59837380D01*
X199479047Y-59837380D01*
X198574285Y-59742142D02*
X198621904Y-59789761D01*
X198764761Y-59837380D01*
X198860000Y-59837380D01*
X199002857Y-59789761D01*
X199098095Y-59694523D01*
X199145714Y-59599285D01*
X199193333Y-59408809D01*
X199193333Y-59265952D01*
X199145714Y-59075476D01*
X199098095Y-58980238D01*
X199002857Y-58885000D01*
X198860000Y-58837380D01*
X198764761Y-58837380D01*
X198621904Y-58885000D01*
X198574285Y-58932619D01*
X198145714Y-59837380D02*
X198145714Y-58837380D01*
X197717142Y-59837380D02*
X197717142Y-59313571D01*
X197764761Y-59218333D01*
X197860000Y-59170714D01*
X198002857Y-59170714D01*
X198098095Y-59218333D01*
X198145714Y-59265952D01*
X196812380Y-59837380D02*
X196812380Y-59313571D01*
X196860000Y-59218333D01*
X196955238Y-59170714D01*
X197145714Y-59170714D01*
X197240952Y-59218333D01*
X196812380Y-59789761D02*
X196907619Y-59837380D01*
X197145714Y-59837380D01*
X197240952Y-59789761D01*
X197288571Y-59694523D01*
X197288571Y-59599285D01*
X197240952Y-59504047D01*
X197145714Y-59456428D01*
X196907619Y-59456428D01*
X196812380Y-59408809D01*
X196479047Y-59170714D02*
X196098095Y-59170714D01*
X196336190Y-58837380D02*
X196336190Y-59694523D01*
X196288571Y-59789761D01*
X196193333Y-59837380D01*
X196098095Y-59837380D01*
X195717142Y-59789761D02*
X195717142Y-59837380D01*
X195764761Y-59932619D01*
X195812380Y-59980238D01*
X194098095Y-59837380D02*
X194098095Y-59313571D01*
X194145714Y-59218333D01*
X194240952Y-59170714D01*
X194431428Y-59170714D01*
X194526666Y-59218333D01*
X194098095Y-59789761D02*
X194193333Y-59837380D01*
X194431428Y-59837380D01*
X194526666Y-59789761D01*
X194574285Y-59694523D01*
X194574285Y-59599285D01*
X194526666Y-59504047D01*
X194431428Y-59456428D01*
X194193333Y-59456428D01*
X194098095Y-59408809D01*
X192288571Y-59742142D02*
X192336190Y-59789761D01*
X192479047Y-59837380D01*
X192574285Y-59837380D01*
X192717142Y-59789761D01*
X192812380Y-59694523D01*
X192860000Y-59599285D01*
X192907619Y-59408809D01*
X192907619Y-59265952D01*
X192860000Y-59075476D01*
X192812380Y-58980238D01*
X192717142Y-58885000D01*
X192574285Y-58837380D01*
X192479047Y-58837380D01*
X192336190Y-58885000D01*
X192288571Y-58932619D01*
X191431428Y-59837380D02*
X191431428Y-59313571D01*
X191479047Y-59218333D01*
X191574285Y-59170714D01*
X191764761Y-59170714D01*
X191860000Y-59218333D01*
X191431428Y-59789761D02*
X191526666Y-59837380D01*
X191764761Y-59837380D01*
X191860000Y-59789761D01*
X191907619Y-59694523D01*
X191907619Y-59599285D01*
X191860000Y-59504047D01*
X191764761Y-59456428D01*
X191526666Y-59456428D01*
X191431428Y-59408809D01*
X190812380Y-59837380D02*
X190907619Y-59789761D01*
X190955238Y-59694523D01*
X190955238Y-58837380D01*
X190431428Y-59837380D02*
X190431428Y-59170714D01*
X190431428Y-58837380D02*
X190479047Y-58885000D01*
X190431428Y-58932619D01*
X190383809Y-58885000D01*
X190431428Y-58837380D01*
X190431428Y-58932619D01*
X190098095Y-59170714D02*
X189717142Y-59170714D01*
X189955238Y-59837380D02*
X189955238Y-58980238D01*
X189907619Y-58885000D01*
X189812380Y-58837380D01*
X189717142Y-58837380D01*
X189240952Y-59837380D02*
X189336190Y-59789761D01*
X189383809Y-59742142D01*
X189431428Y-59646904D01*
X189431428Y-59361190D01*
X189383809Y-59265952D01*
X189336190Y-59218333D01*
X189240952Y-59170714D01*
X189098095Y-59170714D01*
X189002857Y-59218333D01*
X188955238Y-59265952D01*
X188907619Y-59361190D01*
X188907619Y-59646904D01*
X188955238Y-59742142D01*
X189002857Y-59789761D01*
X189098095Y-59837380D01*
X189240952Y-59837380D01*
X188479047Y-59837380D02*
X188479047Y-59170714D01*
X188479047Y-59361190D02*
X188431428Y-59265952D01*
X188383809Y-59218333D01*
X188288571Y-59170714D01*
X188193333Y-59170714D01*
X187860000Y-59170714D02*
X187860000Y-59837380D01*
X187860000Y-59265952D02*
X187812380Y-59218333D01*
X187717142Y-59170714D01*
X187574285Y-59170714D01*
X187479047Y-59218333D01*
X187431428Y-59313571D01*
X187431428Y-59837380D01*
X186955238Y-59837380D02*
X186955238Y-59170714D01*
X186955238Y-58837380D02*
X187002857Y-58885000D01*
X186955238Y-58932619D01*
X186907619Y-58885000D01*
X186955238Y-58837380D01*
X186955238Y-58932619D01*
X186050476Y-59837380D02*
X186050476Y-59313571D01*
X186098095Y-59218333D01*
X186193333Y-59170714D01*
X186383809Y-59170714D01*
X186479047Y-59218333D01*
X186050476Y-59789761D02*
X186145714Y-59837380D01*
X186383809Y-59837380D01*
X186479047Y-59789761D01*
X186526666Y-59694523D01*
X186526666Y-59599285D01*
X186479047Y-59504047D01*
X186383809Y-59456428D01*
X186145714Y-59456428D01*
X186050476Y-59408809D01*
X203026666Y-61399761D02*
X202883809Y-61447380D01*
X202645714Y-61447380D01*
X202550476Y-61399761D01*
X202502857Y-61352142D01*
X202455238Y-61256904D01*
X202455238Y-61161666D01*
X202502857Y-61066428D01*
X202550476Y-61018809D01*
X202645714Y-60971190D01*
X202836190Y-60923571D01*
X202931428Y-60875952D01*
X202979047Y-60828333D01*
X203026666Y-60733095D01*
X203026666Y-60637857D01*
X202979047Y-60542619D01*
X202931428Y-60495000D01*
X202836190Y-60447380D01*
X202598095Y-60447380D01*
X202455238Y-60495000D01*
X202026666Y-61447380D02*
X202026666Y-60780714D01*
X202026666Y-60875952D02*
X201979047Y-60828333D01*
X201883809Y-60780714D01*
X201740952Y-60780714D01*
X201645714Y-60828333D01*
X201598095Y-60923571D01*
X201598095Y-61447380D01*
X201598095Y-60923571D02*
X201550476Y-60828333D01*
X201455238Y-60780714D01*
X201312380Y-60780714D01*
X201217142Y-60828333D01*
X201169523Y-60923571D01*
X201169523Y-61447380D01*
X200264761Y-61447380D02*
X200264761Y-60923571D01*
X200312380Y-60828333D01*
X200407619Y-60780714D01*
X200598095Y-60780714D01*
X200693333Y-60828333D01*
X200264761Y-61399761D02*
X200360000Y-61447380D01*
X200598095Y-61447380D01*
X200693333Y-61399761D01*
X200740952Y-61304523D01*
X200740952Y-61209285D01*
X200693333Y-61114047D01*
X200598095Y-61066428D01*
X200360000Y-61066428D01*
X200264761Y-61018809D01*
X199645714Y-61447380D02*
X199740952Y-61399761D01*
X199788571Y-61304523D01*
X199788571Y-60447380D01*
X199121904Y-61447380D02*
X199217142Y-61399761D01*
X199264761Y-61304523D01*
X199264761Y-60447380D01*
X197407619Y-61352142D02*
X197455238Y-61399761D01*
X197598095Y-61447380D01*
X197693333Y-61447380D01*
X197836190Y-61399761D01*
X197931428Y-61304523D01*
X197979047Y-61209285D01*
X198026666Y-61018809D01*
X198026666Y-60875952D01*
X197979047Y-60685476D01*
X197931428Y-60590238D01*
X197836190Y-60495000D01*
X197693333Y-60447380D01*
X197598095Y-60447380D01*
X197455238Y-60495000D01*
X197407619Y-60542619D01*
X196836190Y-61447380D02*
X196931428Y-61399761D01*
X196979047Y-61352142D01*
X197026666Y-61256904D01*
X197026666Y-60971190D01*
X196979047Y-60875952D01*
X196931428Y-60828333D01*
X196836190Y-60780714D01*
X196693333Y-60780714D01*
X196598095Y-60828333D01*
X196550476Y-60875952D01*
X196502857Y-60971190D01*
X196502857Y-61256904D01*
X196550476Y-61352142D01*
X196598095Y-61399761D01*
X196693333Y-61447380D01*
X196836190Y-61447380D01*
X196074285Y-61447380D02*
X196074285Y-60780714D01*
X196074285Y-60971190D02*
X196026666Y-60875952D01*
X195979047Y-60828333D01*
X195883809Y-60780714D01*
X195788571Y-60780714D01*
X195455238Y-60780714D02*
X195455238Y-61780714D01*
X195455238Y-60828333D02*
X195360000Y-60780714D01*
X195169523Y-60780714D01*
X195074285Y-60828333D01*
X195026666Y-60875952D01*
X194979047Y-60971190D01*
X194979047Y-61256904D01*
X195026666Y-61352142D01*
X195074285Y-61399761D01*
X195169523Y-61447380D01*
X195360000Y-61447380D01*
X195455238Y-61399761D01*
X194407619Y-61447380D02*
X194502857Y-61399761D01*
X194550476Y-61352142D01*
X194598095Y-61256904D01*
X194598095Y-60971190D01*
X194550476Y-60875952D01*
X194502857Y-60828333D01*
X194407619Y-60780714D01*
X194264761Y-60780714D01*
X194169523Y-60828333D01*
X194121904Y-60875952D01*
X194074285Y-60971190D01*
X194074285Y-61256904D01*
X194121904Y-61352142D01*
X194169523Y-61399761D01*
X194264761Y-61447380D01*
X194407619Y-61447380D01*
X193645714Y-61447380D02*
X193645714Y-60780714D01*
X193645714Y-60971190D02*
X193598095Y-60875952D01*
X193550476Y-60828333D01*
X193455238Y-60780714D01*
X193360000Y-60780714D01*
X192598095Y-61447380D02*
X192598095Y-60923571D01*
X192645714Y-60828333D01*
X192740952Y-60780714D01*
X192931428Y-60780714D01*
X193026666Y-60828333D01*
X192598095Y-61399761D02*
X192693333Y-61447380D01*
X192931428Y-61447380D01*
X193026666Y-61399761D01*
X193074285Y-61304523D01*
X193074285Y-61209285D01*
X193026666Y-61114047D01*
X192931428Y-61066428D01*
X192693333Y-61066428D01*
X192598095Y-61018809D01*
X192264761Y-60780714D02*
X191883809Y-60780714D01*
X192121904Y-60447380D02*
X192121904Y-61304523D01*
X192074285Y-61399761D01*
X191979047Y-61447380D01*
X191883809Y-61447380D01*
X191550476Y-61447380D02*
X191550476Y-60780714D01*
X191550476Y-60447380D02*
X191598095Y-60495000D01*
X191550476Y-60542619D01*
X191502857Y-60495000D01*
X191550476Y-60447380D01*
X191550476Y-60542619D01*
X190931428Y-61447380D02*
X191026666Y-61399761D01*
X191074285Y-61352142D01*
X191121904Y-61256904D01*
X191121904Y-60971190D01*
X191074285Y-60875952D01*
X191026666Y-60828333D01*
X190931428Y-60780714D01*
X190788571Y-60780714D01*
X190693333Y-60828333D01*
X190645714Y-60875952D01*
X190598095Y-60971190D01*
X190598095Y-61256904D01*
X190645714Y-61352142D01*
X190693333Y-61399761D01*
X190788571Y-61447380D01*
X190931428Y-61447380D01*
X190169523Y-60780714D02*
X190169523Y-61447380D01*
X190169523Y-60875952D02*
X190121904Y-60828333D01*
X190026666Y-60780714D01*
X189883809Y-60780714D01*
X189788571Y-60828333D01*
X189740952Y-60923571D01*
X189740952Y-61447380D01*
D15*
X193238095Y-92522380D02*
X192619047Y-92522380D01*
X192952380Y-92903333D01*
X192809523Y-92903333D01*
X192714285Y-92950952D01*
X192666666Y-92998571D01*
X192619047Y-93093809D01*
X192619047Y-93331904D01*
X192666666Y-93427142D01*
X192714285Y-93474761D01*
X192809523Y-93522380D01*
X193095238Y-93522380D01*
X193190476Y-93474761D01*
X193238095Y-93427142D01*
X192333333Y-92522380D02*
X192000000Y-93522380D01*
X191666666Y-92522380D01*
X191428571Y-92522380D02*
X190809523Y-92522380D01*
X191142857Y-92903333D01*
X191000000Y-92903333D01*
X190904761Y-92950952D01*
X190857142Y-92998571D01*
X190809523Y-93093809D01*
X190809523Y-93331904D01*
X190857142Y-93427142D01*
X190904761Y-93474761D01*
X191000000Y-93522380D01*
X191285714Y-93522380D01*
X191380952Y-93474761D01*
X191428571Y-93427142D01*
D11*
X106087142Y-55217380D02*
X105515714Y-55217380D01*
X105801428Y-56217380D02*
X105801428Y-55217380D01*
X104801428Y-56169761D02*
X104896666Y-56217380D01*
X105087142Y-56217380D01*
X105182380Y-56169761D01*
X105230000Y-56074523D01*
X105230000Y-55693571D01*
X105182380Y-55598333D01*
X105087142Y-55550714D01*
X104896666Y-55550714D01*
X104801428Y-55598333D01*
X104753809Y-55693571D01*
X104753809Y-55788809D01*
X105230000Y-55884047D01*
X104325238Y-56217380D02*
X104325238Y-55550714D01*
X104325238Y-55645952D02*
X104277619Y-55598333D01*
X104182380Y-55550714D01*
X104039523Y-55550714D01*
X103944285Y-55598333D01*
X103896666Y-55693571D01*
X103896666Y-56217380D01*
X103896666Y-55693571D02*
X103849047Y-55598333D01*
X103753809Y-55550714D01*
X103610952Y-55550714D01*
X103515714Y-55598333D01*
X103468095Y-55693571D01*
X103468095Y-56217380D01*
X103134761Y-55550714D02*
X102753809Y-55550714D01*
X102991904Y-55217380D02*
X102991904Y-56074523D01*
X102944285Y-56169761D01*
X102849047Y-56217380D01*
X102753809Y-56217380D01*
X102039523Y-56169761D02*
X102134761Y-56217380D01*
X102325238Y-56217380D01*
X102420476Y-56169761D01*
X102468095Y-56074523D01*
X102468095Y-55693571D01*
X102420476Y-55598333D01*
X102325238Y-55550714D01*
X102134761Y-55550714D01*
X102039523Y-55598333D01*
X101991904Y-55693571D01*
X101991904Y-55788809D01*
X102468095Y-55884047D01*
X101420476Y-56217380D02*
X101515714Y-56169761D01*
X101563333Y-56074523D01*
X101563333Y-55217380D01*
X106396666Y-57827380D02*
X106730000Y-57351190D01*
X106968095Y-57827380D02*
X106968095Y-56827380D01*
X106587142Y-56827380D01*
X106491904Y-56875000D01*
X106444285Y-56922619D01*
X106396666Y-57017857D01*
X106396666Y-57160714D01*
X106444285Y-57255952D01*
X106491904Y-57303571D01*
X106587142Y-57351190D01*
X106968095Y-57351190D01*
X105587142Y-57779761D02*
X105682380Y-57827380D01*
X105872857Y-57827380D01*
X105968095Y-57779761D01*
X106015714Y-57684523D01*
X106015714Y-57303571D01*
X105968095Y-57208333D01*
X105872857Y-57160714D01*
X105682380Y-57160714D01*
X105587142Y-57208333D01*
X105539523Y-57303571D01*
X105539523Y-57398809D01*
X106015714Y-57494047D01*
X104682380Y-57827380D02*
X104682380Y-56827380D01*
X104682380Y-57779761D02*
X104777619Y-57827380D01*
X104968095Y-57827380D01*
X105063333Y-57779761D01*
X105110952Y-57732142D01*
X105158571Y-57636904D01*
X105158571Y-57351190D01*
X105110952Y-57255952D01*
X105063333Y-57208333D01*
X104968095Y-57160714D01*
X104777619Y-57160714D01*
X104682380Y-57208333D01*
X104206190Y-57827380D02*
X104206190Y-56827380D01*
X104206190Y-57208333D02*
X104110952Y-57160714D01*
X103920476Y-57160714D01*
X103825238Y-57208333D01*
X103777619Y-57255952D01*
X103730000Y-57351190D01*
X103730000Y-57636904D01*
X103777619Y-57732142D01*
X103825238Y-57779761D01*
X103920476Y-57827380D01*
X104110952Y-57827380D01*
X104206190Y-57779761D01*
X102920476Y-57779761D02*
X103015714Y-57827380D01*
X103206190Y-57827380D01*
X103301428Y-57779761D01*
X103349047Y-57684523D01*
X103349047Y-57303571D01*
X103301428Y-57208333D01*
X103206190Y-57160714D01*
X103015714Y-57160714D01*
X102920476Y-57208333D01*
X102872857Y-57303571D01*
X102872857Y-57398809D01*
X103349047Y-57494047D01*
X102015714Y-57827380D02*
X102015714Y-57303571D01*
X102063333Y-57208333D01*
X102158571Y-57160714D01*
X102349047Y-57160714D01*
X102444285Y-57208333D01*
X102015714Y-57779761D02*
X102110952Y-57827380D01*
X102349047Y-57827380D01*
X102444285Y-57779761D01*
X102491904Y-57684523D01*
X102491904Y-57589285D01*
X102444285Y-57494047D01*
X102349047Y-57446428D01*
X102110952Y-57446428D01*
X102015714Y-57398809D01*
X101539523Y-57827380D02*
X101539523Y-57160714D01*
X101539523Y-57351190D02*
X101491904Y-57255952D01*
X101444285Y-57208333D01*
X101349047Y-57160714D01*
X101253809Y-57160714D01*
X100491904Y-57827380D02*
X100491904Y-56827380D01*
X100491904Y-57779761D02*
X100587142Y-57827380D01*
X100777619Y-57827380D01*
X100872857Y-57779761D01*
X100920476Y-57732142D01*
X100968095Y-57636904D01*
X100968095Y-57351190D01*
X100920476Y-57255952D01*
X100872857Y-57208333D01*
X100777619Y-57160714D01*
X100587142Y-57160714D01*
X100491904Y-57208333D01*
X107277619Y-59342142D02*
X107325238Y-59389761D01*
X107468095Y-59437380D01*
X107563333Y-59437380D01*
X107706190Y-59389761D01*
X107801428Y-59294523D01*
X107849047Y-59199285D01*
X107896666Y-59008809D01*
X107896666Y-58865952D01*
X107849047Y-58675476D01*
X107801428Y-58580238D01*
X107706190Y-58485000D01*
X107563333Y-58437380D01*
X107468095Y-58437380D01*
X107325238Y-58485000D01*
X107277619Y-58532619D01*
X106849047Y-59437380D02*
X106849047Y-58770714D01*
X106849047Y-58961190D02*
X106801428Y-58865952D01*
X106753809Y-58818333D01*
X106658571Y-58770714D01*
X106563333Y-58770714D01*
X105801428Y-59437380D02*
X105801428Y-58913571D01*
X105849047Y-58818333D01*
X105944285Y-58770714D01*
X106134761Y-58770714D01*
X106230000Y-58818333D01*
X105801428Y-59389761D02*
X105896666Y-59437380D01*
X106134761Y-59437380D01*
X106230000Y-59389761D01*
X106277619Y-59294523D01*
X106277619Y-59199285D01*
X106230000Y-59104047D01*
X106134761Y-59056428D01*
X105896666Y-59056428D01*
X105801428Y-59008809D01*
X104896666Y-59389761D02*
X104991904Y-59437380D01*
X105182380Y-59437380D01*
X105277619Y-59389761D01*
X105325238Y-59342142D01*
X105372857Y-59246904D01*
X105372857Y-58961190D01*
X105325238Y-58865952D01*
X105277619Y-58818333D01*
X105182380Y-58770714D01*
X104991904Y-58770714D01*
X104896666Y-58818333D01*
X104468095Y-59437380D02*
X104468095Y-58437380D01*
X104372857Y-59056428D02*
X104087142Y-59437380D01*
X104087142Y-58770714D02*
X104468095Y-59151666D01*
X103277619Y-59389761D02*
X103372857Y-59437380D01*
X103563333Y-59437380D01*
X103658571Y-59389761D01*
X103706190Y-59294523D01*
X103706190Y-58913571D01*
X103658571Y-58818333D01*
X103563333Y-58770714D01*
X103372857Y-58770714D01*
X103277619Y-58818333D01*
X103230000Y-58913571D01*
X103230000Y-59008809D01*
X103706190Y-59104047D01*
X102801428Y-59437380D02*
X102801428Y-58770714D01*
X102801428Y-58961190D02*
X102753809Y-58865952D01*
X102706190Y-58818333D01*
X102610952Y-58770714D01*
X102515714Y-58770714D01*
X102182380Y-58770714D02*
X102182380Y-59627857D01*
X102230000Y-59723095D01*
X102325238Y-59770714D01*
X102372857Y-59770714D01*
X102182380Y-58437380D02*
X102230000Y-58485000D01*
X102182380Y-58532619D01*
X102134761Y-58485000D01*
X102182380Y-58437380D01*
X102182380Y-58532619D01*
X101277619Y-59437380D02*
X101277619Y-58913571D01*
X101325238Y-58818333D01*
X101420476Y-58770714D01*
X101610952Y-58770714D01*
X101706190Y-58818333D01*
X101277619Y-59389761D02*
X101372857Y-59437380D01*
X101610952Y-59437380D01*
X101706190Y-59389761D01*
X101753809Y-59294523D01*
X101753809Y-59199285D01*
X101706190Y-59104047D01*
X101610952Y-59056428D01*
X101372857Y-59056428D01*
X101277619Y-59008809D01*
X100372857Y-59389761D02*
X100468095Y-59437380D01*
X100658571Y-59437380D01*
X100753809Y-59389761D01*
X100801428Y-59342142D01*
X100849047Y-59246904D01*
X100849047Y-58961190D01*
X100801428Y-58865952D01*
X100753809Y-58818333D01*
X100658571Y-58770714D01*
X100468095Y-58770714D01*
X100372857Y-58818333D01*
X99944285Y-59437380D02*
X99944285Y-58437380D01*
X99849047Y-59056428D02*
X99563333Y-59437380D01*
X99563333Y-58770714D02*
X99944285Y-59151666D01*
X105158571Y-61047380D02*
X105158571Y-60047380D01*
X104777619Y-60047380D01*
X104682380Y-60095000D01*
X104634761Y-60142619D01*
X104587142Y-60237857D01*
X104587142Y-60380714D01*
X104634761Y-60475952D01*
X104682380Y-60523571D01*
X104777619Y-60571190D01*
X105158571Y-60571190D01*
X103730000Y-61047380D02*
X103730000Y-60523571D01*
X103777619Y-60428333D01*
X103872857Y-60380714D01*
X104063333Y-60380714D01*
X104158571Y-60428333D01*
X103730000Y-60999761D02*
X103825238Y-61047380D01*
X104063333Y-61047380D01*
X104158571Y-60999761D01*
X104206190Y-60904523D01*
X104206190Y-60809285D01*
X104158571Y-60714047D01*
X104063333Y-60666428D01*
X103825238Y-60666428D01*
X103730000Y-60618809D01*
X102825238Y-60380714D02*
X102825238Y-61047380D01*
X103253809Y-60380714D02*
X103253809Y-60904523D01*
X103206190Y-60999761D01*
X103110952Y-61047380D01*
X102968095Y-61047380D01*
X102872857Y-60999761D01*
X102825238Y-60952142D01*
X102206190Y-61047380D02*
X102301428Y-60999761D01*
X102349047Y-60904523D01*
X102349047Y-60047380D01*
D15*
X99712380Y-87921904D02*
X99712380Y-88540952D01*
X100093333Y-88207619D01*
X100093333Y-88350476D01*
X100140952Y-88445714D01*
X100188571Y-88493333D01*
X100283809Y-88540952D01*
X100521904Y-88540952D01*
X100617142Y-88493333D01*
X100664761Y-88445714D01*
X100712380Y-88350476D01*
X100712380Y-88064761D01*
X100664761Y-87969523D01*
X100617142Y-87921904D01*
X99712380Y-88826666D02*
X100712380Y-89160000D01*
X99712380Y-89493333D01*
X99712380Y-89731428D02*
X99712380Y-90350476D01*
X100093333Y-90017142D01*
X100093333Y-90160000D01*
X100140952Y-90255238D01*
X100188571Y-90302857D01*
X100283809Y-90350476D01*
X100521904Y-90350476D01*
X100617142Y-90302857D01*
X100664761Y-90255238D01*
X100712380Y-90160000D01*
X100712380Y-89874285D01*
X100664761Y-89779047D01*
X100617142Y-89731428D01*
D14*
X120084761Y-60467142D02*
X116275238Y-60467142D01*
X118180000Y-62371904D02*
X118180000Y-58562380D01*
D11*
X108676666Y-52767380D02*
X108676666Y-51767380D01*
X108343333Y-52481666D01*
X108010000Y-51767380D01*
X108010000Y-52767380D01*
X107105238Y-52767380D02*
X107105238Y-52243571D01*
X107152857Y-52148333D01*
X107248095Y-52100714D01*
X107438571Y-52100714D01*
X107533809Y-52148333D01*
X107105238Y-52719761D02*
X107200476Y-52767380D01*
X107438571Y-52767380D01*
X107533809Y-52719761D01*
X107581428Y-52624523D01*
X107581428Y-52529285D01*
X107533809Y-52434047D01*
X107438571Y-52386428D01*
X107200476Y-52386428D01*
X107105238Y-52338809D01*
X106200476Y-52767380D02*
X106200476Y-51767380D01*
X106200476Y-52719761D02*
X106295714Y-52767380D01*
X106486190Y-52767380D01*
X106581428Y-52719761D01*
X106629047Y-52672142D01*
X106676666Y-52576904D01*
X106676666Y-52291190D01*
X106629047Y-52195952D01*
X106581428Y-52148333D01*
X106486190Y-52100714D01*
X106295714Y-52100714D01*
X106200476Y-52148333D01*
X105343333Y-52719761D02*
X105438571Y-52767380D01*
X105629047Y-52767380D01*
X105724285Y-52719761D01*
X105771904Y-52624523D01*
X105771904Y-52243571D01*
X105724285Y-52148333D01*
X105629047Y-52100714D01*
X105438571Y-52100714D01*
X105343333Y-52148333D01*
X105295714Y-52243571D01*
X105295714Y-52338809D01*
X105771904Y-52434047D01*
X103962380Y-52767380D02*
X104057619Y-52719761D01*
X104105238Y-52672142D01*
X104152857Y-52576904D01*
X104152857Y-52291190D01*
X104105238Y-52195952D01*
X104057619Y-52148333D01*
X103962380Y-52100714D01*
X103819523Y-52100714D01*
X103724285Y-52148333D01*
X103676666Y-52195952D01*
X103629047Y-52291190D01*
X103629047Y-52576904D01*
X103676666Y-52672142D01*
X103724285Y-52719761D01*
X103819523Y-52767380D01*
X103962380Y-52767380D01*
X103200476Y-52100714D02*
X103200476Y-52767380D01*
X103200476Y-52195952D02*
X103152857Y-52148333D01*
X103057619Y-52100714D01*
X102914761Y-52100714D01*
X102819523Y-52148333D01*
X102771904Y-52243571D01*
X102771904Y-52767380D01*
X101533809Y-52243571D02*
X101200476Y-52243571D01*
X101057619Y-52767380D02*
X101533809Y-52767380D01*
X101533809Y-51767380D01*
X101057619Y-51767380D01*
X100200476Y-52767380D02*
X100200476Y-52243571D01*
X100248095Y-52148333D01*
X100343333Y-52100714D01*
X100533809Y-52100714D01*
X100629047Y-52148333D01*
X100200476Y-52719761D02*
X100295714Y-52767380D01*
X100533809Y-52767380D01*
X100629047Y-52719761D01*
X100676666Y-52624523D01*
X100676666Y-52529285D01*
X100629047Y-52434047D01*
X100533809Y-52386428D01*
X100295714Y-52386428D01*
X100200476Y-52338809D01*
X99724285Y-52767380D02*
X99724285Y-52100714D01*
X99724285Y-52291190D02*
X99676666Y-52195952D01*
X99629047Y-52148333D01*
X99533809Y-52100714D01*
X99438571Y-52100714D01*
X99248095Y-52100714D02*
X98867142Y-52100714D01*
X99105238Y-51767380D02*
X99105238Y-52624523D01*
X99057619Y-52719761D01*
X98962380Y-52767380D01*
X98867142Y-52767380D01*
X98533809Y-52767380D02*
X98533809Y-51767380D01*
X98105238Y-52767380D02*
X98105238Y-52243571D01*
X98152857Y-52148333D01*
X98248095Y-52100714D01*
X98390952Y-52100714D01*
X98486190Y-52148333D01*
X98533809Y-52195952D01*
X107557619Y-54377380D02*
X107557619Y-53377380D01*
X107557619Y-53758333D02*
X107462380Y-53710714D01*
X107271904Y-53710714D01*
X107176666Y-53758333D01*
X107129047Y-53805952D01*
X107081428Y-53901190D01*
X107081428Y-54186904D01*
X107129047Y-54282142D01*
X107176666Y-54329761D01*
X107271904Y-54377380D01*
X107462380Y-54377380D01*
X107557619Y-54329761D01*
X106748095Y-53710714D02*
X106510000Y-54377380D01*
X106271904Y-53710714D02*
X106510000Y-54377380D01*
X106605238Y-54615476D01*
X106652857Y-54663095D01*
X106748095Y-54710714D01*
X105129047Y-54377380D02*
X105129047Y-53377380D01*
X104652857Y-53710714D02*
X104652857Y-54377380D01*
X104652857Y-53805952D02*
X104605238Y-53758333D01*
X104510000Y-53710714D01*
X104367142Y-53710714D01*
X104271904Y-53758333D01*
X104224285Y-53853571D01*
X104224285Y-54377380D01*
X103748095Y-54377380D02*
X103748095Y-53377380D01*
X103319523Y-54377380D02*
X103319523Y-53853571D01*
X103367142Y-53758333D01*
X103462380Y-53710714D01*
X103605238Y-53710714D01*
X103700476Y-53758333D01*
X103748095Y-53805952D01*
X102414761Y-53710714D02*
X102414761Y-54377380D01*
X102843333Y-53710714D02*
X102843333Y-54234523D01*
X102795714Y-54329761D01*
X102700476Y-54377380D01*
X102557619Y-54377380D01*
X102462380Y-54329761D01*
X102414761Y-54282142D01*
X101938571Y-54377380D02*
X101938571Y-53710714D01*
X101938571Y-53805952D02*
X101890952Y-53758333D01*
X101795714Y-53710714D01*
X101652857Y-53710714D01*
X101557619Y-53758333D01*
X101510000Y-53853571D01*
X101510000Y-54377380D01*
X101510000Y-53853571D02*
X101462380Y-53758333D01*
X101367142Y-53710714D01*
X101224285Y-53710714D01*
X101129047Y-53758333D01*
X101081428Y-53853571D01*
X101081428Y-54377380D01*
X100176666Y-54377380D02*
X100176666Y-53853571D01*
X100224285Y-53758333D01*
X100319523Y-53710714D01*
X100510000Y-53710714D01*
X100605238Y-53758333D01*
X100176666Y-54329761D02*
X100271904Y-54377380D01*
X100510000Y-54377380D01*
X100605238Y-54329761D01*
X100652857Y-54234523D01*
X100652857Y-54139285D01*
X100605238Y-54044047D01*
X100510000Y-53996428D01*
X100271904Y-53996428D01*
X100176666Y-53948809D01*
X99700476Y-53710714D02*
X99700476Y-54377380D01*
X99700476Y-53805952D02*
X99652857Y-53758333D01*
X99557619Y-53710714D01*
X99414761Y-53710714D01*
X99319523Y-53758333D01*
X99271904Y-53853571D01*
X99271904Y-54377380D01*
X98843333Y-54329761D02*
X98748095Y-54377380D01*
X98557619Y-54377380D01*
X98462380Y-54329761D01*
X98414761Y-54234523D01*
X98414761Y-54186904D01*
X98462380Y-54091666D01*
X98557619Y-54044047D01*
X98700476Y-54044047D01*
X98795714Y-53996428D01*
X98843333Y-53901190D01*
X98843333Y-53853571D01*
X98795714Y-53758333D01*
X98700476Y-53710714D01*
X98557619Y-53710714D01*
X98462380Y-53758333D01*
D16*
X133981904Y-75794761D02*
X133981904Y-73794761D01*
X133220000Y-73794761D01*
X133029523Y-73890000D01*
X132934285Y-73985238D01*
X132839047Y-74175714D01*
X132839047Y-74461428D01*
X132934285Y-74651904D01*
X133029523Y-74747142D01*
X133220000Y-74842380D01*
X133981904Y-74842380D01*
X131696190Y-75794761D02*
X131886666Y-75699523D01*
X131981904Y-75604285D01*
X132077142Y-75413809D01*
X132077142Y-74842380D01*
X131981904Y-74651904D01*
X131886666Y-74556666D01*
X131696190Y-74461428D01*
X131410476Y-74461428D01*
X131220000Y-74556666D01*
X131124761Y-74651904D01*
X131029523Y-74842380D01*
X131029523Y-75413809D01*
X131124761Y-75604285D01*
X131220000Y-75699523D01*
X131410476Y-75794761D01*
X131696190Y-75794761D01*
X130267619Y-75699523D02*
X130077142Y-75794761D01*
X129696190Y-75794761D01*
X129505714Y-75699523D01*
X129410476Y-75509047D01*
X129410476Y-75413809D01*
X129505714Y-75223333D01*
X129696190Y-75128095D01*
X129981904Y-75128095D01*
X130172380Y-75032857D01*
X130267619Y-74842380D01*
X130267619Y-74747142D01*
X130172380Y-74556666D01*
X129981904Y-74461428D01*
X129696190Y-74461428D01*
X129505714Y-74556666D01*
X128553333Y-75794761D02*
X128553333Y-74461428D01*
X128553333Y-73794761D02*
X128648571Y-73890000D01*
X128553333Y-73985238D01*
X128458095Y-73890000D01*
X128553333Y-73794761D01*
X128553333Y-73985238D01*
X127886666Y-74461428D02*
X127124761Y-74461428D01*
X127600952Y-73794761D02*
X127600952Y-75509047D01*
X127505714Y-75699523D01*
X127315238Y-75794761D01*
X127124761Y-75794761D01*
X126458095Y-75794761D02*
X126458095Y-74461428D01*
X126458095Y-73794761D02*
X126553333Y-73890000D01*
X126458095Y-73985238D01*
X126362857Y-73890000D01*
X126458095Y-73794761D01*
X126458095Y-73985238D01*
X125696190Y-74461428D02*
X125220000Y-75794761D01*
X124743809Y-74461428D01*
X123220000Y-75699523D02*
X123410476Y-75794761D01*
X123791428Y-75794761D01*
X123981904Y-75699523D01*
X124077142Y-75509047D01*
X124077142Y-74747142D01*
X123981904Y-74556666D01*
X123791428Y-74461428D01*
X123410476Y-74461428D01*
X123220000Y-74556666D01*
X123124761Y-74747142D01*
X123124761Y-74937619D01*
X124077142Y-75128095D01*
X120839047Y-75699523D02*
X120553333Y-75794761D01*
X120077142Y-75794761D01*
X119886666Y-75699523D01*
X119791428Y-75604285D01*
X119696190Y-75413809D01*
X119696190Y-75223333D01*
X119791428Y-75032857D01*
X119886666Y-74937619D01*
X120077142Y-74842380D01*
X120458095Y-74747142D01*
X120648571Y-74651904D01*
X120743809Y-74556666D01*
X120839047Y-74366190D01*
X120839047Y-74175714D01*
X120743809Y-73985238D01*
X120648571Y-73890000D01*
X120458095Y-73794761D01*
X119981904Y-73794761D01*
X119696190Y-73890000D01*
X118839047Y-75794761D02*
X118839047Y-74461428D01*
X118839047Y-73794761D02*
X118934285Y-73890000D01*
X118839047Y-73985238D01*
X118743809Y-73890000D01*
X118839047Y-73794761D01*
X118839047Y-73985238D01*
X117029523Y-75794761D02*
X117029523Y-73794761D01*
X117029523Y-75699523D02*
X117220000Y-75794761D01*
X117600952Y-75794761D01*
X117791428Y-75699523D01*
X117886666Y-75604285D01*
X117981904Y-75413809D01*
X117981904Y-74842380D01*
X117886666Y-74651904D01*
X117791428Y-74556666D01*
X117600952Y-74461428D01*
X117220000Y-74461428D01*
X117029523Y-74556666D01*
X115315238Y-75699523D02*
X115505714Y-75794761D01*
X115886666Y-75794761D01*
X116077142Y-75699523D01*
X116172380Y-75509047D01*
X116172380Y-74747142D01*
X116077142Y-74556666D01*
X115886666Y-74461428D01*
X115505714Y-74461428D01*
X115315238Y-74556666D01*
X115220000Y-74747142D01*
X115220000Y-74937619D01*
X116172380Y-75128095D01*
X114362857Y-75604285D02*
X114267619Y-75699523D01*
X114362857Y-75794761D01*
X114458095Y-75699523D01*
X114362857Y-75604285D01*
X114362857Y-75794761D01*
X114362857Y-75032857D02*
X114458095Y-73890000D01*
X114362857Y-73794761D01*
X114267619Y-73890000D01*
X114362857Y-75032857D01*
X114362857Y-73794761D01*
X113410476Y-75604285D02*
X113315238Y-75699523D01*
X113410476Y-75794761D01*
X113505714Y-75699523D01*
X113410476Y-75604285D01*
X113410476Y-75794761D01*
X113410476Y-75032857D02*
X113505714Y-73890000D01*
X113410476Y-73794761D01*
X113315238Y-73890000D01*
X113410476Y-75032857D01*
X113410476Y-73794761D01*
X112458095Y-75604285D02*
X112362857Y-75699523D01*
X112458095Y-75794761D01*
X112553333Y-75699523D01*
X112458095Y-75604285D01*
X112458095Y-75794761D01*
X112458095Y-75032857D02*
X112553333Y-73890000D01*
X112458095Y-73794761D01*
X112362857Y-73890000D01*
X112458095Y-75032857D01*
X112458095Y-73794761D01*
X179065714Y-76284761D02*
X179065714Y-74284761D01*
X177922857Y-76284761D01*
X177922857Y-74284761D01*
X176208571Y-76189523D02*
X176399047Y-76284761D01*
X176780000Y-76284761D01*
X176970476Y-76189523D01*
X177065714Y-75999047D01*
X177065714Y-75237142D01*
X176970476Y-75046666D01*
X176780000Y-74951428D01*
X176399047Y-74951428D01*
X176208571Y-75046666D01*
X176113333Y-75237142D01*
X176113333Y-75427619D01*
X177065714Y-75618095D01*
X174399047Y-74951428D02*
X174399047Y-76570476D01*
X174494285Y-76760952D01*
X174589523Y-76856190D01*
X174780000Y-76951428D01*
X175065714Y-76951428D01*
X175256190Y-76856190D01*
X174399047Y-76189523D02*
X174589523Y-76284761D01*
X174970476Y-76284761D01*
X175160952Y-76189523D01*
X175256190Y-76094285D01*
X175351428Y-75903809D01*
X175351428Y-75332380D01*
X175256190Y-75141904D01*
X175160952Y-75046666D01*
X174970476Y-74951428D01*
X174589523Y-74951428D01*
X174399047Y-75046666D01*
X172589523Y-76284761D02*
X172589523Y-75237142D01*
X172684761Y-75046666D01*
X172875238Y-74951428D01*
X173256190Y-74951428D01*
X173446666Y-75046666D01*
X172589523Y-76189523D02*
X172780000Y-76284761D01*
X173256190Y-76284761D01*
X173446666Y-76189523D01*
X173541904Y-75999047D01*
X173541904Y-75808571D01*
X173446666Y-75618095D01*
X173256190Y-75522857D01*
X172780000Y-75522857D01*
X172589523Y-75427619D01*
X171922857Y-74951428D02*
X171160952Y-74951428D01*
X171637142Y-74284761D02*
X171637142Y-75999047D01*
X171541904Y-76189523D01*
X171351428Y-76284761D01*
X171160952Y-76284761D01*
X170494285Y-76284761D02*
X170494285Y-74951428D01*
X170494285Y-74284761D02*
X170589523Y-74380000D01*
X170494285Y-74475238D01*
X170399047Y-74380000D01*
X170494285Y-74284761D01*
X170494285Y-74475238D01*
X169732380Y-74951428D02*
X169256190Y-76284761D01*
X168780000Y-74951428D01*
X167256190Y-76189523D02*
X167446666Y-76284761D01*
X167827619Y-76284761D01*
X168018095Y-76189523D01*
X168113333Y-75999047D01*
X168113333Y-75237142D01*
X168018095Y-75046666D01*
X167827619Y-74951428D01*
X167446666Y-74951428D01*
X167256190Y-75046666D01*
X167160952Y-75237142D01*
X167160952Y-75427619D01*
X168113333Y-75618095D01*
X164875238Y-76189523D02*
X164589523Y-76284761D01*
X164113333Y-76284761D01*
X163922857Y-76189523D01*
X163827619Y-76094285D01*
X163732380Y-75903809D01*
X163732380Y-75713333D01*
X163827619Y-75522857D01*
X163922857Y-75427619D01*
X164113333Y-75332380D01*
X164494285Y-75237142D01*
X164684761Y-75141904D01*
X164780000Y-75046666D01*
X164875238Y-74856190D01*
X164875238Y-74665714D01*
X164780000Y-74475238D01*
X164684761Y-74380000D01*
X164494285Y-74284761D01*
X164018095Y-74284761D01*
X163732380Y-74380000D01*
X162875238Y-76284761D02*
X162875238Y-74951428D01*
X162875238Y-74284761D02*
X162970476Y-74380000D01*
X162875238Y-74475238D01*
X162780000Y-74380000D01*
X162875238Y-74284761D01*
X162875238Y-74475238D01*
X161065714Y-76284761D02*
X161065714Y-74284761D01*
X161065714Y-76189523D02*
X161256190Y-76284761D01*
X161637142Y-76284761D01*
X161827619Y-76189523D01*
X161922857Y-76094285D01*
X162018095Y-75903809D01*
X162018095Y-75332380D01*
X161922857Y-75141904D01*
X161827619Y-75046666D01*
X161637142Y-74951428D01*
X161256190Y-74951428D01*
X161065714Y-75046666D01*
X159351428Y-76189523D02*
X159541904Y-76284761D01*
X159922857Y-76284761D01*
X160113333Y-76189523D01*
X160208571Y-75999047D01*
X160208571Y-75237142D01*
X160113333Y-75046666D01*
X159922857Y-74951428D01*
X159541904Y-74951428D01*
X159351428Y-75046666D01*
X159256190Y-75237142D01*
X159256190Y-75427619D01*
X160208571Y-75618095D01*
X158399047Y-76094285D02*
X158303809Y-76189523D01*
X158399047Y-76284761D01*
X158494285Y-76189523D01*
X158399047Y-76094285D01*
X158399047Y-76284761D01*
X158399047Y-75522857D02*
X158494285Y-74380000D01*
X158399047Y-74284761D01*
X158303809Y-74380000D01*
X158399047Y-75522857D01*
X158399047Y-74284761D01*
X157446666Y-76094285D02*
X157351428Y-76189523D01*
X157446666Y-76284761D01*
X157541904Y-76189523D01*
X157446666Y-76094285D01*
X157446666Y-76284761D01*
X157446666Y-75522857D02*
X157541904Y-74380000D01*
X157446666Y-74284761D01*
X157351428Y-74380000D01*
X157446666Y-75522857D01*
X157446666Y-74284761D01*
X156494285Y-76094285D02*
X156399047Y-76189523D01*
X156494285Y-76284761D01*
X156589523Y-76189523D01*
X156494285Y-76094285D01*
X156494285Y-76284761D01*
X156494285Y-75522857D02*
X156589523Y-74380000D01*
X156494285Y-74284761D01*
X156399047Y-74380000D01*
X156494285Y-75522857D01*
X156494285Y-74284761D01*
D11*
%TO.C,JP2*%
X204443333Y-67612380D02*
X204443333Y-68326666D01*
X204490952Y-68469523D01*
X204586190Y-68564761D01*
X204729047Y-68612380D01*
X204824285Y-68612380D01*
X203967142Y-68612380D02*
X203967142Y-67612380D01*
X203586190Y-67612380D01*
X203490952Y-67660000D01*
X203443333Y-67707619D01*
X203395714Y-67802857D01*
X203395714Y-67945714D01*
X203443333Y-68040952D01*
X203490952Y-68088571D01*
X203586190Y-68136190D01*
X203967142Y-68136190D01*
X203014761Y-67707619D02*
X202967142Y-67660000D01*
X202871904Y-67612380D01*
X202633809Y-67612380D01*
X202538571Y-67660000D01*
X202490952Y-67707619D01*
X202443333Y-67802857D01*
X202443333Y-67898095D01*
X202490952Y-68040952D01*
X203062380Y-68612380D01*
X202443333Y-68612380D01*
%TO.C,C13*%
X204057142Y-77247142D02*
X204104761Y-77199523D01*
X204152380Y-77056666D01*
X204152380Y-76961428D01*
X204104761Y-76818571D01*
X204009523Y-76723333D01*
X203914285Y-76675714D01*
X203723809Y-76628095D01*
X203580952Y-76628095D01*
X203390476Y-76675714D01*
X203295238Y-76723333D01*
X203200000Y-76818571D01*
X203152380Y-76961428D01*
X203152380Y-77056666D01*
X203200000Y-77199523D01*
X203247619Y-77247142D01*
X204152380Y-78199523D02*
X204152380Y-77628095D01*
X204152380Y-77913809D02*
X203152380Y-77913809D01*
X203295238Y-77818571D01*
X203390476Y-77723333D01*
X203438095Y-77628095D01*
X203152380Y-78532857D02*
X203152380Y-79151904D01*
X203533333Y-78818571D01*
X203533333Y-78961428D01*
X203580952Y-79056666D01*
X203628571Y-79104285D01*
X203723809Y-79151904D01*
X203961904Y-79151904D01*
X204057142Y-79104285D01*
X204104761Y-79056666D01*
X204152380Y-78961428D01*
X204152380Y-78675714D01*
X204104761Y-78580476D01*
X204057142Y-78532857D01*
%TO.C,C16*%
X213280357Y-85207142D02*
X213327976Y-85254761D01*
X213470833Y-85302380D01*
X213566071Y-85302380D01*
X213708928Y-85254761D01*
X213804166Y-85159523D01*
X213851785Y-85064285D01*
X213899404Y-84873809D01*
X213899404Y-84730952D01*
X213851785Y-84540476D01*
X213804166Y-84445238D01*
X213708928Y-84350000D01*
X213566071Y-84302380D01*
X213470833Y-84302380D01*
X213327976Y-84350000D01*
X213280357Y-84397619D01*
X212327976Y-85302380D02*
X212899404Y-85302380D01*
X212613690Y-85302380D02*
X212613690Y-84302380D01*
X212708928Y-84445238D01*
X212804166Y-84540476D01*
X212899404Y-84588095D01*
X211470833Y-84302380D02*
X211661309Y-84302380D01*
X211756547Y-84350000D01*
X211804166Y-84397619D01*
X211899404Y-84540476D01*
X211947023Y-84730952D01*
X211947023Y-85111904D01*
X211899404Y-85207142D01*
X211851785Y-85254761D01*
X211756547Y-85302380D01*
X211566071Y-85302380D01*
X211470833Y-85254761D01*
X211423214Y-85207142D01*
X211375595Y-85111904D01*
X211375595Y-84873809D01*
X211423214Y-84778571D01*
X211470833Y-84730952D01*
X211566071Y-84683333D01*
X211756547Y-84683333D01*
X211851785Y-84730952D01*
X211899404Y-84778571D01*
X211947023Y-84873809D01*
%TO.C,U7*%
X182212380Y-79115595D02*
X183021904Y-79115595D01*
X183117142Y-79163214D01*
X183164761Y-79210833D01*
X183212380Y-79306071D01*
X183212380Y-79496547D01*
X183164761Y-79591785D01*
X183117142Y-79639404D01*
X183021904Y-79687023D01*
X182212380Y-79687023D01*
X182212380Y-80067976D02*
X182212380Y-80734642D01*
X183212380Y-80306071D01*
%TO.C,L4*%
X192812380Y-80108333D02*
X192812380Y-79632142D01*
X191812380Y-79632142D01*
X192145714Y-80870238D02*
X192812380Y-80870238D01*
X191764761Y-80632142D02*
X192479047Y-80394047D01*
X192479047Y-81013095D01*
%TO.C,J2*%
X143165238Y-77142380D02*
X142546190Y-77142380D01*
X142879523Y-77523333D01*
X142736666Y-77523333D01*
X142641428Y-77570952D01*
X142593809Y-77618571D01*
X142546190Y-77713809D01*
X142546190Y-77951904D01*
X142593809Y-78047142D01*
X142641428Y-78094761D01*
X142736666Y-78142380D01*
X143022380Y-78142380D01*
X143117619Y-78094761D01*
X143165238Y-78047142D01*
X142117619Y-78047142D02*
X142070000Y-78094761D01*
X142117619Y-78142380D01*
X142165238Y-78094761D01*
X142117619Y-78047142D01*
X142117619Y-78142380D01*
X141736666Y-77142380D02*
X141117619Y-77142380D01*
X141450952Y-77523333D01*
X141308095Y-77523333D01*
X141212857Y-77570952D01*
X141165238Y-77618571D01*
X141117619Y-77713809D01*
X141117619Y-77951904D01*
X141165238Y-78047142D01*
X141212857Y-78094761D01*
X141308095Y-78142380D01*
X141593809Y-78142380D01*
X141689047Y-78094761D01*
X141736666Y-78047142D01*
X140784285Y-77475714D02*
X140546190Y-78142380D01*
X140308095Y-77475714D01*
X139974761Y-78094761D02*
X139831904Y-78142380D01*
X139593809Y-78142380D01*
X139498571Y-78094761D01*
X139450952Y-78047142D01*
X139403333Y-77951904D01*
X139403333Y-77856666D01*
X139450952Y-77761428D01*
X139498571Y-77713809D01*
X139593809Y-77666190D01*
X139784285Y-77618571D01*
X139879523Y-77570952D01*
X139927142Y-77523333D01*
X139974761Y-77428095D01*
X139974761Y-77332857D01*
X139927142Y-77237619D01*
X139879523Y-77190000D01*
X139784285Y-77142380D01*
X139546190Y-77142380D01*
X139403333Y-77190000D01*
X138593809Y-78094761D02*
X138689047Y-78142380D01*
X138879523Y-78142380D01*
X138974761Y-78094761D01*
X139022380Y-77999523D01*
X139022380Y-77618571D01*
X138974761Y-77523333D01*
X138879523Y-77475714D01*
X138689047Y-77475714D01*
X138593809Y-77523333D01*
X138546190Y-77618571D01*
X138546190Y-77713809D01*
X139022380Y-77809047D01*
X138117619Y-78142380D02*
X138117619Y-77475714D01*
X138117619Y-77666190D02*
X138070000Y-77570952D01*
X138022380Y-77523333D01*
X137927142Y-77475714D01*
X137831904Y-77475714D01*
X137498571Y-78142380D02*
X137498571Y-77475714D01*
X137498571Y-77142380D02*
X137546190Y-77190000D01*
X137498571Y-77237619D01*
X137450952Y-77190000D01*
X137498571Y-77142380D01*
X137498571Y-77237619D01*
X136593809Y-78142380D02*
X136593809Y-77618571D01*
X136641428Y-77523333D01*
X136736666Y-77475714D01*
X136927142Y-77475714D01*
X137022380Y-77523333D01*
X136593809Y-78094761D02*
X136689047Y-78142380D01*
X136927142Y-78142380D01*
X137022380Y-78094761D01*
X137070000Y-77999523D01*
X137070000Y-77904285D01*
X137022380Y-77809047D01*
X136927142Y-77761428D01*
X136689047Y-77761428D01*
X136593809Y-77713809D01*
X135974761Y-78142380D02*
X136070000Y-78094761D01*
X136117619Y-77999523D01*
X136117619Y-77142380D01*
%TO.C,JP13*%
X142188748Y-104086801D02*
X142693824Y-104591877D01*
X142828511Y-104659221D01*
X142963198Y-104659221D01*
X143097885Y-104591877D01*
X143165228Y-104524534D01*
X142559137Y-105130625D02*
X141852030Y-104423519D01*
X141582656Y-104692893D01*
X141548984Y-104793908D01*
X141548984Y-104861251D01*
X141582656Y-104962267D01*
X141683671Y-105063282D01*
X141784687Y-105096954D01*
X141852030Y-105096954D01*
X141953045Y-105063282D01*
X142222419Y-104793908D01*
X141481641Y-106208122D02*
X141885702Y-105804061D01*
X141683671Y-106006091D02*
X140976564Y-105298984D01*
X141144923Y-105332656D01*
X141279610Y-105332656D01*
X141380625Y-105298984D01*
X140538832Y-105736717D02*
X140101099Y-106174450D01*
X140606175Y-106208122D01*
X140505160Y-106309137D01*
X140471488Y-106410152D01*
X140471488Y-106477496D01*
X140505160Y-106578511D01*
X140673519Y-106746870D01*
X140774534Y-106780541D01*
X140841877Y-106780541D01*
X140942893Y-106746870D01*
X141144923Y-106544839D01*
X141178595Y-106443824D01*
X141178595Y-106376480D01*
%TO.C,R35*%
X117122380Y-70697142D02*
X116646190Y-70363809D01*
X117122380Y-70125714D02*
X116122380Y-70125714D01*
X116122380Y-70506666D01*
X116170000Y-70601904D01*
X116217619Y-70649523D01*
X116312857Y-70697142D01*
X116455714Y-70697142D01*
X116550952Y-70649523D01*
X116598571Y-70601904D01*
X116646190Y-70506666D01*
X116646190Y-70125714D01*
X116122380Y-71030476D02*
X116122380Y-71649523D01*
X116503333Y-71316190D01*
X116503333Y-71459047D01*
X116550952Y-71554285D01*
X116598571Y-71601904D01*
X116693809Y-71649523D01*
X116931904Y-71649523D01*
X117027142Y-71601904D01*
X117074761Y-71554285D01*
X117122380Y-71459047D01*
X117122380Y-71173333D01*
X117074761Y-71078095D01*
X117027142Y-71030476D01*
X116122380Y-72554285D02*
X116122380Y-72078095D01*
X116598571Y-72030476D01*
X116550952Y-72078095D01*
X116503333Y-72173333D01*
X116503333Y-72411428D01*
X116550952Y-72506666D01*
X116598571Y-72554285D01*
X116693809Y-72601904D01*
X116931904Y-72601904D01*
X117027142Y-72554285D01*
X117074761Y-72506666D01*
X117122380Y-72411428D01*
X117122380Y-72173333D01*
X117074761Y-72078095D01*
X117027142Y-72030476D01*
%TO.C,JP10*%
X206314382Y-83280476D02*
X207028668Y-83280476D01*
X207171525Y-83232857D01*
X207266763Y-83137619D01*
X207314382Y-82994761D01*
X207314382Y-82899523D01*
X207314382Y-83756666D02*
X206314382Y-83756666D01*
X206314382Y-84137619D01*
X206362002Y-84232857D01*
X206409621Y-84280476D01*
X206504859Y-84328095D01*
X206647716Y-84328095D01*
X206742954Y-84280476D01*
X206790573Y-84232857D01*
X206838192Y-84137619D01*
X206838192Y-83756666D01*
X207314382Y-85280476D02*
X207314382Y-84709047D01*
X207314382Y-84994761D02*
X206314382Y-84994761D01*
X206457240Y-84899523D01*
X206552478Y-84804285D01*
X206600097Y-84709047D01*
X206314382Y-85899523D02*
X206314382Y-85994761D01*
X206362002Y-86090000D01*
X206409621Y-86137619D01*
X206504859Y-86185238D01*
X206695335Y-86232857D01*
X206933430Y-86232857D01*
X207123906Y-86185238D01*
X207219144Y-86137619D01*
X207266763Y-86090000D01*
X207314382Y-85994761D01*
X207314382Y-85899523D01*
X207266763Y-85804285D01*
X207219144Y-85756666D01*
X207123906Y-85709047D01*
X206933430Y-85661428D01*
X206695335Y-85661428D01*
X206504859Y-85709047D01*
X206409621Y-85756666D01*
X206362002Y-85804285D01*
X206314382Y-85899523D01*
%TO.C,JP12*%
X136303987Y-99907562D02*
X136809063Y-100412638D01*
X136943750Y-100479982D01*
X137078437Y-100479982D01*
X137213124Y-100412638D01*
X137280467Y-100345295D01*
X136674376Y-100951386D02*
X135967269Y-100244280D01*
X135697895Y-100513654D01*
X135664223Y-100614669D01*
X135664223Y-100682012D01*
X135697895Y-100783028D01*
X135798910Y-100884043D01*
X135899926Y-100917715D01*
X135967269Y-100917715D01*
X136068284Y-100884043D01*
X136337658Y-100614669D01*
X135596880Y-102028883D02*
X136000941Y-101624822D01*
X135798910Y-101826852D02*
X135091803Y-101119745D01*
X135260162Y-101153417D01*
X135394849Y-101153417D01*
X135495864Y-101119745D01*
X134687742Y-101658493D02*
X134620399Y-101658493D01*
X134519384Y-101692165D01*
X134351025Y-101860524D01*
X134317353Y-101961539D01*
X134317353Y-102028883D01*
X134351025Y-102129898D01*
X134418368Y-102197241D01*
X134553055Y-102264585D01*
X135361177Y-102264585D01*
X134923445Y-102702318D01*
%TO.C,U3*%
X127371904Y-85722380D02*
X127371904Y-86531904D01*
X127324285Y-86627142D01*
X127276666Y-86674761D01*
X127181428Y-86722380D01*
X126990952Y-86722380D01*
X126895714Y-86674761D01*
X126848095Y-86627142D01*
X126800476Y-86531904D01*
X126800476Y-85722380D01*
X126419523Y-85722380D02*
X125800476Y-85722380D01*
X126133809Y-86103333D01*
X125990952Y-86103333D01*
X125895714Y-86150952D01*
X125848095Y-86198571D01*
X125800476Y-86293809D01*
X125800476Y-86531904D01*
X125848095Y-86627142D01*
X125895714Y-86674761D01*
X125990952Y-86722380D01*
X126276666Y-86722380D01*
X126371904Y-86674761D01*
X126419523Y-86627142D01*
%TO.C,JP15*%
X153432142Y-101599285D02*
X153432142Y-102135000D01*
X153467857Y-102242142D01*
X153539285Y-102313571D01*
X153646428Y-102349285D01*
X153717857Y-102349285D01*
X153075000Y-102349285D02*
X153075000Y-101599285D01*
X152789285Y-101599285D01*
X152717857Y-101635000D01*
X152682142Y-101670714D01*
X152646428Y-101742142D01*
X152646428Y-101849285D01*
X152682142Y-101920714D01*
X152717857Y-101956428D01*
X152789285Y-101992142D01*
X153075000Y-101992142D01*
X151932142Y-102349285D02*
X152360714Y-102349285D01*
X152146428Y-102349285D02*
X152146428Y-101599285D01*
X152217857Y-101706428D01*
X152289285Y-101777857D01*
X152360714Y-101813571D01*
X151253571Y-101599285D02*
X151610714Y-101599285D01*
X151646428Y-101956428D01*
X151610714Y-101920714D01*
X151539285Y-101885000D01*
X151360714Y-101885000D01*
X151289285Y-101920714D01*
X151253571Y-101956428D01*
X151217857Y-102027857D01*
X151217857Y-102206428D01*
X151253571Y-102277857D01*
X151289285Y-102313571D01*
X151360714Y-102349285D01*
X151539285Y-102349285D01*
X151610714Y-102313571D01*
X151646428Y-102277857D01*
D17*
%TO.C,JP3*%
X193116733Y-63932380D02*
X193116733Y-64646666D01*
X193164352Y-64789523D01*
X193259590Y-64884761D01*
X193402447Y-64932380D01*
X193497685Y-64932380D01*
X192640542Y-64932380D02*
X192640542Y-63932380D01*
X192259590Y-63932380D01*
X192164352Y-63980000D01*
X192116733Y-64027619D01*
X192069114Y-64122857D01*
X192069114Y-64265714D01*
X192116733Y-64360952D01*
X192164352Y-64408571D01*
X192259590Y-64456190D01*
X192640542Y-64456190D01*
X191735780Y-63932380D02*
X191116733Y-63932380D01*
X191450066Y-64313333D01*
X191307209Y-64313333D01*
X191211971Y-64360952D01*
X191164352Y-64408571D01*
X191116733Y-64503809D01*
X191116733Y-64741904D01*
X191164352Y-64837142D01*
X191211971Y-64884761D01*
X191307209Y-64932380D01*
X191592923Y-64932380D01*
X191688161Y-64884761D01*
X191735780Y-64837142D01*
D11*
%TO.C,R32*%
X117002380Y-63717142D02*
X116526190Y-63383809D01*
X117002380Y-63145714D02*
X116002380Y-63145714D01*
X116002380Y-63526666D01*
X116050000Y-63621904D01*
X116097619Y-63669523D01*
X116192857Y-63717142D01*
X116335714Y-63717142D01*
X116430952Y-63669523D01*
X116478571Y-63621904D01*
X116526190Y-63526666D01*
X116526190Y-63145714D01*
X116002380Y-64050476D02*
X116002380Y-64669523D01*
X116383333Y-64336190D01*
X116383333Y-64479047D01*
X116430952Y-64574285D01*
X116478571Y-64621904D01*
X116573809Y-64669523D01*
X116811904Y-64669523D01*
X116907142Y-64621904D01*
X116954761Y-64574285D01*
X117002380Y-64479047D01*
X117002380Y-64193333D01*
X116954761Y-64098095D01*
X116907142Y-64050476D01*
X116097619Y-65050476D02*
X116050000Y-65098095D01*
X116002380Y-65193333D01*
X116002380Y-65431428D01*
X116050000Y-65526666D01*
X116097619Y-65574285D01*
X116192857Y-65621904D01*
X116288095Y-65621904D01*
X116430952Y-65574285D01*
X117002380Y-65002857D01*
X117002380Y-65621904D01*
%TO.C,J3*%
X94282380Y-63816666D02*
X94996666Y-63816666D01*
X95139523Y-63769047D01*
X95234761Y-63673809D01*
X95282380Y-63530952D01*
X95282380Y-63435714D01*
X94282380Y-64197619D02*
X94282380Y-64816666D01*
X94663333Y-64483333D01*
X94663333Y-64626190D01*
X94710952Y-64721428D01*
X94758571Y-64769047D01*
X94853809Y-64816666D01*
X95091904Y-64816666D01*
X95187142Y-64769047D01*
X95234761Y-64721428D01*
X95282380Y-64626190D01*
X95282380Y-64340476D01*
X95234761Y-64245238D01*
X95187142Y-64197619D01*
%TO.C,JP9*%
X202163333Y-71532380D02*
X202163333Y-72246666D01*
X202210952Y-72389523D01*
X202306190Y-72484761D01*
X202449047Y-72532380D01*
X202544285Y-72532380D01*
X201687142Y-72532380D02*
X201687142Y-71532380D01*
X201306190Y-71532380D01*
X201210952Y-71580000D01*
X201163333Y-71627619D01*
X201115714Y-71722857D01*
X201115714Y-71865714D01*
X201163333Y-71960952D01*
X201210952Y-72008571D01*
X201306190Y-72056190D01*
X201687142Y-72056190D01*
X200639523Y-72532380D02*
X200449047Y-72532380D01*
X200353809Y-72484761D01*
X200306190Y-72437142D01*
X200210952Y-72294285D01*
X200163333Y-72103809D01*
X200163333Y-71722857D01*
X200210952Y-71627619D01*
X200258571Y-71580000D01*
X200353809Y-71532380D01*
X200544285Y-71532380D01*
X200639523Y-71580000D01*
X200687142Y-71627619D01*
X200734761Y-71722857D01*
X200734761Y-71960952D01*
X200687142Y-72056190D01*
X200639523Y-72103809D01*
X200544285Y-72151428D01*
X200353809Y-72151428D01*
X200258571Y-72103809D01*
X200210952Y-72056190D01*
X200163333Y-71960952D01*
%TO.C,J4*%
X222343333Y-67632380D02*
X222343333Y-68346666D01*
X222390952Y-68489523D01*
X222486190Y-68584761D01*
X222629047Y-68632380D01*
X222724285Y-68632380D01*
X221438571Y-67965714D02*
X221438571Y-68632380D01*
X221676666Y-67584761D02*
X221914761Y-68299047D01*
X221295714Y-68299047D01*
%TO.C,JP14*%
X149402142Y-101559285D02*
X149402142Y-102095000D01*
X149437857Y-102202142D01*
X149509285Y-102273571D01*
X149616428Y-102309285D01*
X149687857Y-102309285D01*
X149045000Y-102309285D02*
X149045000Y-101559285D01*
X148759285Y-101559285D01*
X148687857Y-101595000D01*
X148652142Y-101630714D01*
X148616428Y-101702142D01*
X148616428Y-101809285D01*
X148652142Y-101880714D01*
X148687857Y-101916428D01*
X148759285Y-101952142D01*
X149045000Y-101952142D01*
X147902142Y-102309285D02*
X148330714Y-102309285D01*
X148116428Y-102309285D02*
X148116428Y-101559285D01*
X148187857Y-101666428D01*
X148259285Y-101737857D01*
X148330714Y-101773571D01*
X147259285Y-101809285D02*
X147259285Y-102309285D01*
X147437857Y-101523571D02*
X147616428Y-102059285D01*
X147152142Y-102059285D01*
D18*
%TO.C,JP2*%
X209090000Y-68272500D02*
X209090000Y-67672500D01*
X205840000Y-66772500D02*
X205540000Y-66472500D01*
X204990000Y-67672500D02*
X204990000Y-68272500D01*
X205540000Y-66472500D02*
X206140000Y-66472500D01*
X205840000Y-66772500D02*
X206140000Y-66472500D01*
X205640000Y-68972500D02*
X208440000Y-68972500D01*
X208440000Y-66972500D02*
X205640000Y-66972500D01*
X208390000Y-68972500D02*
G75*
G03*
X209090000Y-68272500I0J700000D01*
G01*
X204990000Y-68272500D02*
G75*
G03*
X205690000Y-68972500I699999J-1D01*
G01*
X205690000Y-66972500D02*
G75*
G03*
X204990000Y-67672500I-1J-699999D01*
G01*
X209090000Y-67672500D02*
G75*
G03*
X208390000Y-66972500I-700000J0D01*
G01*
%TO.C,C13*%
X208940000Y-78102500D02*
X204420000Y-78102500D01*
X204420000Y-78102500D02*
X204420000Y-70042500D01*
X208940000Y-70042500D02*
X208940000Y-78102500D01*
%TO.C,C16*%
X208227500Y-84010000D02*
X208227500Y-79490000D01*
X208227500Y-79490000D02*
X216287500Y-79490000D01*
X216287500Y-84010000D02*
X208227500Y-84010000D01*
%TO.C,SW7*%
X195920000Y-75920000D02*
X194620000Y-75920000D01*
X199320000Y-80570000D02*
X199320000Y-77570000D01*
X199320000Y-77570000D02*
X192920000Y-77570000D01*
X194620000Y-75920000D02*
X194620000Y-77570000D01*
X195920000Y-77520000D02*
X195920000Y-75920000D01*
X192920000Y-80570000D02*
X199320000Y-80570000D01*
X192920000Y-77570000D02*
X192920000Y-80570000D01*
%TO.C,U7*%
X186720000Y-79877500D02*
X186720000Y-79077500D01*
X183600000Y-79877500D02*
X183600000Y-78077500D01*
X183600000Y-79877500D02*
X183600000Y-80677500D01*
X186720000Y-79877500D02*
X186720000Y-80677500D01*
%TO.C,L4*%
X187150000Y-77890000D02*
X187150000Y-78915000D01*
X187150000Y-82660000D02*
X188175000Y-82660000D01*
X187150000Y-77890000D02*
X188175000Y-77890000D01*
X187150000Y-82660000D02*
X187150000Y-81635000D01*
X191370000Y-77890000D02*
X190345000Y-77890000D01*
X191370000Y-82660000D02*
X190345000Y-82660000D01*
X191370000Y-82660000D02*
X191370000Y-81635000D01*
X191370000Y-77890000D02*
X191370000Y-78915000D01*
%TO.C,C11*%
X183240000Y-75312500D02*
X183240000Y-82072500D01*
X179820000Y-82072500D02*
X179820000Y-75312500D01*
X179820000Y-75312500D02*
X183240000Y-75312500D01*
%TO.C,C10*%
X184924420Y-83310000D02*
X185205580Y-83310000D01*
X184924420Y-82290000D02*
X185205580Y-82290000D01*
%TO.C,U6*%
X168185000Y-99020000D02*
X161765000Y-99020000D01*
X168185000Y-80780000D02*
X161765000Y-80780000D01*
X143220000Y-80780000D02*
X142440000Y-80780000D01*
X142440000Y-80780000D02*
X142440000Y-81780000D01*
X161765000Y-99020000D02*
X161765000Y-99400000D01*
X168185000Y-99020000D02*
X168185000Y-80780000D01*
X143220000Y-99020000D02*
X142440000Y-99020000D01*
X142440000Y-99020000D02*
X142440000Y-98020000D01*
%TO.C,JP13*%
X138272944Y-104290000D02*
X138272944Y-103865736D01*
X141631701Y-103052563D02*
X141207437Y-102628299D01*
X140252843Y-102592944D02*
X138272944Y-104572843D01*
X138308299Y-105527437D02*
X138732563Y-105951701D01*
X138272944Y-104290000D02*
X137848680Y-104290000D01*
X139687157Y-105987056D02*
X141667056Y-104007157D01*
X137848680Y-104290000D02*
X138272944Y-103865736D01*
X138308299Y-104537487D02*
G75*
G03*
X138308299Y-105527437I494973J-494975D01*
G01*
X141631701Y-104042513D02*
G75*
G03*
X141631701Y-103052563I-494975J494975D01*
G01*
X141207437Y-102628299D02*
G75*
G03*
X140217487Y-102628299I-494975J-494975D01*
G01*
X138732563Y-105951701D02*
G75*
G03*
X139722513Y-105951701I494975J494973D01*
G01*
%TO.C,R35*%
X120300000Y-71610000D02*
X120300000Y-71010000D01*
X119600000Y-70310000D02*
X118200000Y-70310000D01*
X117500000Y-71010000D02*
X117500000Y-71610000D01*
X118200000Y-72310000D02*
X119600000Y-72310000D01*
X117500000Y-71610000D02*
G75*
G03*
X118200000Y-72310000I700000J0D01*
G01*
X120300000Y-71010000D02*
G75*
G03*
X119600000Y-70310000I-699999J1D01*
G01*
X118200000Y-70310000D02*
G75*
G03*
X117500000Y-71010000I0J-700000D01*
G01*
X119600000Y-72310000D02*
G75*
G03*
X120300000Y-71610000I1J699999D01*
G01*
D19*
%TO.C,J5*%
X87725621Y-89938688D02*
X87559392Y-90151451D01*
X90206736Y-86763005D02*
X90348578Y-86873824D01*
X93390672Y-94707346D02*
X93556900Y-94494583D01*
X93390672Y-94707346D02*
X87559392Y-90151451D01*
X90206736Y-86763005D02*
X89126251Y-88145964D01*
X96038016Y-91318900D02*
X95896174Y-91208081D01*
X96038016Y-91318900D02*
X94957530Y-92701859D01*
D20*
X95055769Y-88887082D02*
G75*
G03*
X95055769Y-88887082I-100001J0D01*
G01*
D18*
%TO.C,JP10*%
X205260002Y-82030000D02*
X205260002Y-81430000D01*
X205560002Y-81730000D02*
X205260002Y-82030000D01*
X207060002Y-78480000D02*
X206460002Y-78480000D01*
X207760002Y-81930000D02*
X207760002Y-79130000D01*
X206460002Y-82580000D02*
X207060002Y-82580000D01*
X205560002Y-81730000D02*
X205260002Y-81430000D01*
X205760002Y-79130000D02*
X205760002Y-81930000D01*
X205760002Y-81880000D02*
G75*
G03*
X206460002Y-82580000I699999J-1D01*
G01*
X207760002Y-79180000D02*
G75*
G03*
X207060002Y-78480000I-700000J0D01*
G01*
X207060002Y-82580000D02*
G75*
G03*
X207760002Y-81880000I1J699999D01*
G01*
X206460002Y-78480000D02*
G75*
G03*
X205760002Y-79180000I0J-700000D01*
G01*
%TO.C,JP12*%
X138002843Y-100332944D02*
X136022944Y-102312843D01*
X136058299Y-103267437D02*
X136482563Y-103691701D01*
X139417056Y-102030000D02*
X139841320Y-102030000D01*
X139841320Y-102030000D02*
X139417056Y-102454264D01*
X139381701Y-100792563D02*
X138957437Y-100368299D01*
X139417056Y-102030000D02*
X139417056Y-102454264D01*
X137437157Y-103727056D02*
X139417056Y-101747157D01*
X138957437Y-100368299D02*
G75*
G03*
X137967487Y-100368299I-494975J-494973D01*
G01*
X136058299Y-102277487D02*
G75*
G03*
X136058299Y-103267437I494975J-494975D01*
G01*
X139381701Y-101782513D02*
G75*
G03*
X139381701Y-100792563I-494973J494975D01*
G01*
X136482563Y-103691701D02*
G75*
G03*
X137472513Y-103691701I494975J494975D01*
G01*
%TO.C,U3*%
X128935000Y-87005000D02*
X130885000Y-87005000D01*
X128935000Y-97125000D02*
X125485000Y-97125000D01*
X128935000Y-87005000D02*
X126985000Y-87005000D01*
X128935000Y-97125000D02*
X130885000Y-97125000D01*
%TO.C,BT1*%
X159494200Y-72140000D02*
G75*
G03*
X157494214Y-70140000I-2000000J0D01*
G01*
X139694200Y-56940000D02*
G75*
G03*
X141694214Y-58940000I2000000J0D01*
G01*
X141694214Y-70140014D02*
G75*
G03*
X139694214Y-72140000I-14J-1999986D01*
G01*
X157494214Y-58940014D02*
G75*
G03*
X159494214Y-56940000I-14J2000014D01*
G01*
X173904214Y-68600000D02*
X173904214Y-60600000D01*
X121694214Y-72140000D02*
X139694214Y-72140000D01*
X178214214Y-55975000D02*
X120974214Y-55975000D01*
X120974214Y-73105000D02*
X178214214Y-73105000D01*
X121694214Y-72140000D02*
X121694214Y-56940000D01*
X170904214Y-65600000D02*
X170904214Y-63600000D01*
X178214214Y-73105000D02*
X178214214Y-55975000D01*
X159494214Y-72140000D02*
X177494214Y-72140000D01*
X172904214Y-61600000D02*
X172904214Y-67600000D01*
X141694214Y-70140000D02*
X157494214Y-70140000D01*
X171904214Y-66600000D02*
X171904214Y-62600000D01*
X120974214Y-55975000D02*
X120974214Y-73105000D01*
X177494214Y-72140000D02*
X177494214Y-56940000D01*
X157494214Y-58940000D02*
X141694214Y-58940000D01*
X159494214Y-56940000D02*
X177494214Y-56940000D01*
X121694214Y-56940000D02*
X139694214Y-56940000D01*
%TO.C,JP15*%
X151044000Y-104770000D02*
X153844000Y-104770000D01*
X153644000Y-104970000D02*
X153344000Y-105270000D01*
X150394000Y-103470000D02*
X150394000Y-104070000D01*
X153944000Y-105270000D02*
X153344000Y-105270000D01*
X153644000Y-104970000D02*
X153944000Y-105270000D01*
X153844000Y-102770000D02*
X151044000Y-102770000D01*
X154494000Y-104070000D02*
X154494000Y-103470000D01*
X151094000Y-102770000D02*
G75*
G03*
X150394000Y-103470000I0J-700000D01*
G01*
X154494000Y-103470000D02*
G75*
G03*
X153794000Y-102770000I-699999J1D01*
G01*
X150394000Y-104070000D02*
G75*
G03*
X151094000Y-104770000I700000J0D01*
G01*
X153794000Y-104770000D02*
G75*
G03*
X154494000Y-104070000I1J699999D01*
G01*
%TO.C,JP3*%
X197930000Y-63732500D02*
G75*
G03*
X197230000Y-63032500I-700000J0D01*
G01*
X194530000Y-63032500D02*
G75*
G03*
X193830000Y-63732500I-1J-699999D01*
G01*
X197230000Y-65032500D02*
G75*
G03*
X197930000Y-64332500I0J700000D01*
G01*
X193830000Y-64332500D02*
G75*
G03*
X194530000Y-65032500I699999J-1D01*
G01*
X197280000Y-63032500D02*
X194480000Y-63032500D01*
X197930000Y-64332500D02*
X197930000Y-63732500D01*
X193830000Y-63732500D02*
X193830000Y-64332500D01*
X194680000Y-62832500D02*
X194980000Y-62532500D01*
X194480000Y-65032500D02*
X197280000Y-65032500D01*
X194680000Y-62832500D02*
X194380000Y-62532500D01*
X194380000Y-62532500D02*
X194980000Y-62532500D01*
%TO.C,R32*%
X120270000Y-64530000D02*
X120270000Y-63930000D01*
X119570000Y-63230000D02*
X118170000Y-63230000D01*
X117470000Y-63930000D02*
X117470000Y-64530000D01*
X118170000Y-65230000D02*
X119570000Y-65230000D01*
X118170000Y-63230000D02*
G75*
G03*
X117470000Y-63930000I0J-700000D01*
G01*
X120270000Y-63930000D02*
G75*
G03*
X119570000Y-63230000I-699999J1D01*
G01*
X117470000Y-64530000D02*
G75*
G03*
X118170000Y-65230000I700000J0D01*
G01*
X119570000Y-65230000D02*
G75*
G03*
X120270000Y-64530000I1J699999D01*
G01*
%TO.C,J3*%
X95830000Y-62820000D02*
X95830000Y-64150000D01*
X98430000Y-65480000D02*
X101030000Y-65480000D01*
X97160000Y-62820000D02*
X95830000Y-62820000D01*
X98430000Y-62820000D02*
X101030000Y-62820000D01*
X101030000Y-62820000D02*
X101030000Y-65480000D01*
X98430000Y-62820000D02*
X98430000Y-65480000D01*
%TO.C,JP9*%
X202740000Y-74850000D02*
G75*
G03*
X203440000Y-74150000I1J699999D01*
G01*
X199340000Y-74150000D02*
G75*
G03*
X200040000Y-74850000I700000J0D01*
G01*
X200040000Y-72850000D02*
G75*
G03*
X199340000Y-73550000I0J-700000D01*
G01*
X203440000Y-73550000D02*
G75*
G03*
X202740000Y-72850000I-699999J1D01*
G01*
X202590000Y-75050000D02*
X202890000Y-75350000D01*
X199340000Y-73550000D02*
X199340000Y-74150000D01*
X202590000Y-75050000D02*
X202290000Y-75350000D01*
X202890000Y-75350000D02*
X202290000Y-75350000D01*
X202790000Y-72850000D02*
X199990000Y-72850000D01*
X203440000Y-74150000D02*
X203440000Y-73550000D01*
X199990000Y-74850000D02*
X202790000Y-74850000D01*
%TO.C,G\u002A\u002A\u002A*%
G36*
X97179893Y-74626245D02*
G01*
X97825467Y-74806396D01*
X98442075Y-75106267D01*
X99021037Y-75522788D01*
X99185344Y-75669696D01*
X99397477Y-75876448D01*
X99598165Y-76087896D01*
X99766903Y-76281372D01*
X99883183Y-76434205D01*
X99926500Y-76523729D01*
X99878488Y-76573669D01*
X99744392Y-76677982D01*
X99545003Y-76820899D01*
X99301132Y-76987004D01*
X98675763Y-77403377D01*
X98335826Y-77051208D01*
X98025388Y-76758814D01*
X97557574Y-76427288D01*
X97084894Y-76222550D01*
X96606525Y-76144504D01*
X96121645Y-76193050D01*
X95629430Y-76368090D01*
X95129058Y-76669528D01*
X95105150Y-76687333D01*
X94928605Y-76836187D01*
X94699486Y-77049534D01*
X94444781Y-77301553D01*
X94191482Y-77566427D01*
X94178727Y-77580162D01*
X93618920Y-78140626D01*
X93082580Y-78589049D01*
X92555914Y-78934508D01*
X92025128Y-79186078D01*
X91476428Y-79352835D01*
X91188443Y-79398910D01*
X90708034Y-79416615D01*
X90212708Y-79376492D01*
X89759694Y-79280938D01*
X89439906Y-79170079D01*
X88827575Y-78861059D01*
X88243545Y-78432012D01*
X87683874Y-77880278D01*
X87301529Y-77452539D01*
X87951239Y-77026431D01*
X88600950Y-76600323D01*
X89062428Y-77037748D01*
X89179122Y-77144734D01*
X89654432Y-77504236D01*
X90126864Y-77737200D01*
X90598597Y-77843900D01*
X91071812Y-77824607D01*
X91548690Y-77679595D01*
X92031409Y-77409137D01*
X92031896Y-77408803D01*
X92174333Y-77296653D01*
X92385120Y-77111944D01*
X92644223Y-76873139D01*
X92931611Y-76598697D01*
X93227250Y-76307082D01*
X93669114Y-75879546D01*
X94146125Y-75464812D01*
X94587986Y-75141395D01*
X95011439Y-74899973D01*
X95433223Y-74731224D01*
X95870080Y-74625825D01*
X96338750Y-74574456D01*
X96514033Y-74568884D01*
X97179893Y-74626245D01*
G37*
G36*
X102730294Y-77369721D02*
G01*
X102721144Y-77467377D01*
X102559927Y-78539203D01*
X102291501Y-79545039D01*
X101912887Y-80491267D01*
X101421108Y-81384270D01*
X100813184Y-82230431D01*
X100086136Y-83036135D01*
X99498379Y-83578598D01*
X98642483Y-84226103D01*
X97732609Y-84760279D01*
X96772795Y-85179148D01*
X95767080Y-85480734D01*
X94719500Y-85663061D01*
X94566566Y-85679281D01*
X93490894Y-85722197D01*
X92426416Y-85641802D01*
X91383267Y-85440579D01*
X90371586Y-85121008D01*
X89401511Y-84685570D01*
X88483179Y-84136747D01*
X88046056Y-83812858D01*
X87442788Y-83283999D01*
X86861845Y-82685473D01*
X86327671Y-82045017D01*
X85864713Y-81390364D01*
X85497416Y-80749250D01*
X85194551Y-80077888D01*
X84850793Y-79071071D01*
X84626272Y-78048967D01*
X84519178Y-77020786D01*
X84526350Y-76158077D01*
X86234356Y-76158077D01*
X86238587Y-77063843D01*
X86356608Y-77974290D01*
X86583865Y-78862465D01*
X86915807Y-79701411D01*
X86951385Y-79775289D01*
X87436462Y-80629962D01*
X88014881Y-81402895D01*
X88679366Y-82088234D01*
X89422645Y-82680123D01*
X90237442Y-83172706D01*
X91116486Y-83560128D01*
X92052500Y-83836533D01*
X92129166Y-83852857D01*
X92504571Y-83911812D01*
X92947434Y-83956192D01*
X93419294Y-83984254D01*
X93881691Y-83994256D01*
X94296163Y-83984453D01*
X94624250Y-83953103D01*
X94748944Y-83932553D01*
X95706984Y-83706713D01*
X96609139Y-83373497D01*
X97448436Y-82939802D01*
X98217903Y-82412523D01*
X98910566Y-81798556D01*
X99519452Y-81104797D01*
X100037589Y-80338143D01*
X100458003Y-79505488D01*
X100773722Y-78613730D01*
X100977772Y-77669763D01*
X101032002Y-77211716D01*
X101051770Y-76270037D01*
X100950895Y-75341998D01*
X100733651Y-74437879D01*
X100404314Y-73567954D01*
X99967160Y-72742500D01*
X99426462Y-71971795D01*
X98786498Y-71266114D01*
X98051541Y-70635735D01*
X97967201Y-70573561D01*
X97410622Y-70218032D01*
X96777086Y-69891180D01*
X96109245Y-69613193D01*
X95449750Y-69404260D01*
X95356695Y-69380069D01*
X95076298Y-69310961D01*
X94838956Y-69262815D01*
X94610663Y-69231888D01*
X94357410Y-69214434D01*
X94045192Y-69206707D01*
X93640000Y-69204964D01*
X93512412Y-69205071D01*
X93137336Y-69208145D01*
X92845489Y-69218276D01*
X92602865Y-69239208D01*
X92375455Y-69274686D01*
X92129252Y-69328455D01*
X91830250Y-69404260D01*
X91311621Y-69559379D01*
X90421258Y-69923813D01*
X89597286Y-70389775D01*
X88846537Y-70949379D01*
X88175842Y-71594739D01*
X87592033Y-72317967D01*
X87101940Y-73111179D01*
X86712397Y-73966487D01*
X86430234Y-74876006D01*
X86262283Y-75831848D01*
X86234356Y-76158077D01*
X84526350Y-76158077D01*
X84527700Y-75995738D01*
X84650027Y-74983033D01*
X84884351Y-73991883D01*
X85228860Y-73031496D01*
X85681745Y-72111085D01*
X86241195Y-71239859D01*
X86905400Y-70427028D01*
X87672550Y-69681803D01*
X87852537Y-69530043D01*
X88705964Y-68909562D01*
X89619522Y-68395680D01*
X90582064Y-67991129D01*
X91582442Y-67698644D01*
X92609507Y-67520957D01*
X93652111Y-67460802D01*
X94699106Y-67520912D01*
X95739344Y-67704020D01*
X96430904Y-67896867D01*
X97409345Y-68273912D01*
X98324338Y-68752209D01*
X99170182Y-69323874D01*
X99941174Y-69981024D01*
X100631615Y-70715776D01*
X101235801Y-71520247D01*
X101748032Y-72386554D01*
X102162605Y-73306813D01*
X102473820Y-74273143D01*
X102675974Y-75277659D01*
X102759782Y-76270037D01*
X102763366Y-76312480D01*
X102730294Y-77369721D01*
G37*
G36*
X90592000Y-71954500D02*
G01*
X90592432Y-72287546D01*
X90595254Y-72589483D01*
X90602536Y-72796776D01*
X90616338Y-72927149D01*
X90638720Y-72998327D01*
X90671743Y-73028036D01*
X90717465Y-73034000D01*
X90752454Y-73030992D01*
X90789254Y-73008206D01*
X90815332Y-72947608D01*
X90833083Y-72831363D01*
X90844905Y-72641633D01*
X90853192Y-72360582D01*
X90860340Y-71970375D01*
X90877750Y-70906750D01*
X91893750Y-70906750D01*
X91926744Y-76907500D01*
X90846000Y-76907500D01*
X90846000Y-75669250D01*
X90845950Y-75492524D01*
X90844795Y-75111465D01*
X90840813Y-74834497D01*
X90832304Y-74645047D01*
X90817568Y-74526544D01*
X90794905Y-74462416D01*
X90762616Y-74436092D01*
X90719000Y-74431000D01*
X90700875Y-74431495D01*
X90661792Y-74442750D01*
X90633385Y-74481575D01*
X90613954Y-74564541D01*
X90601800Y-74708220D01*
X90595223Y-74929183D01*
X90592523Y-75244003D01*
X90592000Y-75669250D01*
X90592000Y-76907500D01*
X89576000Y-76907500D01*
X89576000Y-70875000D01*
X90592000Y-70875000D01*
X90592000Y-71954500D01*
G37*
G36*
X96737167Y-76612404D02*
G01*
X97016093Y-76711096D01*
X97267438Y-76867259D01*
X97441551Y-77054880D01*
X97455679Y-77078235D01*
X97546633Y-77245689D01*
X97618360Y-77420960D01*
X97673048Y-77621067D01*
X97712886Y-77863026D01*
X97740062Y-78163855D01*
X97756765Y-78540571D01*
X97765181Y-79010192D01*
X97767500Y-79589736D01*
X97766968Y-79838426D01*
X97758697Y-80507509D01*
X97739852Y-81061669D01*
X97709711Y-81509701D01*
X97667550Y-81860403D01*
X97612646Y-82122570D01*
X97544277Y-82305000D01*
X97466479Y-82428296D01*
X97252050Y-82653309D01*
X97005468Y-82808590D01*
X96917104Y-82836157D01*
X96669651Y-82862475D01*
X96389709Y-82846562D01*
X96129445Y-82793356D01*
X95941022Y-82707797D01*
X95717563Y-82498173D01*
X95550448Y-82231242D01*
X95437911Y-81893112D01*
X95374434Y-81467125D01*
X95354500Y-80936624D01*
X95354500Y-80336500D01*
X96351933Y-80336500D01*
X96408842Y-81082625D01*
X96425678Y-81289964D01*
X96453186Y-81553153D01*
X96482419Y-81718471D01*
X96517113Y-81804232D01*
X96561000Y-81828750D01*
X96606917Y-81809301D01*
X96659342Y-81699755D01*
X96697596Y-81479500D01*
X96708638Y-81358019D01*
X96723738Y-81071246D01*
X96734794Y-80701110D01*
X96741699Y-80274775D01*
X96744347Y-79819401D01*
X96742631Y-79362151D01*
X96736446Y-78930185D01*
X96725685Y-78550666D01*
X96710242Y-78250755D01*
X96702183Y-78142098D01*
X96678867Y-77901502D01*
X96651332Y-77757574D01*
X96613761Y-77687759D01*
X96560337Y-77669500D01*
X96513275Y-77688775D01*
X96450429Y-77808078D01*
X96406241Y-78040149D01*
X96380014Y-78389370D01*
X96371052Y-78860125D01*
X96370500Y-79384000D01*
X95338505Y-79384000D01*
X95368046Y-78479125D01*
X95374490Y-78307231D01*
X95401412Y-77885298D01*
X95444542Y-77560448D01*
X95508968Y-77310690D01*
X95599774Y-77114031D01*
X95722047Y-76948480D01*
X95814916Y-76865315D01*
X96045144Y-76730516D01*
X96311690Y-76630978D01*
X96556827Y-76591394D01*
X96737167Y-76612404D01*
G37*
%TO.C,J4*%
X221555000Y-76800000D02*
X223555000Y-76800000D01*
X209455000Y-77400000D02*
X209455000Y-71200000D01*
X217530000Y-71200000D02*
X216180000Y-71200000D01*
X221555000Y-71800000D02*
X223555000Y-71800000D01*
X221555000Y-71200000D02*
X219180000Y-71200000D01*
X221555000Y-71200000D02*
X221555000Y-71800000D01*
X214530000Y-71200000D02*
X212130000Y-71200000D01*
X210580000Y-71200000D02*
X210580000Y-69800000D01*
X210580000Y-71200000D02*
X209455000Y-71200000D01*
X212130000Y-71200000D02*
X212130000Y-69800000D01*
X221555000Y-76800000D02*
X221555000Y-77400000D01*
X211030000Y-77400000D02*
X221555000Y-77400000D01*
X223555000Y-71800000D02*
X223555000Y-76800000D01*
%TO.C,JP14*%
X149194000Y-102760000D02*
X146394000Y-102760000D01*
X146294000Y-102260000D02*
X146894000Y-102260000D01*
X145744000Y-103460000D02*
X145744000Y-104060000D01*
X149844000Y-104060000D02*
X149844000Y-103460000D01*
X146594000Y-102560000D02*
X146894000Y-102260000D01*
X146394000Y-104760000D02*
X149194000Y-104760000D01*
X146594000Y-102560000D02*
X146294000Y-102260000D01*
X149844000Y-103460000D02*
G75*
G03*
X149144000Y-102760000I-700000J0D01*
G01*
X149144000Y-104760000D02*
G75*
G03*
X149844000Y-104060000I0J700000D01*
G01*
X146444000Y-102760000D02*
G75*
G03*
X145744000Y-103460000I-1J-699999D01*
G01*
X145744000Y-104060000D02*
G75*
G03*
X146444000Y-104760000I699999J-1D01*
G01*
%TD*%
M02*
