%TF.GenerationSoftware,KiCad,Pcbnew,(6.0.5)*%
%TF.CreationDate,2023-09-09T17:34:35-07:00*%
%TF.ProjectId,Monkeys,4d6f6e6b-6579-4732-9e6b-696361645f70,3.5*%
%TF.SameCoordinates,Original*%
%TF.FileFunction,Legend,Top*%
%TF.FilePolarity,Positive*%
%FSLAX46Y46*%
G04 Gerber Fmt 4.6, Leading zero omitted, Abs format (unit mm)*
G04 Created by KiCad (PCBNEW (6.0.5)) date 2023-09-09 17:34:35*
%MOMM*%
%LPD*%
G01*
G04 APERTURE LIST*
%ADD10C,0.150000*%
%ADD11C,0.125000*%
%ADD12C,0.120000*%
%ADD13C,0.200000*%
%ADD14C,0.100000*%
G04 APERTURE END LIST*
D10*
%TO.C,D3*%
X111711904Y-72352380D02*
X111711904Y-71352380D01*
X111950000Y-71352380D01*
X112092857Y-71400000D01*
X112188095Y-71495238D01*
X112235714Y-71590476D01*
X112283333Y-71780952D01*
X112283333Y-71923809D01*
X112235714Y-72114285D01*
X112188095Y-72209523D01*
X112092857Y-72304761D01*
X111950000Y-72352380D01*
X111711904Y-72352380D01*
X112616666Y-71352380D02*
X113235714Y-71352380D01*
X112902380Y-71733333D01*
X113045238Y-71733333D01*
X113140476Y-71780952D01*
X113188095Y-71828571D01*
X113235714Y-71923809D01*
X113235714Y-72161904D01*
X113188095Y-72257142D01*
X113140476Y-72304761D01*
X113045238Y-72352380D01*
X112759523Y-72352380D01*
X112664285Y-72304761D01*
X112616666Y-72257142D01*
D11*
X111999868Y-70226190D02*
X111714153Y-70226190D01*
X111857011Y-70226190D02*
X111857011Y-69726190D01*
X111809391Y-69797619D01*
X111761772Y-69845238D01*
X111714153Y-69869047D01*
D10*
%TO.C,U5*%
X136565714Y-63062380D02*
X135994285Y-63062380D01*
X136280000Y-63062380D02*
X136280000Y-62062380D01*
X136184761Y-62205238D01*
X136089523Y-62300476D01*
X135994285Y-62348095D01*
%TO.C,C4*%
X94130344Y-70417142D02*
X94082725Y-70464761D01*
X93939868Y-70512380D01*
X93844630Y-70512380D01*
X93701772Y-70464761D01*
X93606534Y-70369523D01*
X93558915Y-70274285D01*
X93511296Y-70083809D01*
X93511296Y-69940952D01*
X93558915Y-69750476D01*
X93606534Y-69655238D01*
X93701772Y-69560000D01*
X93844630Y-69512380D01*
X93939868Y-69512380D01*
X94082725Y-69560000D01*
X94130344Y-69607619D01*
X94987487Y-69845714D02*
X94987487Y-70512380D01*
X94749391Y-69464761D02*
X94511296Y-70179047D01*
X95130344Y-70179047D01*
%TO.C,C41*%
X125167143Y-68632853D02*
X125214762Y-68680472D01*
X125262381Y-68823329D01*
X125262381Y-68918567D01*
X125214762Y-69061424D01*
X125119524Y-69156662D01*
X125024286Y-69204281D01*
X124833810Y-69251900D01*
X124690953Y-69251900D01*
X124500477Y-69204281D01*
X124405239Y-69156662D01*
X124310001Y-69061424D01*
X124262381Y-68918567D01*
X124262381Y-68823329D01*
X124310001Y-68680472D01*
X124357620Y-68632853D01*
X124595715Y-67775710D02*
X125262381Y-67775710D01*
X124214762Y-68013805D02*
X124929048Y-68251900D01*
X124929048Y-67632853D01*
X125262381Y-66728091D02*
X125262381Y-67299519D01*
X125262381Y-67013805D02*
X124262381Y-67013805D01*
X124405239Y-67109043D01*
X124500477Y-67204281D01*
X124548096Y-67299519D01*
%TO.C,JP1*%
X110286666Y-62152380D02*
X110286666Y-62866666D01*
X110239047Y-63009523D01*
X110143809Y-63104761D01*
X110000952Y-63152380D01*
X109905714Y-63152380D01*
X110762857Y-63152380D02*
X110762857Y-62152380D01*
X111143809Y-62152380D01*
X111239047Y-62200000D01*
X111286666Y-62247619D01*
X111334285Y-62342857D01*
X111334285Y-62485714D01*
X111286666Y-62580952D01*
X111239047Y-62628571D01*
X111143809Y-62676190D01*
X110762857Y-62676190D01*
X112286666Y-63152380D02*
X111715238Y-63152380D01*
X112000952Y-63152380D02*
X112000952Y-62152380D01*
X111905714Y-62295238D01*
X111810476Y-62390476D01*
X111715238Y-62438095D01*
%TO.C,D2*%
X90188915Y-71822380D02*
X90188915Y-70822380D01*
X90427011Y-70822380D01*
X90569868Y-70870000D01*
X90665106Y-70965238D01*
X90712725Y-71060476D01*
X90760344Y-71250952D01*
X90760344Y-71393809D01*
X90712725Y-71584285D01*
X90665106Y-71679523D01*
X90569868Y-71774761D01*
X90427011Y-71822380D01*
X90188915Y-71822380D01*
X91141296Y-70917619D02*
X91188915Y-70870000D01*
X91284153Y-70822380D01*
X91522249Y-70822380D01*
X91617487Y-70870000D01*
X91665106Y-70917619D01*
X91712725Y-71012857D01*
X91712725Y-71108095D01*
X91665106Y-71250952D01*
X91093677Y-71822380D01*
X91712725Y-71822380D01*
D11*
X93409868Y-70066190D02*
X93124153Y-70066190D01*
X93267011Y-70066190D02*
X93267011Y-69566190D01*
X93219391Y-69637619D01*
X93171772Y-69685238D01*
X93124153Y-69709047D01*
D10*
%TO.C,U8*%
X195051064Y-55062380D02*
X195051064Y-55871904D01*
X195098683Y-55967142D01*
X195146302Y-56014761D01*
X195241540Y-56062380D01*
X195432016Y-56062380D01*
X195527254Y-56014761D01*
X195574873Y-55967142D01*
X195622492Y-55871904D01*
X195622492Y-55062380D01*
X196241540Y-55490952D02*
X196146302Y-55443333D01*
X196098683Y-55395714D01*
X196051064Y-55300476D01*
X196051064Y-55252857D01*
X196098683Y-55157619D01*
X196146302Y-55110000D01*
X196241540Y-55062380D01*
X196432016Y-55062380D01*
X196527254Y-55110000D01*
X196574873Y-55157619D01*
X196622492Y-55252857D01*
X196622492Y-55300476D01*
X196574873Y-55395714D01*
X196527254Y-55443333D01*
X196432016Y-55490952D01*
X196241540Y-55490952D01*
X196146302Y-55538571D01*
X196098683Y-55586190D01*
X196051064Y-55681428D01*
X196051064Y-55871904D01*
X196098683Y-55967142D01*
X196146302Y-56014761D01*
X196241540Y-56062380D01*
X196432016Y-56062380D01*
X196527254Y-56014761D01*
X196574873Y-55967142D01*
X196622492Y-55871904D01*
X196622492Y-55681428D01*
X196574873Y-55586190D01*
X196527254Y-55538571D01*
X196432016Y-55490952D01*
%TO.C,SW2*%
X91706666Y-76564761D02*
X91849523Y-76612380D01*
X92087619Y-76612380D01*
X92182857Y-76564761D01*
X92230476Y-76517142D01*
X92278095Y-76421904D01*
X92278095Y-76326666D01*
X92230476Y-76231428D01*
X92182857Y-76183809D01*
X92087619Y-76136190D01*
X91897142Y-76088571D01*
X91801904Y-76040952D01*
X91754285Y-75993333D01*
X91706666Y-75898095D01*
X91706666Y-75802857D01*
X91754285Y-75707619D01*
X91801904Y-75660000D01*
X91897142Y-75612380D01*
X92135238Y-75612380D01*
X92278095Y-75660000D01*
X92611428Y-75612380D02*
X92849523Y-76612380D01*
X93040000Y-75898095D01*
X93230476Y-76612380D01*
X93468571Y-75612380D01*
X93801904Y-75707619D02*
X93849523Y-75660000D01*
X93944761Y-75612380D01*
X94182857Y-75612380D01*
X94278095Y-75660000D01*
X94325714Y-75707619D01*
X94373333Y-75802857D01*
X94373333Y-75898095D01*
X94325714Y-76040952D01*
X93754285Y-76612380D01*
X94373333Y-76612380D01*
%TO.C,SW1*%
X80264761Y-75663333D02*
X80312380Y-75520476D01*
X80312380Y-75282380D01*
X80264761Y-75187142D01*
X80217142Y-75139523D01*
X80121904Y-75091904D01*
X80026666Y-75091904D01*
X79931428Y-75139523D01*
X79883809Y-75187142D01*
X79836190Y-75282380D01*
X79788571Y-75472857D01*
X79740952Y-75568095D01*
X79693333Y-75615714D01*
X79598095Y-75663333D01*
X79502857Y-75663333D01*
X79407619Y-75615714D01*
X79360000Y-75568095D01*
X79312380Y-75472857D01*
X79312380Y-75234761D01*
X79360000Y-75091904D01*
X79312380Y-74758571D02*
X80312380Y-74520476D01*
X79598095Y-74330000D01*
X80312380Y-74139523D01*
X79312380Y-73901428D01*
X80312380Y-72996666D02*
X80312380Y-73568095D01*
X80312380Y-73282380D02*
X79312380Y-73282380D01*
X79455238Y-73377619D01*
X79550476Y-73472857D01*
X79598095Y-73568095D01*
%TO.C,R34*%
X125582384Y-67212856D02*
X125106194Y-67546189D01*
X125582384Y-67784284D02*
X124582384Y-67784284D01*
X124582384Y-67403332D01*
X124630004Y-67308094D01*
X124677623Y-67260475D01*
X124772861Y-67212856D01*
X124915718Y-67212856D01*
X125010956Y-67260475D01*
X125058575Y-67308094D01*
X125106194Y-67403332D01*
X125106194Y-67784284D01*
X124582384Y-66879522D02*
X124582384Y-66260475D01*
X124963337Y-66593808D01*
X124963337Y-66450951D01*
X125010956Y-66355713D01*
X125058575Y-66308094D01*
X125153813Y-66260475D01*
X125391908Y-66260475D01*
X125487146Y-66308094D01*
X125534765Y-66355713D01*
X125582384Y-66450951D01*
X125582384Y-66736665D01*
X125534765Y-66831903D01*
X125487146Y-66879522D01*
X124915718Y-65403332D02*
X125582384Y-65403332D01*
X124534765Y-65641427D02*
X125249051Y-65879522D01*
X125249051Y-65260475D01*
%TO.C,R33*%
X125207143Y-64212379D02*
X124873810Y-63736189D01*
X124635715Y-64212379D02*
X124635715Y-63212379D01*
X125016667Y-63212379D01*
X125111905Y-63259999D01*
X125159524Y-63307618D01*
X125207143Y-63402856D01*
X125207143Y-63545713D01*
X125159524Y-63640951D01*
X125111905Y-63688570D01*
X125016667Y-63736189D01*
X124635715Y-63736189D01*
X125540477Y-63212379D02*
X126159524Y-63212379D01*
X125826191Y-63593332D01*
X125969048Y-63593332D01*
X126064286Y-63640951D01*
X126111905Y-63688570D01*
X126159524Y-63783808D01*
X126159524Y-64021903D01*
X126111905Y-64117141D01*
X126064286Y-64164760D01*
X125969048Y-64212379D01*
X125683334Y-64212379D01*
X125588096Y-64164760D01*
X125540477Y-64117141D01*
X126492858Y-63212379D02*
X127111905Y-63212379D01*
X126778572Y-63593332D01*
X126921429Y-63593332D01*
X127016667Y-63640951D01*
X127064286Y-63688570D01*
X127111905Y-63783808D01*
X127111905Y-64021903D01*
X127064286Y-64117141D01*
X127016667Y-64164760D01*
X126921429Y-64212379D01*
X126635715Y-64212379D01*
X126540477Y-64164760D01*
X126492858Y-64117141D01*
D12*
%TO.C,D10*%
X94442707Y-87735069D02*
X92642103Y-86328283D01*
X91737080Y-87486659D02*
X93537685Y-88893445D01*
X93537685Y-88893445D02*
X94442707Y-87735069D01*
%TO.C,C43*%
X199654183Y-59000000D02*
X199869855Y-59000000D01*
X199654183Y-58280000D02*
X199869855Y-58280000D01*
%TO.C,D3*%
X113417011Y-71600000D02*
X113417011Y-72170000D01*
X113127011Y-70890000D02*
X113347011Y-70890000D01*
X111517011Y-70890000D02*
X111297011Y-70890000D01*
X113417011Y-72170000D02*
X111227011Y-72170000D01*
X111227011Y-72170000D02*
X111227011Y-71600000D01*
X112277011Y-70890000D02*
X112367011Y-70890000D01*
%TO.C,C22*%
X196240000Y-67312164D02*
X196240000Y-67527836D01*
X196960000Y-67312164D02*
X196960000Y-67527836D01*
%TO.C,C25*%
X130086836Y-97900000D02*
X129871164Y-97900000D01*
X130086836Y-98620000D02*
X129871164Y-98620000D01*
%TO.C,Q6*%
X147590000Y-68450000D02*
X147590000Y-67800000D01*
X147590000Y-68450000D02*
X147590000Y-70125000D01*
X150710000Y-68450000D02*
X150710000Y-67800000D01*
X150710000Y-68450000D02*
X150710000Y-69100000D01*
%TO.C,R21*%
X142000000Y-95626359D02*
X142000000Y-95933641D01*
X142760000Y-95626359D02*
X142760000Y-95933641D01*
%TO.C,R10*%
X153066359Y-83680000D02*
X153373641Y-83680000D01*
X153066359Y-82920000D02*
X153373641Y-82920000D01*
%TO.C,Y1*%
X194815000Y-69205000D02*
X194815000Y-67855000D01*
X193065000Y-69205000D02*
X193065000Y-67855000D01*
%TO.C,C44*%
X199520806Y-60852502D02*
X199305134Y-60852502D01*
X199520806Y-60132502D02*
X199305134Y-60132502D01*
%TO.C,C2*%
X160042500Y-96490000D02*
X153282500Y-96490000D01*
X153282500Y-99910000D02*
X160042500Y-99910000D01*
X160042500Y-99910000D02*
X160042500Y-96490000D01*
%TO.C,R5*%
X105134566Y-87925001D02*
X104680438Y-87925001D01*
X105134566Y-89395001D02*
X104680438Y-89395001D01*
%TO.C,C40*%
X144614420Y-64580000D02*
X144895580Y-64580000D01*
X144614420Y-63560000D02*
X144895580Y-63560000D01*
D13*
%TO.C,IC1*%
X202189000Y-69728000D02*
X202189000Y-69728000D01*
X202089000Y-69728000D02*
X202089000Y-69728000D01*
X202189000Y-69728000D02*
X202189000Y-69728000D01*
X202189000Y-69728000D02*
G75*
G03*
X202089000Y-69728000I-50000J0D01*
G01*
X202189000Y-69728000D02*
G75*
G03*
X202089000Y-69728000I-50000J0D01*
G01*
X202089000Y-69728000D02*
G75*
G03*
X202189000Y-69728000I50000J0D01*
G01*
D12*
%TO.C,C15*%
X204942164Y-67780000D02*
X205157836Y-67780000D01*
X204942164Y-68500000D02*
X205157836Y-68500000D01*
%TO.C,C42*%
X194632972Y-55170339D02*
X194632972Y-54954667D01*
X193912972Y-55170339D02*
X193912972Y-54954667D01*
%TO.C,R2*%
X107059564Y-83235000D02*
X106605436Y-83235000D01*
X107059564Y-81765000D02*
X106605436Y-81765000D01*
%TO.C,R1*%
X121971359Y-82210000D02*
X122278641Y-82210000D01*
X121971359Y-81450000D02*
X122278641Y-81450000D01*
%TO.C,C18*%
X191527164Y-75990000D02*
X191742836Y-75990000D01*
X191527164Y-76710000D02*
X191742836Y-76710000D01*
%TO.C,R22*%
X134850000Y-91206359D02*
X134850000Y-91513641D01*
X134090000Y-91206359D02*
X134090000Y-91513641D01*
%TO.C,C19*%
X192518307Y-88269190D02*
X192670810Y-88421693D01*
X192009190Y-88778307D02*
X192161693Y-88930810D01*
%TO.C,U5*%
X141340000Y-67940000D02*
X137340000Y-67940000D01*
X137340000Y-67940000D02*
X137340000Y-63940000D01*
X138190000Y-62940000D02*
X141340000Y-62940000D01*
X141340000Y-62940000D02*
X141340000Y-67940000D01*
X138190000Y-62940000D02*
X137340000Y-63940000D01*
X140340000Y-64440000D02*
G75*
G03*
X140340000Y-64440000I-1000000J0D01*
G01*
%TO.C,SW5*%
X105245000Y-64705000D02*
X105245000Y-63105000D01*
X101845000Y-64755000D02*
X108245000Y-64755000D01*
X106545000Y-63105000D02*
X106545000Y-64755000D01*
X101845000Y-67755000D02*
X101845000Y-64755000D01*
X108245000Y-67755000D02*
X101845000Y-67755000D01*
X108245000Y-64755000D02*
X108245000Y-67755000D01*
X105245000Y-63105000D02*
X106545000Y-63105000D01*
%TO.C,R30*%
X163250000Y-64743641D02*
X163250000Y-64436359D01*
X162490000Y-64743641D02*
X162490000Y-64436359D01*
%TO.C,U1*%
X104055000Y-85210000D02*
X104530000Y-85210000D01*
X104530000Y-85210000D02*
X104530000Y-84735000D01*
X104055000Y-81990000D02*
X104530000Y-81990000D01*
X104530000Y-81990000D02*
X104530000Y-82465000D01*
X101310000Y-85210000D02*
X101310000Y-84735000D01*
X101785000Y-85210000D02*
X101310000Y-85210000D01*
X101785000Y-81990000D02*
X101310000Y-81990000D01*
%TO.C,C29*%
X113408748Y-82755000D02*
X113931252Y-82755000D01*
X113408748Y-81285000D02*
X113931252Y-81285000D01*
%TO.C,JP2*%
X192490000Y-65790000D02*
X192490000Y-66390000D01*
X191790000Y-67090000D02*
X190390000Y-67090000D01*
X189690000Y-66390000D02*
X189690000Y-65790000D01*
X190390000Y-65090000D02*
X191790000Y-65090000D01*
X192490000Y-65790000D02*
G75*
G03*
X191790000Y-65090000I-699999J1D01*
G01*
X191790000Y-67090000D02*
G75*
G03*
X192490000Y-66390000I1J699999D01*
G01*
X190390000Y-65090000D02*
G75*
G03*
X189690000Y-65790000I0J-700000D01*
G01*
X189690000Y-66390000D02*
G75*
G03*
X190390000Y-67090000I700000J0D01*
G01*
%TO.C,C37*%
X151862164Y-94750000D02*
X152077836Y-94750000D01*
X151862164Y-95470000D02*
X152077836Y-95470000D01*
%TO.C,R40*%
X199586611Y-56222502D02*
X199279329Y-56222502D01*
X199586611Y-55462502D02*
X199279329Y-55462502D01*
%TO.C,C32*%
X143808000Y-98597836D02*
X143808000Y-98382164D01*
X144528000Y-98597836D02*
X144528000Y-98382164D01*
%TO.C,C34*%
X99640030Y-83871219D02*
X99441219Y-84070030D01*
X98918781Y-83149970D02*
X98719970Y-83348781D01*
%TO.C,D6*%
X193180000Y-80140000D02*
X190990000Y-80140000D01*
X191280000Y-78860000D02*
X191060000Y-78860000D01*
X190990000Y-80140000D02*
X190990000Y-79570000D01*
X192890000Y-78860000D02*
X193110000Y-78860000D01*
X192040000Y-78860000D02*
X192130000Y-78860000D01*
X193180000Y-79570000D02*
X193180000Y-80140000D01*
%TO.C,R28*%
X159097500Y-84872742D02*
X159097500Y-85347258D01*
X160142500Y-84872742D02*
X160142500Y-85347258D01*
%TO.C,C4*%
X94404847Y-69260000D02*
X94189175Y-69260000D01*
X94404847Y-68540000D02*
X94189175Y-68540000D01*
%TO.C,D5*%
X174670000Y-87570000D02*
X174100000Y-87570000D01*
X175380000Y-86430000D02*
X175380000Y-86520000D01*
X174100000Y-87570000D02*
X174100000Y-85380000D01*
X175380000Y-85670000D02*
X175380000Y-85450000D01*
X175380000Y-87280000D02*
X175380000Y-87500000D01*
X174100000Y-85380000D02*
X174670000Y-85380000D01*
%TO.C,Q3*%
X142830000Y-92840000D02*
X142830000Y-92190000D01*
X139710000Y-92840000D02*
X139710000Y-94515000D01*
X139710000Y-92840000D02*
X139710000Y-92190000D01*
X142830000Y-92840000D02*
X142830000Y-93490000D01*
%TO.C,C38*%
X122675690Y-92421017D02*
X122571130Y-92232386D01*
X123305416Y-92071954D02*
X123200856Y-91883323D01*
%TO.C,C1*%
X153632164Y-101240000D02*
X153847836Y-101240000D01*
X153632164Y-101960000D02*
X153847836Y-101960000D01*
%TO.C,D7*%
X197590000Y-86810000D02*
X197590000Y-87380000D01*
X197300000Y-88090000D02*
X197520000Y-88090000D01*
X196540000Y-88090000D02*
X196450000Y-88090000D01*
X195400000Y-87380000D02*
X195400000Y-86810000D01*
X195400000Y-86810000D02*
X197590000Y-86810000D01*
X195690000Y-88090000D02*
X195470000Y-88090000D01*
%TO.C,C12*%
X120269999Y-85852832D02*
X120269999Y-85637160D01*
X119549999Y-85852832D02*
X119549999Y-85637160D01*
%TO.C,C36*%
X153947836Y-94750000D02*
X153732164Y-94750000D01*
X153947836Y-95470000D02*
X153732164Y-95470000D01*
%TO.C,C41*%
X125260001Y-65252160D02*
X125260001Y-65467832D01*
X124540001Y-65252160D02*
X124540001Y-65467832D01*
%TO.C,U2*%
X112857500Y-85290000D02*
X111057500Y-85290000D01*
X112857500Y-85290000D02*
X113657500Y-85290000D01*
X112857500Y-88410000D02*
X113657500Y-88410000D01*
X112857500Y-88410000D02*
X112057500Y-88410000D01*
%TO.C,C24*%
X195980000Y-69717836D02*
X195980000Y-69502164D01*
X195260000Y-69717836D02*
X195260000Y-69502164D01*
%TO.C,C21*%
X197467836Y-64940000D02*
X197252164Y-64940000D01*
X197467836Y-65660000D02*
X197252164Y-65660000D01*
%TO.C,C20*%
X199062164Y-77400000D02*
X199277836Y-77400000D01*
X199062164Y-76680000D02*
X199277836Y-76680000D01*
D14*
%TO.C,D1*%
X156535000Y-83310000D02*
G75*
G03*
X156535000Y-83310000I-50000J0D01*
G01*
D12*
%TO.C,C46*%
X192129856Y-59360002D02*
X191914184Y-59360002D01*
X192129856Y-58640002D02*
X191914184Y-58640002D01*
%TO.C,C45*%
X192159855Y-57330000D02*
X191944183Y-57330000D01*
X192159855Y-58050000D02*
X191944183Y-58050000D01*
%TO.C,C26*%
X191282164Y-70500000D02*
X191497836Y-70500000D01*
X191282164Y-71220000D02*
X191497836Y-71220000D01*
%TO.C,Q1*%
X100485611Y-67879500D02*
X100485611Y-66469500D01*
X98165611Y-66469500D02*
X98825611Y-66469500D01*
X99825611Y-66469500D02*
X100485611Y-66469500D01*
X98165611Y-66469500D02*
X98165611Y-68499500D01*
%TO.C,SW6*%
X187660000Y-68220000D02*
X187660000Y-70720000D01*
X187210000Y-71170000D02*
X187660000Y-70720000D01*
X182610000Y-67770000D02*
X182160000Y-68220000D01*
X182610000Y-71170000D02*
X182160000Y-70720000D01*
X187210000Y-67770000D02*
X187660000Y-68220000D01*
X182160000Y-68220000D02*
X182160000Y-70720000D01*
X185910000Y-66720000D02*
X183910000Y-66720000D01*
X185910000Y-72220000D02*
X183910000Y-72220000D01*
%TO.C,J2*%
X135740000Y-74210000D02*
X137070000Y-74210000D01*
X138340000Y-76870000D02*
X143480000Y-76870000D01*
X135740000Y-75540000D02*
X135740000Y-74210000D01*
X138340000Y-74210000D02*
X143480000Y-74210000D01*
X143480000Y-76870000D02*
X143480000Y-74210000D01*
X138340000Y-76870000D02*
X138340000Y-74210000D01*
%TO.C,L1*%
X204456267Y-69900001D02*
X204113733Y-69900001D01*
X204456267Y-68880001D02*
X204113733Y-68880001D01*
%TO.C,R9*%
X144777498Y-83002259D02*
X144777498Y-82527743D01*
X145822498Y-83002259D02*
X145822498Y-82527743D01*
%TO.C,C6*%
X112387164Y-68960000D02*
X112602836Y-68960000D01*
X112387164Y-69680000D02*
X112602836Y-69680000D01*
%TO.C,JP1*%
X109720000Y-64800000D02*
X109720000Y-64200000D01*
X110420000Y-63500000D02*
X111820000Y-63500000D01*
X111820000Y-65500000D02*
X110420000Y-65500000D01*
X112520000Y-64200000D02*
X112520000Y-64800000D01*
X109720000Y-64800000D02*
G75*
G03*
X110420000Y-65500000I699999J-1D01*
G01*
X111820000Y-65500000D02*
G75*
G03*
X112520000Y-64800000I0J700000D01*
G01*
X110420000Y-63500000D02*
G75*
G03*
X109720000Y-64200000I-1J-699999D01*
G01*
X112520000Y-64200000D02*
G75*
G03*
X111820000Y-63500000I-700000J0D01*
G01*
%TO.C,C39*%
X196220000Y-69272164D02*
X196220000Y-69487836D01*
X196940000Y-69272164D02*
X196940000Y-69487836D01*
%TO.C,C33*%
X105908748Y-81235000D02*
X106431252Y-81235000D01*
X105908748Y-79765000D02*
X106431252Y-79765000D01*
%TO.C,SW4*%
X124320000Y-74360000D02*
X124320000Y-74330000D01*
X124320000Y-76260000D02*
X124320000Y-78860000D01*
X130780000Y-74330000D02*
X130780000Y-74360000D01*
X130780000Y-76260000D02*
X130780000Y-78860000D01*
X124320000Y-80790000D02*
X130780000Y-80790000D01*
X124320000Y-74330000D02*
X130780000Y-74330000D01*
X130780000Y-80790000D02*
X130780000Y-80760000D01*
X124320000Y-80790000D02*
X124320000Y-80760000D01*
%TO.C,Q5*%
X135130000Y-92312500D02*
X135130000Y-91662500D01*
X135130000Y-92312500D02*
X135130000Y-92962500D01*
X138250000Y-92312500D02*
X138250000Y-92962500D01*
X138250000Y-92312500D02*
X138250000Y-90637500D01*
%TO.C,D2*%
X92637011Y-72010000D02*
X92637011Y-71440000D01*
X94537011Y-70730000D02*
X94757011Y-70730000D01*
X94827011Y-71440000D02*
X94827011Y-72010000D01*
X94827011Y-72010000D02*
X92637011Y-72010000D01*
X92927011Y-70730000D02*
X92707011Y-70730000D01*
X93687011Y-70730000D02*
X93777011Y-70730000D01*
%TO.C,SW3*%
X208250000Y-92260000D02*
X208220000Y-92260000D01*
X208250000Y-85800000D02*
X208250000Y-92260000D01*
X201790000Y-85800000D02*
X201820000Y-85800000D01*
X206320000Y-92260000D02*
X203720000Y-92260000D01*
X208220000Y-85800000D02*
X208250000Y-85800000D01*
X201790000Y-92260000D02*
X201820000Y-92260000D01*
X206320000Y-85800000D02*
X203720000Y-85800000D01*
X201790000Y-85800000D02*
X201790000Y-92260000D01*
%TO.C,Q4*%
X141710000Y-96780000D02*
X141710000Y-95105000D01*
X138590000Y-96780000D02*
X138590000Y-97430000D01*
X141710000Y-96780000D02*
X141710000Y-97430000D01*
X138590000Y-96780000D02*
X138590000Y-96130000D01*
D10*
%TO.C,U8*%
X194312969Y-59785000D02*
X197312969Y-59785000D01*
X195812969Y-56535000D02*
X197312969Y-56535000D01*
D12*
%TO.C,R39*%
X197042970Y-54848860D02*
X197042970Y-55156142D01*
X197802970Y-54848860D02*
X197802970Y-55156142D01*
%TO.C,C7*%
X214742164Y-70730000D02*
X214957836Y-70730000D01*
X214742164Y-70010000D02*
X214957836Y-70010000D01*
%TO.C,R14*%
X217333641Y-74040000D02*
X217026359Y-74040000D01*
X217333641Y-74800000D02*
X217026359Y-74800000D01*
%TO.C,C23*%
X195970000Y-67342164D02*
X195970000Y-67557836D01*
X195250000Y-67342164D02*
X195250000Y-67557836D01*
%TO.C,Y2*%
X153585000Y-94325000D02*
X152235000Y-94325000D01*
X153585000Y-92575000D02*
X152235000Y-92575000D01*
%TO.C,C3*%
X110570000Y-86742164D02*
X110570000Y-86957836D01*
X109850000Y-86742164D02*
X109850000Y-86957836D01*
%TO.C,R16*%
X207390000Y-72066359D02*
X207390000Y-72373641D01*
X206630000Y-72066359D02*
X206630000Y-72373641D01*
%TO.C,SW2*%
X96270000Y-83440000D02*
X96270000Y-83410000D01*
X89810000Y-76980000D02*
X96270000Y-76980000D01*
X96270000Y-78910000D02*
X96270000Y-81510000D01*
X96270000Y-76980000D02*
X96270000Y-77010000D01*
X89810000Y-83440000D02*
X96270000Y-83440000D01*
X89810000Y-78910000D02*
X89810000Y-81510000D01*
X89810000Y-77010000D02*
X89810000Y-76980000D01*
X89810000Y-83440000D02*
X89810000Y-83410000D01*
%TO.C,C27*%
X159074420Y-94370000D02*
X159355580Y-94370000D01*
X159074420Y-95390000D02*
X159355580Y-95390000D01*
%TO.C,R17*%
X217343641Y-73020000D02*
X217036359Y-73020000D01*
X217343641Y-73780000D02*
X217036359Y-73780000D01*
%TO.C,G\u002A\u002A\u002A*%
G36*
X101837456Y-77136888D02*
G01*
X101935589Y-77217279D01*
X102135885Y-77781407D01*
X101874955Y-78280071D01*
X101537465Y-78393239D01*
X101078641Y-78132644D01*
X100981580Y-78004321D01*
X100939789Y-77458732D01*
X101318292Y-77092689D01*
X101837456Y-77136888D01*
G37*
G36*
X155715213Y-82137796D02*
G01*
X156336758Y-82567874D01*
X156555092Y-83234242D01*
X156407141Y-83676712D01*
X155715113Y-84309831D01*
X154940315Y-84315106D01*
X154565934Y-84056075D01*
X154153601Y-83279065D01*
X154313691Y-82543342D01*
X154881581Y-82136916D01*
X155715213Y-82137796D01*
G37*
G36*
X190005493Y-69981341D02*
G01*
X190498581Y-70591862D01*
X190558201Y-70843760D01*
X190426822Y-71697008D01*
X189901126Y-72197750D01*
X189209730Y-72257096D01*
X188581245Y-71786154D01*
X188496307Y-71645475D01*
X188360153Y-70822363D01*
X188596803Y-70354461D01*
X189281298Y-69879688D01*
X190005493Y-69981341D01*
G37*
G36*
X177760576Y-81904279D02*
G01*
X177107755Y-81087868D01*
X176304957Y-80533918D01*
X175923071Y-80349273D01*
X174257923Y-79231810D01*
X173035850Y-77665260D01*
X172333540Y-75810635D01*
X172227684Y-73828945D01*
X172394467Y-72940885D01*
X172776732Y-71953802D01*
X177395432Y-71953802D01*
X177545781Y-73585667D01*
X177937521Y-75080368D01*
X178050653Y-75352394D01*
X178610460Y-76267096D01*
X179469712Y-77337468D01*
X180479056Y-78413564D01*
X181489138Y-79345437D01*
X182350607Y-79983142D01*
X182861137Y-80181971D01*
X183297793Y-79887702D01*
X183868159Y-79134083D01*
X184220228Y-78519629D01*
X184817536Y-77485732D01*
X185487902Y-76676603D01*
X186364850Y-76002523D01*
X187581905Y-75373776D01*
X189272591Y-74700646D01*
X190616338Y-74221978D01*
X193009679Y-73462333D01*
X194999401Y-73038749D01*
X196811836Y-72948028D01*
X198673312Y-73186972D01*
X200810159Y-73752385D01*
X201777863Y-74064299D01*
X203979682Y-74853235D01*
X205609847Y-75590142D01*
X206798895Y-76360311D01*
X207677362Y-77249036D01*
X208375786Y-78341610D01*
X208403129Y-78393239D01*
X208939690Y-79333796D01*
X209376648Y-79962115D01*
X209531368Y-80101986D01*
X209979391Y-79951120D01*
X210752445Y-79434593D01*
X211671965Y-78695000D01*
X212559388Y-77874935D01*
X213183088Y-77185867D01*
X214280851Y-75259563D01*
X214855549Y-73056796D01*
X214880125Y-70791986D01*
X214327522Y-68679554D01*
X214272164Y-68555211D01*
X213267132Y-66989655D01*
X211775920Y-65439203D01*
X210007651Y-64087721D01*
X208171450Y-63119075D01*
X208024964Y-63062537D01*
X205700989Y-62479541D01*
X203064393Y-62281297D01*
X200407264Y-62470122D01*
X198204751Y-62984627D01*
X197036744Y-63356597D01*
X196226401Y-63494261D01*
X195455669Y-63398545D01*
X194406492Y-63070373D01*
X194191388Y-62996306D01*
X191887294Y-62463895D01*
X189298515Y-62289724D01*
X186720190Y-62471815D01*
X184447459Y-63008193D01*
X184297853Y-63062537D01*
X182465338Y-63991814D01*
X180683685Y-65318936D01*
X179162017Y-66860038D01*
X178109459Y-68431253D01*
X178050653Y-68555211D01*
X177616580Y-69954708D01*
X177403740Y-71595926D01*
X177395432Y-71953802D01*
X172776732Y-71953802D01*
X173094206Y-71134021D01*
X174167894Y-69788498D01*
X175774251Y-68714677D01*
X176046801Y-68577132D01*
X177113120Y-67987288D01*
X177873327Y-67336186D01*
X178533172Y-66407038D01*
X179111448Y-65348061D01*
X180678380Y-62965547D01*
X182821306Y-60674534D01*
X185401705Y-58603917D01*
X188122278Y-56963431D01*
X190953137Y-55240814D01*
X192970240Y-53483922D01*
X193950561Y-52485422D01*
X194659920Y-51915222D01*
X195297201Y-51662017D01*
X196061289Y-51614501D01*
X196297539Y-51621800D01*
X197527306Y-51820597D01*
X198395161Y-52387943D01*
X198594342Y-52605414D01*
X200155074Y-54129373D01*
X202233033Y-55693619D01*
X204650593Y-57167827D01*
X205246009Y-57485664D01*
X207846724Y-59143188D01*
X210260503Y-61258256D01*
X212298856Y-63645896D01*
X213521485Y-65606542D01*
X214295409Y-66963611D01*
X214975293Y-67799328D01*
X215695787Y-68270301D01*
X215871700Y-68340006D01*
X217686292Y-69342914D01*
X219099002Y-70821207D01*
X220003007Y-72627090D01*
X220293582Y-74458028D01*
X219975001Y-76267826D01*
X219111943Y-78004734D01*
X217843435Y-79476949D01*
X216308501Y-80492666D01*
X215774381Y-80692813D01*
X215105200Y-81216326D01*
X214340865Y-82376579D01*
X213950282Y-83149124D01*
X213125856Y-84684877D01*
X212106682Y-86295433D01*
X211415776Y-87241909D01*
X210164539Y-88592964D01*
X208490679Y-90096723D01*
X206609501Y-91581882D01*
X204736307Y-92877138D01*
X203274980Y-93719079D01*
X200721486Y-94691428D01*
X197946858Y-95224330D01*
X195244174Y-95269288D01*
X194466901Y-95176585D01*
X192111243Y-94658942D01*
X189872905Y-93826632D01*
X187536291Y-92588322D01*
X185900102Y-91547506D01*
X183061867Y-89373068D01*
X180807548Y-86998211D01*
X179007707Y-84277784D01*
X178930530Y-84127789D01*
X182051470Y-84127789D01*
X182357272Y-86231286D01*
X183311863Y-88219476D01*
X184260016Y-89388584D01*
X184947693Y-90059252D01*
X185397979Y-90423647D01*
X185478794Y-90447215D01*
X185413171Y-90089640D01*
X185154437Y-89215467D01*
X184750567Y-87981751D01*
X184524230Y-87322293D01*
X184023524Y-85684860D01*
X183652476Y-84088768D01*
X183473583Y-82813145D01*
X183466194Y-82596760D01*
X183412253Y-81873893D01*
X184583020Y-81873893D01*
X184748592Y-83373598D01*
X185242224Y-85278231D01*
X185285670Y-85421049D01*
X185974716Y-87575183D01*
X186571403Y-89159036D01*
X187149477Y-90298274D01*
X187782682Y-91118560D01*
X188544766Y-91745559D01*
X189242046Y-92162806D01*
X190541785Y-92835650D01*
X191642996Y-93284425D01*
X192748082Y-93548959D01*
X194059449Y-93669080D01*
X195779502Y-93684617D01*
X196876901Y-93665155D01*
X198680285Y-93608854D01*
X199975286Y-93506791D01*
X200968990Y-93318763D01*
X201868485Y-93004565D01*
X202880859Y-92523995D01*
X202958592Y-92484468D01*
X204014833Y-91921823D01*
X204723189Y-91417093D01*
X205239273Y-90784718D01*
X205495662Y-90279039D01*
X207120102Y-90279039D01*
X208037949Y-89434026D01*
X208789254Y-88545818D01*
X209490513Y-87413765D01*
X209616238Y-87158028D01*
X210163138Y-85293617D01*
X210194947Y-83364660D01*
X209768695Y-81791831D01*
X209277266Y-80718591D01*
X209244218Y-82149577D01*
X209121598Y-83127256D01*
X208821019Y-84543063D01*
X208396353Y-86158232D01*
X208165636Y-86929801D01*
X207120102Y-90279039D01*
X205495662Y-90279039D01*
X205718700Y-89839138D01*
X206250786Y-88558732D01*
X206866504Y-86867694D01*
X207417988Y-85058793D01*
X207794282Y-83499117D01*
X207816833Y-83377551D01*
X208025689Y-82033573D01*
X208049173Y-81092995D01*
X207864718Y-80262490D01*
X207509510Y-79383076D01*
X207015428Y-78422213D01*
X206413133Y-77663532D01*
X205575664Y-77021956D01*
X204376059Y-76412408D01*
X202687355Y-75749812D01*
X201421232Y-75303351D01*
X199217387Y-74610810D01*
X197404092Y-74242856D01*
X195742467Y-74200321D01*
X193993633Y-74484036D01*
X191918709Y-75094834D01*
X191205653Y-75338931D01*
X189194505Y-76069110D01*
X187745437Y-76683207D01*
X186732900Y-77262865D01*
X186031344Y-77889726D01*
X185515220Y-78645432D01*
X185228020Y-79226057D01*
X184743498Y-80563313D01*
X184583020Y-81873893D01*
X183412253Y-81873893D01*
X183380655Y-81450442D01*
X183154867Y-80963051D01*
X182822660Y-81153162D01*
X182423166Y-82024088D01*
X182051470Y-84127789D01*
X178930530Y-84127789D01*
X178449096Y-83192112D01*
X177760576Y-81904279D01*
G37*
G36*
X83433588Y-69683317D02*
G01*
X84596003Y-69074835D01*
X85360547Y-68692413D01*
X86028922Y-68004629D01*
X86750074Y-66846978D01*
X86951783Y-66472959D01*
X88481322Y-64144157D01*
X90459310Y-61978143D01*
X92734228Y-60094143D01*
X95154560Y-58611382D01*
X97568789Y-57649088D01*
X98416877Y-57451255D01*
X99618166Y-57026117D01*
X99829213Y-56749577D01*
X100464225Y-56749577D01*
X100643099Y-56928450D01*
X100821972Y-56749577D01*
X100643099Y-56570704D01*
X100464225Y-56749577D01*
X99829213Y-56749577D01*
X100102233Y-56391831D01*
X104757183Y-56391831D01*
X104936056Y-56570704D01*
X105114930Y-56391831D01*
X104936056Y-56212957D01*
X104757183Y-56391831D01*
X100102233Y-56391831D01*
X100195691Y-56269371D01*
X100194269Y-56034084D01*
X100821972Y-56034084D01*
X101000845Y-56212957D01*
X101179718Y-56034084D01*
X101000845Y-55855211D01*
X103326197Y-55855211D01*
X103457091Y-56149677D01*
X103564695Y-56093708D01*
X103607510Y-55669147D01*
X103564695Y-55616713D01*
X103352015Y-55665821D01*
X103326197Y-55855211D01*
X101000845Y-55855211D01*
X100821972Y-56034084D01*
X100194269Y-56034084D01*
X100188731Y-55117559D01*
X100094611Y-54740591D01*
X100060255Y-54603098D01*
X101537465Y-54603098D01*
X101716338Y-54781971D01*
X101895211Y-54603098D01*
X103683944Y-54603098D01*
X103862817Y-54781971D01*
X104041690Y-54603098D01*
X103862817Y-54424225D01*
X105197928Y-54424225D01*
X105235226Y-55075079D01*
X105328088Y-55151784D01*
X105361533Y-55050281D01*
X105377986Y-54781971D01*
X105830423Y-54781971D01*
X105961316Y-55076437D01*
X106068920Y-55020469D01*
X106111735Y-54595908D01*
X106068920Y-54543474D01*
X105856240Y-54592582D01*
X105830423Y-54781971D01*
X105377986Y-54781971D01*
X105417170Y-54142955D01*
X105361533Y-53798169D01*
X105257841Y-53686829D01*
X105201388Y-54181500D01*
X105197928Y-54424225D01*
X103862817Y-54424225D01*
X103683944Y-54603098D01*
X101895211Y-54603098D01*
X101716338Y-54424225D01*
X101537465Y-54603098D01*
X100060255Y-54603098D01*
X99881474Y-53887605D01*
X104399437Y-53887605D01*
X104578310Y-54066478D01*
X104757183Y-53887605D01*
X104578310Y-53708732D01*
X104399437Y-53887605D01*
X99881474Y-53887605D01*
X99858676Y-53796367D01*
X99757984Y-53172112D01*
X100106479Y-53172112D01*
X100285352Y-53350985D01*
X100464225Y-53172112D01*
X100285352Y-52993239D01*
X100106479Y-53172112D01*
X99757984Y-53172112D01*
X99749611Y-53120200D01*
X99748732Y-53085037D01*
X99983837Y-52688199D01*
X100514264Y-52707489D01*
X101077684Y-53110757D01*
X101188954Y-53261549D01*
X101475016Y-53668601D01*
X101460839Y-53468897D01*
X101406238Y-53286063D01*
X101426242Y-52852743D01*
X101957625Y-52712728D01*
X102241820Y-52713545D01*
X102960353Y-52835495D01*
X103102749Y-53200954D01*
X103071533Y-53315087D01*
X103106480Y-53485486D01*
X103450445Y-53123168D01*
X103485530Y-53076691D01*
X104074168Y-52549616D01*
X104513351Y-52529033D01*
X105183750Y-52696064D01*
X105770467Y-52684426D01*
X106226383Y-52665974D01*
X106463410Y-52866430D01*
X106535680Y-53443259D01*
X106497329Y-54553927D01*
X106485960Y-54765666D01*
X106367042Y-56954771D01*
X108700656Y-57746540D01*
X111911284Y-59193191D01*
X114804355Y-61208784D01*
X117267648Y-63698309D01*
X119188938Y-66566759D01*
X119245585Y-66673992D01*
X120027928Y-67964097D01*
X120795954Y-68731326D01*
X121452570Y-69064879D01*
X122973501Y-69938068D01*
X124283655Y-71271947D01*
X125136634Y-72813144D01*
X125157475Y-72874658D01*
X125422156Y-74746588D01*
X125076064Y-76628952D01*
X124199556Y-78347076D01*
X122872992Y-79726287D01*
X121691540Y-80408385D01*
X120948236Y-80867349D01*
X120270951Y-81664625D01*
X119533903Y-82956438D01*
X119360599Y-83303458D01*
X117554211Y-86198096D01*
X115238725Y-88667638D01*
X112511470Y-90666696D01*
X109469773Y-92149880D01*
X106210964Y-93071801D01*
X102832371Y-93387070D01*
X99431322Y-93050298D01*
X98772854Y-92904559D01*
X95566246Y-91775301D01*
X92588080Y-90041785D01*
X89960239Y-87800892D01*
X87804605Y-85149507D01*
X86769084Y-83362881D01*
X86029549Y-81983289D01*
X85374644Y-81079916D01*
X84638765Y-80458672D01*
X83965327Y-80076856D01*
X82300024Y-78918995D01*
X81258584Y-77421854D01*
X80811108Y-75536889D01*
X80788169Y-74918224D01*
X80861294Y-73663964D01*
X81048024Y-72599428D01*
X81189627Y-72198593D01*
X81793457Y-71339724D01*
X85536956Y-71339724D01*
X85599688Y-73502513D01*
X86254181Y-75619096D01*
X87458195Y-77549499D01*
X89068357Y-79080370D01*
X90730235Y-80304122D01*
X90207117Y-81763469D01*
X89820702Y-83806053D01*
X90145783Y-85786409D01*
X91180648Y-87699475D01*
X92797495Y-89430487D01*
X95058655Y-90972336D01*
X97760795Y-92069656D01*
X100764234Y-92695963D01*
X103929289Y-92824776D01*
X107116280Y-92429611D01*
X107792037Y-92273367D01*
X110276972Y-91392123D01*
X112401526Y-90133413D01*
X114105779Y-88579596D01*
X115329808Y-86813034D01*
X116013693Y-84916089D01*
X116097512Y-82971121D01*
X115686618Y-81422386D01*
X115379622Y-80594007D01*
X115436887Y-80141756D01*
X115935118Y-79786594D01*
X116170133Y-79663419D01*
X117020644Y-79073020D01*
X117986194Y-78194440D01*
X118343197Y-77811475D01*
X119715440Y-75781007D01*
X120416132Y-73649902D01*
X120465729Y-71499336D01*
X119884687Y-69410482D01*
X118693464Y-67464516D01*
X116912515Y-65742610D01*
X114998822Y-64540569D01*
X112943672Y-63799903D01*
X110529387Y-63421960D01*
X108021778Y-63421075D01*
X105686653Y-63811581D01*
X105065923Y-64004924D01*
X103909842Y-64390372D01*
X103108229Y-64534003D01*
X102343590Y-64439757D01*
X101298429Y-64111577D01*
X101130712Y-64053772D01*
X98677528Y-63502202D01*
X96000781Y-63392777D01*
X93404716Y-63722898D01*
X92010212Y-64131679D01*
X90078339Y-65109523D01*
X88287050Y-66476633D01*
X86842390Y-68053599D01*
X86108221Y-69270704D01*
X85536956Y-71339724D01*
X81793457Y-71339724D01*
X82158831Y-70820027D01*
X83433588Y-69683317D01*
G37*
G36*
X191939193Y-82616218D02*
G01*
X193112908Y-82748362D01*
X194759600Y-82829979D01*
X196638406Y-82859166D01*
X198508465Y-82834023D01*
X200128913Y-82752647D01*
X200803167Y-82686197D01*
X201767986Y-82631969D01*
X202228200Y-82822680D01*
X202340913Y-83087125D01*
X202132959Y-83646865D01*
X201634366Y-83909399D01*
X200668325Y-84079258D01*
X199201127Y-84205787D01*
X197446054Y-84284464D01*
X195616391Y-84310765D01*
X193925419Y-84280167D01*
X192586421Y-84188147D01*
X192087357Y-84111867D01*
X190961354Y-83845835D01*
X190402293Y-83597921D01*
X190271169Y-83269768D01*
X190374575Y-82899957D01*
X190701776Y-82566222D01*
X191425862Y-82537279D01*
X191939193Y-82616218D01*
G37*
G36*
X95738814Y-85921915D02*
G01*
X96643152Y-86497253D01*
X97211315Y-86878571D01*
X98235253Y-87442876D01*
X99599908Y-88034722D01*
X100609907Y-88394337D01*
X101767479Y-88767443D01*
X102295822Y-88975228D01*
X102248062Y-89067602D01*
X101677325Y-89094472D01*
X101358592Y-89097683D01*
X100076659Y-88944297D01*
X98735859Y-88549998D01*
X98496620Y-88447395D01*
X97291018Y-87721689D01*
X96160057Y-86785329D01*
X95992394Y-86611190D01*
X95453421Y-85987654D01*
X95355565Y-85754972D01*
X95738814Y-85921915D01*
G37*
G36*
X142341000Y-82057114D02*
G01*
X142862347Y-82499836D01*
X142990094Y-83206847D01*
X142786336Y-83718625D01*
X142116867Y-84320430D01*
X141395991Y-84290277D01*
X140888890Y-83758151D01*
X140665392Y-83002536D01*
X140908556Y-82484456D01*
X141623816Y-82008661D01*
X142341000Y-82057114D01*
G37*
G36*
X122523362Y-88590219D02*
G01*
X122475986Y-87124067D01*
X122475977Y-86627777D01*
X122712826Y-83843975D01*
X123451867Y-81459002D01*
X124766806Y-79298685D01*
X126294879Y-77603475D01*
X128189577Y-75754725D01*
X128378299Y-78057785D01*
X128452821Y-78610852D01*
X128526987Y-78452933D01*
X128600413Y-77588538D01*
X128672719Y-76022172D01*
X128684882Y-75633268D01*
X132241410Y-75633268D01*
X134593212Y-73281466D01*
X136991020Y-71205099D01*
X139649175Y-69577388D01*
X139853088Y-69474128D01*
X141197798Y-68827079D01*
X142334186Y-68327850D01*
X143088197Y-68050881D01*
X143256355Y-68018591D01*
X143700662Y-67733577D01*
X143701849Y-67728348D01*
X153640157Y-67728348D01*
X156476839Y-69074486D01*
X158990423Y-70437606D01*
X161198640Y-71968715D01*
X162953448Y-73555989D01*
X163819199Y-74620627D01*
X164364331Y-75393946D01*
X164715831Y-75841934D01*
X164769155Y-75886569D01*
X164804402Y-75553398D01*
X164833105Y-74646022D01*
X164852184Y-73305719D01*
X164858592Y-71784116D01*
X164858592Y-67679219D01*
X163695915Y-67066036D01*
X162418974Y-66650338D01*
X160469796Y-66389076D01*
X159313521Y-66320309D01*
X157698750Y-66276275D01*
X156595985Y-66322913D01*
X155804423Y-66489022D01*
X155123256Y-66803405D01*
X154866980Y-66958056D01*
X153640157Y-67728348D01*
X143701849Y-67728348D01*
X143751549Y-67509420D01*
X144043618Y-66728441D01*
X144815824Y-65776407D01*
X145912163Y-64809767D01*
X147176636Y-63984968D01*
X147363722Y-63886919D01*
X148627366Y-63284347D01*
X149286805Y-63063378D01*
X149341714Y-63224027D01*
X148791767Y-63766307D01*
X148719557Y-63827936D01*
X147840540Y-64726899D01*
X147111015Y-65693239D01*
X146437283Y-66766478D01*
X147646412Y-65765576D01*
X149912743Y-64251493D01*
X152331107Y-63377448D01*
X153350415Y-63193946D01*
X154946684Y-63082629D01*
X156618085Y-63136227D01*
X158139370Y-63331753D01*
X159285293Y-63646223D01*
X159640213Y-63835813D01*
X159799861Y-64042935D01*
X159508953Y-64154834D01*
X158678368Y-64183356D01*
X157318602Y-64144436D01*
X155338467Y-64138985D01*
X153866560Y-64346948D01*
X152712889Y-64825464D01*
X151687464Y-65631675D01*
X151395690Y-65925765D01*
X150369859Y-67000671D01*
X152327697Y-66019804D01*
X154881845Y-65126144D01*
X157669205Y-64841136D01*
X160532170Y-65174106D01*
X161623518Y-65469781D01*
X162801026Y-65818746D01*
X163677495Y-66033884D01*
X164065200Y-66069195D01*
X164066117Y-66068342D01*
X163956192Y-65721232D01*
X163428579Y-65061809D01*
X162622516Y-64226941D01*
X161677243Y-63353496D01*
X160731999Y-62578340D01*
X160021069Y-62092205D01*
X158917202Y-61525462D01*
X157446231Y-60873915D01*
X155920884Y-60275833D01*
X155877062Y-60259985D01*
X154633643Y-59842703D01*
X153519530Y-59565419D01*
X152326019Y-59399634D01*
X150844410Y-59316848D01*
X148866001Y-59288561D01*
X148760000Y-59288105D01*
X146755636Y-59298117D01*
X145247943Y-59365838D01*
X144018695Y-59519711D01*
X142849670Y-59788182D01*
X141522643Y-60199693D01*
X141367185Y-60251709D01*
X138364823Y-61495895D01*
X135963852Y-63024950D01*
X134089908Y-64888619D01*
X133734648Y-65357269D01*
X133204357Y-66117138D01*
X132845887Y-66760384D01*
X132620561Y-67456302D01*
X132489703Y-68374183D01*
X132414636Y-69683320D01*
X132361973Y-71365657D01*
X132241410Y-75633268D01*
X128684882Y-75633268D01*
X128743522Y-73758345D01*
X128743945Y-73742535D01*
X128817125Y-71328111D01*
X128899008Y-69505258D01*
X129003774Y-68150076D01*
X129145602Y-67138664D01*
X129338672Y-66347121D01*
X129597163Y-65651547D01*
X129695146Y-65430891D01*
X131067723Y-63057734D01*
X132877268Y-61055793D01*
X135200101Y-59362486D01*
X138112543Y-57915229D01*
X139531595Y-57365105D01*
X143574569Y-56184932D01*
X147445564Y-55657345D01*
X151257721Y-55778699D01*
X155124178Y-56545348D01*
X156093803Y-56831537D01*
X159548967Y-58098252D01*
X162370285Y-59552356D01*
X164625454Y-61240659D01*
X166382175Y-63209969D01*
X167209047Y-64516825D01*
X167565534Y-65177629D01*
X167832872Y-65771332D01*
X168026783Y-66415020D01*
X168162988Y-67225781D01*
X168257207Y-68320699D01*
X168325163Y-69816863D01*
X168382577Y-71831357D01*
X168423773Y-73563662D01*
X168488217Y-75927291D01*
X168555224Y-77602157D01*
X168624307Y-78581902D01*
X168694983Y-78860169D01*
X168766767Y-78430599D01*
X168781519Y-78255251D01*
X168972676Y-75791911D01*
X170832827Y-77467274D01*
X172689909Y-79495417D01*
X173933563Y-81733545D01*
X174624825Y-84313710D01*
X174798093Y-86046065D01*
X174745270Y-88679548D01*
X174244280Y-90908597D01*
X173221317Y-92922168D01*
X171602575Y-94909217D01*
X171159644Y-95361101D01*
X168974336Y-97532676D01*
X168768369Y-95028450D01*
X168562403Y-92524225D01*
X168499230Y-94939014D01*
X168436056Y-97353802D01*
X166899709Y-97353802D01*
X166022452Y-97400434D01*
X165386058Y-97630153D01*
X164774652Y-98177700D01*
X163972356Y-99177811D01*
X163967863Y-99183701D01*
X161607356Y-101706008D01*
X158794584Y-103742352D01*
X155634278Y-105255866D01*
X152231165Y-106209683D01*
X148689975Y-106566936D01*
X145115438Y-106290759D01*
X144253039Y-106123696D01*
X141248663Y-105163954D01*
X138317293Y-103662281D01*
X135657948Y-101743573D01*
X133469648Y-99532729D01*
X133194390Y-99183701D01*
X132390709Y-98181182D01*
X131778916Y-97631852D01*
X131143135Y-97400971D01*
X130267490Y-97353803D01*
X130262544Y-97353802D01*
X128726197Y-97353802D01*
X128664451Y-95117887D01*
X128602704Y-92881971D01*
X128396141Y-95155362D01*
X128189577Y-97428753D01*
X126503428Y-95941460D01*
X124994003Y-94272081D01*
X123705124Y-92192234D01*
X123641456Y-92064579D01*
X123044146Y-90771482D01*
X122947072Y-90478702D01*
X132287823Y-90478702D01*
X133840350Y-91507054D01*
X134737462Y-92130461D01*
X135138801Y-92572887D01*
X135151401Y-93038780D01*
X134937645Y-93603055D01*
X134645851Y-94653913D01*
X134484651Y-95943289D01*
X134474133Y-96280563D01*
X134806867Y-98479157D01*
X135808097Y-100493378D01*
X137447191Y-102290999D01*
X139693517Y-103839797D01*
X142516443Y-105107546D01*
X143036056Y-105287656D01*
X144801711Y-105673050D01*
X147015745Y-105858377D01*
X149441772Y-105851002D01*
X151843408Y-105658290D01*
X153984267Y-105287607D01*
X155251246Y-104907068D01*
X157972095Y-103570161D01*
X160102719Y-101897492D01*
X161616840Y-99914520D01*
X162407604Y-97973925D01*
X162645476Y-96563245D01*
X162536159Y-95159815D01*
X162051440Y-93496737D01*
X161888285Y-93060845D01*
X162042892Y-92479204D01*
X162854099Y-91683034D01*
X163180636Y-91436223D01*
X164679718Y-90348221D01*
X164777412Y-84236167D01*
X164875107Y-78124113D01*
X163644058Y-77043237D01*
X161710612Y-75773487D01*
X159343982Y-74887859D01*
X156731216Y-74413766D01*
X154059362Y-74378617D01*
X151515468Y-74809823D01*
X150558508Y-75125614D01*
X148600678Y-75880811D01*
X146623297Y-75130673D01*
X144715861Y-74634478D01*
X142449779Y-74385832D01*
X140142583Y-74398368D01*
X138111803Y-74685721D01*
X137848732Y-74753907D01*
X136743690Y-75165242D01*
X135391831Y-75807712D01*
X134450141Y-76329533D01*
X132482535Y-77505393D01*
X132385179Y-83992048D01*
X132287823Y-90478702D01*
X122947072Y-90478702D01*
X122692098Y-89709692D01*
X122523362Y-88590219D01*
G37*
G36*
X198786108Y-86101805D02*
G01*
X200565627Y-86155024D01*
X201727267Y-86247703D01*
X202319455Y-86383098D01*
X202421972Y-86493697D01*
X202132210Y-86950962D01*
X201795915Y-87146310D01*
X201149994Y-87267365D01*
X199978917Y-87376770D01*
X198473009Y-87467478D01*
X196822594Y-87532438D01*
X195217995Y-87564601D01*
X193849536Y-87556918D01*
X192907539Y-87502340D01*
X192762817Y-87480883D01*
X191433693Y-87214729D01*
X190669422Y-86993548D01*
X190326359Y-86762519D01*
X190258592Y-86525156D01*
X190445743Y-86354352D01*
X191055087Y-86230122D01*
X192158455Y-86147265D01*
X193827681Y-86100579D01*
X196134598Y-86084864D01*
X196340282Y-86084788D01*
X198786108Y-86101805D01*
G37*
G36*
X78421286Y-71865399D02*
G01*
X79469839Y-70169595D01*
X81134870Y-68322474D01*
X81265084Y-68194384D01*
X82629463Y-66779296D01*
X84025874Y-65198449D01*
X85213462Y-63728248D01*
X85523641Y-63307243D01*
X86543051Y-61977664D01*
X87637672Y-60709028D01*
X88583482Y-59759725D01*
X88647845Y-59703743D01*
X89495779Y-59082605D01*
X90696483Y-58331943D01*
X92076209Y-57545151D01*
X93461206Y-56815621D01*
X94677723Y-56236747D01*
X95552010Y-55901922D01*
X95807730Y-55855211D01*
X96035065Y-55747334D01*
X96228730Y-55337536D01*
X96427235Y-54496565D01*
X96669089Y-53095171D01*
X96713741Y-52814366D01*
X97071851Y-51386256D01*
X97689545Y-50345042D01*
X98657158Y-49645342D01*
X100065021Y-49241774D01*
X102003469Y-49088958D01*
X104068400Y-49119573D01*
X105710912Y-49198923D01*
X106814311Y-49308713D01*
X107554823Y-49494030D01*
X108108677Y-49799962D01*
X108652102Y-50271596D01*
X108681652Y-50299848D01*
X109366261Y-51105016D01*
X109741368Y-51836405D01*
X109765634Y-51998421D01*
X109954975Y-52997974D01*
X110424165Y-54183423D01*
X111024951Y-55230272D01*
X111468725Y-55726178D01*
X112080252Y-56136208D01*
X113104012Y-56762732D01*
X114326469Y-57475334D01*
X114416338Y-57526417D01*
X116907332Y-59224298D01*
X118977710Y-61214255D01*
X120487553Y-63359246D01*
X120610569Y-63593186D01*
X121256565Y-64663049D01*
X122009775Y-65324978D01*
X123165974Y-65836353D01*
X123203976Y-65849924D01*
X124321174Y-66253425D01*
X125211440Y-66585337D01*
X125506479Y-66701435D01*
X125864731Y-66632812D01*
X126321781Y-66102275D01*
X126933836Y-65031355D01*
X127453310Y-63983520D01*
X129321542Y-60891271D01*
X131727370Y-58230842D01*
X134592552Y-56083063D01*
X135704224Y-55459767D01*
X137919605Y-54439737D01*
X140123651Y-53707946D01*
X142527753Y-53213299D01*
X145343300Y-52904703D01*
X146613521Y-52822925D01*
X148475054Y-52738419D01*
X149912810Y-52738604D01*
X151186446Y-52849801D01*
X152555621Y-53098332D01*
X154279989Y-53510520D01*
X154863315Y-53659226D01*
X158970074Y-54970687D01*
X162546046Y-56680463D01*
X165687283Y-58841900D01*
X167944452Y-60924439D01*
X169166752Y-62373724D01*
X170089679Y-63940308D01*
X170846186Y-65870524D01*
X171151183Y-66865888D01*
X171438048Y-67038076D01*
X172125302Y-66753443D01*
X172632177Y-66440481D01*
X173702780Y-65830030D01*
X174715538Y-65391754D01*
X174950310Y-65322155D01*
X175829765Y-64833278D01*
X176583099Y-63966015D01*
X176587370Y-63958830D01*
X178411155Y-61340340D01*
X180634352Y-59024525D01*
X183362484Y-56917010D01*
X186673966Y-54937934D01*
X187837523Y-54200762D01*
X189255472Y-53137457D01*
X190683872Y-51935302D01*
X191187354Y-51472816D01*
X193740298Y-49058028D01*
X196081728Y-49058028D01*
X197391769Y-49088863D01*
X198216277Y-49228616D01*
X198784196Y-49548158D01*
X199259889Y-50041831D01*
X201163329Y-51880878D01*
X203495716Y-53514361D01*
X205641690Y-54605020D01*
X207152330Y-55318809D01*
X208681895Y-56172810D01*
X209655286Y-56811081D01*
X210700463Y-57714848D01*
X211980713Y-59022694D01*
X213336497Y-60549012D01*
X214608275Y-62108198D01*
X215636508Y-63514645D01*
X216167177Y-64386913D01*
X216742168Y-65112759D01*
X217696763Y-65964152D01*
X218467371Y-66518458D01*
X219981852Y-67687583D01*
X221327398Y-69065810D01*
X222313429Y-70444168D01*
X222608792Y-71059436D01*
X222759602Y-71885428D01*
X222830192Y-73197751D01*
X222827161Y-74772530D01*
X222757110Y-76385890D01*
X222626639Y-77813957D01*
X222442347Y-78832856D01*
X222373686Y-79034506D01*
X221833583Y-79995442D01*
X221099027Y-80936853D01*
X220347942Y-81660888D01*
X219758254Y-81969697D01*
X219733193Y-81970704D01*
X219038488Y-82243537D01*
X218164945Y-82935334D01*
X217309267Y-83856043D01*
X216668152Y-84815610D01*
X216569265Y-85027699D01*
X215755794Y-86489820D01*
X214496056Y-88177541D01*
X212925376Y-89957653D01*
X211179079Y-91696945D01*
X209392491Y-93262208D01*
X207700936Y-94520232D01*
X206239740Y-95337807D01*
X205999437Y-95432319D01*
X204608075Y-95964456D01*
X203135845Y-96573579D01*
X202779718Y-96729767D01*
X201947343Y-97049916D01*
X201054109Y-97254842D01*
X199924607Y-97364123D01*
X198383427Y-97397336D01*
X196909259Y-97384974D01*
X194911813Y-97332050D01*
X193357715Y-97213279D01*
X191975162Y-96984904D01*
X190492351Y-96603170D01*
X188815442Y-96081977D01*
X186559752Y-95298784D01*
X184786119Y-94525674D01*
X183274525Y-93634823D01*
X181804952Y-92498404D01*
X180325285Y-91149398D01*
X179341964Y-90256729D01*
X178528843Y-89601631D01*
X178043075Y-89309345D01*
X178010304Y-89304507D01*
X177699952Y-89612155D01*
X177235393Y-90423641D01*
X176710721Y-91571772D01*
X176647334Y-91726339D01*
X175412433Y-94218526D01*
X173906944Y-96353316D01*
X172216488Y-98050451D01*
X170426680Y-99229671D01*
X168623141Y-99810717D01*
X167972727Y-99858028D01*
X166817685Y-100183663D01*
X165941322Y-100841831D01*
X163275427Y-103317441D01*
X160793247Y-105252345D01*
X158354463Y-106743749D01*
X155818757Y-107888859D01*
X155708751Y-107930559D01*
X154527617Y-108333782D01*
X153423884Y-108589301D01*
X152176310Y-108726605D01*
X150563654Y-108775180D01*
X149377889Y-108774346D01*
X146697472Y-108678313D01*
X144549928Y-108418698D01*
X143091400Y-108077365D01*
X140467491Y-107130803D01*
X137906522Y-105892559D01*
X135586020Y-104467203D01*
X133683511Y-102959306D01*
X132762110Y-101992970D01*
X131595111Y-101110902D01*
X130458632Y-100784887D01*
X127928635Y-100025452D01*
X125572949Y-98613820D01*
X123454374Y-96604545D01*
X121635709Y-94052179D01*
X120743461Y-92345352D01*
X120201406Y-91186935D01*
X119782558Y-90313194D01*
X119570939Y-89899157D01*
X119565025Y-89890546D01*
X119255469Y-90019807D01*
X118563444Y-90489236D01*
X117923973Y-90974748D01*
X115462837Y-92783679D01*
X113194516Y-94193275D01*
X111229935Y-95136922D01*
X110660000Y-95336956D01*
X108372424Y-95891038D01*
X105740790Y-96275697D01*
X102970411Y-96482445D01*
X100266599Y-96502795D01*
X97834669Y-96328259D01*
X95879933Y-95950348D01*
X95872812Y-95948259D01*
X94222561Y-95279514D01*
X92278457Y-94199684D01*
X90227101Y-92827872D01*
X88255094Y-91283177D01*
X87459415Y-90578308D01*
X86534643Y-89502390D01*
X85531542Y-87989583D01*
X84588896Y-86284755D01*
X83845486Y-84632776D01*
X83511104Y-83611917D01*
X83039615Y-82753903D01*
X82261442Y-82048721D01*
X80700975Y-80738260D01*
X79368791Y-78913345D01*
X78605205Y-77310596D01*
X78025899Y-75309332D01*
X77970085Y-73965186D01*
X79783424Y-73965186D01*
X79971401Y-75878120D01*
X80586590Y-77567282D01*
X81595947Y-79204802D01*
X82925538Y-80355094D01*
X83846095Y-81027576D01*
X84489534Y-81665178D01*
X84631016Y-81896543D01*
X85092215Y-82698795D01*
X85329419Y-82980060D01*
X85719501Y-83714420D01*
X85804477Y-84232173D01*
X86005065Y-85224526D01*
X86506958Y-86516440D01*
X87183073Y-87834400D01*
X87906327Y-88904894D01*
X88054740Y-89075286D01*
X88885006Y-89808531D01*
X90160309Y-90750537D01*
X91692176Y-91777504D01*
X93292137Y-92765630D01*
X94771720Y-93591113D01*
X95402874Y-93902052D01*
X96161911Y-94215738D01*
X96944830Y-94430072D01*
X97905547Y-94562210D01*
X99197976Y-94629308D01*
X100976032Y-94648521D01*
X102074084Y-94645638D01*
X104865419Y-94582478D01*
X107178033Y-94385169D01*
X109177207Y-93995637D01*
X111028225Y-93355808D01*
X112896366Y-92407608D01*
X114946914Y-91092964D01*
X117345149Y-89353800D01*
X117529772Y-89215070D01*
X118592216Y-88458629D01*
X119466472Y-87914154D01*
X119969781Y-87695042D01*
X119980135Y-87694647D01*
X120466514Y-87857929D01*
X120936981Y-88418665D01*
X121460421Y-89483192D01*
X121952819Y-90739837D01*
X123248782Y-93549219D01*
X124863946Y-95753128D01*
X126869461Y-97417209D01*
X129336472Y-98607107D01*
X131024898Y-99110282D01*
X132430115Y-99621719D01*
X133591846Y-100494825D01*
X134107928Y-101041664D01*
X135427213Y-102252026D01*
X137230454Y-103514392D01*
X139307756Y-104706114D01*
X141449226Y-105704542D01*
X143083310Y-106286351D01*
X145158868Y-106725369D01*
X147572444Y-106964116D01*
X150085819Y-107001861D01*
X152460773Y-106837875D01*
X154459089Y-106471427D01*
X154947250Y-106322688D01*
X156824173Y-105558914D01*
X158711411Y-104591655D01*
X160337320Y-103568515D01*
X161062498Y-102999779D01*
X161688279Y-102441230D01*
X162653657Y-101573305D01*
X163768211Y-100567268D01*
X163964225Y-100389938D01*
X165576281Y-99089346D01*
X166901050Y-98355820D01*
X167362817Y-98224383D01*
X169341178Y-97739333D01*
X170840132Y-97023979D01*
X172086508Y-95962751D01*
X172330028Y-95693571D01*
X172961593Y-94940013D01*
X173494256Y-94205627D01*
X174009643Y-93345865D01*
X174589378Y-92216175D01*
X175315088Y-90672009D01*
X175932384Y-89314163D01*
X176523199Y-88084807D01*
X177052790Y-87120438D01*
X177419962Y-86602911D01*
X177457540Y-86573311D01*
X177864208Y-86711638D01*
X178653345Y-87298170D01*
X179725488Y-88252276D01*
X180681300Y-89186680D01*
X182395479Y-90808577D01*
X184040099Y-92078167D01*
X185792791Y-93091815D01*
X187831185Y-93945885D01*
X190332911Y-94736741D01*
X191501109Y-95056435D01*
X194876217Y-95721619D01*
X198029231Y-95887314D01*
X200857182Y-95555202D01*
X202958592Y-94869160D01*
X204940298Y-93951659D01*
X206431703Y-93199694D01*
X207604154Y-92506487D01*
X208628996Y-91765262D01*
X209677575Y-90869241D01*
X210307305Y-90289688D01*
X211411478Y-89152309D01*
X212565587Y-87788064D01*
X213667702Y-86339996D01*
X214615893Y-84951146D01*
X215308232Y-83764554D01*
X215642788Y-82923263D01*
X215658592Y-82780030D01*
X215943148Y-82405445D01*
X216688912Y-81808733D01*
X217727149Y-81123673D01*
X219501354Y-79812572D01*
X220644620Y-78355513D01*
X221241498Y-76607264D01*
X221382535Y-74845012D01*
X221162191Y-72506788D01*
X220454115Y-70628640D01*
X219187741Y-69094674D01*
X217292503Y-67788999D01*
X216986107Y-67624681D01*
X215931197Y-66879410D01*
X215064084Y-65947519D01*
X214946901Y-65768245D01*
X212851439Y-62612439D01*
X210656574Y-60067715D01*
X208255174Y-58029702D01*
X205540106Y-56394030D01*
X205104324Y-56179404D01*
X202322342Y-54556893D01*
X200286968Y-52825985D01*
X199282936Y-51831419D01*
X198559659Y-51242454D01*
X197897954Y-50952843D01*
X197078639Y-50856334D01*
X196204013Y-50846760D01*
X195147172Y-50865960D01*
X194387984Y-50989683D01*
X193721292Y-51317115D01*
X192941941Y-51947440D01*
X191898834Y-52928150D01*
X190682523Y-53968723D01*
X189064510Y-55184202D01*
X187272876Y-56409930D01*
X185828467Y-57310545D01*
X183234835Y-58988698D01*
X181183637Y-60675899D01*
X179516262Y-62524246D01*
X178074096Y-64685840D01*
X177994943Y-64822425D01*
X176874841Y-66110968D01*
X175695944Y-66777526D01*
X174511572Y-67345180D01*
X173126906Y-68119595D01*
X172295954Y-68637775D01*
X171265582Y-69293521D01*
X170650696Y-69583833D01*
X170279823Y-69552437D01*
X169981491Y-69243058D01*
X169972160Y-69230337D01*
X169588944Y-68439072D01*
X169509296Y-67991297D01*
X169407494Y-67323169D01*
X169145993Y-66256572D01*
X168916491Y-65466011D01*
X168066213Y-63713782D01*
X166625226Y-61897943D01*
X164697448Y-60126403D01*
X162386800Y-58507073D01*
X161982622Y-58265882D01*
X158718579Y-56611196D01*
X155439534Y-55484845D01*
X151953675Y-54837933D01*
X148069187Y-54621562D01*
X147686761Y-54621563D01*
X144893287Y-54692650D01*
X142602611Y-54907521D01*
X140609464Y-55307154D01*
X138708574Y-55932528D01*
X136725041Y-56809883D01*
X134060870Y-58408245D01*
X131797041Y-60453945D01*
X129873889Y-63017817D01*
X128231745Y-66170694D01*
X127652809Y-67579886D01*
X127116325Y-68635094D01*
X126476224Y-69077161D01*
X125599654Y-68937666D01*
X124485668Y-68332688D01*
X123211905Y-67680468D01*
X122019689Y-67330889D01*
X121685251Y-67303098D01*
X121036549Y-67249695D01*
X120555812Y-66994734D01*
X120097327Y-66396086D01*
X119515377Y-65311622D01*
X119392915Y-65067183D01*
X118402232Y-63303613D01*
X117298724Y-61865979D01*
X115919025Y-60588001D01*
X114099771Y-59303404D01*
X113149156Y-58712116D01*
X111482923Y-57671199D01*
X110319384Y-56828692D01*
X109530763Y-56044716D01*
X108989286Y-55179390D01*
X108567176Y-54092836D01*
X108381706Y-53493024D01*
X108009276Y-52408446D01*
X107561165Y-51673406D01*
X106898483Y-51216786D01*
X105882341Y-50967466D01*
X104373847Y-50854326D01*
X103165505Y-50822047D01*
X101282069Y-50835698D01*
X99981119Y-51024212D01*
X99134291Y-51481076D01*
X98613220Y-52299775D01*
X98289541Y-53573797D01*
X98153203Y-54472461D01*
X97836924Y-55786778D01*
X97207086Y-56693413D01*
X96098574Y-57387515D01*
X95455775Y-57660548D01*
X92059750Y-59342316D01*
X89156219Y-61514372D01*
X86781797Y-64147639D01*
X86171612Y-65033294D01*
X85415962Y-66027522D01*
X84340154Y-67229315D01*
X83171434Y-68385491D01*
X83122623Y-68430265D01*
X81337636Y-70318360D01*
X80231703Y-72137633D01*
X79783424Y-73965186D01*
X77970085Y-73965186D01*
X77952283Y-73536456D01*
X78421286Y-71865399D01*
G37*
G36*
X104904303Y-77491085D02*
G01*
X104936056Y-77677746D01*
X104653945Y-78214908D01*
X104488873Y-78303802D01*
X104129822Y-78137765D01*
X104041690Y-77677746D01*
X104206529Y-77110337D01*
X104488873Y-77051690D01*
X104904303Y-77491085D01*
G37*
G36*
X192058568Y-79465059D02*
G01*
X193248614Y-79555397D01*
X194808768Y-79619306D01*
X196340282Y-79642512D01*
X197930352Y-79617630D01*
X199483188Y-79552523D01*
X200621995Y-79465059D01*
X201652926Y-79404322D01*
X202169119Y-79550412D01*
X202339828Y-79873709D01*
X202099119Y-80305663D01*
X201272143Y-80663584D01*
X199985411Y-80935706D01*
X198365434Y-81110264D01*
X196538723Y-81175494D01*
X194631790Y-81119630D01*
X192771145Y-80930907D01*
X192116408Y-80824439D01*
X190983559Y-80566103D01*
X190433947Y-80279607D01*
X190336503Y-79895542D01*
X190338920Y-79883135D01*
X190554257Y-79519368D01*
X191119339Y-79401045D01*
X192058568Y-79465059D01*
G37*
G36*
X150633755Y-89534637D02*
G01*
X150727606Y-89816213D01*
X150479950Y-90348722D01*
X149966473Y-90469868D01*
X149721444Y-90325575D01*
X149463020Y-89753185D01*
X149664340Y-89285039D01*
X150101549Y-89193738D01*
X150633755Y-89534637D01*
G37*
G36*
X91469518Y-69199203D02*
G01*
X92600745Y-69272886D01*
X94084120Y-69407505D01*
X96015640Y-69610368D01*
X98491304Y-69888783D01*
X100691110Y-70143210D01*
X102629717Y-70290893D01*
X104597328Y-70257548D01*
X106889372Y-70035079D01*
X107488293Y-69957013D01*
X109470791Y-69733716D01*
X111615614Y-69566210D01*
X113765056Y-69458956D01*
X115761414Y-69416419D01*
X117446984Y-69443062D01*
X118664061Y-69543349D01*
X119069488Y-69629227D01*
X119559276Y-70131279D01*
X119797676Y-71134315D01*
X119788774Y-72470990D01*
X119536654Y-73973957D01*
X119045400Y-75475873D01*
X118919869Y-75759136D01*
X118346929Y-76860274D01*
X117755519Y-77525085D01*
X116883774Y-77990062D01*
X116150828Y-78259886D01*
X113959938Y-78757160D01*
X111182724Y-78926315D01*
X111144742Y-78926382D01*
X109416453Y-78885651D01*
X108189910Y-78683972D01*
X107272415Y-78209012D01*
X106471274Y-77348434D01*
X105593791Y-75989906D01*
X105324893Y-75533614D01*
X104630974Y-74429522D01*
X104083600Y-73829804D01*
X103523562Y-73591958D01*
X103123943Y-73563662D01*
X102512587Y-73650529D01*
X101970292Y-73996750D01*
X101353891Y-74730752D01*
X100643099Y-75789120D01*
X99648491Y-77148631D01*
X98671138Y-78158165D01*
X98084807Y-78561655D01*
X96791358Y-78927355D01*
X95040955Y-79061347D01*
X93053962Y-78962507D01*
X91050745Y-78629712D01*
X90917955Y-78598195D01*
X89659910Y-78222095D01*
X88554594Y-77773453D01*
X88159586Y-77556416D01*
X87425301Y-76727630D01*
X86804180Y-75378335D01*
X86360822Y-73701864D01*
X86159827Y-71891551D01*
X86154366Y-71555232D01*
X86178339Y-70641188D01*
X86343110Y-70061155D01*
X86787957Y-69711639D01*
X87652158Y-69489143D01*
X89074989Y-69290172D01*
X89228740Y-69270700D01*
X89879513Y-69205418D01*
X90594440Y-69179149D01*
X91469518Y-69199203D01*
G37*
G36*
X203314765Y-69990384D02*
G01*
X203785197Y-70301736D01*
X204172600Y-70919328D01*
X203987422Y-71513332D01*
X203296681Y-72145592D01*
X202530942Y-72146400D01*
X202080740Y-71794828D01*
X201782542Y-71037534D01*
X202012014Y-70376439D01*
X202584356Y-69973427D01*
X203314765Y-69990384D01*
G37*
G36*
X147607270Y-89398669D02*
G01*
X147623555Y-89722045D01*
X147292580Y-90318350D01*
X146784496Y-90471711D01*
X146446319Y-90217757D01*
X146387483Y-89603615D01*
X146857261Y-89181801D01*
X147197485Y-89125633D01*
X147607270Y-89398669D01*
G37*
G36*
X140851936Y-98529469D02*
G01*
X142407616Y-99658963D01*
X144152384Y-100557071D01*
X146255775Y-101331084D01*
X148223380Y-101966029D01*
X146792394Y-101954519D01*
X145584506Y-101871329D01*
X144506037Y-101682686D01*
X144392402Y-101650907D01*
X142783478Y-100874748D01*
X141264211Y-99631312D01*
X140465532Y-98681123D01*
X139655282Y-97532676D01*
X140851936Y-98529469D01*
G37*
%TO.C,C5*%
X114292164Y-78740000D02*
X114507836Y-78740000D01*
X114292164Y-79460000D02*
X114507836Y-79460000D01*
%TO.C,C8*%
X218320000Y-74017836D02*
X218320000Y-73802164D01*
X219040000Y-74017836D02*
X219040000Y-73802164D01*
%TO.C,LCD1*%
X145350000Y-107730000D02*
X144020000Y-107730000D01*
X146620000Y-105070000D02*
X154300000Y-105070000D01*
X146620000Y-107730000D02*
X154300000Y-107730000D01*
X144020000Y-107730000D02*
X144020000Y-106400000D01*
X146620000Y-107730000D02*
X146620000Y-105070000D01*
X154300000Y-107730000D02*
X154300000Y-105070000D01*
%TO.C,D12*%
X108770000Y-90600000D02*
X111455000Y-90600000D01*
X111455000Y-88680000D02*
X108770000Y-88680000D01*
X111455000Y-90600000D02*
X111455000Y-88680000D01*
%TO.C,R7*%
X122211359Y-83720000D02*
X122518641Y-83720000D01*
X122211359Y-82960000D02*
X122518641Y-82960000D01*
%TO.C,Q2*%
X135130000Y-96177500D02*
X135130000Y-95527500D01*
X135130000Y-96177500D02*
X135130000Y-96827500D01*
X138250000Y-96177500D02*
X138250000Y-96827500D01*
X138250000Y-96177500D02*
X138250000Y-94502500D01*
%TO.C,C31*%
X113687164Y-80660000D02*
X113902836Y-80660000D01*
X113687164Y-79940000D02*
X113902836Y-79940000D01*
%TO.C,R29*%
X150987742Y-85447500D02*
X151462258Y-85447500D01*
X150987742Y-86492500D02*
X151462258Y-86492500D01*
%TO.C,R19*%
X158850000Y-102246359D02*
X158850000Y-102553641D01*
X158090000Y-102246359D02*
X158090000Y-102553641D01*
%TO.C,R13*%
X97830000Y-66966359D02*
X97830000Y-67273641D01*
X97070000Y-66966359D02*
X97070000Y-67273641D01*
%TO.C,L3*%
X191256267Y-70130000D02*
X190913733Y-70130000D01*
X191256267Y-69110000D02*
X190913733Y-69110000D01*
%TO.C,R31*%
X143570000Y-66353641D02*
X143570000Y-66046359D01*
X144330000Y-66353641D02*
X144330000Y-66046359D01*
%TO.C,R26*%
X154877742Y-80757500D02*
X155352258Y-80757500D01*
X154877742Y-81802500D02*
X155352258Y-81802500D01*
%TO.C,R18*%
X208564000Y-71866359D02*
X208564000Y-72173641D01*
X207804000Y-71866359D02*
X207804000Y-72173641D01*
%TO.C,C17*%
X177810000Y-87097836D02*
X177810000Y-86882164D01*
X177090000Y-87097836D02*
X177090000Y-86882164D01*
%TO.C,TP1*%
X203410000Y-67110000D02*
X203410000Y-67170000D01*
X203410000Y-64510000D02*
X204740000Y-64510000D01*
X206070000Y-67110000D02*
X206070000Y-67170000D01*
X203410000Y-65840000D02*
X203410000Y-64510000D01*
X203410000Y-67110000D02*
X206070000Y-67110000D01*
X203410000Y-67170000D02*
X206070000Y-67170000D01*
%TO.C,SW1*%
X82610000Y-71100000D02*
X85210000Y-71100000D01*
X87140000Y-77560000D02*
X87140000Y-71100000D01*
X80680000Y-71100000D02*
X80710000Y-71100000D01*
X87140000Y-71100000D02*
X87110000Y-71100000D01*
X87140000Y-77560000D02*
X87110000Y-77560000D01*
X82610000Y-77560000D02*
X85210000Y-77560000D01*
X80680000Y-77560000D02*
X80680000Y-71100000D01*
X80710000Y-77560000D02*
X80680000Y-77560000D01*
%TO.C,R20*%
X139330000Y-93196359D02*
X139330000Y-93503641D01*
X138570000Y-93196359D02*
X138570000Y-93503641D01*
%TO.C,C30*%
X113958748Y-84735000D02*
X114481252Y-84735000D01*
X113958748Y-83265000D02*
X114481252Y-83265000D01*
%TO.C,R4*%
X90973582Y-89121018D02*
X91331440Y-89400607D01*
X90068560Y-90279393D02*
X90426418Y-90558982D01*
%TO.C,R6*%
X92480635Y-91170725D02*
X92201046Y-91528583D01*
X93639010Y-92075747D02*
X93359421Y-92433605D01*
%TO.C,D11*%
X163365000Y-65675000D02*
X167250000Y-65675000D01*
X163365000Y-63405000D02*
X163365000Y-65675000D01*
X167250000Y-63405000D02*
X163365000Y-63405000D01*
%TO.C,D9*%
X96156763Y-91193880D02*
X97338833Y-89680899D01*
X97338833Y-89680899D02*
X95223024Y-88027848D01*
X94040954Y-89540829D02*
X96156763Y-91193880D01*
%TO.C,R11*%
X217353641Y-71990000D02*
X217046359Y-71990000D01*
X217353641Y-72750000D02*
X217046359Y-72750000D01*
%TO.C,D8*%
X199690000Y-80170000D02*
X199690000Y-79600000D01*
X201880000Y-80170000D02*
X199690000Y-80170000D01*
X201590000Y-78890000D02*
X201810000Y-78890000D01*
X199980000Y-78890000D02*
X199760000Y-78890000D01*
X201880000Y-79600000D02*
X201880000Y-80170000D01*
X200740000Y-78890000D02*
X200830000Y-78890000D01*
%TO.C,C14*%
X217257836Y-75900000D02*
X217042164Y-75900000D01*
X217257836Y-75180000D02*
X217042164Y-75180000D01*
%TO.C,U4*%
X212435000Y-76210000D02*
X210485000Y-76210000D01*
X212435000Y-76210000D02*
X214385000Y-76210000D01*
X212435000Y-71090000D02*
X208985000Y-71090000D01*
X212435000Y-71090000D02*
X214385000Y-71090000D01*
%TO.C,R38*%
X199893641Y-57662502D02*
X199586359Y-57662502D01*
X199893641Y-56902502D02*
X199586359Y-56902502D01*
%TO.C,D4*%
X122110000Y-86230000D02*
X122110000Y-86140000D01*
X123390000Y-85090000D02*
X123390000Y-87280000D01*
X122110000Y-85380000D02*
X122110000Y-85160000D01*
X123390000Y-87280000D02*
X122820000Y-87280000D01*
X122820000Y-85090000D02*
X123390000Y-85090000D01*
X122110000Y-86990000D02*
X122110000Y-87210000D01*
%TO.C,L2*%
X191286267Y-68630000D02*
X190943733Y-68630000D01*
X191286267Y-67610000D02*
X190943733Y-67610000D01*
%TO.C,R23*%
X217303641Y-76910000D02*
X216996359Y-76910000D01*
X217303641Y-76150000D02*
X216996359Y-76150000D01*
%TO.C,SAO2*%
X193472500Y-90837500D02*
X197212500Y-90837500D01*
X197212500Y-90837500D02*
X197212500Y-91227500D01*
X197212500Y-91227500D02*
X193472500Y-91227500D01*
X193472500Y-91227500D02*
X193472500Y-90837500D01*
%TO.C,C9*%
X206270000Y-72112164D02*
X206270000Y-72327836D01*
X205550000Y-72112164D02*
X205550000Y-72327836D01*
%TO.C,R15*%
X209713641Y-69990000D02*
X209406359Y-69990000D01*
X209713641Y-70750000D02*
X209406359Y-70750000D01*
%TO.C,R37*%
X113893641Y-65430000D02*
X113586359Y-65430000D01*
X113893641Y-64670000D02*
X113586359Y-64670000D01*
%TO.C,C35*%
X106679420Y-83690000D02*
X106960580Y-83690000D01*
X106679420Y-84710000D02*
X106960580Y-84710000D01*
%TO.C,R34*%
X126300004Y-65513640D02*
X126300004Y-65206358D01*
X125540004Y-65513640D02*
X125540004Y-65206358D01*
%TO.C,R33*%
X125563642Y-63499999D02*
X125256360Y-63499999D01*
X125563642Y-64259999D02*
X125256360Y-64259999D01*
%TO.C,R3*%
X103142500Y-79662258D02*
X103142500Y-79187742D01*
X102097500Y-79662258D02*
X102097500Y-79187742D01*
%TO.C,R36*%
X202490002Y-64636360D02*
X202490002Y-64943642D01*
X201730002Y-64636360D02*
X201730002Y-64943642D01*
%TO.C,R27*%
X158602500Y-84877742D02*
X158602500Y-85352258D01*
X157557500Y-84877742D02*
X157557500Y-85352258D01*
%TO.C,C28*%
X151412164Y-100660000D02*
X151627836Y-100660000D01*
X151412164Y-99940000D02*
X151627836Y-99940000D01*
%TO.C,R8*%
X143237502Y-82142257D02*
X143237502Y-81667741D01*
X144282502Y-82142257D02*
X144282502Y-81667741D01*
%TO.C,SAO1*%
X101290800Y-90012200D02*
X105030800Y-90012200D01*
X105030800Y-90012200D02*
X105030800Y-90402200D01*
X105030800Y-90402200D02*
X101290800Y-90402200D01*
X101290800Y-90402200D02*
X101290800Y-90012200D01*
%TO.C,R24*%
X215373641Y-76510000D02*
X215066359Y-76510000D01*
X215373641Y-77270000D02*
X215066359Y-77270000D01*
%TO.C,J1*%
X133080000Y-79060000D02*
X133080000Y-78300000D01*
X134970000Y-79766529D02*
X134970000Y-79623471D01*
X133080000Y-78300000D02*
X134210000Y-78300000D01*
X134517530Y-84835000D02*
X135172470Y-84835000D01*
X135787530Y-78365000D02*
X136610000Y-78365000D01*
X133080000Y-79820000D02*
X133646529Y-79820000D01*
X133080000Y-84835000D02*
X133902470Y-84835000D01*
X134970000Y-78496529D02*
X134970000Y-78365000D01*
X134970000Y-78365000D02*
X135172470Y-78365000D01*
X133080000Y-79820000D02*
X133080000Y-84835000D01*
X135787530Y-84835000D02*
X136610000Y-84835000D01*
X134773471Y-79820000D02*
X134916529Y-79820000D01*
X136610000Y-78365000D02*
X136610000Y-84835000D01*
%TO.C,R12*%
X99506652Y-70020200D02*
X99199370Y-70020200D01*
X99506652Y-69260200D02*
X99199370Y-69260200D01*
%TD*%
M02*
