M48
; DRILL file {KiCad (6.0.5)} date Tue Oct  4 23:24:23 2022
; FORMAT={-:-/ absolute / metric / decimal}
; #@! TF.CreationDate,2022-10-04T23:24:23-07:00
; #@! TF.GenerationSoftware,Kicad,Pcbnew,(6.0.5)
; #@! TF.FileFunction,Plated,1,2,PTH
FMAT,2
METRIC
; #@! TA.AperFunction,Plated,PTH,ViaDrill
T1C0.400
; #@! TA.AperFunction,Plated,PTH,ComponentDrill
T2C0.500
; #@! TA.AperFunction,Plated,PTH,ComponentDrill
T3C0.550
; #@! TA.AperFunction,Plated,PTH,ComponentDrill
T4C1.000
; #@! TA.AperFunction,Plated,PTH,ComponentDrill
T5C1.020
%
G90
G05
T1
X81.76Y-70.07
X84.96Y-67.04
X85.748Y-81.698
X86.51Y-86.27
X89.79Y-75.84
X91.12Y-67.8
X94.207Y-66.49
X94.56Y-86.76
X95.917Y-72.77
X95.986Y-92.599
X96.296Y-68.896
X96.94Y-75.79
X97.544Y-94.999
X97.976Y-69.428
X98.32Y-91.8
X98.686Y-72.093
X98.72Y-94.2
X98.735Y-90.299
X99.47Y-68.79
X99.524Y-86.506
X100.674Y-90.399
X100.951Y-86.104
X101.038Y-87.132
X101.38Y-75.98
X101.49Y-85.263
X102.56Y-86.388
X103.281Y-77.747
X103.803Y-87.848
X103.995Y-85.948
X104.34Y-89.796
X104.62Y-81.7
X104.994Y-85.979
X105.0Y-77.61
X105.114Y-87.123
X105.92Y-78.6
X105.995Y-85.325
X106.207Y-69.59
X106.256Y-73.722
X106.567Y-65.59
X107.107Y-74.29
X107.12Y-87.9
X107.187Y-69.48
X107.7Y-75.77
X107.869Y-77.569
X108.347Y-68.58
X108.42Y-79.64
X108.45Y-82.945
X109.497Y-71.95
X110.707Y-72.03
X110.915Y-73.54
X111.04Y-86.913
X111.92Y-89.6
X112.129Y-79.627
X112.368Y-77.569
X112.667Y-68.17
X113.867Y-72.85
X114.297Y-66.05
X114.317Y-68.17
X115.136Y-73.051
X115.802Y-82.029
X115.927Y-86.177
X117.01Y-84.15
X117.868Y-88.042
X118.106Y-78.944
X118.45Y-66.12
X118.829Y-80.938
X119.093Y-76.377
X119.63Y-66.0
X119.638Y-80.129
X120.31Y-82.54
X120.624Y-90.808
X121.3Y-71.61
X121.728Y-91.282
X121.88Y-81.04
X122.19Y-77.7
X122.784Y-85.2
X123.36Y-74.98
X123.617Y-90.649
X123.93Y-63.86
X124.214Y-92.82
X125.87Y-86.54
X127.77Y-85.08
X128.11Y-96.51
X128.97Y-95.16
X129.735Y-84.657
X129.78Y-93.96
X130.23Y-99.38
X131.424Y-98.27
X131.6Y-86.356
X132.874Y-92.767
X132.94Y-66.18
X132.94Y-74.06
X133.497Y-91.394
X133.57Y-97.68
X134.44Y-82.16
X134.47Y-95.18
X134.53Y-63.85
X136.26Y-99.74
X136.434Y-91.02
X137.634Y-98.96
X138.165Y-102.439
X139.998Y-104.276
X141.54Y-83.22
X142.528Y-70.801
X143.914Y-100.494
X144.394Y-96.849
X144.45Y-67.38
X144.492Y-95.855
X144.666Y-91.607
X144.825Y-85.645
X145.276Y-93.495
X145.49Y-79.49
X145.62Y-72.38
X145.68Y-101.439
X145.954Y-94.23
X146.115Y-91.416
X146.383Y-87.724
X146.391Y-95.779
X146.494Y-103.76
X146.51Y-83.32
X146.694Y-101.29
X146.773Y-78.262
X147.107Y-79.687
X147.73Y-64.19
X147.999Y-96.013
X148.14Y-67.81
X148.32Y-79.3
X148.399Y-91.995
X148.4Y-86.572
X148.584Y-101.28
X149.094Y-103.76
X149.141Y-96.461
X149.277Y-76.474
X149.356Y-84.684
X149.392Y-88.981
X150.12Y-67.87
X150.422Y-83.39
X150.634Y-73.435
X150.665Y-96.928
X151.12Y-101.524
X151.144Y-103.77
X151.732Y-79.524
X151.764Y-96.854
X151.82Y-73.99
X152.52Y-101.971
X152.88Y-94.15
X152.93Y-99.968
X153.25Y-90.33
X153.744Y-103.77
X154.12Y-84.99
X154.21Y-79.72
X154.22Y-100.7
X155.14Y-96.2
X155.23Y-102.76
X155.37Y-100.6
X155.421Y-76.837
X155.8Y-69.83
X156.42Y-76.818
X156.7Y-101.18
X156.706Y-95.79
X157.128Y-77.523
X157.21Y-74.4
X157.37Y-86.122
X157.44Y-88.68
X157.67Y-83.11
X158.035Y-100.129
X158.081Y-76.106
X158.2Y-96.08
X159.237Y-79.6
X159.32Y-99.8
X159.34Y-83.07
X159.85Y-93.09
X160.77Y-78.19
X160.82Y-100.4
X160.97Y-77.19
X161.34Y-65.11
X161.394Y-79.859
X161.8Y-88.95
X169.15Y-69.849
X173.86Y-73.4
X173.929Y-80.594
X173.973Y-82.578
X174.08Y-83.572
X174.35Y-86.84
X175.016Y-75.587
X175.156Y-90.334
X175.236Y-74.105
X175.691Y-84.297
X176.11Y-71.15
X176.857Y-74.615
X177.064Y-84.297
X177.42Y-79.66
X178.12Y-72.249
X178.25Y-83.93
X178.88Y-69.95
X179.12Y-87.0
X179.79Y-77.94
X180.331Y-80.805
X180.86Y-73.31
X181.68Y-74.99
X182.06Y-81.26
X182.92Y-85.7
X183.24Y-81.14
X183.436Y-78.498
X184.19Y-76.26
X184.42Y-91.6
X185.697Y-74.078
X186.23Y-78.09
X186.25Y-67.47
X188.42Y-83.5
X188.999Y-77.202
X189.12Y-94.65
X189.228Y-91.426
X189.32Y-80.3
X189.77Y-66.01
X190.12Y-71.62
X191.1Y-87.22
X191.63Y-67.16
X191.68Y-70.07
X194.002Y-66.045
X194.37Y-71.6
X194.49Y-77.65
X194.7Y-65.33
X194.71Y-68.53
X194.974Y-79.099
X195.946Y-64.605
X196.02Y-85.4
X196.262Y-63.657
X197.0Y-86.27
X197.508Y-87.794
X197.58Y-67.74
X197.627Y-68.843
X198.033Y-65.325
X198.14Y-71.62
X198.32Y-78.3
X198.83Y-66.6
X198.9Y-76.68
X198.923Y-72.32
X200.14Y-85.37
X200.18Y-90.15
X200.21Y-65.285
X200.3Y-68.03
X200.95Y-71.67
X201.028Y-66.104
X201.976Y-70.628
X202.004Y-67.195
X202.75Y-95.75
X202.805Y-80.231
X202.815Y-72.465
X203.358Y-79.103
X205.557Y-75.206
X205.69Y-83.12
X206.56Y-70.03
X206.58Y-93.38
X208.5Y-77.57
X209.084Y-69.79
X209.22Y-68.32
X210.086Y-80.961
X210.79Y-82.61
X211.2Y-75.07
X211.74Y-78.71
X211.887Y-67.34
X212.64Y-81.99
X213.612Y-70.982
X215.03Y-86.37
X215.21Y-82.54
X215.652Y-77.215
X216.5Y-78.41
X216.95Y-65.945
X216.99Y-70.4
X217.27Y-82.28
X217.393Y-75.325
X217.7Y-67.92
X219.87Y-79.79
X220.22Y-70.9
X221.03Y-76.785
T4
X97.16Y-64.15
X99.7Y-64.15
X100.531Y-91.847
X100.531Y-94.387
X103.071Y-91.847
X103.071Y-94.387
X103.407Y-66.065
X103.407Y-68.605
X103.407Y-71.145
X105.611Y-91.847
X105.611Y-94.387
X115.937Y-70.68
X118.477Y-70.68
X137.07Y-75.54
X139.61Y-75.54
X142.15Y-75.54
X145.374Y-106.42
X147.914Y-106.42
X150.454Y-106.42
X152.994Y-106.42
X194.729Y-93.081
X194.729Y-95.621
X197.269Y-93.081
X197.269Y-95.621
X199.809Y-93.081
X199.809Y-95.621
X205.534Y-65.95
X218.08Y-79.55
T5
X121.78Y-64.54
X177.78Y-64.54
T2
G00X88.41Y-89.388
M15
G01X88.81Y-88.876
M16
G05
G00X93.926Y-93.698
M15
G01X94.326Y-93.185
M16
G05
T3
G00X91.178Y-87.712
M15
G01X90.942Y-87.528
M16
G05
G00X95.118Y-90.791
M15
G01X94.882Y-90.606
M16
G05
T0
M30
