M48
; DRILL file {KiCad (6.0.5)} date Tue Aug 29 07:12:44 2023
; FORMAT={-:-/ absolute / metric / decimal}
; #@! TF.CreationDate,2023-08-29T07:12:44-07:00
; #@! TF.GenerationSoftware,Kicad,Pcbnew,(6.0.5)
; #@! TF.FileFunction,Plated,1,2,PTH
FMAT,2
METRIC
; #@! TA.AperFunction,Plated,PTH,ViaDrill
T1C0.400
; #@! TA.AperFunction,Plated,PTH,ComponentDrill
T2C0.500
; #@! TA.AperFunction,Plated,PTH,ComponentDrill
T3C0.550
; #@! TA.AperFunction,Plated,PTH,ComponentDrill
T4C0.650
; #@! TA.AperFunction,Plated,PTH,ComponentDrill
T5C0.850
; #@! TA.AperFunction,Plated,PTH,ComponentDrill
T6C0.900
; #@! TA.AperFunction,Plated,PTH,ComponentDrill
T7C1.000
; #@! TA.AperFunction,Plated,PTH,ComponentDrill
T8C1.020
%
G90
G05
T1
X83.79Y-81.77
X84.71Y-65.56
X84.96Y-67.04
X86.51Y-86.27
X90.192Y-67.745
X92.847Y-69.841
X94.245Y-86.62
X95.76Y-70.03
X95.81Y-66.96
X95.986Y-92.599
X96.31Y-68.85
X96.94Y-75.79
X97.544Y-94.999
X97.982Y-69.413
X98.32Y-91.8
X98.403Y-72.878
X98.65Y-89.298
X98.711Y-90.296
X98.72Y-94.2
X99.21Y-86.85
X99.47Y-68.79
X100.289Y-86.544
X101.273Y-86.217
X101.389Y-75.98
X101.4Y-90.47
X101.75Y-69.31
X101.75Y-74.06
X102.225Y-65.109
X102.419Y-86.564
X102.59Y-66.9
X102.95Y-83.87
X103.281Y-77.747
X103.93Y-63.36
X104.22Y-74.59
X104.33Y-87.29
X104.62Y-81.7
X104.755Y-84.995
X105.0Y-77.61
X105.92Y-78.6
X105.995Y-85.408
X107.12Y-87.9
X107.245Y-68.255
X107.43Y-65.3
X107.66Y-67.07
X107.869Y-77.569
X108.16Y-74.62
X108.42Y-79.64
X108.45Y-82.945
X109.54Y-75.83
X110.69Y-72.39
X110.915Y-73.54
X111.02Y-66.09
X111.04Y-86.913
X111.88Y-89.66
X112.129Y-79.627
X112.368Y-77.569
X112.47Y-68.334
X112.735Y-75.754
X113.84Y-67.6
X113.867Y-72.85
X114.319Y-69.31
X115.23Y-64.96
X115.65Y-73.82
X115.802Y-82.029
X115.919Y-87.529
X116.45Y-67.34
X116.56Y-64.07
X116.91Y-76.07
X117.01Y-84.15
X118.097Y-78.952
X118.763Y-81.006
X118.899Y-86.679
X119.093Y-76.377
X119.454Y-80.284
X119.55Y-71.31
X119.58Y-74.66
X119.63Y-66.0
X120.28Y-82.672
X120.4Y-72.98
X120.73Y-81.78
X121.03Y-90.68
X121.87Y-67.19
X122.19Y-77.7
X122.261Y-91.158
X123.59Y-86.39
X123.617Y-90.649
X123.93Y-63.86
X124.12Y-71.59
X124.348Y-92.686
X124.67Y-67.1
X125.86Y-86.441
X126.748Y-85.983
X127.893Y-96.334
X128.626Y-97.804
X128.92Y-80.5
X128.97Y-95.16
X129.5Y-84.02
X129.78Y-93.96
X130.947Y-85.727
X131.424Y-98.27
X131.51Y-73.72
X132.14Y-85.558
X132.94Y-66.18
X133.3Y-90.17
X133.497Y-91.394
X133.57Y-97.68
X134.47Y-95.18
X134.53Y-63.85
X134.934Y-85.109
X134.98Y-94.05
X135.93Y-100.18
X136.141Y-99.203
X136.44Y-82.334
X136.486Y-91.394
X137.26Y-79.65
X137.379Y-99.951
X137.604Y-98.977
X137.63Y-90.03
X137.85Y-102.1
X138.52Y-78.2
X139.998Y-104.276
X141.945Y-82.898
X141.98Y-97.13
X142.7Y-101.38
X142.75Y-81.79
X144.394Y-96.849
X144.449Y-95.806
X144.45Y-67.38
X144.46Y-70.84
X144.666Y-91.607
X144.825Y-85.645
X144.938Y-102.503
X145.05Y-100.45
X145.276Y-93.495
X145.95Y-71.59
X145.954Y-94.23
X146.115Y-91.416
X146.459Y-83.336
X146.494Y-103.76
X146.547Y-95.691
X146.6Y-79.06
X146.613Y-77.161
X147.05Y-101.29
X147.281Y-85.941
X147.29Y-89.79
X147.73Y-64.19
X147.998Y-96.011
X148.0Y-83.28
X148.14Y-67.81
X148.305Y-85.94
X148.584Y-101.28
X148.593Y-79.575
X149.01Y-96.06
X149.03Y-89.29
X149.094Y-103.76
X149.605Y-84.39
X149.714Y-96.841
X149.87Y-79.67
X150.08Y-88.05
X150.135Y-67.862
X150.233Y-74.652
X150.422Y-83.39
X151.06Y-73.36
X151.12Y-101.524
X151.144Y-103.77
X151.163Y-96.797
X151.57Y-75.45
X151.572Y-79.829
X152.158Y-96.888
X152.52Y-101.971
X152.88Y-94.15
X152.93Y-99.968
X153.25Y-90.33
X153.744Y-103.77
X154.06Y-80.136
X154.12Y-84.99
X154.22Y-100.7
X155.14Y-96.2
X155.23Y-102.76
X155.32Y-78.06
X155.37Y-100.6
X156.282Y-78.541
X156.7Y-101.18
X156.706Y-95.79
X156.72Y-74.82
X157.37Y-86.122
X157.39Y-78.28
X157.44Y-88.68
X157.67Y-83.11
X158.035Y-100.129
X158.13Y-76.43
X158.2Y-96.08
X158.89Y-105.28
X159.312Y-79.678
X159.32Y-99.8
X159.34Y-83.07
X159.85Y-93.09
X160.756Y-75.993
X160.82Y-100.4
X160.96Y-77.24
X160.96Y-78.24
X161.118Y-79.226
X161.34Y-65.11
X161.8Y-88.95
X172.34Y-69.27
X172.56Y-64.48
X173.46Y-71.68
X174.39Y-72.38
X174.994Y-79.4
X175.07Y-81.44
X175.156Y-90.334
X175.39Y-66.34
X175.513Y-83.519
X175.592Y-82.31
X175.85Y-74.843
X175.945Y-72.144
X176.33Y-70.4
X176.584Y-85.408
X177.391Y-79.66
X178.115Y-77.89
X178.298Y-84.819
X178.6Y-82.019
X179.072Y-87.636
X179.758Y-68.302
X180.39Y-78.64
X180.48Y-74.754
X180.62Y-72.99
X181.95Y-83.76
X182.92Y-88.425
X183.33Y-85.38
X183.94Y-75.88
X184.39Y-85.67
X184.42Y-91.6
X184.53Y-65.79
X185.2Y-80.86
X185.61Y-74.73
X186.582Y-88.138
X187.51Y-60.33
X188.03Y-88.17
X188.22Y-72.75
X188.7Y-65.78
X188.72Y-67.09
X188.82Y-68.93
X188.999Y-77.202
X189.12Y-94.65
X189.228Y-91.426
X189.898Y-60.901
X190.27Y-86.15
X190.35Y-84.19
X190.363Y-60.016
X190.852Y-58.34
X191.286Y-87.704
X191.62Y-77.65
X191.639Y-71.479
X191.673Y-65.858
X191.78Y-53.73
X192.18Y-85.41
X192.21Y-82.35
X192.522Y-59.652
X192.65Y-83.7
X192.81Y-70.84
X193.272Y-57.06
X193.755Y-76.439
X193.83Y-70.97
X194.04Y-87.73
X194.35Y-90.733
X194.38Y-84.26
X194.59Y-60.07
X194.71Y-68.53
X195.679Y-65.854
X195.78Y-62.2
X195.813Y-57.24
X195.84Y-71.59
X195.852Y-58.95
X196.399Y-85.205
X196.502Y-55.1
X196.9Y-90.2
X197.09Y-62.23
X197.446Y-70.284
X197.545Y-68.661
X197.569Y-66.662
X197.576Y-67.662
X198.119Y-71.629
X198.32Y-78.3
X198.403Y-58.61
X198.472Y-59.61
X198.86Y-66.353
X199.088Y-64.904
X199.432Y-54.88
X199.95Y-82.18
X200.09Y-73.51
X200.14Y-85.37
X200.18Y-63.761
X200.213Y-71.586
X200.286Y-68.055
X200.394Y-65.66
X200.534Y-89.87
X200.62Y-76.95
X201.03Y-71.01
X201.037Y-66.428
X201.213Y-63.842
X201.22Y-61.7
X202.16Y-68.02
X202.69Y-73.85
X202.75Y-95.75
X203.68Y-58.55
X203.748Y-70.478
X203.877Y-78.944
X203.931Y-76.631
X204.52Y-72.62
X204.64Y-73.7
X205.58Y-75.17
X206.76Y-83.07
X207.05Y-68.0
X207.82Y-57.61
X207.84Y-62.78
X207.871Y-66.569
X208.649Y-67.95
X209.43Y-85.3
X209.57Y-91.83
X211.1Y-74.42
X211.48Y-77.91
X212.1Y-76.95
X212.6Y-83.05
X213.07Y-70.32
X213.12Y-75.468
X213.69Y-65.7
X213.75Y-73.46
X214.22Y-77.79
X215.482Y-68.587
X216.72Y-70.62
X217.77Y-81.8
X219.578Y-77.81
T4
X134.21Y-79.06
X134.21Y-80.33
X134.21Y-81.6
X134.21Y-82.87
X134.21Y-84.14
X135.48Y-79.06
X135.48Y-80.33
X135.48Y-81.6
X135.48Y-82.87
X135.48Y-84.14
T5
X147.89Y-106.4
T6
X145.35Y-106.4
X150.43Y-106.4
X152.97Y-106.4
T7
X97.16Y-64.15
X99.7Y-64.15
X100.531Y-91.847
X100.531Y-94.387
X103.071Y-91.847
X103.071Y-94.387
X105.611Y-91.847
X105.611Y-94.387
X137.07Y-75.54
X139.61Y-75.54
X142.15Y-75.54
X194.729Y-93.081
X194.729Y-95.621
X197.269Y-93.081
X197.269Y-95.621
X199.809Y-93.081
X199.809Y-95.621
X204.74Y-65.84
T8
X121.78Y-64.54
X177.78Y-64.54
T2
G00X88.41Y-89.388
M15
G01X88.81Y-88.876
M16
G05
G00X93.926Y-93.698
M15
G01X94.326Y-93.185
M16
G05
T3
G00X91.178Y-87.712
M15
G01X90.942Y-87.528
M16
G05
G00X95.118Y-90.791
M15
G01X94.882Y-90.606
M16
G05
T0
M30
