%TF.GenerationSoftware,KiCad,Pcbnew,(6.0.5)*%
%TF.CreationDate,2023-09-14T14:32:31-07:00*%
%TF.ProjectId,Monkeys,4d6f6e6b-6579-4732-9e6b-696361645f70,3.7*%
%TF.SameCoordinates,Original*%
%TF.FileFunction,Soldermask,Bot*%
%TF.FilePolarity,Negative*%
%FSLAX46Y46*%
G04 Gerber Fmt 4.6, Leading zero omitted, Abs format (unit mm)*
G04 Created by KiCad (PCBNEW (6.0.5)) date 2023-09-14 14:32:31*
%MOMM*%
%LPD*%
G01*
G04 APERTURE LIST*
G04 Aperture macros list*
%AMRoundRect*
0 Rectangle with rounded corners*
0 $1 Rounding radius*
0 $2 $3 $4 $5 $6 $7 $8 $9 X,Y pos of 4 corners*
0 Add a 4 corners polygon primitive as box body*
4,1,4,$2,$3,$4,$5,$6,$7,$8,$9,$2,$3,0*
0 Add four circle primitives for the rounded corners*
1,1,$1+$1,$2,$3*
1,1,$1+$1,$4,$5*
1,1,$1+$1,$6,$7*
1,1,$1+$1,$8,$9*
0 Add four rect primitives between the rounded corners*
20,1,$1+$1,$2,$3,$4,$5,0*
20,1,$1+$1,$4,$5,$6,$7,0*
20,1,$1+$1,$6,$7,$8,$9,0*
20,1,$1+$1,$8,$9,$2,$3,0*%
%AMHorizOval*
0 Thick line with rounded ends*
0 $1 width*
0 $2 $3 position (X,Y) of the first rounded end (center of the circle)*
0 $4 $5 position (X,Y) of the second rounded end (center of the circle)*
0 Add line between two ends*
20,1,$1,$2,$3,$4,$5,0*
0 Add two circle primitives to create the rounded ends*
1,1,$1,$2,$3*
1,1,$1,$4,$5*%
%AMRotRect*
0 Rectangle, with rotation*
0 The origin of the aperture is its center*
0 $1 length*
0 $2 width*
0 $3 Rotation angle, in degrees counterclockwise*
0 Add horizontal line*
21,1,$1,$2,0,0,$3*%
%AMFreePoly0*
4,1,22,0.500000,-0.750000,0.000000,-0.750000,0.000000,-0.745033,-0.079941,-0.743568,-0.215256,-0.701293,-0.333266,-0.622738,-0.424486,-0.514219,-0.481581,-0.384460,-0.499164,-0.250000,-0.500000,-0.250000,-0.500000,0.250000,-0.499164,0.250000,-0.499963,0.256109,-0.478152,0.396186,-0.417904,0.524511,-0.324060,0.630769,-0.204165,0.706417,-0.067858,0.745374,0.000000,0.744959,0.000000,0.750000,
0.500000,0.750000,0.500000,-0.750000,0.500000,-0.750000,$1*%
%AMFreePoly1*
4,1,20,0.000000,0.744959,0.073905,0.744508,0.209726,0.703889,0.328688,0.626782,0.421226,0.519385,0.479903,0.390333,0.500000,0.250000,0.500000,-0.250000,0.499851,-0.262216,0.476331,-0.402017,0.414519,-0.529596,0.319384,-0.634700,0.198574,-0.708877,0.061801,-0.746166,0.000000,-0.745033,0.000000,-0.750000,-0.500000,-0.750000,-0.500000,0.750000,0.000000,0.750000,0.000000,0.744959,
0.000000,0.744959,$1*%
%AMFreePoly2*
4,1,22,0.550000,-0.750000,0.000000,-0.750000,0.000000,-0.745033,-0.079941,-0.743568,-0.215256,-0.701293,-0.333266,-0.622738,-0.424486,-0.514219,-0.481581,-0.384460,-0.499164,-0.250000,-0.500000,-0.250000,-0.500000,0.250000,-0.499164,0.250000,-0.499963,0.256109,-0.478152,0.396186,-0.417904,0.524511,-0.324060,0.630769,-0.204165,0.706417,-0.067858,0.745374,0.000000,0.744960,0.000000,0.750000,
0.550000,0.750000,0.550000,-0.750000,0.550000,-0.750000,$1*%
%AMFreePoly3*
4,1,20,0.000000,0.744960,0.073905,0.744508,0.209726,0.703889,0.328688,0.626782,0.421226,0.519385,0.479903,0.390333,0.500000,0.250000,0.500000,-0.250000,0.499851,-0.262216,0.476331,-0.402017,0.414519,-0.529596,0.319384,-0.634700,0.198574,-0.708877,0.061801,-0.746166,0.000000,-0.745033,0.000000,-0.750000,-0.550000,-0.750000,-0.550000,0.750000,0.000000,0.750000,0.000000,0.744960,
0.000000,0.744960,$1*%
G04 Aperture macros list end*
%ADD10FreePoly0,90.000000*%
%ADD11FreePoly1,90.000000*%
%ADD12C,4.500000*%
%ADD13C,0.850000*%
%ADD14R,1.700000X1.700000*%
%ADD15O,1.700000X1.700000*%
%ADD16R,1.000000X1.000000*%
%ADD17O,1.000000X1.000000*%
%ADD18RoundRect,0.250000X-0.925000X0.787500X-0.925000X-0.787500X0.925000X-0.787500X0.925000X0.787500X0*%
%ADD19R,0.900000X2.000000*%
%ADD20R,2.000000X0.900000*%
%ADD21R,5.000000X5.000000*%
%ADD22RoundRect,0.150000X-0.150000X0.512500X-0.150000X-0.512500X0.150000X-0.512500X0.150000X0.512500X0*%
%ADD23FreePoly2,45.000000*%
%ADD24RotRect,1.000000X1.500000X45.000000*%
%ADD25FreePoly3,45.000000*%
%ADD26FreePoly1,180.000000*%
%ADD27FreePoly0,180.000000*%
%ADD28RotRect,0.400000X1.350000X142.000000*%
%ADD29HorizOval,0.650000X-0.256103X0.200090X0.256103X-0.200090X0*%
%ADD30RoundRect,0.400000X0.147741X-0.623035X0.640270X0.007374X-0.147741X0.623035X-0.640270X-0.007374X0*%
%ADD31HorizOval,0.775000X0.238569X0.305354X-0.238569X-0.305354X0*%
%ADD32RotRect,1.500000X1.550000X142.000000*%
%ADD33FreePoly2,90.000000*%
%ADD34R,1.500000X1.000000*%
%ADD35FreePoly3,90.000000*%
%ADD36FreePoly2,225.000000*%
%ADD37RotRect,1.000000X1.500000X225.000000*%
%ADD38FreePoly3,225.000000*%
%ADD39RoundRect,0.250000X1.025000X-0.787500X1.025000X0.787500X-1.025000X0.787500X-1.025000X-0.787500X0*%
%ADD40RoundRect,0.150000X-0.825000X-0.150000X0.825000X-0.150000X0.825000X0.150000X-0.825000X0.150000X0*%
%ADD41C,1.630000*%
%ADD42R,2.000000X2.000000*%
%ADD43C,2.000000*%
%ADD44RoundRect,0.225000X0.225000X0.250000X-0.225000X0.250000X-0.225000X-0.250000X0.225000X-0.250000X0*%
%ADD45FreePoly3,0.000000*%
%ADD46R,1.000000X1.500000*%
%ADD47FreePoly2,0.000000*%
%ADD48FreePoly2,180.000000*%
%ADD49FreePoly3,180.000000*%
%ADD50R,0.600000X1.000000*%
%ADD51R,1.000000X0.700000*%
%ADD52R,3.600000X1.500000*%
%ADD53RoundRect,0.225000X-0.225000X-0.250000X0.225000X-0.250000X0.225000X0.250000X-0.225000X0.250000X0*%
%ADD54RoundRect,0.250000X-0.787500X-1.025000X0.787500X-1.025000X0.787500X1.025000X-0.787500X1.025000X0*%
%ADD55C,1.000000*%
%ADD56R,1.200000X2.500000*%
G04 APERTURE END LIST*
D10*
%TO.C,JP6*%
X192730000Y-61750000D03*
D11*
X192730000Y-60450000D03*
%TD*%
D12*
%TO.C,H1*%
X90599400Y-64476800D03*
%TD*%
D13*
%TO.C,SW5*%
X103545000Y-66255000D03*
X106545000Y-66255000D03*
%TD*%
D14*
%TO.C,J2*%
X137070000Y-75540000D03*
D15*
X139610000Y-75540000D03*
X142150000Y-75540000D03*
%TD*%
D14*
%TO.C,LCD1*%
X145350000Y-106400000D03*
D15*
X147890000Y-106400000D03*
X150430000Y-106400000D03*
X152970000Y-106400000D03*
%TD*%
D12*
%TO.C,H2*%
X210741400Y-64349800D03*
%TD*%
D14*
%TO.C,TP1*%
X204740000Y-65840000D03*
%TD*%
D15*
%TO.C,SAO2*%
X192712500Y-92672500D03*
D14*
X192712500Y-95212500D03*
D15*
X197792500Y-92672500D03*
X197792500Y-95212500D03*
X195252500Y-95212500D03*
X195252500Y-92672500D03*
%TD*%
%TO.C,SAO1*%
X100530800Y-91847200D03*
D14*
X100530800Y-94387200D03*
D15*
X105610800Y-91847200D03*
X105610800Y-94387200D03*
X103070800Y-94387200D03*
X103070800Y-91847200D03*
%TD*%
D16*
%TO.C,J1*%
X134210000Y-79060000D03*
D17*
X135480000Y-79060000D03*
X134210000Y-80330000D03*
X135480000Y-80330000D03*
X134210000Y-81600000D03*
X135480000Y-81600000D03*
X134210000Y-82870000D03*
X135480000Y-82870000D03*
X134210000Y-84140000D03*
X135480000Y-84140000D03*
%TD*%
D18*
%TO.C,C11*%
X181530000Y-76610000D03*
X181530000Y-81535000D03*
%TD*%
D19*
%TO.C,U6*%
X160575000Y-98400000D03*
X159305000Y-98400000D03*
X158035000Y-98400000D03*
X156765000Y-98400000D03*
X155495000Y-98400000D03*
X154225000Y-98400000D03*
X152955000Y-98400000D03*
X151685000Y-98400000D03*
X150415000Y-98400000D03*
X149145000Y-98400000D03*
X147875000Y-98400000D03*
X146605000Y-98400000D03*
X145335000Y-98400000D03*
X144065000Y-98400000D03*
D20*
X143065000Y-95615000D03*
X143065000Y-94345000D03*
X143065000Y-93075000D03*
X143065000Y-91805000D03*
X143065000Y-90535000D03*
X143065000Y-89265000D03*
X143065000Y-87995000D03*
X143065000Y-86725000D03*
X143065000Y-85455000D03*
X143065000Y-84185000D03*
D19*
X144065000Y-81400000D03*
X145335000Y-81400000D03*
X146605000Y-81400000D03*
X147875000Y-81400000D03*
X149145000Y-81400000D03*
X150415000Y-81400000D03*
X151685000Y-81400000D03*
X152955000Y-81400000D03*
X154225000Y-81400000D03*
X155495000Y-81400000D03*
X156765000Y-81400000D03*
X158035000Y-81400000D03*
X159305000Y-81400000D03*
X160575000Y-81400000D03*
D21*
X153075000Y-90900000D03*
%TD*%
D22*
%TO.C,U7*%
X184210000Y-78740000D03*
X185160000Y-78740000D03*
X186110000Y-78740000D03*
X186110000Y-81015000D03*
X184210000Y-81015000D03*
%TD*%
D23*
%TO.C,JP13*%
X139050761Y-105209239D03*
D24*
X139970000Y-104290000D03*
D25*
X140889239Y-103370761D03*
%TD*%
D26*
%TO.C,R35*%
X115980000Y-71200000D03*
D27*
X117280000Y-71200000D03*
%TD*%
D28*
%TO.C,J5*%
X94054441Y-89959514D03*
X93542234Y-89559334D03*
X93030027Y-89159154D03*
X92517820Y-88758974D03*
X92005613Y-88358794D03*
D29*
X95000054Y-90698308D03*
X91060000Y-87620000D03*
D30*
X93820424Y-93203029D03*
D31*
X94125779Y-93441598D03*
D32*
X92155752Y-91902444D03*
X90579730Y-90671122D03*
D30*
X88915058Y-89370537D03*
D31*
X88609703Y-89131968D03*
%TD*%
D33*
%TO.C,JP10*%
X206760002Y-81830000D03*
D34*
X206760002Y-80530000D03*
D35*
X206760002Y-79230000D03*
%TD*%
D36*
%TO.C,JP12*%
X138639239Y-101110761D03*
D37*
X137720000Y-102030000D03*
D38*
X136800761Y-102949239D03*
%TD*%
D39*
%TO.C,C13*%
X206680000Y-76805000D03*
X206680000Y-70580000D03*
%TD*%
D40*
%TO.C,U3*%
X126460000Y-96510000D03*
X126460000Y-95240000D03*
X126460000Y-93970000D03*
X126460000Y-92700000D03*
X126460000Y-91430000D03*
X126460000Y-90160000D03*
X126460000Y-88890000D03*
X126460000Y-87620000D03*
X131410000Y-87620000D03*
X131410000Y-88890000D03*
X131410000Y-90160000D03*
X131410000Y-91430000D03*
X131410000Y-92700000D03*
X131410000Y-93970000D03*
X131410000Y-95240000D03*
X131410000Y-96510000D03*
%TD*%
D41*
%TO.C,BT1*%
X121780000Y-71600000D03*
D42*
X121780000Y-64540000D03*
D43*
X177500000Y-64540000D03*
%TD*%
D27*
%TO.C,JP5*%
X208350000Y-68000000D03*
D26*
X207050000Y-68000000D03*
%TD*%
D44*
%TO.C,FB4*%
X211670000Y-68530000D03*
X210120000Y-68530000D03*
%TD*%
D45*
%TO.C,JP4*%
X188810000Y-60210000D03*
D46*
X187510000Y-60210000D03*
D47*
X186210000Y-60210000D03*
%TD*%
D48*
%TO.C,JP15*%
X153744000Y-103770000D03*
D46*
X152444000Y-103770000D03*
D49*
X151144000Y-103770000D03*
%TD*%
D13*
%TO.C,SW7*%
X194620000Y-79070000D03*
X197620000Y-79070000D03*
D50*
X193920000Y-81070000D03*
X196920000Y-81070000D03*
X198370000Y-81070000D03*
D51*
X199820000Y-80220000D03*
X192420000Y-80220000D03*
X192420000Y-77920000D03*
X199820000Y-77920000D03*
%TD*%
D52*
%TO.C,L4*%
X189260000Y-78750000D03*
X189260000Y-81800000D03*
%TD*%
D47*
%TO.C,JP3*%
X194580000Y-64032500D03*
D46*
X195880000Y-64032500D03*
D45*
X197180000Y-64032500D03*
%TD*%
D53*
%TO.C,FB3*%
X217835000Y-80100000D03*
X219385000Y-80100000D03*
%TD*%
D26*
%TO.C,R32*%
X115980000Y-64220000D03*
D27*
X117280000Y-64220000D03*
%TD*%
D14*
%TO.C,J3*%
X97160000Y-64150000D03*
D15*
X99700000Y-64150000D03*
%TD*%
D53*
%TO.C,C10*%
X184290000Y-82800000D03*
X185840000Y-82800000D03*
%TD*%
D48*
%TO.C,JP9*%
X202690000Y-73850000D03*
D46*
X201390000Y-73850000D03*
D49*
X200090000Y-73850000D03*
%TD*%
D54*
%TO.C,C16*%
X209525000Y-81750000D03*
X215750000Y-81750000D03*
%TD*%
D55*
%TO.C,J4*%
X219955000Y-74300000D03*
X212955000Y-74300000D03*
D56*
X215355000Y-71050000D03*
X218355000Y-71050000D03*
X210255000Y-77550000D03*
X211355000Y-71050000D03*
%TD*%
D47*
%TO.C,JP14*%
X146494000Y-103760000D03*
D46*
X147794000Y-103760000D03*
D45*
X149094000Y-103760000D03*
%TD*%
M02*
