M48
; DRILL file {KiCad (6.0.5)} date Sat Nov 12 14:57:55 2022
; FORMAT={-:-/ absolute / metric / decimal}
; #@! TF.CreationDate,2022-11-12T14:57:55-08:00
; #@! TF.GenerationSoftware,Kicad,Pcbnew,(6.0.5)
; #@! TF.FileFunction,Plated,1,2,PTH
FMAT,2
METRIC
; #@! TA.AperFunction,Plated,PTH,ViaDrill
T1C0.400
; #@! TA.AperFunction,Plated,PTH,ComponentDrill
T2C0.500
; #@! TA.AperFunction,Plated,PTH,ComponentDrill
T3C0.550
; #@! TA.AperFunction,Plated,PTH,ComponentDrill
T4C0.650
; #@! TA.AperFunction,Plated,PTH,ComponentDrill
T5C1.000
; #@! TA.AperFunction,Plated,PTH,ComponentDrill
T6C1.020
%
G90
G05
T1
X83.79Y-81.77
X84.71Y-65.56
X84.96Y-67.04
X86.51Y-86.27
X89.79Y-75.84
X90.192Y-67.745
X92.847Y-69.841
X94.56Y-86.76
X95.76Y-70.03
X95.81Y-66.96
X95.986Y-92.599
X96.31Y-68.85
X96.94Y-75.79
X97.544Y-94.999
X97.982Y-69.413
X98.32Y-91.8
X98.403Y-72.878
X98.72Y-94.2
X98.735Y-90.299
X99.47Y-68.79
X99.524Y-86.506
X100.674Y-90.399
X100.951Y-86.104
X101.038Y-87.132
X101.389Y-75.98
X101.49Y-85.263
X101.75Y-74.06
X102.56Y-86.388
X102.59Y-66.9
X102.61Y-64.69
X103.281Y-77.747
X103.803Y-87.848
X103.995Y-85.948
X104.62Y-81.7
X104.994Y-85.979
X105.0Y-77.61
X105.114Y-87.123
X105.92Y-78.6
X107.12Y-87.9
X107.245Y-68.255
X107.43Y-65.3
X107.66Y-67.07
X107.869Y-77.569
X108.16Y-74.62
X108.42Y-79.64
X108.45Y-82.945
X109.54Y-75.83
X110.69Y-72.39
X110.915Y-73.54
X111.02Y-66.09
X111.04Y-86.913
X111.92Y-89.6
X112.129Y-79.627
X112.368Y-77.569
X112.47Y-68.334
X112.735Y-75.754
X113.84Y-67.6
X113.867Y-72.85
X114.319Y-69.31
X114.78Y-64.14
X115.65Y-73.82
X115.802Y-82.029
X115.992Y-87.637
X116.45Y-67.34
X117.01Y-84.15
X117.868Y-88.042
X118.097Y-78.952
X118.763Y-81.006
X119.093Y-76.377
X119.454Y-80.284
X119.63Y-66.0
X120.28Y-82.672
X120.4Y-72.81
X120.624Y-90.808
X120.73Y-81.78
X121.3Y-71.61
X121.728Y-91.282
X121.87Y-67.19
X122.19Y-77.7
X123.59Y-86.39
X123.617Y-90.649
X123.93Y-63.86
X124.214Y-92.82
X124.67Y-67.1
X125.86Y-86.441
X126.748Y-85.983
X128.11Y-96.51
X128.92Y-80.5
X128.97Y-95.16
X129.78Y-93.96
X130.23Y-99.38
X130.947Y-85.727
X131.424Y-98.27
X132.14Y-85.558
X132.94Y-66.18
X132.94Y-74.06
X133.3Y-90.17
X133.497Y-91.394
X133.57Y-97.68
X134.47Y-95.18
X134.53Y-63.85
X134.934Y-85.109
X134.98Y-94.05
X135.93Y-100.18
X136.141Y-99.203
X136.486Y-91.394
X137.379Y-99.951
X137.604Y-98.977
X137.63Y-90.03
X138.165Y-102.439
X138.52Y-78.2
X139.998Y-104.276
X141.945Y-82.898
X141.98Y-97.13
X142.42Y-99.71
X142.75Y-81.79
X143.914Y-100.494
X144.394Y-96.849
X144.449Y-95.806
X144.45Y-67.38
X144.46Y-70.84
X144.666Y-91.607
X144.825Y-85.645
X145.276Y-93.495
X145.68Y-101.439
X145.95Y-71.59
X145.954Y-94.23
X146.115Y-91.416
X146.494Y-103.76
X146.51Y-83.32
X146.547Y-95.691
X146.6Y-79.06
X146.613Y-77.161
X147.05Y-101.29
X147.29Y-89.79
X147.34Y-86.0
X147.73Y-64.19
X147.999Y-96.013
X148.14Y-67.81
X148.43Y-92.02
X148.584Y-101.28
X148.59Y-86.14
X148.593Y-79.575
X149.094Y-103.76
X149.141Y-96.461
X149.356Y-84.684
X150.08Y-88.05
X150.12Y-67.87
X150.329Y-74.764
X150.422Y-83.39
X150.665Y-96.928
X151.06Y-73.36
X151.12Y-101.524
X151.144Y-103.77
X151.57Y-75.45
X151.572Y-79.829
X151.764Y-96.854
X152.52Y-101.971
X152.88Y-94.15
X152.93Y-99.968
X153.25Y-90.33
X153.744Y-103.77
X154.06Y-80.136
X154.12Y-84.99
X154.22Y-100.7
X155.14Y-96.2
X155.23Y-102.76
X155.32Y-78.06
X155.37Y-100.6
X156.282Y-78.541
X156.7Y-101.18
X156.706Y-95.79
X156.72Y-74.82
X157.37Y-86.122
X157.39Y-78.28
X157.44Y-88.68
X157.67Y-83.11
X158.035Y-100.129
X158.2Y-96.08
X158.399Y-76.597
X159.312Y-79.678
X159.32Y-99.8
X159.34Y-83.07
X159.85Y-93.09
X160.82Y-100.4
X160.991Y-75.993
X161.34Y-65.11
X161.394Y-79.859
X161.44Y-76.892
X161.44Y-78.5
X161.8Y-88.95
X173.92Y-84.55
X174.094Y-82.567
X174.094Y-80.594
X174.096Y-83.566
X174.47Y-72.16
X175.156Y-90.334
X175.85Y-74.644
X175.9Y-71.58
X176.659Y-85.368
X177.42Y-79.66
X177.51Y-70.49
X178.255Y-83.895
X179.12Y-87.0
X179.79Y-77.94
X180.331Y-80.805
X180.86Y-73.31
X181.68Y-74.99
X182.06Y-81.26
X182.92Y-85.7
X183.24Y-81.14
X183.436Y-78.498
X184.277Y-63.549
X184.42Y-91.6
X185.03Y-71.37
X185.697Y-74.078
X186.25Y-67.47
X187.02Y-83.8
X187.16Y-81.73
X188.469Y-83.5
X188.999Y-77.202
X189.12Y-94.65
X189.228Y-91.426
X189.32Y-80.3
X189.77Y-66.01
X190.12Y-71.62
X191.1Y-87.22
X191.68Y-70.07
X192.59Y-80.98
X193.67Y-87.97
X193.755Y-76.35
X194.35Y-90.733
X194.37Y-71.6
X194.71Y-68.53
X195.94Y-65.53
X196.08Y-84.996
X197.48Y-70.34
X197.545Y-68.661
X197.569Y-66.662
X197.576Y-67.662
X198.151Y-71.667
X198.32Y-78.3
X198.86Y-66.353
X199.088Y-64.904
X200.14Y-85.37
X200.18Y-63.845
X200.18Y-90.15
X200.26Y-71.556
X200.286Y-68.055
X200.302Y-65.75
X201.036Y-66.428
X201.211Y-63.845
X201.46Y-72.85
X202.019Y-70.621
X202.75Y-95.75
X202.84Y-72.461
X205.69Y-83.12
X206.58Y-93.38
X207.39Y-70.59
X207.57Y-77.43
X209.37Y-70.33
X210.086Y-80.961
X210.79Y-82.61
X211.2Y-75.07
X211.737Y-67.942
X211.74Y-78.71
X212.64Y-81.99
X213.31Y-72.001
X214.42Y-65.4
X215.03Y-86.37
X215.295Y-82.714
X215.652Y-77.215
X216.5Y-78.41
X216.65Y-70.79
X216.95Y-65.945
X217.27Y-82.28
X217.393Y-75.325
X217.7Y-67.92
X219.87Y-79.79
X220.22Y-70.9
T4
X134.21Y-79.06
X134.21Y-80.33
X134.21Y-81.6
X134.21Y-82.87
X134.21Y-84.14
X135.48Y-79.06
X135.48Y-80.33
X135.48Y-81.6
X135.48Y-82.87
X135.48Y-84.14
T5
X97.16Y-64.15
X99.7Y-64.15
X100.531Y-91.847
X100.531Y-94.387
X103.071Y-91.847
X103.071Y-94.387
X105.611Y-91.847
X105.611Y-94.387
X137.07Y-75.54
X139.61Y-75.54
X142.15Y-75.54
X145.374Y-106.42
X147.914Y-106.42
X150.454Y-106.42
X152.994Y-106.42
X194.729Y-93.081
X194.729Y-95.621
X197.269Y-93.081
X197.269Y-95.621
X199.809Y-93.081
X199.809Y-95.621
X205.534Y-65.95
T6
X121.78Y-64.54
X177.78Y-64.54
T2
G00X88.41Y-89.388
M15
G01X88.81Y-88.876
M16
G05
G00X93.926Y-93.698
M15
G01X94.326Y-93.185
M16
G05
T3
G00X91.178Y-87.712
M15
G01X90.942Y-87.528
M16
G05
G00X95.118Y-90.791
M15
G01X94.882Y-90.606
M16
G05
T0
M30
