%TF.GenerationSoftware,KiCad,Pcbnew,(6.0.5)*%
%TF.CreationDate,2022-11-12T14:57:53-08:00*%
%TF.ProjectId,Monkeys,4d6f6e6b-6579-4732-9e6b-696361645f70,2.2*%
%TF.SameCoordinates,Original*%
%TF.FileFunction,Soldermask,Bot*%
%TF.FilePolarity,Negative*%
%FSLAX46Y46*%
G04 Gerber Fmt 4.6, Leading zero omitted, Abs format (unit mm)*
G04 Created by KiCad (PCBNEW (6.0.5)) date 2022-11-12 14:57:53*
%MOMM*%
%LPD*%
G01*
G04 APERTURE LIST*
G04 Aperture macros list*
%AMRoundRect*
0 Rectangle with rounded corners*
0 $1 Rounding radius*
0 $2 $3 $4 $5 $6 $7 $8 $9 X,Y pos of 4 corners*
0 Add a 4 corners polygon primitive as box body*
4,1,4,$2,$3,$4,$5,$6,$7,$8,$9,$2,$3,0*
0 Add four circle primitives for the rounded corners*
1,1,$1+$1,$2,$3*
1,1,$1+$1,$4,$5*
1,1,$1+$1,$6,$7*
1,1,$1+$1,$8,$9*
0 Add four rect primitives between the rounded corners*
20,1,$1+$1,$2,$3,$4,$5,0*
20,1,$1+$1,$4,$5,$6,$7,0*
20,1,$1+$1,$6,$7,$8,$9,0*
20,1,$1+$1,$8,$9,$2,$3,0*%
%AMHorizOval*
0 Thick line with rounded ends*
0 $1 width*
0 $2 $3 position (X,Y) of the first rounded end (center of the circle)*
0 $4 $5 position (X,Y) of the second rounded end (center of the circle)*
0 Add line between two ends*
20,1,$1,$2,$3,$4,$5,0*
0 Add two circle primitives to create the rounded ends*
1,1,$1,$2,$3*
1,1,$1,$4,$5*%
%AMRotRect*
0 Rectangle, with rotation*
0 The origin of the aperture is its center*
0 $1 length*
0 $2 width*
0 $3 Rotation angle, in degrees counterclockwise*
0 Add horizontal line*
21,1,$1,$2,0,0,$3*%
%AMFreePoly0*
4,1,22,0.550000,-0.750000,0.000000,-0.750000,0.000000,-0.745033,-0.079941,-0.743568,-0.215256,-0.701293,-0.333266,-0.622738,-0.424486,-0.514219,-0.481581,-0.384460,-0.499164,-0.250000,-0.500000,-0.250000,-0.500000,0.250000,-0.499164,0.250000,-0.499963,0.256109,-0.478152,0.396186,-0.417904,0.524511,-0.324060,0.630769,-0.204165,0.706417,-0.067858,0.745374,0.000000,0.744960,0.000000,0.750000,
0.550000,0.750000,0.550000,-0.750000,0.550000,-0.750000,$1*%
%AMFreePoly1*
4,1,20,0.000000,0.744960,0.073905,0.744508,0.209726,0.703889,0.328688,0.626782,0.421226,0.519385,0.479903,0.390333,0.500000,0.250000,0.500000,-0.250000,0.499851,-0.262216,0.476331,-0.402017,0.414519,-0.529596,0.319384,-0.634700,0.198574,-0.708877,0.061801,-0.746166,0.000000,-0.745033,0.000000,-0.750000,-0.550000,-0.750000,-0.550000,0.750000,0.000000,0.750000,0.000000,0.744960,
0.000000,0.744960,$1*%
%AMFreePoly2*
4,1,22,0.500000,-0.750000,0.000000,-0.750000,0.000000,-0.745033,-0.079941,-0.743568,-0.215256,-0.701293,-0.333266,-0.622738,-0.424486,-0.514219,-0.481581,-0.384460,-0.499164,-0.250000,-0.500000,-0.250000,-0.500000,0.250000,-0.499164,0.250000,-0.499963,0.256109,-0.478152,0.396186,-0.417904,0.524511,-0.324060,0.630769,-0.204165,0.706417,-0.067858,0.745374,0.000000,0.744959,0.000000,0.750000,
0.500000,0.750000,0.500000,-0.750000,0.500000,-0.750000,$1*%
%AMFreePoly3*
4,1,20,0.000000,0.744959,0.073905,0.744508,0.209726,0.703889,0.328688,0.626782,0.421226,0.519385,0.479903,0.390333,0.500000,0.250000,0.500000,-0.250000,0.499851,-0.262216,0.476331,-0.402017,0.414519,-0.529596,0.319384,-0.634700,0.198574,-0.708877,0.061801,-0.746166,0.000000,-0.745033,0.000000,-0.750000,-0.500000,-0.750000,-0.500000,0.750000,0.000000,0.750000,0.000000,0.744959,
0.000000,0.744959,$1*%
G04 Aperture macros list end*
%ADD10C,0.100000*%
%ADD11C,0.150000*%
%ADD12C,0.300000*%
%ADD13C,0.400000*%
%ADD14R,1.700000X1.700000*%
%ADD15O,1.700000X1.700000*%
%ADD16C,4.500000*%
%ADD17C,0.850000*%
%ADD18R,1.000000X1.000000*%
%ADD19O,1.000000X1.000000*%
%ADD20R,0.900000X2.000000*%
%ADD21R,2.000000X0.900000*%
%ADD22R,5.000000X5.000000*%
%ADD23FreePoly0,225.000000*%
%ADD24RotRect,1.000000X1.500000X225.000000*%
%ADD25FreePoly1,225.000000*%
%ADD26FreePoly2,180.000000*%
%ADD27FreePoly3,180.000000*%
%ADD28RotRect,0.400000X1.350000X142.000000*%
%ADD29HorizOval,0.650000X-0.256103X0.200090X0.256103X-0.200090X0*%
%ADD30RoundRect,0.400000X0.147741X-0.623035X0.640270X0.007374X-0.147741X0.623035X-0.640270X-0.007374X0*%
%ADD31HorizOval,0.775000X0.238569X0.305354X-0.238569X-0.305354X0*%
%ADD32RotRect,1.500000X1.550000X142.000000*%
%ADD33FreePoly0,0.000000*%
%ADD34R,1.000000X1.500000*%
%ADD35FreePoly1,0.000000*%
%ADD36FreePoly0,180.000000*%
%ADD37FreePoly1,180.000000*%
%ADD38FreePoly0,45.000000*%
%ADD39RotRect,1.000000X1.500000X45.000000*%
%ADD40FreePoly1,45.000000*%
%ADD41RoundRect,0.150000X-0.825000X-0.150000X0.825000X-0.150000X0.825000X0.150000X-0.825000X0.150000X0*%
%ADD42R,2.000000X2.000000*%
%ADD43C,2.000000*%
%ADD44FreePoly2,0.000000*%
%ADD45FreePoly3,0.000000*%
%ADD46FreePoly2,270.000000*%
%ADD47FreePoly3,270.000000*%
%ADD48C,1.000000*%
%ADD49R,1.200000X2.500000*%
%ADD50C,0.800000*%
G04 APERTURE END LIST*
D10*
D11*
X177002200Y-166007200D02*
X177002200Y-198007200D01*
X285002200Y-198007200D01*
X285002200Y-166007200D01*
X177002200Y-166007200D01*
D10*
D11*
X10000000Y-10000000D02*
X10000000Y-200007200D01*
X287002200Y-200007200D01*
X287002200Y-10000000D01*
X10000000Y-10000000D01*
D10*
D11*
X12000000Y-12000000D02*
X12000000Y-198007200D01*
X285002200Y-198007200D01*
X285002200Y-12000000D01*
X12000000Y-12000000D01*
D10*
D11*
X60000000Y-12000000D02*
X60000000Y-10000000D01*
D10*
D11*
X110000000Y-12000000D02*
X110000000Y-10000000D01*
D10*
D11*
X160000000Y-12000000D02*
X160000000Y-10000000D01*
D10*
D11*
X210000000Y-12000000D02*
X210000000Y-10000000D01*
D10*
D11*
X260000000Y-12000000D02*
X260000000Y-10000000D01*
D10*
D11*
X36065476Y-11588095D02*
X35322619Y-11588095D01*
X35694047Y-11588095D02*
X35694047Y-10288095D01*
X35570238Y-10473809D01*
X35446428Y-10597619D01*
X35322619Y-10659523D01*
D10*
D11*
X85322619Y-10411904D02*
X85384523Y-10350000D01*
X85508333Y-10288095D01*
X85817857Y-10288095D01*
X85941666Y-10350000D01*
X86003571Y-10411904D01*
X86065476Y-10535714D01*
X86065476Y-10659523D01*
X86003571Y-10845238D01*
X85260714Y-11588095D01*
X86065476Y-11588095D01*
D10*
D11*
X135260714Y-10288095D02*
X136065476Y-10288095D01*
X135632142Y-10783333D01*
X135817857Y-10783333D01*
X135941666Y-10845238D01*
X136003571Y-10907142D01*
X136065476Y-11030952D01*
X136065476Y-11340476D01*
X136003571Y-11464285D01*
X135941666Y-11526190D01*
X135817857Y-11588095D01*
X135446428Y-11588095D01*
X135322619Y-11526190D01*
X135260714Y-11464285D01*
D10*
D11*
X185941666Y-10721428D02*
X185941666Y-11588095D01*
X185632142Y-10226190D02*
X185322619Y-11154761D01*
X186127380Y-11154761D01*
D10*
D11*
X236003571Y-10288095D02*
X235384523Y-10288095D01*
X235322619Y-10907142D01*
X235384523Y-10845238D01*
X235508333Y-10783333D01*
X235817857Y-10783333D01*
X235941666Y-10845238D01*
X236003571Y-10907142D01*
X236065476Y-11030952D01*
X236065476Y-11340476D01*
X236003571Y-11464285D01*
X235941666Y-11526190D01*
X235817857Y-11588095D01*
X235508333Y-11588095D01*
X235384523Y-11526190D01*
X235322619Y-11464285D01*
D10*
D11*
X285941666Y-10288095D02*
X285694047Y-10288095D01*
X285570238Y-10350000D01*
X285508333Y-10411904D01*
X285384523Y-10597619D01*
X285322619Y-10845238D01*
X285322619Y-11340476D01*
X285384523Y-11464285D01*
X285446428Y-11526190D01*
X285570238Y-11588095D01*
X285817857Y-11588095D01*
X285941666Y-11526190D01*
X286003571Y-11464285D01*
X286065476Y-11340476D01*
X286065476Y-11030952D01*
X286003571Y-10907142D01*
X285941666Y-10845238D01*
X285817857Y-10783333D01*
X285570238Y-10783333D01*
X285446428Y-10845238D01*
X285384523Y-10907142D01*
X285322619Y-11030952D01*
D10*
D11*
X60000000Y-198007200D02*
X60000000Y-200007200D01*
D10*
D11*
X110000000Y-198007200D02*
X110000000Y-200007200D01*
D10*
D11*
X160000000Y-198007200D02*
X160000000Y-200007200D01*
D10*
D11*
X210000000Y-198007200D02*
X210000000Y-200007200D01*
D10*
D11*
X260000000Y-198007200D02*
X260000000Y-200007200D01*
D10*
D11*
X36065476Y-199595295D02*
X35322619Y-199595295D01*
X35694047Y-199595295D02*
X35694047Y-198295295D01*
X35570238Y-198481009D01*
X35446428Y-198604819D01*
X35322619Y-198666723D01*
D10*
D11*
X85322619Y-198419104D02*
X85384523Y-198357200D01*
X85508333Y-198295295D01*
X85817857Y-198295295D01*
X85941666Y-198357200D01*
X86003571Y-198419104D01*
X86065476Y-198542914D01*
X86065476Y-198666723D01*
X86003571Y-198852438D01*
X85260714Y-199595295D01*
X86065476Y-199595295D01*
D10*
D11*
X135260714Y-198295295D02*
X136065476Y-198295295D01*
X135632142Y-198790533D01*
X135817857Y-198790533D01*
X135941666Y-198852438D01*
X136003571Y-198914342D01*
X136065476Y-199038152D01*
X136065476Y-199347676D01*
X136003571Y-199471485D01*
X135941666Y-199533390D01*
X135817857Y-199595295D01*
X135446428Y-199595295D01*
X135322619Y-199533390D01*
X135260714Y-199471485D01*
D10*
D11*
X185941666Y-198728628D02*
X185941666Y-199595295D01*
X185632142Y-198233390D02*
X185322619Y-199161961D01*
X186127380Y-199161961D01*
D10*
D11*
X236003571Y-198295295D02*
X235384523Y-198295295D01*
X235322619Y-198914342D01*
X235384523Y-198852438D01*
X235508333Y-198790533D01*
X235817857Y-198790533D01*
X235941666Y-198852438D01*
X236003571Y-198914342D01*
X236065476Y-199038152D01*
X236065476Y-199347676D01*
X236003571Y-199471485D01*
X235941666Y-199533390D01*
X235817857Y-199595295D01*
X235508333Y-199595295D01*
X235384523Y-199533390D01*
X235322619Y-199471485D01*
D10*
D11*
X285941666Y-198295295D02*
X285694047Y-198295295D01*
X285570238Y-198357200D01*
X285508333Y-198419104D01*
X285384523Y-198604819D01*
X285322619Y-198852438D01*
X285322619Y-199347676D01*
X285384523Y-199471485D01*
X285446428Y-199533390D01*
X285570238Y-199595295D01*
X285817857Y-199595295D01*
X285941666Y-199533390D01*
X286003571Y-199471485D01*
X286065476Y-199347676D01*
X286065476Y-199038152D01*
X286003571Y-198914342D01*
X285941666Y-198852438D01*
X285817857Y-198790533D01*
X285570238Y-198790533D01*
X285446428Y-198852438D01*
X285384523Y-198914342D01*
X285322619Y-199038152D01*
D10*
D11*
X10000000Y-60000000D02*
X12000000Y-60000000D01*
D10*
D11*
X10000000Y-110000000D02*
X12000000Y-110000000D01*
D10*
D11*
X10000000Y-160000000D02*
X12000000Y-160000000D01*
D10*
D11*
X10690476Y-35216666D02*
X11309523Y-35216666D01*
X10566666Y-35588095D02*
X11000000Y-34288095D01*
X11433333Y-35588095D01*
D10*
D11*
X11092857Y-84907142D02*
X11278571Y-84969047D01*
X11340476Y-85030952D01*
X11402380Y-85154761D01*
X11402380Y-85340476D01*
X11340476Y-85464285D01*
X11278571Y-85526190D01*
X11154761Y-85588095D01*
X10659523Y-85588095D01*
X10659523Y-84288095D01*
X11092857Y-84288095D01*
X11216666Y-84350000D01*
X11278571Y-84411904D01*
X11340476Y-84535714D01*
X11340476Y-84659523D01*
X11278571Y-84783333D01*
X11216666Y-84845238D01*
X11092857Y-84907142D01*
X10659523Y-84907142D01*
D10*
D11*
X11402380Y-135464285D02*
X11340476Y-135526190D01*
X11154761Y-135588095D01*
X11030952Y-135588095D01*
X10845238Y-135526190D01*
X10721428Y-135402380D01*
X10659523Y-135278571D01*
X10597619Y-135030952D01*
X10597619Y-134845238D01*
X10659523Y-134597619D01*
X10721428Y-134473809D01*
X10845238Y-134350000D01*
X11030952Y-134288095D01*
X11154761Y-134288095D01*
X11340476Y-134350000D01*
X11402380Y-134411904D01*
D10*
D11*
X10659523Y-185588095D02*
X10659523Y-184288095D01*
X10969047Y-184288095D01*
X11154761Y-184350000D01*
X11278571Y-184473809D01*
X11340476Y-184597619D01*
X11402380Y-184845238D01*
X11402380Y-185030952D01*
X11340476Y-185278571D01*
X11278571Y-185402380D01*
X11154761Y-185526190D01*
X10969047Y-185588095D01*
X10659523Y-185588095D01*
D10*
D11*
X287002200Y-60000000D02*
X285002200Y-60000000D01*
D10*
D11*
X287002200Y-110000000D02*
X285002200Y-110000000D01*
D10*
D11*
X287002200Y-160000000D02*
X285002200Y-160000000D01*
D10*
D11*
X285692676Y-35216666D02*
X286311723Y-35216666D01*
X285568866Y-35588095D02*
X286002200Y-34288095D01*
X286435533Y-35588095D01*
D10*
D11*
X286095057Y-84907142D02*
X286280771Y-84969047D01*
X286342676Y-85030952D01*
X286404580Y-85154761D01*
X286404580Y-85340476D01*
X286342676Y-85464285D01*
X286280771Y-85526190D01*
X286156961Y-85588095D01*
X285661723Y-85588095D01*
X285661723Y-84288095D01*
X286095057Y-84288095D01*
X286218866Y-84350000D01*
X286280771Y-84411904D01*
X286342676Y-84535714D01*
X286342676Y-84659523D01*
X286280771Y-84783333D01*
X286218866Y-84845238D01*
X286095057Y-84907142D01*
X285661723Y-84907142D01*
D10*
D11*
X286404580Y-135464285D02*
X286342676Y-135526190D01*
X286156961Y-135588095D01*
X286033152Y-135588095D01*
X285847438Y-135526190D01*
X285723628Y-135402380D01*
X285661723Y-135278571D01*
X285599819Y-135030952D01*
X285599819Y-134845238D01*
X285661723Y-134597619D01*
X285723628Y-134473809D01*
X285847438Y-134350000D01*
X286033152Y-134288095D01*
X286156961Y-134288095D01*
X286342676Y-134350000D01*
X286404580Y-134411904D01*
D10*
D11*
X285661723Y-185588095D02*
X285661723Y-184288095D01*
X285971247Y-184288095D01*
X286156961Y-184350000D01*
X286280771Y-184473809D01*
X286342676Y-184597619D01*
X286404580Y-184845238D01*
X286404580Y-185030952D01*
X286342676Y-185278571D01*
X286280771Y-185402380D01*
X286156961Y-185526190D01*
X285971247Y-185588095D01*
X285661723Y-185588095D01*
D10*
D11*
X200434342Y-193785771D02*
X200434342Y-192285771D01*
X200791485Y-192285771D01*
X201005771Y-192357200D01*
X201148628Y-192500057D01*
X201220057Y-192642914D01*
X201291485Y-192928628D01*
X201291485Y-193142914D01*
X201220057Y-193428628D01*
X201148628Y-193571485D01*
X201005771Y-193714342D01*
X200791485Y-193785771D01*
X200434342Y-193785771D01*
X202577200Y-193785771D02*
X202577200Y-193000057D01*
X202505771Y-192857200D01*
X202362914Y-192785771D01*
X202077200Y-192785771D01*
X201934342Y-192857200D01*
X202577200Y-193714342D02*
X202434342Y-193785771D01*
X202077200Y-193785771D01*
X201934342Y-193714342D01*
X201862914Y-193571485D01*
X201862914Y-193428628D01*
X201934342Y-193285771D01*
X202077200Y-193214342D01*
X202434342Y-193214342D01*
X202577200Y-193142914D01*
X203077200Y-192785771D02*
X203648628Y-192785771D01*
X203291485Y-192285771D02*
X203291485Y-193571485D01*
X203362914Y-193714342D01*
X203505771Y-193785771D01*
X203648628Y-193785771D01*
X204720057Y-193714342D02*
X204577200Y-193785771D01*
X204291485Y-193785771D01*
X204148628Y-193714342D01*
X204077200Y-193571485D01*
X204077200Y-193000057D01*
X204148628Y-192857200D01*
X204291485Y-192785771D01*
X204577200Y-192785771D01*
X204720057Y-192857200D01*
X204791485Y-193000057D01*
X204791485Y-193142914D01*
X204077200Y-193285771D01*
X205434342Y-193642914D02*
X205505771Y-193714342D01*
X205434342Y-193785771D01*
X205362914Y-193714342D01*
X205434342Y-193642914D01*
X205434342Y-193785771D01*
X205434342Y-192857200D02*
X205505771Y-192928628D01*
X205434342Y-193000057D01*
X205362914Y-192928628D01*
X205434342Y-192857200D01*
X205434342Y-193000057D01*
X207220057Y-192428628D02*
X207291485Y-192357200D01*
X207434342Y-192285771D01*
X207791485Y-192285771D01*
X207934342Y-192357200D01*
X208005771Y-192428628D01*
X208077200Y-192571485D01*
X208077200Y-192714342D01*
X208005771Y-192928628D01*
X207148628Y-193785771D01*
X208077200Y-193785771D01*
X209005771Y-192285771D02*
X209148628Y-192285771D01*
X209291485Y-192357200D01*
X209362914Y-192428628D01*
X209434342Y-192571485D01*
X209505771Y-192857200D01*
X209505771Y-193214342D01*
X209434342Y-193500057D01*
X209362914Y-193642914D01*
X209291485Y-193714342D01*
X209148628Y-193785771D01*
X209005771Y-193785771D01*
X208862914Y-193714342D01*
X208791485Y-193642914D01*
X208720057Y-193500057D01*
X208648628Y-193214342D01*
X208648628Y-192857200D01*
X208720057Y-192571485D01*
X208791485Y-192428628D01*
X208862914Y-192357200D01*
X209005771Y-192285771D01*
X210077200Y-192428628D02*
X210148628Y-192357200D01*
X210291485Y-192285771D01*
X210648628Y-192285771D01*
X210791485Y-192357200D01*
X210862914Y-192428628D01*
X210934342Y-192571485D01*
X210934342Y-192714342D01*
X210862914Y-192928628D01*
X210005771Y-193785771D01*
X210934342Y-193785771D01*
X211505771Y-192428628D02*
X211577200Y-192357200D01*
X211720057Y-192285771D01*
X212077200Y-192285771D01*
X212220057Y-192357200D01*
X212291485Y-192428628D01*
X212362914Y-192571485D01*
X212362914Y-192714342D01*
X212291485Y-192928628D01*
X211434342Y-193785771D01*
X212362914Y-193785771D01*
X213005771Y-193214342D02*
X214148628Y-193214342D01*
X215648628Y-193785771D02*
X214791485Y-193785771D01*
X215220057Y-193785771D02*
X215220057Y-192285771D01*
X215077200Y-192500057D01*
X214934342Y-192642914D01*
X214791485Y-192714342D01*
X217077200Y-193785771D02*
X216220057Y-193785771D01*
X216648628Y-193785771D02*
X216648628Y-192285771D01*
X216505771Y-192500057D01*
X216362914Y-192642914D01*
X216220057Y-192714342D01*
X217720057Y-193214342D02*
X218862914Y-193214342D01*
X220362914Y-193785771D02*
X219505771Y-193785771D01*
X219934342Y-193785771D02*
X219934342Y-192285771D01*
X219791485Y-192500057D01*
X219648628Y-192642914D01*
X219505771Y-192714342D01*
X220934342Y-192428628D02*
X221005771Y-192357200D01*
X221148628Y-192285771D01*
X221505771Y-192285771D01*
X221648628Y-192357200D01*
X221720057Y-192428628D01*
X221791485Y-192571485D01*
X221791485Y-192714342D01*
X221720057Y-192928628D01*
X220862914Y-193785771D01*
X221791485Y-193785771D01*
D10*
D11*
X177002200Y-194507200D02*
X285002200Y-194507200D01*
D10*
D11*
X178434342Y-196585771D02*
X178434342Y-195085771D01*
X179291485Y-196585771D02*
X178648628Y-195728628D01*
X179291485Y-195085771D02*
X178434342Y-195942914D01*
X179934342Y-196585771D02*
X179934342Y-195585771D01*
X179934342Y-195085771D02*
X179862914Y-195157200D01*
X179934342Y-195228628D01*
X180005771Y-195157200D01*
X179934342Y-195085771D01*
X179934342Y-195228628D01*
X181505771Y-196442914D02*
X181434342Y-196514342D01*
X181220057Y-196585771D01*
X181077200Y-196585771D01*
X180862914Y-196514342D01*
X180720057Y-196371485D01*
X180648628Y-196228628D01*
X180577200Y-195942914D01*
X180577200Y-195728628D01*
X180648628Y-195442914D01*
X180720057Y-195300057D01*
X180862914Y-195157200D01*
X181077200Y-195085771D01*
X181220057Y-195085771D01*
X181434342Y-195157200D01*
X181505771Y-195228628D01*
X182791485Y-196585771D02*
X182791485Y-195800057D01*
X182720057Y-195657200D01*
X182577200Y-195585771D01*
X182291485Y-195585771D01*
X182148628Y-195657200D01*
X182791485Y-196514342D02*
X182648628Y-196585771D01*
X182291485Y-196585771D01*
X182148628Y-196514342D01*
X182077200Y-196371485D01*
X182077200Y-196228628D01*
X182148628Y-196085771D01*
X182291485Y-196014342D01*
X182648628Y-196014342D01*
X182791485Y-195942914D01*
X184148628Y-196585771D02*
X184148628Y-195085771D01*
X184148628Y-196514342D02*
X184005771Y-196585771D01*
X183720057Y-196585771D01*
X183577200Y-196514342D01*
X183505771Y-196442914D01*
X183434342Y-196300057D01*
X183434342Y-195871485D01*
X183505771Y-195728628D01*
X183577200Y-195657200D01*
X183720057Y-195585771D01*
X184005771Y-195585771D01*
X184148628Y-195657200D01*
X186005771Y-195800057D02*
X186505771Y-195800057D01*
X186720057Y-196585771D02*
X186005771Y-196585771D01*
X186005771Y-195085771D01*
X186720057Y-195085771D01*
X187362914Y-196442914D02*
X187434342Y-196514342D01*
X187362914Y-196585771D01*
X187291485Y-196514342D01*
X187362914Y-196442914D01*
X187362914Y-196585771D01*
X188077200Y-196585771D02*
X188077200Y-195085771D01*
X188434342Y-195085771D01*
X188648628Y-195157200D01*
X188791485Y-195300057D01*
X188862914Y-195442914D01*
X188934342Y-195728628D01*
X188934342Y-195942914D01*
X188862914Y-196228628D01*
X188791485Y-196371485D01*
X188648628Y-196514342D01*
X188434342Y-196585771D01*
X188077200Y-196585771D01*
X189577200Y-196442914D02*
X189648628Y-196514342D01*
X189577200Y-196585771D01*
X189505771Y-196514342D01*
X189577200Y-196442914D01*
X189577200Y-196585771D01*
X190220057Y-196157200D02*
X190934342Y-196157200D01*
X190077200Y-196585771D02*
X190577200Y-195085771D01*
X191077200Y-196585771D01*
X191577200Y-196442914D02*
X191648628Y-196514342D01*
X191577200Y-196585771D01*
X191505771Y-196514342D01*
X191577200Y-196442914D01*
X191577200Y-196585771D01*
X194577200Y-196585771D02*
X194577200Y-195085771D01*
X194720057Y-196014342D02*
X195148628Y-196585771D01*
X195148628Y-195585771D02*
X194577200Y-196157200D01*
X195791485Y-196585771D02*
X195791485Y-195585771D01*
X195791485Y-195085771D02*
X195720057Y-195157200D01*
X195791485Y-195228628D01*
X195862914Y-195157200D01*
X195791485Y-195085771D01*
X195791485Y-195228628D01*
X197148628Y-196514342D02*
X197005771Y-196585771D01*
X196720057Y-196585771D01*
X196577200Y-196514342D01*
X196505771Y-196442914D01*
X196434342Y-196300057D01*
X196434342Y-195871485D01*
X196505771Y-195728628D01*
X196577200Y-195657200D01*
X196720057Y-195585771D01*
X197005771Y-195585771D01*
X197148628Y-195657200D01*
X198434342Y-196585771D02*
X198434342Y-195800057D01*
X198362914Y-195657200D01*
X198220057Y-195585771D01*
X197934342Y-195585771D01*
X197791485Y-195657200D01*
X198434342Y-196514342D02*
X198291485Y-196585771D01*
X197934342Y-196585771D01*
X197791485Y-196514342D01*
X197720057Y-196371485D01*
X197720057Y-196228628D01*
X197791485Y-196085771D01*
X197934342Y-196014342D01*
X198291485Y-196014342D01*
X198434342Y-195942914D01*
X199791485Y-196585771D02*
X199791485Y-195085771D01*
X199791485Y-196514342D02*
X199648628Y-196585771D01*
X199362914Y-196585771D01*
X199220057Y-196514342D01*
X199148628Y-196442914D01*
X199077200Y-196300057D01*
X199077200Y-195871485D01*
X199148628Y-195728628D01*
X199220057Y-195657200D01*
X199362914Y-195585771D01*
X199648628Y-195585771D01*
X199791485Y-195657200D01*
X202077200Y-197157200D02*
X202005771Y-197085771D01*
X201862914Y-196871485D01*
X201791485Y-196728628D01*
X201720057Y-196514342D01*
X201648628Y-196157200D01*
X201648628Y-195871485D01*
X201720057Y-195514342D01*
X201791485Y-195300057D01*
X201862914Y-195157200D01*
X202005771Y-194942914D01*
X202077200Y-194871485D01*
X203291485Y-195085771D02*
X203005771Y-195085771D01*
X202862914Y-195157200D01*
X202791485Y-195228628D01*
X202648628Y-195442914D01*
X202577200Y-195728628D01*
X202577200Y-196300057D01*
X202648628Y-196442914D01*
X202720057Y-196514342D01*
X202862914Y-196585771D01*
X203148628Y-196585771D01*
X203291485Y-196514342D01*
X203362914Y-196442914D01*
X203434342Y-196300057D01*
X203434342Y-195942914D01*
X203362914Y-195800057D01*
X203291485Y-195728628D01*
X203148628Y-195657200D01*
X202862914Y-195657200D01*
X202720057Y-195728628D01*
X202648628Y-195800057D01*
X202577200Y-195942914D01*
X204077200Y-196442914D02*
X204148628Y-196514342D01*
X204077200Y-196585771D01*
X204005771Y-196514342D01*
X204077200Y-196442914D01*
X204077200Y-196585771D01*
X205077200Y-195085771D02*
X205220057Y-195085771D01*
X205362914Y-195157200D01*
X205434342Y-195228628D01*
X205505771Y-195371485D01*
X205577200Y-195657200D01*
X205577200Y-196014342D01*
X205505771Y-196300057D01*
X205434342Y-196442914D01*
X205362914Y-196514342D01*
X205220057Y-196585771D01*
X205077200Y-196585771D01*
X204934342Y-196514342D01*
X204862914Y-196442914D01*
X204791485Y-196300057D01*
X204720057Y-196014342D01*
X204720057Y-195657200D01*
X204791485Y-195371485D01*
X204862914Y-195228628D01*
X204934342Y-195157200D01*
X205077200Y-195085771D01*
X206220057Y-196442914D02*
X206291485Y-196514342D01*
X206220057Y-196585771D01*
X206148628Y-196514342D01*
X206220057Y-196442914D01*
X206220057Y-196585771D01*
X207648628Y-195085771D02*
X206934342Y-195085771D01*
X206862914Y-195800057D01*
X206934342Y-195728628D01*
X207077200Y-195657200D01*
X207434342Y-195657200D01*
X207577200Y-195728628D01*
X207648628Y-195800057D01*
X207720057Y-195942914D01*
X207720057Y-196300057D01*
X207648628Y-196442914D01*
X207577200Y-196514342D01*
X207434342Y-196585771D01*
X207077200Y-196585771D01*
X206934342Y-196514342D01*
X206862914Y-196442914D01*
X208220057Y-197157200D02*
X208291485Y-197085771D01*
X208434342Y-196871485D01*
X208505771Y-196728628D01*
X208577200Y-196514342D01*
X208648628Y-196157200D01*
X208648628Y-195871485D01*
X208577200Y-195514342D01*
X208505771Y-195300057D01*
X208434342Y-195157200D01*
X208291485Y-194942914D01*
X208220057Y-194871485D01*
D10*
D11*
X177002200Y-191507200D02*
X285002200Y-191507200D01*
D10*
D12*
X264411485Y-193785771D02*
X263911485Y-193071485D01*
X263554342Y-193785771D02*
X263554342Y-192285771D01*
X264125771Y-192285771D01*
X264268628Y-192357200D01*
X264340057Y-192428628D01*
X264411485Y-192571485D01*
X264411485Y-192785771D01*
X264340057Y-192928628D01*
X264268628Y-193000057D01*
X264125771Y-193071485D01*
X263554342Y-193071485D01*
X265625771Y-193714342D02*
X265482914Y-193785771D01*
X265197200Y-193785771D01*
X265054342Y-193714342D01*
X264982914Y-193571485D01*
X264982914Y-193000057D01*
X265054342Y-192857200D01*
X265197200Y-192785771D01*
X265482914Y-192785771D01*
X265625771Y-192857200D01*
X265697200Y-193000057D01*
X265697200Y-193142914D01*
X264982914Y-193285771D01*
X266197200Y-192785771D02*
X266554342Y-193785771D01*
X266911485Y-192785771D01*
X267482914Y-193642914D02*
X267554342Y-193714342D01*
X267482914Y-193785771D01*
X267411485Y-193714342D01*
X267482914Y-193642914D01*
X267482914Y-193785771D01*
X267482914Y-192857200D02*
X267554342Y-192928628D01*
X267482914Y-193000057D01*
X267411485Y-192928628D01*
X267482914Y-192857200D01*
X267482914Y-193000057D01*
X269268628Y-192428628D02*
X269340057Y-192357200D01*
X269482914Y-192285771D01*
X269840057Y-192285771D01*
X269982914Y-192357200D01*
X270054342Y-192428628D01*
X270125771Y-192571485D01*
X270125771Y-192714342D01*
X270054342Y-192928628D01*
X269197200Y-193785771D01*
X270125771Y-193785771D01*
X270768628Y-193642914D02*
X270840057Y-193714342D01*
X270768628Y-193785771D01*
X270697200Y-193714342D01*
X270768628Y-193642914D01*
X270768628Y-193785771D01*
X271411485Y-192428628D02*
X271482914Y-192357200D01*
X271625771Y-192285771D01*
X271982914Y-192285771D01*
X272125771Y-192357200D01*
X272197200Y-192428628D01*
X272268628Y-192571485D01*
X272268628Y-192714342D01*
X272197200Y-192928628D01*
X271340057Y-193785771D01*
X272268628Y-193785771D01*
D10*
D11*
X178362914Y-193714342D02*
X178577200Y-193785771D01*
X178934342Y-193785771D01*
X179077200Y-193714342D01*
X179148628Y-193642914D01*
X179220057Y-193500057D01*
X179220057Y-193357200D01*
X179148628Y-193214342D01*
X179077200Y-193142914D01*
X178934342Y-193071485D01*
X178648628Y-193000057D01*
X178505771Y-192928628D01*
X178434342Y-192857200D01*
X178362914Y-192714342D01*
X178362914Y-192571485D01*
X178434342Y-192428628D01*
X178505771Y-192357200D01*
X178648628Y-192285771D01*
X179005771Y-192285771D01*
X179220057Y-192357200D01*
X179862914Y-193785771D02*
X179862914Y-192785771D01*
X179862914Y-192285771D02*
X179791485Y-192357200D01*
X179862914Y-192428628D01*
X179934342Y-192357200D01*
X179862914Y-192285771D01*
X179862914Y-192428628D01*
X180434342Y-192785771D02*
X181220057Y-192785771D01*
X180434342Y-193785771D01*
X181220057Y-193785771D01*
X182362914Y-193714342D02*
X182220057Y-193785771D01*
X181934342Y-193785771D01*
X181791485Y-193714342D01*
X181720057Y-193571485D01*
X181720057Y-193000057D01*
X181791485Y-192857200D01*
X181934342Y-192785771D01*
X182220057Y-192785771D01*
X182362914Y-192857200D01*
X182434342Y-193000057D01*
X182434342Y-193142914D01*
X181720057Y-193285771D01*
X183077200Y-193642914D02*
X183148628Y-193714342D01*
X183077200Y-193785771D01*
X183005771Y-193714342D01*
X183077200Y-193642914D01*
X183077200Y-193785771D01*
X183077200Y-192857200D02*
X183148628Y-192928628D01*
X183077200Y-193000057D01*
X183005771Y-192928628D01*
X183077200Y-192857200D01*
X183077200Y-193000057D01*
X184862914Y-193357200D02*
X185577200Y-193357200D01*
X184720057Y-193785771D02*
X185220057Y-192285771D01*
X185720057Y-193785771D01*
X186862914Y-192785771D02*
X186862914Y-193785771D01*
X186505771Y-192214342D02*
X186148628Y-193285771D01*
X187077200Y-193285771D01*
D10*
D11*
X263434342Y-196585771D02*
X263434342Y-195085771D01*
X264791485Y-196585771D02*
X264791485Y-195085771D01*
X264791485Y-196514342D02*
X264648628Y-196585771D01*
X264362914Y-196585771D01*
X264220057Y-196514342D01*
X264148628Y-196442914D01*
X264077200Y-196300057D01*
X264077200Y-195871485D01*
X264148628Y-195728628D01*
X264220057Y-195657200D01*
X264362914Y-195585771D01*
X264648628Y-195585771D01*
X264791485Y-195657200D01*
X265505771Y-196442914D02*
X265577200Y-196514342D01*
X265505771Y-196585771D01*
X265434342Y-196514342D01*
X265505771Y-196442914D01*
X265505771Y-196585771D01*
X265505771Y-195657200D02*
X265577200Y-195728628D01*
X265505771Y-195800057D01*
X265434342Y-195728628D01*
X265505771Y-195657200D01*
X265505771Y-195800057D01*
X268148628Y-196585771D02*
X267291485Y-196585771D01*
X267720057Y-196585771D02*
X267720057Y-195085771D01*
X267577200Y-195300057D01*
X267434342Y-195442914D01*
X267291485Y-195514342D01*
X269862914Y-195014342D02*
X268577200Y-196942914D01*
X271148628Y-196585771D02*
X270291485Y-196585771D01*
X270720057Y-196585771D02*
X270720057Y-195085771D01*
X270577200Y-195300057D01*
X270434342Y-195442914D01*
X270291485Y-195514342D01*
D10*
D11*
X177002200Y-187507200D02*
X285002200Y-187507200D01*
D10*
D13*
X178714580Y-188211961D02*
X179857438Y-188211961D01*
X179036009Y-190211961D02*
X179286009Y-188211961D01*
X180274104Y-190211961D02*
X180440771Y-188878628D01*
X180524104Y-188211961D02*
X180416961Y-188307200D01*
X180500295Y-188402438D01*
X180607438Y-188307200D01*
X180524104Y-188211961D01*
X180500295Y-188402438D01*
X181107438Y-188878628D02*
X181869342Y-188878628D01*
X181476485Y-188211961D02*
X181262200Y-189926247D01*
X181333628Y-190116723D01*
X181512200Y-190211961D01*
X181702676Y-190211961D01*
X182655057Y-190211961D02*
X182476485Y-190116723D01*
X182405057Y-189926247D01*
X182619342Y-188211961D01*
X184190771Y-190116723D02*
X183988390Y-190211961D01*
X183607438Y-190211961D01*
X183428866Y-190116723D01*
X183357438Y-189926247D01*
X183452676Y-189164342D01*
X183571723Y-188973866D01*
X183774104Y-188878628D01*
X184155057Y-188878628D01*
X184333628Y-188973866D01*
X184405057Y-189164342D01*
X184381247Y-189354819D01*
X183405057Y-189545295D01*
X185155057Y-190021485D02*
X185238390Y-190116723D01*
X185131247Y-190211961D01*
X185047914Y-190116723D01*
X185155057Y-190021485D01*
X185131247Y-190211961D01*
X185286009Y-188973866D02*
X185369342Y-189069104D01*
X185262200Y-189164342D01*
X185178866Y-189069104D01*
X185286009Y-188973866D01*
X185262200Y-189164342D01*
X187607438Y-190211961D02*
X187857438Y-188211961D01*
X188345533Y-189640533D01*
X189190771Y-188211961D01*
X188940771Y-190211961D01*
X190178866Y-190211961D02*
X190000295Y-190116723D01*
X189916961Y-190021485D01*
X189845533Y-189831009D01*
X189916961Y-189259580D01*
X190036009Y-189069104D01*
X190143152Y-188973866D01*
X190345533Y-188878628D01*
X190631247Y-188878628D01*
X190809819Y-188973866D01*
X190893152Y-189069104D01*
X190964580Y-189259580D01*
X190893152Y-189831009D01*
X190774104Y-190021485D01*
X190666961Y-190116723D01*
X190464580Y-190211961D01*
X190178866Y-190211961D01*
X191869342Y-188878628D02*
X191702676Y-190211961D01*
X191845533Y-189069104D02*
X191952676Y-188973866D01*
X192155057Y-188878628D01*
X192440771Y-188878628D01*
X192619342Y-188973866D01*
X192690771Y-189164342D01*
X192559819Y-190211961D01*
X193512200Y-190211961D02*
X193762200Y-188211961D01*
X193797914Y-189450057D02*
X194274104Y-190211961D01*
X194440771Y-188878628D02*
X193583628Y-189640533D01*
X195905057Y-190116723D02*
X195702676Y-190211961D01*
X195321723Y-190211961D01*
X195143152Y-190116723D01*
X195071723Y-189926247D01*
X195166961Y-189164342D01*
X195286009Y-188973866D01*
X195488390Y-188878628D01*
X195869342Y-188878628D01*
X196047914Y-188973866D01*
X196119342Y-189164342D01*
X196095533Y-189354819D01*
X195119342Y-189545295D01*
X196821723Y-188878628D02*
X197131247Y-190211961D01*
X197774104Y-188878628D02*
X197131247Y-190211961D01*
X196881247Y-190688152D01*
X196774104Y-190783390D01*
X196571723Y-190878628D01*
X199166961Y-189164342D02*
X199440771Y-189259580D01*
X199524104Y-189354819D01*
X199595533Y-189545295D01*
X199559819Y-189831009D01*
X199440771Y-190021485D01*
X199333628Y-190116723D01*
X199131247Y-190211961D01*
X198369342Y-190211961D01*
X198619342Y-188211961D01*
X199286009Y-188211961D01*
X199464580Y-188307200D01*
X199547914Y-188402438D01*
X199619342Y-188592914D01*
X199595533Y-188783390D01*
X199476485Y-188973866D01*
X199369342Y-189069104D01*
X199166961Y-189164342D01*
X198500295Y-189164342D01*
X201226485Y-190211961D02*
X201357438Y-189164342D01*
X201286009Y-188973866D01*
X201107438Y-188878628D01*
X200726485Y-188878628D01*
X200524104Y-188973866D01*
X201238390Y-190116723D02*
X201036009Y-190211961D01*
X200559819Y-190211961D01*
X200381247Y-190116723D01*
X200309819Y-189926247D01*
X200333628Y-189735771D01*
X200452676Y-189545295D01*
X200655057Y-189450057D01*
X201131247Y-189450057D01*
X201333628Y-189354819D01*
X203036009Y-190211961D02*
X203286009Y-188211961D01*
X203047914Y-190116723D02*
X202845533Y-190211961D01*
X202464580Y-190211961D01*
X202286009Y-190116723D01*
X202202676Y-190021485D01*
X202131247Y-189831009D01*
X202202676Y-189259580D01*
X202321723Y-189069104D01*
X202428866Y-188973866D01*
X202631247Y-188878628D01*
X203012200Y-188878628D01*
X203190771Y-188973866D01*
X205012200Y-188878628D02*
X204809819Y-190497676D01*
X204690771Y-190688152D01*
X204583628Y-190783390D01*
X204381247Y-190878628D01*
X204095533Y-190878628D01*
X203916961Y-190783390D01*
X204857438Y-190116723D02*
X204655057Y-190211961D01*
X204274104Y-190211961D01*
X204095533Y-190116723D01*
X204012200Y-190021485D01*
X203940771Y-189831009D01*
X204012200Y-189259580D01*
X204131247Y-189069104D01*
X204238390Y-188973866D01*
X204440771Y-188878628D01*
X204821723Y-188878628D01*
X205000295Y-188973866D01*
X206571723Y-190116723D02*
X206369342Y-190211961D01*
X205988390Y-190211961D01*
X205809819Y-190116723D01*
X205738390Y-189926247D01*
X205833628Y-189164342D01*
X205952676Y-188973866D01*
X206155057Y-188878628D01*
X206536009Y-188878628D01*
X206714580Y-188973866D01*
X206786009Y-189164342D01*
X206762200Y-189354819D01*
X205786009Y-189545295D01*
D10*
D11*
X178934342Y-185600057D02*
X178434342Y-185600057D01*
X178434342Y-186385771D02*
X178434342Y-184885771D01*
X179148628Y-184885771D01*
X179720057Y-186385771D02*
X179720057Y-185385771D01*
X179720057Y-184885771D02*
X179648628Y-184957200D01*
X179720057Y-185028628D01*
X179791485Y-184957200D01*
X179720057Y-184885771D01*
X179720057Y-185028628D01*
X180648628Y-186385771D02*
X180505771Y-186314342D01*
X180434342Y-186171485D01*
X180434342Y-184885771D01*
X181791485Y-186314342D02*
X181648628Y-186385771D01*
X181362914Y-186385771D01*
X181220057Y-186314342D01*
X181148628Y-186171485D01*
X181148628Y-185600057D01*
X181220057Y-185457200D01*
X181362914Y-185385771D01*
X181648628Y-185385771D01*
X181791485Y-185457200D01*
X181862914Y-185600057D01*
X181862914Y-185742914D01*
X181148628Y-185885771D01*
X182505771Y-186242914D02*
X182577200Y-186314342D01*
X182505771Y-186385771D01*
X182434342Y-186314342D01*
X182505771Y-186242914D01*
X182505771Y-186385771D01*
X182505771Y-185457200D02*
X182577200Y-185528628D01*
X182505771Y-185600057D01*
X182434342Y-185528628D01*
X182505771Y-185457200D01*
X182505771Y-185600057D01*
X184362914Y-186385771D02*
X184362914Y-184885771D01*
X184862914Y-185957200D01*
X185362914Y-184885771D01*
X185362914Y-186385771D01*
X186291485Y-186385771D02*
X186148628Y-186314342D01*
X186077200Y-186242914D01*
X186005771Y-186100057D01*
X186005771Y-185671485D01*
X186077200Y-185528628D01*
X186148628Y-185457200D01*
X186291485Y-185385771D01*
X186505771Y-185385771D01*
X186648628Y-185457200D01*
X186720057Y-185528628D01*
X186791485Y-185671485D01*
X186791485Y-186100057D01*
X186720057Y-186242914D01*
X186648628Y-186314342D01*
X186505771Y-186385771D01*
X186291485Y-186385771D01*
X187434342Y-185385771D02*
X187434342Y-186385771D01*
X187434342Y-185528628D02*
X187505771Y-185457200D01*
X187648628Y-185385771D01*
X187862914Y-185385771D01*
X188005771Y-185457200D01*
X188077200Y-185600057D01*
X188077200Y-186385771D01*
X188791485Y-186385771D02*
X188791485Y-184885771D01*
X188934342Y-185814342D02*
X189362914Y-186385771D01*
X189362914Y-185385771D02*
X188791485Y-185957200D01*
X190577200Y-186314342D02*
X190434342Y-186385771D01*
X190148628Y-186385771D01*
X190005771Y-186314342D01*
X189934342Y-186171485D01*
X189934342Y-185600057D01*
X190005771Y-185457200D01*
X190148628Y-185385771D01*
X190434342Y-185385771D01*
X190577200Y-185457200D01*
X190648628Y-185600057D01*
X190648628Y-185742914D01*
X189934342Y-185885771D01*
X191148628Y-185385771D02*
X191505771Y-186385771D01*
X191862914Y-185385771D02*
X191505771Y-186385771D01*
X191362914Y-186742914D01*
X191291485Y-186814342D01*
X191148628Y-186885771D01*
X192362914Y-186314342D02*
X192505771Y-186385771D01*
X192791485Y-186385771D01*
X192934342Y-186314342D01*
X193005771Y-186171485D01*
X193005771Y-186100057D01*
X192934342Y-185957200D01*
X192791485Y-185885771D01*
X192577200Y-185885771D01*
X192434342Y-185814342D01*
X192362914Y-185671485D01*
X192362914Y-185600057D01*
X192434342Y-185457200D01*
X192577200Y-185385771D01*
X192791485Y-185385771D01*
X192934342Y-185457200D01*
X193648628Y-186242914D02*
X193720057Y-186314342D01*
X193648628Y-186385771D01*
X193577200Y-186314342D01*
X193648628Y-186242914D01*
X193648628Y-186385771D01*
X194362914Y-186385771D02*
X194362914Y-184885771D01*
X194505771Y-185814342D02*
X194934342Y-186385771D01*
X194934342Y-185385771D02*
X194362914Y-185957200D01*
X195577200Y-186385771D02*
X195577200Y-185385771D01*
X195577200Y-184885771D02*
X195505771Y-184957200D01*
X195577200Y-185028628D01*
X195648628Y-184957200D01*
X195577200Y-184885771D01*
X195577200Y-185028628D01*
X196934342Y-186314342D02*
X196791485Y-186385771D01*
X196505771Y-186385771D01*
X196362914Y-186314342D01*
X196291485Y-186242914D01*
X196220057Y-186100057D01*
X196220057Y-185671485D01*
X196291485Y-185528628D01*
X196362914Y-185457200D01*
X196505771Y-185385771D01*
X196791485Y-185385771D01*
X196934342Y-185457200D01*
X198220057Y-186385771D02*
X198220057Y-185600057D01*
X198148628Y-185457200D01*
X198005771Y-185385771D01*
X197720057Y-185385771D01*
X197577200Y-185457200D01*
X198220057Y-186314342D02*
X198077200Y-186385771D01*
X197720057Y-186385771D01*
X197577200Y-186314342D01*
X197505771Y-186171485D01*
X197505771Y-186028628D01*
X197577200Y-185885771D01*
X197720057Y-185814342D01*
X198077200Y-185814342D01*
X198220057Y-185742914D01*
X199577200Y-186385771D02*
X199577200Y-184885771D01*
X199577200Y-186314342D02*
X199434342Y-186385771D01*
X199148628Y-186385771D01*
X199005771Y-186314342D01*
X198934342Y-186242914D01*
X198862914Y-186100057D01*
X198862914Y-185671485D01*
X198934342Y-185528628D01*
X199005771Y-185457200D01*
X199148628Y-185385771D01*
X199434342Y-185385771D01*
X199577200Y-185457200D01*
X199934342Y-186528628D02*
X201077200Y-186528628D01*
X201434342Y-185385771D02*
X201434342Y-186885771D01*
X201434342Y-185457200D02*
X201577200Y-185385771D01*
X201862914Y-185385771D01*
X202005771Y-185457200D01*
X202077200Y-185528628D01*
X202148628Y-185671485D01*
X202148628Y-186100057D01*
X202077200Y-186242914D01*
X202005771Y-186314342D01*
X201862914Y-186385771D01*
X201577200Y-186385771D01*
X201434342Y-186314342D01*
X203434342Y-186314342D02*
X203291485Y-186385771D01*
X203005771Y-186385771D01*
X202862914Y-186314342D01*
X202791485Y-186242914D01*
X202720057Y-186100057D01*
X202720057Y-185671485D01*
X202791485Y-185528628D01*
X202862914Y-185457200D01*
X203005771Y-185385771D01*
X203291485Y-185385771D01*
X203434342Y-185457200D01*
X204077200Y-186385771D02*
X204077200Y-184885771D01*
X204077200Y-185457200D02*
X204220057Y-185385771D01*
X204505771Y-185385771D01*
X204648628Y-185457200D01*
X204720057Y-185528628D01*
X204791485Y-185671485D01*
X204791485Y-186100057D01*
X204720057Y-186242914D01*
X204648628Y-186314342D01*
X204505771Y-186385771D01*
X204220057Y-186385771D01*
X204077200Y-186314342D01*
D10*
D11*
X177002200Y-181507200D02*
X285002200Y-181507200D01*
D10*
D11*
X178362914Y-183614342D02*
X178577200Y-183685771D01*
X178934342Y-183685771D01*
X179077200Y-183614342D01*
X179148628Y-183542914D01*
X179220057Y-183400057D01*
X179220057Y-183257200D01*
X179148628Y-183114342D01*
X179077200Y-183042914D01*
X178934342Y-182971485D01*
X178648628Y-182900057D01*
X178505771Y-182828628D01*
X178434342Y-182757200D01*
X178362914Y-182614342D01*
X178362914Y-182471485D01*
X178434342Y-182328628D01*
X178505771Y-182257200D01*
X178648628Y-182185771D01*
X179005771Y-182185771D01*
X179220057Y-182257200D01*
X179862914Y-183685771D02*
X179862914Y-182185771D01*
X180505771Y-183685771D02*
X180505771Y-182900057D01*
X180434342Y-182757200D01*
X180291485Y-182685771D01*
X180077200Y-182685771D01*
X179934342Y-182757200D01*
X179862914Y-182828628D01*
X181791485Y-183614342D02*
X181648628Y-183685771D01*
X181362914Y-183685771D01*
X181220057Y-183614342D01*
X181148628Y-183471485D01*
X181148628Y-182900057D01*
X181220057Y-182757200D01*
X181362914Y-182685771D01*
X181648628Y-182685771D01*
X181791485Y-182757200D01*
X181862914Y-182900057D01*
X181862914Y-183042914D01*
X181148628Y-183185771D01*
X183077200Y-183614342D02*
X182934342Y-183685771D01*
X182648628Y-183685771D01*
X182505771Y-183614342D01*
X182434342Y-183471485D01*
X182434342Y-182900057D01*
X182505771Y-182757200D01*
X182648628Y-182685771D01*
X182934342Y-182685771D01*
X183077200Y-182757200D01*
X183148628Y-182900057D01*
X183148628Y-183042914D01*
X182434342Y-183185771D01*
X183577200Y-182685771D02*
X184148628Y-182685771D01*
X183791485Y-182185771D02*
X183791485Y-183471485D01*
X183862914Y-183614342D01*
X184005771Y-183685771D01*
X184148628Y-183685771D01*
X184648628Y-183542914D02*
X184720057Y-183614342D01*
X184648628Y-183685771D01*
X184577200Y-183614342D01*
X184648628Y-183542914D01*
X184648628Y-183685771D01*
X184648628Y-182757200D02*
X184720057Y-182828628D01*
X184648628Y-182900057D01*
X184577200Y-182828628D01*
X184648628Y-182757200D01*
X184648628Y-182900057D01*
D10*
D12*
X178554342Y-180685771D02*
X178554342Y-179185771D01*
X179125771Y-179185771D01*
X179268628Y-179257200D01*
X179340057Y-179328628D01*
X179411485Y-179471485D01*
X179411485Y-179685771D01*
X179340057Y-179828628D01*
X179268628Y-179900057D01*
X179125771Y-179971485D01*
X178554342Y-179971485D01*
X180697200Y-180685771D02*
X180697200Y-179900057D01*
X180625771Y-179757200D01*
X180482914Y-179685771D01*
X180197200Y-179685771D01*
X180054342Y-179757200D01*
X180697200Y-180614342D02*
X180554342Y-180685771D01*
X180197200Y-180685771D01*
X180054342Y-180614342D01*
X179982914Y-180471485D01*
X179982914Y-180328628D01*
X180054342Y-180185771D01*
X180197200Y-180114342D01*
X180554342Y-180114342D01*
X180697200Y-180042914D01*
X182054342Y-180614342D02*
X181911485Y-180685771D01*
X181625771Y-180685771D01*
X181482914Y-180614342D01*
X181411485Y-180542914D01*
X181340057Y-180400057D01*
X181340057Y-179971485D01*
X181411485Y-179828628D01*
X181482914Y-179757200D01*
X181625771Y-179685771D01*
X181911485Y-179685771D01*
X182054342Y-179757200D01*
X182697200Y-180685771D02*
X182697200Y-179185771D01*
X182840057Y-180114342D02*
X183268628Y-180685771D01*
X183268628Y-179685771D02*
X182697200Y-180257200D01*
X184482914Y-180614342D02*
X184340057Y-180685771D01*
X184054342Y-180685771D01*
X183911485Y-180614342D01*
X183840057Y-180471485D01*
X183840057Y-179900057D01*
X183911485Y-179757200D01*
X184054342Y-179685771D01*
X184340057Y-179685771D01*
X184482914Y-179757200D01*
X184554342Y-179900057D01*
X184554342Y-180042914D01*
X183840057Y-180185771D01*
X184982914Y-179685771D02*
X185554342Y-179685771D01*
X185197200Y-179185771D02*
X185197200Y-180471485D01*
X185268628Y-180614342D01*
X185411485Y-180685771D01*
X185554342Y-180685771D01*
X186911485Y-180542914D02*
X186840057Y-180614342D01*
X186625771Y-180685771D01*
X186482914Y-180685771D01*
X186268628Y-180614342D01*
X186125771Y-180471485D01*
X186054342Y-180328628D01*
X185982914Y-180042914D01*
X185982914Y-179828628D01*
X186054342Y-179542914D01*
X186125771Y-179400057D01*
X186268628Y-179257200D01*
X186482914Y-179185771D01*
X186625771Y-179185771D01*
X186840057Y-179257200D01*
X186911485Y-179328628D01*
X187554342Y-180685771D02*
X187554342Y-179185771D01*
X188197200Y-180685771D02*
X188197200Y-179900057D01*
X188125771Y-179757200D01*
X187982914Y-179685771D01*
X187768628Y-179685771D01*
X187625771Y-179757200D01*
X187554342Y-179828628D01*
X189554342Y-180685771D02*
X189554342Y-179900057D01*
X189482914Y-179757200D01*
X189340057Y-179685771D01*
X189054342Y-179685771D01*
X188911485Y-179757200D01*
X189554342Y-180614342D02*
X189411485Y-180685771D01*
X189054342Y-180685771D01*
X188911485Y-180614342D01*
X188840057Y-180471485D01*
X188840057Y-180328628D01*
X188911485Y-180185771D01*
X189054342Y-180114342D01*
X189411485Y-180114342D01*
X189554342Y-180042914D01*
X190054342Y-179685771D02*
X190625771Y-179685771D01*
X190268628Y-179185771D02*
X190268628Y-180471485D01*
X190340057Y-180614342D01*
X190482914Y-180685771D01*
X190625771Y-180685771D01*
D10*
D11*
X179291485Y-177542914D02*
X179220057Y-177614342D01*
X179005771Y-177685771D01*
X178862914Y-177685771D01*
X178648628Y-177614342D01*
X178505771Y-177471485D01*
X178434342Y-177328628D01*
X178362914Y-177042914D01*
X178362914Y-176828628D01*
X178434342Y-176542914D01*
X178505771Y-176400057D01*
X178648628Y-176257200D01*
X178862914Y-176185771D01*
X179005771Y-176185771D01*
X179220057Y-176257200D01*
X179291485Y-176328628D01*
X180148628Y-177685771D02*
X180005771Y-177614342D01*
X179934342Y-177542914D01*
X179862914Y-177400057D01*
X179862914Y-176971485D01*
X179934342Y-176828628D01*
X180005771Y-176757200D01*
X180148628Y-176685771D01*
X180362914Y-176685771D01*
X180505771Y-176757200D01*
X180577200Y-176828628D01*
X180648628Y-176971485D01*
X180648628Y-177400057D01*
X180577200Y-177542914D01*
X180505771Y-177614342D01*
X180362914Y-177685771D01*
X180148628Y-177685771D01*
X181291485Y-176685771D02*
X181291485Y-178185771D01*
X181291485Y-176757200D02*
X181434342Y-176685771D01*
X181720057Y-176685771D01*
X181862914Y-176757200D01*
X181934342Y-176828628D01*
X182005771Y-176971485D01*
X182005771Y-177400057D01*
X181934342Y-177542914D01*
X181862914Y-177614342D01*
X181720057Y-177685771D01*
X181434342Y-177685771D01*
X181291485Y-177614342D01*
X182505771Y-176685771D02*
X182862914Y-177685771D01*
X183220057Y-176685771D02*
X182862914Y-177685771D01*
X182720057Y-178042914D01*
X182648628Y-178114342D01*
X182505771Y-178185771D01*
X183791485Y-177685771D02*
X183791485Y-176685771D01*
X183791485Y-176971485D02*
X183862914Y-176828628D01*
X183934342Y-176757200D01*
X184077200Y-176685771D01*
X184220057Y-176685771D01*
X184720057Y-177685771D02*
X184720057Y-176685771D01*
X184720057Y-176185771D02*
X184648628Y-176257200D01*
X184720057Y-176328628D01*
X184791485Y-176257200D01*
X184720057Y-176185771D01*
X184720057Y-176328628D01*
X186077200Y-176685771D02*
X186077200Y-177900057D01*
X186005771Y-178042914D01*
X185934342Y-178114342D01*
X185791485Y-178185771D01*
X185577200Y-178185771D01*
X185434342Y-178114342D01*
X186077200Y-177614342D02*
X185934342Y-177685771D01*
X185648628Y-177685771D01*
X185505771Y-177614342D01*
X185434342Y-177542914D01*
X185362914Y-177400057D01*
X185362914Y-176971485D01*
X185434342Y-176828628D01*
X185505771Y-176757200D01*
X185648628Y-176685771D01*
X185934342Y-176685771D01*
X186077200Y-176757200D01*
X186791485Y-177685771D02*
X186791485Y-176185771D01*
X187434342Y-177685771D02*
X187434342Y-176900057D01*
X187362914Y-176757200D01*
X187220057Y-176685771D01*
X187005771Y-176685771D01*
X186862914Y-176757200D01*
X186791485Y-176828628D01*
X187934342Y-176685771D02*
X188505771Y-176685771D01*
X188148628Y-176185771D02*
X188148628Y-177471485D01*
X188220057Y-177614342D01*
X188362914Y-177685771D01*
X188505771Y-177685771D01*
X190077200Y-176328628D02*
X190148628Y-176257200D01*
X190291485Y-176185771D01*
X190648628Y-176185771D01*
X190791485Y-176257200D01*
X190862914Y-176328628D01*
X190934342Y-176471485D01*
X190934342Y-176614342D01*
X190862914Y-176828628D01*
X190005771Y-177685771D01*
X190934342Y-177685771D01*
X191862914Y-176185771D02*
X192005771Y-176185771D01*
X192148628Y-176257200D01*
X192220057Y-176328628D01*
X192291485Y-176471485D01*
X192362914Y-176757200D01*
X192362914Y-177114342D01*
X192291485Y-177400057D01*
X192220057Y-177542914D01*
X192148628Y-177614342D01*
X192005771Y-177685771D01*
X191862914Y-177685771D01*
X191720057Y-177614342D01*
X191648628Y-177542914D01*
X191577200Y-177400057D01*
X191505771Y-177114342D01*
X191505771Y-176757200D01*
X191577200Y-176471485D01*
X191648628Y-176328628D01*
X191720057Y-176257200D01*
X191862914Y-176185771D01*
X192934342Y-176328628D02*
X193005771Y-176257200D01*
X193148628Y-176185771D01*
X193505771Y-176185771D01*
X193648628Y-176257200D01*
X193720057Y-176328628D01*
X193791485Y-176471485D01*
X193791485Y-176614342D01*
X193720057Y-176828628D01*
X192862914Y-177685771D01*
X193791485Y-177685771D01*
X194362914Y-176328628D02*
X194434342Y-176257200D01*
X194577200Y-176185771D01*
X194934342Y-176185771D01*
X195077200Y-176257200D01*
X195148628Y-176328628D01*
X195220057Y-176471485D01*
X195220057Y-176614342D01*
X195148628Y-176828628D01*
X194291485Y-177685771D01*
X195220057Y-177685771D01*
X197005771Y-177685771D02*
X197005771Y-176185771D01*
X197577200Y-176185771D01*
X197720057Y-176257200D01*
X197791485Y-176328628D01*
X197862914Y-176471485D01*
X197862914Y-176685771D01*
X197791485Y-176828628D01*
X197720057Y-176900057D01*
X197577200Y-176971485D01*
X197005771Y-176971485D01*
X199148628Y-177685771D02*
X199148628Y-176900057D01*
X199077200Y-176757200D01*
X198934342Y-176685771D01*
X198648628Y-176685771D01*
X198505771Y-176757200D01*
X199148628Y-177614342D02*
X199005771Y-177685771D01*
X198648628Y-177685771D01*
X198505771Y-177614342D01*
X198434342Y-177471485D01*
X198434342Y-177328628D01*
X198505771Y-177185771D01*
X198648628Y-177114342D01*
X199005771Y-177114342D01*
X199148628Y-177042914D01*
X200505771Y-177614342D02*
X200362914Y-177685771D01*
X200077200Y-177685771D01*
X199934342Y-177614342D01*
X199862914Y-177542914D01*
X199791485Y-177400057D01*
X199791485Y-176971485D01*
X199862914Y-176828628D01*
X199934342Y-176757200D01*
X200077200Y-176685771D01*
X200362914Y-176685771D01*
X200505771Y-176757200D01*
X201148628Y-177685771D02*
X201148628Y-176185771D01*
X201291485Y-177114342D02*
X201720057Y-177685771D01*
X201720057Y-176685771D02*
X201148628Y-177257200D01*
X202934342Y-177614342D02*
X202791485Y-177685771D01*
X202505771Y-177685771D01*
X202362914Y-177614342D01*
X202291485Y-177471485D01*
X202291485Y-176900057D01*
X202362914Y-176757200D01*
X202505771Y-176685771D01*
X202791485Y-176685771D01*
X202934342Y-176757200D01*
X203005771Y-176900057D01*
X203005771Y-177042914D01*
X202291485Y-177185771D01*
X203434342Y-176685771D02*
X204005771Y-176685771D01*
X203648628Y-176185771D02*
X203648628Y-177471485D01*
X203720057Y-177614342D01*
X203862914Y-177685771D01*
X204005771Y-177685771D01*
X205362914Y-177542914D02*
X205291485Y-177614342D01*
X205077200Y-177685771D01*
X204934342Y-177685771D01*
X204720057Y-177614342D01*
X204577200Y-177471485D01*
X204505771Y-177328628D01*
X204434342Y-177042914D01*
X204434342Y-176828628D01*
X204505771Y-176542914D01*
X204577200Y-176400057D01*
X204720057Y-176257200D01*
X204934342Y-176185771D01*
X205077200Y-176185771D01*
X205291485Y-176257200D01*
X205362914Y-176328628D01*
X206005771Y-177685771D02*
X206005771Y-176185771D01*
X206648628Y-177685771D02*
X206648628Y-176900057D01*
X206577200Y-176757200D01*
X206434342Y-176685771D01*
X206220057Y-176685771D01*
X206077200Y-176757200D01*
X206005771Y-176828628D01*
X208005771Y-177685771D02*
X208005771Y-176900057D01*
X207934342Y-176757200D01*
X207791485Y-176685771D01*
X207505771Y-176685771D01*
X207362914Y-176757200D01*
X208005771Y-177614342D02*
X207862914Y-177685771D01*
X207505771Y-177685771D01*
X207362914Y-177614342D01*
X207291485Y-177471485D01*
X207291485Y-177328628D01*
X207362914Y-177185771D01*
X207505771Y-177114342D01*
X207862914Y-177114342D01*
X208005771Y-177042914D01*
X208505771Y-176685771D02*
X209077200Y-176685771D01*
X208720057Y-176185771D02*
X208720057Y-177471485D01*
X208791485Y-177614342D01*
X208934342Y-177685771D01*
X209077200Y-177685771D01*
D10*
D11*
D10*
D11*
D10*
D11*
D10*
D11*
X197002200Y-191507200D02*
X197002200Y-194507200D01*
D10*
D11*
X261002200Y-191507200D02*
X261002200Y-198007200D01*
D14*
%TO.C,LCD1*%
X145374000Y-106420000D03*
D15*
X147914000Y-106420000D03*
X150454000Y-106420000D03*
X152994000Y-106420000D03*
%TD*%
D16*
%TO.C,H1*%
X90599400Y-64476800D03*
%TD*%
D17*
%TO.C,SW5*%
X103545000Y-66255000D03*
X106545000Y-66255000D03*
%TD*%
D14*
%TO.C,J2*%
X137070000Y-75540000D03*
D15*
X139610000Y-75540000D03*
X142150000Y-75540000D03*
%TD*%
D16*
%TO.C,H2*%
X210741400Y-64349800D03*
%TD*%
D14*
%TO.C,TP1*%
X205534400Y-65950000D03*
%TD*%
D15*
%TO.C,SAO2*%
X194729000Y-93081400D03*
D14*
X194729000Y-95621400D03*
D15*
X199809000Y-93081400D03*
X199809000Y-95621400D03*
X197269000Y-95621400D03*
X197269000Y-93081400D03*
%TD*%
%TO.C,SAO1*%
X100530800Y-91847200D03*
D14*
X100530800Y-94387200D03*
D15*
X105610800Y-91847200D03*
X105610800Y-94387200D03*
X103070800Y-94387200D03*
X103070800Y-91847200D03*
%TD*%
D18*
%TO.C,J1*%
X134210000Y-79060000D03*
D19*
X135480000Y-79060000D03*
X134210000Y-80330000D03*
X135480000Y-80330000D03*
X134210000Y-81600000D03*
X135480000Y-81600000D03*
X134210000Y-82870000D03*
X135480000Y-82870000D03*
X134210000Y-84140000D03*
X135480000Y-84140000D03*
%TD*%
D20*
%TO.C,U6*%
X160575000Y-98400000D03*
X159305000Y-98400000D03*
X158035000Y-98400000D03*
X156765000Y-98400000D03*
X155495000Y-98400000D03*
X154225000Y-98400000D03*
X152955000Y-98400000D03*
X151685000Y-98400000D03*
X150415000Y-98400000D03*
X149145000Y-98400000D03*
X147875000Y-98400000D03*
X146605000Y-98400000D03*
X145335000Y-98400000D03*
X144065000Y-98400000D03*
D21*
X143065000Y-95615000D03*
X143065000Y-94345000D03*
X143065000Y-93075000D03*
X143065000Y-91805000D03*
X143065000Y-90535000D03*
X143065000Y-89265000D03*
X143065000Y-87995000D03*
X143065000Y-86725000D03*
X143065000Y-85455000D03*
X143065000Y-84185000D03*
D20*
X144065000Y-81400000D03*
X145335000Y-81400000D03*
X146605000Y-81400000D03*
X147875000Y-81400000D03*
X149145000Y-81400000D03*
X150415000Y-81400000D03*
X151685000Y-81400000D03*
X152955000Y-81400000D03*
X154225000Y-81400000D03*
X155495000Y-81400000D03*
X156765000Y-81400000D03*
X158035000Y-81400000D03*
X159305000Y-81400000D03*
X160575000Y-81400000D03*
D22*
X153075000Y-90900000D03*
%TD*%
D23*
%TO.C,JP13*%
X140903239Y-103370761D03*
D24*
X139984000Y-104290000D03*
D25*
X139064761Y-105209239D03*
%TD*%
D26*
%TO.C,R35*%
X119550000Y-71310000D03*
D27*
X118250000Y-71310000D03*
%TD*%
D28*
%TO.C,J5*%
X94054441Y-89959514D03*
X93542234Y-89559334D03*
X93030027Y-89159154D03*
X92517820Y-88758974D03*
X92005613Y-88358794D03*
D29*
X95000054Y-90698308D03*
X91060000Y-87620000D03*
D30*
X93820424Y-93203029D03*
D31*
X94125779Y-93441598D03*
D32*
X92155752Y-91902444D03*
X90579730Y-90671122D03*
D30*
X88915058Y-89370537D03*
D31*
X88609703Y-89131968D03*
%TD*%
D33*
%TO.C,JP10*%
X205420000Y-75348000D03*
D34*
X206720000Y-75348000D03*
D35*
X208020000Y-75348000D03*
%TD*%
D36*
%TO.C,JP5*%
X217720000Y-67850000D03*
D34*
X216420000Y-67850000D03*
D37*
X215120000Y-67850000D03*
%TD*%
D38*
%TO.C,JP12*%
X137245522Y-103358478D03*
D39*
X138164761Y-102439239D03*
D40*
X139084000Y-101520000D03*
%TD*%
D41*
%TO.C,U3*%
X126460000Y-96510000D03*
X126460000Y-95240000D03*
X126460000Y-93970000D03*
X126460000Y-92700000D03*
X126460000Y-91430000D03*
X126460000Y-90160000D03*
X126460000Y-88890000D03*
X126460000Y-87620000D03*
X131410000Y-87620000D03*
X131410000Y-88890000D03*
X131410000Y-90160000D03*
X131410000Y-91430000D03*
X131410000Y-92700000D03*
X131410000Y-93970000D03*
X131410000Y-95240000D03*
X131410000Y-96510000D03*
%TD*%
D42*
%TO.C,BT1*%
X121780000Y-64540000D03*
D43*
X177780000Y-64540000D03*
%TD*%
D36*
%TO.C,JP15*%
X153744000Y-103770000D03*
D34*
X152444000Y-103770000D03*
D37*
X151144000Y-103770000D03*
%TD*%
D44*
%TO.C,JP7*%
X214330000Y-65300000D03*
D45*
X215630000Y-65300000D03*
%TD*%
D33*
%TO.C,JP3*%
X210436600Y-67942500D03*
D34*
X211736600Y-67942500D03*
D35*
X213036600Y-67942500D03*
%TD*%
D46*
%TO.C,JP1*%
X156700000Y-101180000D03*
D47*
X156700000Y-102480000D03*
%TD*%
D26*
%TO.C,R32*%
X119520000Y-64230000D03*
D27*
X118220000Y-64230000D03*
%TD*%
D14*
%TO.C,J3*%
X97160000Y-64150000D03*
D15*
X99700000Y-64150000D03*
%TD*%
D36*
%TO.C,JP6*%
X216029200Y-80961400D03*
D34*
X214729200Y-80961400D03*
D37*
X213429200Y-80961400D03*
%TD*%
D33*
%TO.C,JP9*%
X205460000Y-71970000D03*
D34*
X206760000Y-71970000D03*
D35*
X208060000Y-71970000D03*
%TD*%
D33*
%TO.C,JP4*%
X208785600Y-80961400D03*
D34*
X210085600Y-80961400D03*
D35*
X211385600Y-80961400D03*
%TD*%
D48*
%TO.C,J4*%
X219955000Y-74300000D03*
X212955000Y-74300000D03*
D49*
X215355000Y-71050000D03*
X218355000Y-71050000D03*
X210255000Y-77550000D03*
X211355000Y-71050000D03*
%TD*%
D33*
%TO.C,JP14*%
X146494000Y-103760000D03*
D34*
X147794000Y-103760000D03*
D35*
X149094000Y-103760000D03*
%TD*%
D50*
X159320000Y-99800000D03*
X198860000Y-66353012D03*
X197569434Y-66662487D03*
X119092704Y-76376798D03*
X108420000Y-79640000D03*
X131424000Y-98270000D03*
X180331183Y-80805500D03*
X197480000Y-70340000D03*
X97982292Y-69413218D03*
X118097440Y-78952342D03*
X199088172Y-64904011D03*
X119453573Y-80283876D03*
X179790000Y-77940000D03*
X105000000Y-77610000D03*
X157370000Y-86122448D03*
X112129013Y-79627481D03*
X98320000Y-91800000D03*
X189120000Y-94650000D03*
X180860000Y-73310000D03*
X146613167Y-77161431D03*
X174096493Y-83566204D03*
X96940000Y-75790000D03*
X92846574Y-69840585D03*
X154120000Y-84990000D03*
X186250000Y-67470000D03*
X103994986Y-85947626D03*
X155140000Y-96200000D03*
X128970000Y-95160000D03*
X111920000Y-89600000D03*
X108450500Y-82945246D03*
X116450000Y-67340000D03*
X115991953Y-87637480D03*
X123590000Y-86390000D03*
X153250000Y-90330000D03*
X135930165Y-100180351D03*
X84710000Y-65560000D03*
X132940000Y-66180000D03*
X147340000Y-86000000D03*
X94560000Y-86760000D03*
X134530000Y-63850000D03*
X200180000Y-90150000D03*
X144448922Y-95806483D03*
X142420000Y-99710000D03*
X102590000Y-66900000D03*
X123930000Y-63860000D03*
X133300000Y-90170000D03*
X128920000Y-80500000D03*
X112368291Y-77569500D03*
X185030000Y-71370000D03*
X112469605Y-68334500D03*
X121727688Y-91282313D03*
X156720000Y-74820000D03*
X107120000Y-87900000D03*
X179120000Y-87000000D03*
X132940000Y-74060000D03*
X155230000Y-102760000D03*
X134470000Y-95180000D03*
X188469001Y-83500000D03*
X160820000Y-100400000D03*
X183436400Y-78497600D03*
X96310000Y-68850000D03*
X146510000Y-83320000D03*
X84960000Y-67040000D03*
X99523951Y-86506407D03*
X159850000Y-93090000D03*
X111040053Y-86912538D03*
X130230000Y-99380000D03*
X181680000Y-74990000D03*
X178255111Y-83895500D03*
X189227600Y-91426200D03*
X146546537Y-95690956D03*
X117010000Y-84150000D03*
X107868989Y-77569500D03*
X205690000Y-83120000D03*
X157440000Y-88680000D03*
X115650000Y-73820000D03*
X159312173Y-79678435D03*
X177420000Y-79660000D03*
X98734568Y-90299500D03*
X90191513Y-67744867D03*
X118763001Y-81006452D03*
X147730000Y-64190000D03*
X102559706Y-86388063D03*
X145680000Y-101439500D03*
X184420000Y-91600000D03*
X107660000Y-67070000D03*
X101037632Y-87132230D03*
X161340000Y-65110000D03*
X191100000Y-87220000D03*
X176658696Y-85368075D03*
X146600000Y-79060000D03*
X102610000Y-64690000D03*
X138520000Y-78200000D03*
X89790000Y-75840000D03*
X189320000Y-80300000D03*
X122190000Y-77700000D03*
X150120000Y-67870000D03*
X206580000Y-93380000D03*
X133570000Y-97680000D03*
X105113771Y-87122720D03*
X112734501Y-75754442D03*
X175156000Y-90334000D03*
X182920000Y-85700000D03*
X83790000Y-81770000D03*
X98720000Y-94200000D03*
X105920000Y-78600000D03*
X200140000Y-85370000D03*
X215030000Y-86370000D03*
X184276590Y-63548812D03*
X198320000Y-78300000D03*
X115801963Y-82028700D03*
X196080133Y-84995534D03*
X124670000Y-67100000D03*
X148430000Y-92020000D03*
X152880000Y-94150000D03*
X110915484Y-73540500D03*
X103281288Y-77746529D03*
X201460000Y-72850000D03*
X210085600Y-80961400D03*
X197575560Y-67661971D03*
X152520000Y-101970989D03*
X200260500Y-71555739D03*
X151120000Y-101524500D03*
X211736600Y-67942500D03*
X197544674Y-68660997D03*
X193754571Y-76350499D03*
X101490097Y-85262767D03*
X194350000Y-90732877D03*
X177510000Y-70490000D03*
X216950000Y-65945500D03*
X185697000Y-74078000D03*
X109540000Y-75830000D03*
X188999000Y-77202200D03*
X111020000Y-66090000D03*
X193670000Y-87970000D03*
X103802786Y-87848187D03*
X114780000Y-64140000D03*
X101750000Y-74060000D03*
X120624474Y-90807919D03*
X97543781Y-94998768D03*
X104620000Y-81700000D03*
X95986032Y-92599500D03*
X215294694Y-82714168D03*
X215651978Y-77214532D03*
X214420000Y-65400000D03*
X217393418Y-75325207D03*
X217700000Y-67920000D03*
X154220000Y-100700000D03*
X113840000Y-67600000D03*
X142750000Y-81790000D03*
X120400000Y-72810000D03*
X100674487Y-90399011D03*
X145276462Y-93495189D03*
X137630000Y-90030000D03*
X86510000Y-86270000D03*
X123616826Y-90649025D03*
X117867888Y-88042053D03*
X155320000Y-78060000D03*
X152930377Y-99968340D03*
X156282421Y-78540592D03*
X151060000Y-73360000D03*
X182060000Y-81260000D03*
X157670000Y-83110000D03*
X175900000Y-71580000D03*
X201036479Y-66428050D03*
X201211210Y-63845500D03*
X175850000Y-74644011D03*
X157390000Y-78280000D03*
X161440480Y-76891859D03*
X200302372Y-65749748D03*
X200180000Y-63845500D03*
X174470000Y-72160000D03*
X154060490Y-80136496D03*
X183240000Y-81140000D03*
X150422485Y-83389980D03*
X98403341Y-72877939D03*
X99470000Y-68790000D03*
X113867011Y-72850000D03*
X110690000Y-72390000D03*
X149140860Y-96461459D03*
X144460000Y-70840000D03*
X151570000Y-75450000D03*
X151572198Y-79828929D03*
X144450000Y-67380000D03*
X174094500Y-80593916D03*
X148140000Y-67810000D03*
X145950000Y-71590000D03*
X174094483Y-82566704D03*
X150329166Y-74764500D03*
X148593002Y-79575408D03*
X202750000Y-95750000D03*
X161800000Y-88950000D03*
X155370000Y-100600000D03*
X141980000Y-97130000D03*
X137604058Y-98977057D03*
X141944500Y-82898000D03*
X101389500Y-75980000D03*
X104994446Y-85978774D03*
X100950717Y-86104239D03*
X143914000Y-100494000D03*
X207570000Y-77430000D03*
X151763606Y-96853606D03*
X150664616Y-96927998D03*
X158398748Y-76596530D03*
X156705500Y-95790000D03*
X121300000Y-71610000D03*
X161394500Y-79858629D03*
X128110000Y-96510000D03*
X144665886Y-91607416D03*
X144825046Y-85644651D03*
X146115090Y-91415813D03*
X145954000Y-94230000D03*
X156700000Y-101180000D03*
X136485910Y-91394500D03*
X158035000Y-100128968D03*
X137379166Y-99950931D03*
X158200000Y-96080000D03*
X120730000Y-81780000D03*
X120279547Y-82672243D03*
X132140000Y-85558436D03*
X130946919Y-85726919D03*
X133496911Y-91394500D03*
X134980000Y-94050000D03*
X129780000Y-93960000D03*
X194710000Y-68530000D03*
X202019450Y-70620763D03*
X198151240Y-71667384D03*
X219870000Y-79790000D03*
X194370000Y-71600000D03*
X189770000Y-66010000D03*
X216500000Y-78410000D03*
X213310000Y-72001468D03*
X191680000Y-70070000D03*
X211200000Y-75070000D03*
X202839824Y-72461248D03*
X207390000Y-70590000D03*
X216650000Y-70790000D03*
X212640332Y-81989668D03*
X217270000Y-82280000D03*
X220220000Y-70900000D03*
X195940000Y-65530000D03*
X211740000Y-78710000D03*
X209370000Y-70330000D03*
X190120000Y-71620000D03*
X210790000Y-82610000D03*
X200286336Y-68054961D03*
X138164761Y-102439239D03*
X139998250Y-104275750D03*
X124214000Y-92820000D03*
X107245000Y-68255000D03*
X108160000Y-74620000D03*
X126748280Y-85982878D03*
X125859819Y-86440747D03*
X153744000Y-103770000D03*
X149355500Y-84684500D03*
X150080000Y-88050000D03*
X149094000Y-103760000D03*
X151144000Y-103770000D03*
X146494000Y-103760000D03*
X147050000Y-101290000D03*
X159340000Y-83070000D03*
X147290000Y-89790000D03*
X148584000Y-101280000D03*
X148590000Y-86140000D03*
X147998500Y-96013038D03*
X121870000Y-67190000D03*
X119630000Y-66000000D03*
X107430000Y-65300000D03*
X114319500Y-69310000D03*
X95760000Y-70030000D03*
X95810000Y-66960000D03*
X160990975Y-75992544D03*
X161440480Y-78500000D03*
X192590000Y-80980000D03*
X173920000Y-84550000D03*
X187160000Y-81730000D03*
X187020000Y-83800000D03*
X134934500Y-85108926D03*
X144394476Y-96849229D03*
X136140998Y-99202710D03*
M02*
